G75*
%MOIN*%
%OFA0B0*%
%FSLAX25Y25*%
%IPPOS*%
%LPD*%
%AMOC8*
5,1,8,0,0,1.08239X$1,22.5*
%
%ADD10C,0.00000*%
%ADD11R,0.18510X0.08274*%
%ADD12R,0.20085X0.08274*%
%ADD13C,0.06306*%
%ADD14R,0.06900X0.06900*%
%ADD15C,0.06900*%
%ADD16C,0.01100*%
%ADD17C,0.12998*%
%ADD18R,0.06400X0.06400*%
%ADD19C,0.06400*%
%ADD20C,0.05550*%
%ADD21R,0.05550X0.05550*%
%ADD22R,0.05900X0.05900*%
%ADD23C,0.19298*%
%ADD24R,0.07400X0.05400*%
%ADD25OC8,0.05943*%
%ADD26C,0.05943*%
%ADD27C,0.05715*%
%ADD28R,0.05715X0.05715*%
D10*
X0048837Y0076492D02*
X0048837Y0273343D01*
X0344113Y0273343D01*
X0344113Y0076492D01*
X0048837Y0076492D01*
X0058286Y0092240D02*
X0058288Y0092398D01*
X0058294Y0092556D01*
X0058304Y0092714D01*
X0058318Y0092872D01*
X0058336Y0093029D01*
X0058357Y0093186D01*
X0058383Y0093342D01*
X0058413Y0093498D01*
X0058446Y0093653D01*
X0058484Y0093806D01*
X0058525Y0093959D01*
X0058570Y0094111D01*
X0058619Y0094262D01*
X0058672Y0094411D01*
X0058728Y0094559D01*
X0058788Y0094705D01*
X0058852Y0094850D01*
X0058920Y0094993D01*
X0058991Y0095135D01*
X0059065Y0095275D01*
X0059143Y0095412D01*
X0059225Y0095548D01*
X0059309Y0095682D01*
X0059398Y0095813D01*
X0059489Y0095942D01*
X0059584Y0096069D01*
X0059681Y0096194D01*
X0059782Y0096316D01*
X0059886Y0096435D01*
X0059993Y0096552D01*
X0060103Y0096666D01*
X0060216Y0096777D01*
X0060331Y0096886D01*
X0060449Y0096991D01*
X0060570Y0097093D01*
X0060693Y0097193D01*
X0060819Y0097289D01*
X0060947Y0097382D01*
X0061077Y0097472D01*
X0061210Y0097558D01*
X0061345Y0097642D01*
X0061481Y0097721D01*
X0061620Y0097798D01*
X0061761Y0097870D01*
X0061903Y0097940D01*
X0062047Y0098005D01*
X0062193Y0098067D01*
X0062340Y0098125D01*
X0062489Y0098180D01*
X0062639Y0098231D01*
X0062790Y0098278D01*
X0062942Y0098321D01*
X0063095Y0098360D01*
X0063250Y0098396D01*
X0063405Y0098427D01*
X0063561Y0098455D01*
X0063717Y0098479D01*
X0063874Y0098499D01*
X0064032Y0098515D01*
X0064189Y0098527D01*
X0064348Y0098535D01*
X0064506Y0098539D01*
X0064664Y0098539D01*
X0064822Y0098535D01*
X0064981Y0098527D01*
X0065138Y0098515D01*
X0065296Y0098499D01*
X0065453Y0098479D01*
X0065609Y0098455D01*
X0065765Y0098427D01*
X0065920Y0098396D01*
X0066075Y0098360D01*
X0066228Y0098321D01*
X0066380Y0098278D01*
X0066531Y0098231D01*
X0066681Y0098180D01*
X0066830Y0098125D01*
X0066977Y0098067D01*
X0067123Y0098005D01*
X0067267Y0097940D01*
X0067409Y0097870D01*
X0067550Y0097798D01*
X0067689Y0097721D01*
X0067825Y0097642D01*
X0067960Y0097558D01*
X0068093Y0097472D01*
X0068223Y0097382D01*
X0068351Y0097289D01*
X0068477Y0097193D01*
X0068600Y0097093D01*
X0068721Y0096991D01*
X0068839Y0096886D01*
X0068954Y0096777D01*
X0069067Y0096666D01*
X0069177Y0096552D01*
X0069284Y0096435D01*
X0069388Y0096316D01*
X0069489Y0096194D01*
X0069586Y0096069D01*
X0069681Y0095942D01*
X0069772Y0095813D01*
X0069861Y0095682D01*
X0069945Y0095548D01*
X0070027Y0095412D01*
X0070105Y0095275D01*
X0070179Y0095135D01*
X0070250Y0094993D01*
X0070318Y0094850D01*
X0070382Y0094705D01*
X0070442Y0094559D01*
X0070498Y0094411D01*
X0070551Y0094262D01*
X0070600Y0094111D01*
X0070645Y0093959D01*
X0070686Y0093806D01*
X0070724Y0093653D01*
X0070757Y0093498D01*
X0070787Y0093342D01*
X0070813Y0093186D01*
X0070834Y0093029D01*
X0070852Y0092872D01*
X0070866Y0092714D01*
X0070876Y0092556D01*
X0070882Y0092398D01*
X0070884Y0092240D01*
X0070882Y0092082D01*
X0070876Y0091924D01*
X0070866Y0091766D01*
X0070852Y0091608D01*
X0070834Y0091451D01*
X0070813Y0091294D01*
X0070787Y0091138D01*
X0070757Y0090982D01*
X0070724Y0090827D01*
X0070686Y0090674D01*
X0070645Y0090521D01*
X0070600Y0090369D01*
X0070551Y0090218D01*
X0070498Y0090069D01*
X0070442Y0089921D01*
X0070382Y0089775D01*
X0070318Y0089630D01*
X0070250Y0089487D01*
X0070179Y0089345D01*
X0070105Y0089205D01*
X0070027Y0089068D01*
X0069945Y0088932D01*
X0069861Y0088798D01*
X0069772Y0088667D01*
X0069681Y0088538D01*
X0069586Y0088411D01*
X0069489Y0088286D01*
X0069388Y0088164D01*
X0069284Y0088045D01*
X0069177Y0087928D01*
X0069067Y0087814D01*
X0068954Y0087703D01*
X0068839Y0087594D01*
X0068721Y0087489D01*
X0068600Y0087387D01*
X0068477Y0087287D01*
X0068351Y0087191D01*
X0068223Y0087098D01*
X0068093Y0087008D01*
X0067960Y0086922D01*
X0067825Y0086838D01*
X0067689Y0086759D01*
X0067550Y0086682D01*
X0067409Y0086610D01*
X0067267Y0086540D01*
X0067123Y0086475D01*
X0066977Y0086413D01*
X0066830Y0086355D01*
X0066681Y0086300D01*
X0066531Y0086249D01*
X0066380Y0086202D01*
X0066228Y0086159D01*
X0066075Y0086120D01*
X0065920Y0086084D01*
X0065765Y0086053D01*
X0065609Y0086025D01*
X0065453Y0086001D01*
X0065296Y0085981D01*
X0065138Y0085965D01*
X0064981Y0085953D01*
X0064822Y0085945D01*
X0064664Y0085941D01*
X0064506Y0085941D01*
X0064348Y0085945D01*
X0064189Y0085953D01*
X0064032Y0085965D01*
X0063874Y0085981D01*
X0063717Y0086001D01*
X0063561Y0086025D01*
X0063405Y0086053D01*
X0063250Y0086084D01*
X0063095Y0086120D01*
X0062942Y0086159D01*
X0062790Y0086202D01*
X0062639Y0086249D01*
X0062489Y0086300D01*
X0062340Y0086355D01*
X0062193Y0086413D01*
X0062047Y0086475D01*
X0061903Y0086540D01*
X0061761Y0086610D01*
X0061620Y0086682D01*
X0061481Y0086759D01*
X0061345Y0086838D01*
X0061210Y0086922D01*
X0061077Y0087008D01*
X0060947Y0087098D01*
X0060819Y0087191D01*
X0060693Y0087287D01*
X0060570Y0087387D01*
X0060449Y0087489D01*
X0060331Y0087594D01*
X0060216Y0087703D01*
X0060103Y0087814D01*
X0059993Y0087928D01*
X0059886Y0088045D01*
X0059782Y0088164D01*
X0059681Y0088286D01*
X0059584Y0088411D01*
X0059489Y0088538D01*
X0059398Y0088667D01*
X0059309Y0088798D01*
X0059225Y0088932D01*
X0059143Y0089068D01*
X0059065Y0089205D01*
X0058991Y0089345D01*
X0058920Y0089487D01*
X0058852Y0089630D01*
X0058788Y0089775D01*
X0058728Y0089921D01*
X0058672Y0090069D01*
X0058619Y0090218D01*
X0058570Y0090369D01*
X0058525Y0090521D01*
X0058484Y0090674D01*
X0058446Y0090827D01*
X0058413Y0090982D01*
X0058383Y0091138D01*
X0058357Y0091294D01*
X0058336Y0091451D01*
X0058318Y0091608D01*
X0058304Y0091766D01*
X0058294Y0091924D01*
X0058288Y0092082D01*
X0058286Y0092240D01*
X0251620Y0241492D02*
X0251622Y0241600D01*
X0251628Y0241709D01*
X0251638Y0241817D01*
X0251652Y0241924D01*
X0251670Y0242031D01*
X0251691Y0242138D01*
X0251717Y0242243D01*
X0251747Y0242348D01*
X0251780Y0242451D01*
X0251817Y0242553D01*
X0251858Y0242653D01*
X0251902Y0242752D01*
X0251951Y0242850D01*
X0252002Y0242945D01*
X0252057Y0243038D01*
X0252116Y0243130D01*
X0252178Y0243219D01*
X0252243Y0243306D01*
X0252311Y0243390D01*
X0252382Y0243472D01*
X0252456Y0243551D01*
X0252533Y0243627D01*
X0252613Y0243701D01*
X0252696Y0243771D01*
X0252781Y0243839D01*
X0252868Y0243903D01*
X0252958Y0243964D01*
X0253050Y0244022D01*
X0253144Y0244076D01*
X0253240Y0244127D01*
X0253337Y0244174D01*
X0253437Y0244218D01*
X0253538Y0244258D01*
X0253640Y0244294D01*
X0253743Y0244326D01*
X0253848Y0244355D01*
X0253954Y0244379D01*
X0254060Y0244400D01*
X0254167Y0244417D01*
X0254275Y0244430D01*
X0254383Y0244439D01*
X0254492Y0244444D01*
X0254600Y0244445D01*
X0254709Y0244442D01*
X0254817Y0244435D01*
X0254925Y0244424D01*
X0255032Y0244409D01*
X0255139Y0244390D01*
X0255245Y0244367D01*
X0255350Y0244341D01*
X0255455Y0244310D01*
X0255557Y0244276D01*
X0255659Y0244238D01*
X0255759Y0244196D01*
X0255858Y0244151D01*
X0255955Y0244102D01*
X0256049Y0244049D01*
X0256142Y0243993D01*
X0256233Y0243934D01*
X0256322Y0243871D01*
X0256408Y0243806D01*
X0256492Y0243737D01*
X0256573Y0243665D01*
X0256651Y0243590D01*
X0256727Y0243512D01*
X0256800Y0243431D01*
X0256870Y0243348D01*
X0256936Y0243263D01*
X0257000Y0243175D01*
X0257060Y0243084D01*
X0257117Y0242992D01*
X0257170Y0242897D01*
X0257220Y0242801D01*
X0257266Y0242703D01*
X0257309Y0242603D01*
X0257348Y0242502D01*
X0257383Y0242399D01*
X0257415Y0242296D01*
X0257442Y0242191D01*
X0257466Y0242085D01*
X0257486Y0241978D01*
X0257502Y0241871D01*
X0257514Y0241763D01*
X0257522Y0241655D01*
X0257526Y0241546D01*
X0257526Y0241438D01*
X0257522Y0241329D01*
X0257514Y0241221D01*
X0257502Y0241113D01*
X0257486Y0241006D01*
X0257466Y0240899D01*
X0257442Y0240793D01*
X0257415Y0240688D01*
X0257383Y0240585D01*
X0257348Y0240482D01*
X0257309Y0240381D01*
X0257266Y0240281D01*
X0257220Y0240183D01*
X0257170Y0240087D01*
X0257117Y0239992D01*
X0257060Y0239900D01*
X0257000Y0239809D01*
X0256936Y0239721D01*
X0256870Y0239636D01*
X0256800Y0239553D01*
X0256727Y0239472D01*
X0256651Y0239394D01*
X0256573Y0239319D01*
X0256492Y0239247D01*
X0256408Y0239178D01*
X0256322Y0239113D01*
X0256233Y0239050D01*
X0256142Y0238991D01*
X0256050Y0238935D01*
X0255955Y0238882D01*
X0255858Y0238833D01*
X0255759Y0238788D01*
X0255659Y0238746D01*
X0255557Y0238708D01*
X0255455Y0238674D01*
X0255350Y0238643D01*
X0255245Y0238617D01*
X0255139Y0238594D01*
X0255032Y0238575D01*
X0254925Y0238560D01*
X0254817Y0238549D01*
X0254709Y0238542D01*
X0254600Y0238539D01*
X0254492Y0238540D01*
X0254383Y0238545D01*
X0254275Y0238554D01*
X0254167Y0238567D01*
X0254060Y0238584D01*
X0253954Y0238605D01*
X0253848Y0238629D01*
X0253743Y0238658D01*
X0253640Y0238690D01*
X0253538Y0238726D01*
X0253437Y0238766D01*
X0253337Y0238810D01*
X0253240Y0238857D01*
X0253144Y0238908D01*
X0253050Y0238962D01*
X0252958Y0239020D01*
X0252868Y0239081D01*
X0252781Y0239145D01*
X0252696Y0239213D01*
X0252613Y0239283D01*
X0252533Y0239357D01*
X0252456Y0239433D01*
X0252382Y0239512D01*
X0252311Y0239594D01*
X0252243Y0239678D01*
X0252178Y0239765D01*
X0252116Y0239854D01*
X0252057Y0239946D01*
X0252002Y0240039D01*
X0251951Y0240134D01*
X0251902Y0240232D01*
X0251858Y0240331D01*
X0251817Y0240431D01*
X0251780Y0240533D01*
X0251747Y0240636D01*
X0251717Y0240741D01*
X0251691Y0240846D01*
X0251670Y0240953D01*
X0251652Y0241060D01*
X0251638Y0241167D01*
X0251628Y0241275D01*
X0251622Y0241384D01*
X0251620Y0241492D01*
X0281148Y0241492D02*
X0281150Y0241600D01*
X0281156Y0241709D01*
X0281166Y0241817D01*
X0281180Y0241924D01*
X0281198Y0242031D01*
X0281219Y0242138D01*
X0281245Y0242243D01*
X0281275Y0242348D01*
X0281308Y0242451D01*
X0281345Y0242553D01*
X0281386Y0242653D01*
X0281430Y0242752D01*
X0281479Y0242850D01*
X0281530Y0242945D01*
X0281585Y0243038D01*
X0281644Y0243130D01*
X0281706Y0243219D01*
X0281771Y0243306D01*
X0281839Y0243390D01*
X0281910Y0243472D01*
X0281984Y0243551D01*
X0282061Y0243627D01*
X0282141Y0243701D01*
X0282224Y0243771D01*
X0282309Y0243839D01*
X0282396Y0243903D01*
X0282486Y0243964D01*
X0282578Y0244022D01*
X0282672Y0244076D01*
X0282768Y0244127D01*
X0282865Y0244174D01*
X0282965Y0244218D01*
X0283066Y0244258D01*
X0283168Y0244294D01*
X0283271Y0244326D01*
X0283376Y0244355D01*
X0283482Y0244379D01*
X0283588Y0244400D01*
X0283695Y0244417D01*
X0283803Y0244430D01*
X0283911Y0244439D01*
X0284020Y0244444D01*
X0284128Y0244445D01*
X0284237Y0244442D01*
X0284345Y0244435D01*
X0284453Y0244424D01*
X0284560Y0244409D01*
X0284667Y0244390D01*
X0284773Y0244367D01*
X0284878Y0244341D01*
X0284983Y0244310D01*
X0285085Y0244276D01*
X0285187Y0244238D01*
X0285287Y0244196D01*
X0285386Y0244151D01*
X0285483Y0244102D01*
X0285577Y0244049D01*
X0285670Y0243993D01*
X0285761Y0243934D01*
X0285850Y0243871D01*
X0285936Y0243806D01*
X0286020Y0243737D01*
X0286101Y0243665D01*
X0286179Y0243590D01*
X0286255Y0243512D01*
X0286328Y0243431D01*
X0286398Y0243348D01*
X0286464Y0243263D01*
X0286528Y0243175D01*
X0286588Y0243084D01*
X0286645Y0242992D01*
X0286698Y0242897D01*
X0286748Y0242801D01*
X0286794Y0242703D01*
X0286837Y0242603D01*
X0286876Y0242502D01*
X0286911Y0242399D01*
X0286943Y0242296D01*
X0286970Y0242191D01*
X0286994Y0242085D01*
X0287014Y0241978D01*
X0287030Y0241871D01*
X0287042Y0241763D01*
X0287050Y0241655D01*
X0287054Y0241546D01*
X0287054Y0241438D01*
X0287050Y0241329D01*
X0287042Y0241221D01*
X0287030Y0241113D01*
X0287014Y0241006D01*
X0286994Y0240899D01*
X0286970Y0240793D01*
X0286943Y0240688D01*
X0286911Y0240585D01*
X0286876Y0240482D01*
X0286837Y0240381D01*
X0286794Y0240281D01*
X0286748Y0240183D01*
X0286698Y0240087D01*
X0286645Y0239992D01*
X0286588Y0239900D01*
X0286528Y0239809D01*
X0286464Y0239721D01*
X0286398Y0239636D01*
X0286328Y0239553D01*
X0286255Y0239472D01*
X0286179Y0239394D01*
X0286101Y0239319D01*
X0286020Y0239247D01*
X0285936Y0239178D01*
X0285850Y0239113D01*
X0285761Y0239050D01*
X0285670Y0238991D01*
X0285578Y0238935D01*
X0285483Y0238882D01*
X0285386Y0238833D01*
X0285287Y0238788D01*
X0285187Y0238746D01*
X0285085Y0238708D01*
X0284983Y0238674D01*
X0284878Y0238643D01*
X0284773Y0238617D01*
X0284667Y0238594D01*
X0284560Y0238575D01*
X0284453Y0238560D01*
X0284345Y0238549D01*
X0284237Y0238542D01*
X0284128Y0238539D01*
X0284020Y0238540D01*
X0283911Y0238545D01*
X0283803Y0238554D01*
X0283695Y0238567D01*
X0283588Y0238584D01*
X0283482Y0238605D01*
X0283376Y0238629D01*
X0283271Y0238658D01*
X0283168Y0238690D01*
X0283066Y0238726D01*
X0282965Y0238766D01*
X0282865Y0238810D01*
X0282768Y0238857D01*
X0282672Y0238908D01*
X0282578Y0238962D01*
X0282486Y0239020D01*
X0282396Y0239081D01*
X0282309Y0239145D01*
X0282224Y0239213D01*
X0282141Y0239283D01*
X0282061Y0239357D01*
X0281984Y0239433D01*
X0281910Y0239512D01*
X0281839Y0239594D01*
X0281771Y0239678D01*
X0281706Y0239765D01*
X0281644Y0239854D01*
X0281585Y0239946D01*
X0281530Y0240039D01*
X0281479Y0240134D01*
X0281430Y0240232D01*
X0281386Y0240331D01*
X0281345Y0240431D01*
X0281308Y0240533D01*
X0281275Y0240636D01*
X0281245Y0240741D01*
X0281219Y0240846D01*
X0281198Y0240953D01*
X0281180Y0241060D01*
X0281166Y0241167D01*
X0281156Y0241275D01*
X0281150Y0241384D01*
X0281148Y0241492D01*
X0322066Y0257594D02*
X0322068Y0257752D01*
X0322074Y0257910D01*
X0322084Y0258068D01*
X0322098Y0258226D01*
X0322116Y0258383D01*
X0322137Y0258540D01*
X0322163Y0258696D01*
X0322193Y0258852D01*
X0322226Y0259007D01*
X0322264Y0259160D01*
X0322305Y0259313D01*
X0322350Y0259465D01*
X0322399Y0259616D01*
X0322452Y0259765D01*
X0322508Y0259913D01*
X0322568Y0260059D01*
X0322632Y0260204D01*
X0322700Y0260347D01*
X0322771Y0260489D01*
X0322845Y0260629D01*
X0322923Y0260766D01*
X0323005Y0260902D01*
X0323089Y0261036D01*
X0323178Y0261167D01*
X0323269Y0261296D01*
X0323364Y0261423D01*
X0323461Y0261548D01*
X0323562Y0261670D01*
X0323666Y0261789D01*
X0323773Y0261906D01*
X0323883Y0262020D01*
X0323996Y0262131D01*
X0324111Y0262240D01*
X0324229Y0262345D01*
X0324350Y0262447D01*
X0324473Y0262547D01*
X0324599Y0262643D01*
X0324727Y0262736D01*
X0324857Y0262826D01*
X0324990Y0262912D01*
X0325125Y0262996D01*
X0325261Y0263075D01*
X0325400Y0263152D01*
X0325541Y0263224D01*
X0325683Y0263294D01*
X0325827Y0263359D01*
X0325973Y0263421D01*
X0326120Y0263479D01*
X0326269Y0263534D01*
X0326419Y0263585D01*
X0326570Y0263632D01*
X0326722Y0263675D01*
X0326875Y0263714D01*
X0327030Y0263750D01*
X0327185Y0263781D01*
X0327341Y0263809D01*
X0327497Y0263833D01*
X0327654Y0263853D01*
X0327812Y0263869D01*
X0327969Y0263881D01*
X0328128Y0263889D01*
X0328286Y0263893D01*
X0328444Y0263893D01*
X0328602Y0263889D01*
X0328761Y0263881D01*
X0328918Y0263869D01*
X0329076Y0263853D01*
X0329233Y0263833D01*
X0329389Y0263809D01*
X0329545Y0263781D01*
X0329700Y0263750D01*
X0329855Y0263714D01*
X0330008Y0263675D01*
X0330160Y0263632D01*
X0330311Y0263585D01*
X0330461Y0263534D01*
X0330610Y0263479D01*
X0330757Y0263421D01*
X0330903Y0263359D01*
X0331047Y0263294D01*
X0331189Y0263224D01*
X0331330Y0263152D01*
X0331469Y0263075D01*
X0331605Y0262996D01*
X0331740Y0262912D01*
X0331873Y0262826D01*
X0332003Y0262736D01*
X0332131Y0262643D01*
X0332257Y0262547D01*
X0332380Y0262447D01*
X0332501Y0262345D01*
X0332619Y0262240D01*
X0332734Y0262131D01*
X0332847Y0262020D01*
X0332957Y0261906D01*
X0333064Y0261789D01*
X0333168Y0261670D01*
X0333269Y0261548D01*
X0333366Y0261423D01*
X0333461Y0261296D01*
X0333552Y0261167D01*
X0333641Y0261036D01*
X0333725Y0260902D01*
X0333807Y0260766D01*
X0333885Y0260629D01*
X0333959Y0260489D01*
X0334030Y0260347D01*
X0334098Y0260204D01*
X0334162Y0260059D01*
X0334222Y0259913D01*
X0334278Y0259765D01*
X0334331Y0259616D01*
X0334380Y0259465D01*
X0334425Y0259313D01*
X0334466Y0259160D01*
X0334504Y0259007D01*
X0334537Y0258852D01*
X0334567Y0258696D01*
X0334593Y0258540D01*
X0334614Y0258383D01*
X0334632Y0258226D01*
X0334646Y0258068D01*
X0334656Y0257910D01*
X0334662Y0257752D01*
X0334664Y0257594D01*
X0334662Y0257436D01*
X0334656Y0257278D01*
X0334646Y0257120D01*
X0334632Y0256962D01*
X0334614Y0256805D01*
X0334593Y0256648D01*
X0334567Y0256492D01*
X0334537Y0256336D01*
X0334504Y0256181D01*
X0334466Y0256028D01*
X0334425Y0255875D01*
X0334380Y0255723D01*
X0334331Y0255572D01*
X0334278Y0255423D01*
X0334222Y0255275D01*
X0334162Y0255129D01*
X0334098Y0254984D01*
X0334030Y0254841D01*
X0333959Y0254699D01*
X0333885Y0254559D01*
X0333807Y0254422D01*
X0333725Y0254286D01*
X0333641Y0254152D01*
X0333552Y0254021D01*
X0333461Y0253892D01*
X0333366Y0253765D01*
X0333269Y0253640D01*
X0333168Y0253518D01*
X0333064Y0253399D01*
X0332957Y0253282D01*
X0332847Y0253168D01*
X0332734Y0253057D01*
X0332619Y0252948D01*
X0332501Y0252843D01*
X0332380Y0252741D01*
X0332257Y0252641D01*
X0332131Y0252545D01*
X0332003Y0252452D01*
X0331873Y0252362D01*
X0331740Y0252276D01*
X0331605Y0252192D01*
X0331469Y0252113D01*
X0331330Y0252036D01*
X0331189Y0251964D01*
X0331047Y0251894D01*
X0330903Y0251829D01*
X0330757Y0251767D01*
X0330610Y0251709D01*
X0330461Y0251654D01*
X0330311Y0251603D01*
X0330160Y0251556D01*
X0330008Y0251513D01*
X0329855Y0251474D01*
X0329700Y0251438D01*
X0329545Y0251407D01*
X0329389Y0251379D01*
X0329233Y0251355D01*
X0329076Y0251335D01*
X0328918Y0251319D01*
X0328761Y0251307D01*
X0328602Y0251299D01*
X0328444Y0251295D01*
X0328286Y0251295D01*
X0328128Y0251299D01*
X0327969Y0251307D01*
X0327812Y0251319D01*
X0327654Y0251335D01*
X0327497Y0251355D01*
X0327341Y0251379D01*
X0327185Y0251407D01*
X0327030Y0251438D01*
X0326875Y0251474D01*
X0326722Y0251513D01*
X0326570Y0251556D01*
X0326419Y0251603D01*
X0326269Y0251654D01*
X0326120Y0251709D01*
X0325973Y0251767D01*
X0325827Y0251829D01*
X0325683Y0251894D01*
X0325541Y0251964D01*
X0325400Y0252036D01*
X0325261Y0252113D01*
X0325125Y0252192D01*
X0324990Y0252276D01*
X0324857Y0252362D01*
X0324727Y0252452D01*
X0324599Y0252545D01*
X0324473Y0252641D01*
X0324350Y0252741D01*
X0324229Y0252843D01*
X0324111Y0252948D01*
X0323996Y0253057D01*
X0323883Y0253168D01*
X0323773Y0253282D01*
X0323666Y0253399D01*
X0323562Y0253518D01*
X0323461Y0253640D01*
X0323364Y0253765D01*
X0323269Y0253892D01*
X0323178Y0254021D01*
X0323089Y0254152D01*
X0323005Y0254286D01*
X0322923Y0254422D01*
X0322845Y0254559D01*
X0322771Y0254699D01*
X0322700Y0254841D01*
X0322632Y0254984D01*
X0322568Y0255129D01*
X0322508Y0255275D01*
X0322452Y0255423D01*
X0322399Y0255572D01*
X0322350Y0255723D01*
X0322305Y0255875D01*
X0322264Y0256028D01*
X0322226Y0256181D01*
X0322193Y0256336D01*
X0322163Y0256492D01*
X0322137Y0256648D01*
X0322116Y0256805D01*
X0322098Y0256962D01*
X0322084Y0257120D01*
X0322074Y0257278D01*
X0322068Y0257436D01*
X0322066Y0257594D01*
X0322066Y0092240D02*
X0322068Y0092398D01*
X0322074Y0092556D01*
X0322084Y0092714D01*
X0322098Y0092872D01*
X0322116Y0093029D01*
X0322137Y0093186D01*
X0322163Y0093342D01*
X0322193Y0093498D01*
X0322226Y0093653D01*
X0322264Y0093806D01*
X0322305Y0093959D01*
X0322350Y0094111D01*
X0322399Y0094262D01*
X0322452Y0094411D01*
X0322508Y0094559D01*
X0322568Y0094705D01*
X0322632Y0094850D01*
X0322700Y0094993D01*
X0322771Y0095135D01*
X0322845Y0095275D01*
X0322923Y0095412D01*
X0323005Y0095548D01*
X0323089Y0095682D01*
X0323178Y0095813D01*
X0323269Y0095942D01*
X0323364Y0096069D01*
X0323461Y0096194D01*
X0323562Y0096316D01*
X0323666Y0096435D01*
X0323773Y0096552D01*
X0323883Y0096666D01*
X0323996Y0096777D01*
X0324111Y0096886D01*
X0324229Y0096991D01*
X0324350Y0097093D01*
X0324473Y0097193D01*
X0324599Y0097289D01*
X0324727Y0097382D01*
X0324857Y0097472D01*
X0324990Y0097558D01*
X0325125Y0097642D01*
X0325261Y0097721D01*
X0325400Y0097798D01*
X0325541Y0097870D01*
X0325683Y0097940D01*
X0325827Y0098005D01*
X0325973Y0098067D01*
X0326120Y0098125D01*
X0326269Y0098180D01*
X0326419Y0098231D01*
X0326570Y0098278D01*
X0326722Y0098321D01*
X0326875Y0098360D01*
X0327030Y0098396D01*
X0327185Y0098427D01*
X0327341Y0098455D01*
X0327497Y0098479D01*
X0327654Y0098499D01*
X0327812Y0098515D01*
X0327969Y0098527D01*
X0328128Y0098535D01*
X0328286Y0098539D01*
X0328444Y0098539D01*
X0328602Y0098535D01*
X0328761Y0098527D01*
X0328918Y0098515D01*
X0329076Y0098499D01*
X0329233Y0098479D01*
X0329389Y0098455D01*
X0329545Y0098427D01*
X0329700Y0098396D01*
X0329855Y0098360D01*
X0330008Y0098321D01*
X0330160Y0098278D01*
X0330311Y0098231D01*
X0330461Y0098180D01*
X0330610Y0098125D01*
X0330757Y0098067D01*
X0330903Y0098005D01*
X0331047Y0097940D01*
X0331189Y0097870D01*
X0331330Y0097798D01*
X0331469Y0097721D01*
X0331605Y0097642D01*
X0331740Y0097558D01*
X0331873Y0097472D01*
X0332003Y0097382D01*
X0332131Y0097289D01*
X0332257Y0097193D01*
X0332380Y0097093D01*
X0332501Y0096991D01*
X0332619Y0096886D01*
X0332734Y0096777D01*
X0332847Y0096666D01*
X0332957Y0096552D01*
X0333064Y0096435D01*
X0333168Y0096316D01*
X0333269Y0096194D01*
X0333366Y0096069D01*
X0333461Y0095942D01*
X0333552Y0095813D01*
X0333641Y0095682D01*
X0333725Y0095548D01*
X0333807Y0095412D01*
X0333885Y0095275D01*
X0333959Y0095135D01*
X0334030Y0094993D01*
X0334098Y0094850D01*
X0334162Y0094705D01*
X0334222Y0094559D01*
X0334278Y0094411D01*
X0334331Y0094262D01*
X0334380Y0094111D01*
X0334425Y0093959D01*
X0334466Y0093806D01*
X0334504Y0093653D01*
X0334537Y0093498D01*
X0334567Y0093342D01*
X0334593Y0093186D01*
X0334614Y0093029D01*
X0334632Y0092872D01*
X0334646Y0092714D01*
X0334656Y0092556D01*
X0334662Y0092398D01*
X0334664Y0092240D01*
X0334662Y0092082D01*
X0334656Y0091924D01*
X0334646Y0091766D01*
X0334632Y0091608D01*
X0334614Y0091451D01*
X0334593Y0091294D01*
X0334567Y0091138D01*
X0334537Y0090982D01*
X0334504Y0090827D01*
X0334466Y0090674D01*
X0334425Y0090521D01*
X0334380Y0090369D01*
X0334331Y0090218D01*
X0334278Y0090069D01*
X0334222Y0089921D01*
X0334162Y0089775D01*
X0334098Y0089630D01*
X0334030Y0089487D01*
X0333959Y0089345D01*
X0333885Y0089205D01*
X0333807Y0089068D01*
X0333725Y0088932D01*
X0333641Y0088798D01*
X0333552Y0088667D01*
X0333461Y0088538D01*
X0333366Y0088411D01*
X0333269Y0088286D01*
X0333168Y0088164D01*
X0333064Y0088045D01*
X0332957Y0087928D01*
X0332847Y0087814D01*
X0332734Y0087703D01*
X0332619Y0087594D01*
X0332501Y0087489D01*
X0332380Y0087387D01*
X0332257Y0087287D01*
X0332131Y0087191D01*
X0332003Y0087098D01*
X0331873Y0087008D01*
X0331740Y0086922D01*
X0331605Y0086838D01*
X0331469Y0086759D01*
X0331330Y0086682D01*
X0331189Y0086610D01*
X0331047Y0086540D01*
X0330903Y0086475D01*
X0330757Y0086413D01*
X0330610Y0086355D01*
X0330461Y0086300D01*
X0330311Y0086249D01*
X0330160Y0086202D01*
X0330008Y0086159D01*
X0329855Y0086120D01*
X0329700Y0086084D01*
X0329545Y0086053D01*
X0329389Y0086025D01*
X0329233Y0086001D01*
X0329076Y0085981D01*
X0328918Y0085965D01*
X0328761Y0085953D01*
X0328602Y0085945D01*
X0328444Y0085941D01*
X0328286Y0085941D01*
X0328128Y0085945D01*
X0327969Y0085953D01*
X0327812Y0085965D01*
X0327654Y0085981D01*
X0327497Y0086001D01*
X0327341Y0086025D01*
X0327185Y0086053D01*
X0327030Y0086084D01*
X0326875Y0086120D01*
X0326722Y0086159D01*
X0326570Y0086202D01*
X0326419Y0086249D01*
X0326269Y0086300D01*
X0326120Y0086355D01*
X0325973Y0086413D01*
X0325827Y0086475D01*
X0325683Y0086540D01*
X0325541Y0086610D01*
X0325400Y0086682D01*
X0325261Y0086759D01*
X0325125Y0086838D01*
X0324990Y0086922D01*
X0324857Y0087008D01*
X0324727Y0087098D01*
X0324599Y0087191D01*
X0324473Y0087287D01*
X0324350Y0087387D01*
X0324229Y0087489D01*
X0324111Y0087594D01*
X0323996Y0087703D01*
X0323883Y0087814D01*
X0323773Y0087928D01*
X0323666Y0088045D01*
X0323562Y0088164D01*
X0323461Y0088286D01*
X0323364Y0088411D01*
X0323269Y0088538D01*
X0323178Y0088667D01*
X0323089Y0088798D01*
X0323005Y0088932D01*
X0322923Y0089068D01*
X0322845Y0089205D01*
X0322771Y0089345D01*
X0322700Y0089487D01*
X0322632Y0089630D01*
X0322568Y0089775D01*
X0322508Y0089921D01*
X0322452Y0090069D01*
X0322399Y0090218D01*
X0322350Y0090369D01*
X0322305Y0090521D01*
X0322264Y0090674D01*
X0322226Y0090827D01*
X0322193Y0090982D01*
X0322163Y0091138D01*
X0322137Y0091294D01*
X0322116Y0091451D01*
X0322098Y0091608D01*
X0322084Y0091766D01*
X0322074Y0091924D01*
X0322068Y0092082D01*
X0322066Y0092240D01*
X0058286Y0257594D02*
X0058288Y0257752D01*
X0058294Y0257910D01*
X0058304Y0258068D01*
X0058318Y0258226D01*
X0058336Y0258383D01*
X0058357Y0258540D01*
X0058383Y0258696D01*
X0058413Y0258852D01*
X0058446Y0259007D01*
X0058484Y0259160D01*
X0058525Y0259313D01*
X0058570Y0259465D01*
X0058619Y0259616D01*
X0058672Y0259765D01*
X0058728Y0259913D01*
X0058788Y0260059D01*
X0058852Y0260204D01*
X0058920Y0260347D01*
X0058991Y0260489D01*
X0059065Y0260629D01*
X0059143Y0260766D01*
X0059225Y0260902D01*
X0059309Y0261036D01*
X0059398Y0261167D01*
X0059489Y0261296D01*
X0059584Y0261423D01*
X0059681Y0261548D01*
X0059782Y0261670D01*
X0059886Y0261789D01*
X0059993Y0261906D01*
X0060103Y0262020D01*
X0060216Y0262131D01*
X0060331Y0262240D01*
X0060449Y0262345D01*
X0060570Y0262447D01*
X0060693Y0262547D01*
X0060819Y0262643D01*
X0060947Y0262736D01*
X0061077Y0262826D01*
X0061210Y0262912D01*
X0061345Y0262996D01*
X0061481Y0263075D01*
X0061620Y0263152D01*
X0061761Y0263224D01*
X0061903Y0263294D01*
X0062047Y0263359D01*
X0062193Y0263421D01*
X0062340Y0263479D01*
X0062489Y0263534D01*
X0062639Y0263585D01*
X0062790Y0263632D01*
X0062942Y0263675D01*
X0063095Y0263714D01*
X0063250Y0263750D01*
X0063405Y0263781D01*
X0063561Y0263809D01*
X0063717Y0263833D01*
X0063874Y0263853D01*
X0064032Y0263869D01*
X0064189Y0263881D01*
X0064348Y0263889D01*
X0064506Y0263893D01*
X0064664Y0263893D01*
X0064822Y0263889D01*
X0064981Y0263881D01*
X0065138Y0263869D01*
X0065296Y0263853D01*
X0065453Y0263833D01*
X0065609Y0263809D01*
X0065765Y0263781D01*
X0065920Y0263750D01*
X0066075Y0263714D01*
X0066228Y0263675D01*
X0066380Y0263632D01*
X0066531Y0263585D01*
X0066681Y0263534D01*
X0066830Y0263479D01*
X0066977Y0263421D01*
X0067123Y0263359D01*
X0067267Y0263294D01*
X0067409Y0263224D01*
X0067550Y0263152D01*
X0067689Y0263075D01*
X0067825Y0262996D01*
X0067960Y0262912D01*
X0068093Y0262826D01*
X0068223Y0262736D01*
X0068351Y0262643D01*
X0068477Y0262547D01*
X0068600Y0262447D01*
X0068721Y0262345D01*
X0068839Y0262240D01*
X0068954Y0262131D01*
X0069067Y0262020D01*
X0069177Y0261906D01*
X0069284Y0261789D01*
X0069388Y0261670D01*
X0069489Y0261548D01*
X0069586Y0261423D01*
X0069681Y0261296D01*
X0069772Y0261167D01*
X0069861Y0261036D01*
X0069945Y0260902D01*
X0070027Y0260766D01*
X0070105Y0260629D01*
X0070179Y0260489D01*
X0070250Y0260347D01*
X0070318Y0260204D01*
X0070382Y0260059D01*
X0070442Y0259913D01*
X0070498Y0259765D01*
X0070551Y0259616D01*
X0070600Y0259465D01*
X0070645Y0259313D01*
X0070686Y0259160D01*
X0070724Y0259007D01*
X0070757Y0258852D01*
X0070787Y0258696D01*
X0070813Y0258540D01*
X0070834Y0258383D01*
X0070852Y0258226D01*
X0070866Y0258068D01*
X0070876Y0257910D01*
X0070882Y0257752D01*
X0070884Y0257594D01*
X0070882Y0257436D01*
X0070876Y0257278D01*
X0070866Y0257120D01*
X0070852Y0256962D01*
X0070834Y0256805D01*
X0070813Y0256648D01*
X0070787Y0256492D01*
X0070757Y0256336D01*
X0070724Y0256181D01*
X0070686Y0256028D01*
X0070645Y0255875D01*
X0070600Y0255723D01*
X0070551Y0255572D01*
X0070498Y0255423D01*
X0070442Y0255275D01*
X0070382Y0255129D01*
X0070318Y0254984D01*
X0070250Y0254841D01*
X0070179Y0254699D01*
X0070105Y0254559D01*
X0070027Y0254422D01*
X0069945Y0254286D01*
X0069861Y0254152D01*
X0069772Y0254021D01*
X0069681Y0253892D01*
X0069586Y0253765D01*
X0069489Y0253640D01*
X0069388Y0253518D01*
X0069284Y0253399D01*
X0069177Y0253282D01*
X0069067Y0253168D01*
X0068954Y0253057D01*
X0068839Y0252948D01*
X0068721Y0252843D01*
X0068600Y0252741D01*
X0068477Y0252641D01*
X0068351Y0252545D01*
X0068223Y0252452D01*
X0068093Y0252362D01*
X0067960Y0252276D01*
X0067825Y0252192D01*
X0067689Y0252113D01*
X0067550Y0252036D01*
X0067409Y0251964D01*
X0067267Y0251894D01*
X0067123Y0251829D01*
X0066977Y0251767D01*
X0066830Y0251709D01*
X0066681Y0251654D01*
X0066531Y0251603D01*
X0066380Y0251556D01*
X0066228Y0251513D01*
X0066075Y0251474D01*
X0065920Y0251438D01*
X0065765Y0251407D01*
X0065609Y0251379D01*
X0065453Y0251355D01*
X0065296Y0251335D01*
X0065138Y0251319D01*
X0064981Y0251307D01*
X0064822Y0251299D01*
X0064664Y0251295D01*
X0064506Y0251295D01*
X0064348Y0251299D01*
X0064189Y0251307D01*
X0064032Y0251319D01*
X0063874Y0251335D01*
X0063717Y0251355D01*
X0063561Y0251379D01*
X0063405Y0251407D01*
X0063250Y0251438D01*
X0063095Y0251474D01*
X0062942Y0251513D01*
X0062790Y0251556D01*
X0062639Y0251603D01*
X0062489Y0251654D01*
X0062340Y0251709D01*
X0062193Y0251767D01*
X0062047Y0251829D01*
X0061903Y0251894D01*
X0061761Y0251964D01*
X0061620Y0252036D01*
X0061481Y0252113D01*
X0061345Y0252192D01*
X0061210Y0252276D01*
X0061077Y0252362D01*
X0060947Y0252452D01*
X0060819Y0252545D01*
X0060693Y0252641D01*
X0060570Y0252741D01*
X0060449Y0252843D01*
X0060331Y0252948D01*
X0060216Y0253057D01*
X0060103Y0253168D01*
X0059993Y0253282D01*
X0059886Y0253399D01*
X0059782Y0253518D01*
X0059681Y0253640D01*
X0059584Y0253765D01*
X0059489Y0253892D01*
X0059398Y0254021D01*
X0059309Y0254152D01*
X0059225Y0254286D01*
X0059143Y0254422D01*
X0059065Y0254559D01*
X0058991Y0254699D01*
X0058920Y0254841D01*
X0058852Y0254984D01*
X0058788Y0255129D01*
X0058728Y0255275D01*
X0058672Y0255423D01*
X0058619Y0255572D01*
X0058570Y0255723D01*
X0058525Y0255875D01*
X0058484Y0256028D01*
X0058446Y0256181D01*
X0058413Y0256336D01*
X0058383Y0256492D01*
X0058357Y0256648D01*
X0058336Y0256805D01*
X0058318Y0256962D01*
X0058304Y0257120D01*
X0058294Y0257278D01*
X0058288Y0257436D01*
X0058286Y0257594D01*
D11*
X0237054Y0241492D03*
D12*
X0300439Y0241492D03*
D13*
X0284101Y0241492D03*
X0254573Y0241492D03*
D14*
X0190337Y0193992D03*
X0190337Y0143992D03*
X0238337Y0098992D03*
X0085337Y0098992D03*
X0060337Y0133992D03*
X0070337Y0183992D03*
D15*
X0080337Y0183992D03*
X0090337Y0183992D03*
X0100337Y0183992D03*
X0110337Y0183992D03*
X0110337Y0193992D03*
X0100337Y0193992D03*
X0090337Y0193992D03*
X0080337Y0193992D03*
X0070337Y0193992D03*
X0060337Y0193992D03*
X0120337Y0193992D03*
X0130337Y0193992D03*
X0140337Y0193992D03*
X0150337Y0193992D03*
X0160337Y0193992D03*
X0170337Y0193992D03*
X0180337Y0193992D03*
X0190337Y0183992D03*
X0190337Y0173992D03*
X0190337Y0163992D03*
X0190337Y0153992D03*
X0190337Y0133992D03*
X0180337Y0133992D03*
X0170337Y0133992D03*
X0160337Y0133992D03*
X0150337Y0133992D03*
X0140337Y0133992D03*
X0130337Y0133992D03*
X0120337Y0133992D03*
X0110337Y0133992D03*
X0100337Y0133992D03*
X0090337Y0133992D03*
X0080337Y0133992D03*
X0070337Y0133992D03*
X0095337Y0098992D03*
X0105337Y0098992D03*
X0115337Y0098992D03*
X0125337Y0098992D03*
X0135337Y0098992D03*
X0145337Y0098992D03*
X0155337Y0098992D03*
X0248337Y0098992D03*
X0258337Y0098992D03*
X0268337Y0098992D03*
X0278337Y0098992D03*
X0288337Y0098992D03*
X0298337Y0098992D03*
X0308337Y0098992D03*
D16*
X0173237Y0095642D02*
X0173237Y0092342D01*
X0168437Y0092342D01*
X0168437Y0095642D01*
X0173237Y0095642D01*
X0173237Y0093441D02*
X0168437Y0093441D01*
X0168437Y0094540D02*
X0173237Y0094540D01*
X0173237Y0095639D02*
X0168437Y0095639D01*
X0173237Y0088642D02*
X0173237Y0085342D01*
X0168437Y0085342D01*
X0168437Y0088642D01*
X0173237Y0088642D01*
X0173237Y0086441D02*
X0168437Y0086441D01*
X0168437Y0087540D02*
X0173237Y0087540D01*
X0173237Y0088639D02*
X0168437Y0088639D01*
X0109987Y0112592D02*
X0106687Y0112592D01*
X0106687Y0117392D01*
X0109987Y0117392D01*
X0109987Y0112592D01*
X0109987Y0113691D02*
X0106687Y0113691D01*
X0106687Y0114790D02*
X0109987Y0114790D01*
X0109987Y0115889D02*
X0106687Y0115889D01*
X0106687Y0116988D02*
X0109987Y0116988D01*
X0102987Y0112592D02*
X0099687Y0112592D01*
X0099687Y0117392D01*
X0102987Y0117392D01*
X0102987Y0112592D01*
X0102987Y0113691D02*
X0099687Y0113691D01*
X0099687Y0114790D02*
X0102987Y0114790D01*
X0102987Y0115889D02*
X0099687Y0115889D01*
X0099687Y0116988D02*
X0102987Y0116988D01*
X0128937Y0206342D02*
X0128937Y0209642D01*
X0133737Y0209642D01*
X0133737Y0206342D01*
X0128937Y0206342D01*
X0128937Y0207441D02*
X0133737Y0207441D01*
X0133737Y0208540D02*
X0128937Y0208540D01*
X0128937Y0209639D02*
X0133737Y0209639D01*
X0128937Y0213342D02*
X0128937Y0216642D01*
X0133737Y0216642D01*
X0133737Y0213342D01*
X0128937Y0213342D01*
X0128937Y0214441D02*
X0133737Y0214441D01*
X0133737Y0215540D02*
X0128937Y0215540D01*
X0128937Y0216639D02*
X0133737Y0216639D01*
D17*
X0064585Y0257594D03*
X0064585Y0092240D03*
X0328365Y0092240D03*
X0328365Y0257594D03*
D18*
X0312577Y0202799D03*
X0241711Y0116185D03*
D19*
X0249585Y0116185D03*
X0257459Y0116185D03*
X0265333Y0116185D03*
X0273207Y0116185D03*
X0281081Y0116185D03*
X0288955Y0116185D03*
X0296829Y0116185D03*
X0304703Y0116185D03*
X0312577Y0116185D03*
X0304703Y0202799D03*
X0296829Y0202799D03*
X0288955Y0202799D03*
X0281081Y0202799D03*
X0273207Y0202799D03*
X0265333Y0202799D03*
X0257459Y0202799D03*
X0249585Y0202799D03*
X0241711Y0202799D03*
D20*
X0111400Y0259039D03*
X0187837Y0086992D03*
X0197837Y0086992D03*
D21*
X0119274Y0259039D03*
D22*
X0117337Y0238492D03*
X0117337Y0225492D03*
D23*
X0153227Y0231228D03*
X0171731Y0242646D03*
X0171731Y0219417D03*
D24*
X0131337Y0225492D03*
X0131337Y0236492D03*
D25*
X0079337Y0229488D03*
X0079337Y0216496D03*
D26*
X0069494Y0216496D03*
X0069494Y0229488D03*
X0089180Y0229488D03*
X0089180Y0216496D03*
D27*
X0181337Y0111008D03*
X0201337Y0111008D03*
D28*
X0191337Y0120850D03*
M02*
