G75*
%MOIN*%
%OFA0B0*%
%FSLAX25Y25*%
%IPPOS*%
%LPD*%
%AMOC8*
5,1,8,0,0,1.08239X$1,22.5*
%
%ADD10C,0.00000*%
%ADD11C,0.00400*%
%ADD12C,0.00800*%
%ADD13C,0.00600*%
%ADD14C,0.00500*%
%ADD15C,0.01000*%
%ADD16C,0.00709*%
%ADD17C,0.00866*%
D10*
X0048837Y0076492D02*
X0048837Y0273343D01*
X0344113Y0273343D01*
X0344113Y0076492D01*
X0048837Y0076492D01*
X0058286Y0092240D02*
X0058288Y0092398D01*
X0058294Y0092556D01*
X0058304Y0092714D01*
X0058318Y0092872D01*
X0058336Y0093029D01*
X0058357Y0093186D01*
X0058383Y0093342D01*
X0058413Y0093498D01*
X0058446Y0093653D01*
X0058484Y0093806D01*
X0058525Y0093959D01*
X0058570Y0094111D01*
X0058619Y0094262D01*
X0058672Y0094411D01*
X0058728Y0094559D01*
X0058788Y0094705D01*
X0058852Y0094850D01*
X0058920Y0094993D01*
X0058991Y0095135D01*
X0059065Y0095275D01*
X0059143Y0095412D01*
X0059225Y0095548D01*
X0059309Y0095682D01*
X0059398Y0095813D01*
X0059489Y0095942D01*
X0059584Y0096069D01*
X0059681Y0096194D01*
X0059782Y0096316D01*
X0059886Y0096435D01*
X0059993Y0096552D01*
X0060103Y0096666D01*
X0060216Y0096777D01*
X0060331Y0096886D01*
X0060449Y0096991D01*
X0060570Y0097093D01*
X0060693Y0097193D01*
X0060819Y0097289D01*
X0060947Y0097382D01*
X0061077Y0097472D01*
X0061210Y0097558D01*
X0061345Y0097642D01*
X0061481Y0097721D01*
X0061620Y0097798D01*
X0061761Y0097870D01*
X0061903Y0097940D01*
X0062047Y0098005D01*
X0062193Y0098067D01*
X0062340Y0098125D01*
X0062489Y0098180D01*
X0062639Y0098231D01*
X0062790Y0098278D01*
X0062942Y0098321D01*
X0063095Y0098360D01*
X0063250Y0098396D01*
X0063405Y0098427D01*
X0063561Y0098455D01*
X0063717Y0098479D01*
X0063874Y0098499D01*
X0064032Y0098515D01*
X0064189Y0098527D01*
X0064348Y0098535D01*
X0064506Y0098539D01*
X0064664Y0098539D01*
X0064822Y0098535D01*
X0064981Y0098527D01*
X0065138Y0098515D01*
X0065296Y0098499D01*
X0065453Y0098479D01*
X0065609Y0098455D01*
X0065765Y0098427D01*
X0065920Y0098396D01*
X0066075Y0098360D01*
X0066228Y0098321D01*
X0066380Y0098278D01*
X0066531Y0098231D01*
X0066681Y0098180D01*
X0066830Y0098125D01*
X0066977Y0098067D01*
X0067123Y0098005D01*
X0067267Y0097940D01*
X0067409Y0097870D01*
X0067550Y0097798D01*
X0067689Y0097721D01*
X0067825Y0097642D01*
X0067960Y0097558D01*
X0068093Y0097472D01*
X0068223Y0097382D01*
X0068351Y0097289D01*
X0068477Y0097193D01*
X0068600Y0097093D01*
X0068721Y0096991D01*
X0068839Y0096886D01*
X0068954Y0096777D01*
X0069067Y0096666D01*
X0069177Y0096552D01*
X0069284Y0096435D01*
X0069388Y0096316D01*
X0069489Y0096194D01*
X0069586Y0096069D01*
X0069681Y0095942D01*
X0069772Y0095813D01*
X0069861Y0095682D01*
X0069945Y0095548D01*
X0070027Y0095412D01*
X0070105Y0095275D01*
X0070179Y0095135D01*
X0070250Y0094993D01*
X0070318Y0094850D01*
X0070382Y0094705D01*
X0070442Y0094559D01*
X0070498Y0094411D01*
X0070551Y0094262D01*
X0070600Y0094111D01*
X0070645Y0093959D01*
X0070686Y0093806D01*
X0070724Y0093653D01*
X0070757Y0093498D01*
X0070787Y0093342D01*
X0070813Y0093186D01*
X0070834Y0093029D01*
X0070852Y0092872D01*
X0070866Y0092714D01*
X0070876Y0092556D01*
X0070882Y0092398D01*
X0070884Y0092240D01*
X0070882Y0092082D01*
X0070876Y0091924D01*
X0070866Y0091766D01*
X0070852Y0091608D01*
X0070834Y0091451D01*
X0070813Y0091294D01*
X0070787Y0091138D01*
X0070757Y0090982D01*
X0070724Y0090827D01*
X0070686Y0090674D01*
X0070645Y0090521D01*
X0070600Y0090369D01*
X0070551Y0090218D01*
X0070498Y0090069D01*
X0070442Y0089921D01*
X0070382Y0089775D01*
X0070318Y0089630D01*
X0070250Y0089487D01*
X0070179Y0089345D01*
X0070105Y0089205D01*
X0070027Y0089068D01*
X0069945Y0088932D01*
X0069861Y0088798D01*
X0069772Y0088667D01*
X0069681Y0088538D01*
X0069586Y0088411D01*
X0069489Y0088286D01*
X0069388Y0088164D01*
X0069284Y0088045D01*
X0069177Y0087928D01*
X0069067Y0087814D01*
X0068954Y0087703D01*
X0068839Y0087594D01*
X0068721Y0087489D01*
X0068600Y0087387D01*
X0068477Y0087287D01*
X0068351Y0087191D01*
X0068223Y0087098D01*
X0068093Y0087008D01*
X0067960Y0086922D01*
X0067825Y0086838D01*
X0067689Y0086759D01*
X0067550Y0086682D01*
X0067409Y0086610D01*
X0067267Y0086540D01*
X0067123Y0086475D01*
X0066977Y0086413D01*
X0066830Y0086355D01*
X0066681Y0086300D01*
X0066531Y0086249D01*
X0066380Y0086202D01*
X0066228Y0086159D01*
X0066075Y0086120D01*
X0065920Y0086084D01*
X0065765Y0086053D01*
X0065609Y0086025D01*
X0065453Y0086001D01*
X0065296Y0085981D01*
X0065138Y0085965D01*
X0064981Y0085953D01*
X0064822Y0085945D01*
X0064664Y0085941D01*
X0064506Y0085941D01*
X0064348Y0085945D01*
X0064189Y0085953D01*
X0064032Y0085965D01*
X0063874Y0085981D01*
X0063717Y0086001D01*
X0063561Y0086025D01*
X0063405Y0086053D01*
X0063250Y0086084D01*
X0063095Y0086120D01*
X0062942Y0086159D01*
X0062790Y0086202D01*
X0062639Y0086249D01*
X0062489Y0086300D01*
X0062340Y0086355D01*
X0062193Y0086413D01*
X0062047Y0086475D01*
X0061903Y0086540D01*
X0061761Y0086610D01*
X0061620Y0086682D01*
X0061481Y0086759D01*
X0061345Y0086838D01*
X0061210Y0086922D01*
X0061077Y0087008D01*
X0060947Y0087098D01*
X0060819Y0087191D01*
X0060693Y0087287D01*
X0060570Y0087387D01*
X0060449Y0087489D01*
X0060331Y0087594D01*
X0060216Y0087703D01*
X0060103Y0087814D01*
X0059993Y0087928D01*
X0059886Y0088045D01*
X0059782Y0088164D01*
X0059681Y0088286D01*
X0059584Y0088411D01*
X0059489Y0088538D01*
X0059398Y0088667D01*
X0059309Y0088798D01*
X0059225Y0088932D01*
X0059143Y0089068D01*
X0059065Y0089205D01*
X0058991Y0089345D01*
X0058920Y0089487D01*
X0058852Y0089630D01*
X0058788Y0089775D01*
X0058728Y0089921D01*
X0058672Y0090069D01*
X0058619Y0090218D01*
X0058570Y0090369D01*
X0058525Y0090521D01*
X0058484Y0090674D01*
X0058446Y0090827D01*
X0058413Y0090982D01*
X0058383Y0091138D01*
X0058357Y0091294D01*
X0058336Y0091451D01*
X0058318Y0091608D01*
X0058304Y0091766D01*
X0058294Y0091924D01*
X0058288Y0092082D01*
X0058286Y0092240D01*
X0268120Y0240992D02*
X0268122Y0241100D01*
X0268128Y0241209D01*
X0268138Y0241317D01*
X0268152Y0241424D01*
X0268170Y0241531D01*
X0268191Y0241638D01*
X0268217Y0241743D01*
X0268247Y0241848D01*
X0268280Y0241951D01*
X0268317Y0242053D01*
X0268358Y0242153D01*
X0268402Y0242252D01*
X0268451Y0242350D01*
X0268502Y0242445D01*
X0268557Y0242538D01*
X0268616Y0242630D01*
X0268678Y0242719D01*
X0268743Y0242806D01*
X0268811Y0242890D01*
X0268882Y0242972D01*
X0268956Y0243051D01*
X0269033Y0243127D01*
X0269113Y0243201D01*
X0269196Y0243271D01*
X0269281Y0243339D01*
X0269368Y0243403D01*
X0269458Y0243464D01*
X0269550Y0243522D01*
X0269644Y0243576D01*
X0269740Y0243627D01*
X0269837Y0243674D01*
X0269937Y0243718D01*
X0270038Y0243758D01*
X0270140Y0243794D01*
X0270243Y0243826D01*
X0270348Y0243855D01*
X0270454Y0243879D01*
X0270560Y0243900D01*
X0270667Y0243917D01*
X0270775Y0243930D01*
X0270883Y0243939D01*
X0270992Y0243944D01*
X0271100Y0243945D01*
X0271209Y0243942D01*
X0271317Y0243935D01*
X0271425Y0243924D01*
X0271532Y0243909D01*
X0271639Y0243890D01*
X0271745Y0243867D01*
X0271850Y0243841D01*
X0271955Y0243810D01*
X0272057Y0243776D01*
X0272159Y0243738D01*
X0272259Y0243696D01*
X0272358Y0243651D01*
X0272455Y0243602D01*
X0272549Y0243549D01*
X0272642Y0243493D01*
X0272733Y0243434D01*
X0272822Y0243371D01*
X0272908Y0243306D01*
X0272992Y0243237D01*
X0273073Y0243165D01*
X0273151Y0243090D01*
X0273227Y0243012D01*
X0273300Y0242931D01*
X0273370Y0242848D01*
X0273436Y0242763D01*
X0273500Y0242675D01*
X0273560Y0242584D01*
X0273617Y0242492D01*
X0273670Y0242397D01*
X0273720Y0242301D01*
X0273766Y0242203D01*
X0273809Y0242103D01*
X0273848Y0242002D01*
X0273883Y0241899D01*
X0273915Y0241796D01*
X0273942Y0241691D01*
X0273966Y0241585D01*
X0273986Y0241478D01*
X0274002Y0241371D01*
X0274014Y0241263D01*
X0274022Y0241155D01*
X0274026Y0241046D01*
X0274026Y0240938D01*
X0274022Y0240829D01*
X0274014Y0240721D01*
X0274002Y0240613D01*
X0273986Y0240506D01*
X0273966Y0240399D01*
X0273942Y0240293D01*
X0273915Y0240188D01*
X0273883Y0240085D01*
X0273848Y0239982D01*
X0273809Y0239881D01*
X0273766Y0239781D01*
X0273720Y0239683D01*
X0273670Y0239587D01*
X0273617Y0239492D01*
X0273560Y0239400D01*
X0273500Y0239309D01*
X0273436Y0239221D01*
X0273370Y0239136D01*
X0273300Y0239053D01*
X0273227Y0238972D01*
X0273151Y0238894D01*
X0273073Y0238819D01*
X0272992Y0238747D01*
X0272908Y0238678D01*
X0272822Y0238613D01*
X0272733Y0238550D01*
X0272642Y0238491D01*
X0272550Y0238435D01*
X0272455Y0238382D01*
X0272358Y0238333D01*
X0272259Y0238288D01*
X0272159Y0238246D01*
X0272057Y0238208D01*
X0271955Y0238174D01*
X0271850Y0238143D01*
X0271745Y0238117D01*
X0271639Y0238094D01*
X0271532Y0238075D01*
X0271425Y0238060D01*
X0271317Y0238049D01*
X0271209Y0238042D01*
X0271100Y0238039D01*
X0270992Y0238040D01*
X0270883Y0238045D01*
X0270775Y0238054D01*
X0270667Y0238067D01*
X0270560Y0238084D01*
X0270454Y0238105D01*
X0270348Y0238129D01*
X0270243Y0238158D01*
X0270140Y0238190D01*
X0270038Y0238226D01*
X0269937Y0238266D01*
X0269837Y0238310D01*
X0269740Y0238357D01*
X0269644Y0238408D01*
X0269550Y0238462D01*
X0269458Y0238520D01*
X0269368Y0238581D01*
X0269281Y0238645D01*
X0269196Y0238713D01*
X0269113Y0238783D01*
X0269033Y0238857D01*
X0268956Y0238933D01*
X0268882Y0239012D01*
X0268811Y0239094D01*
X0268743Y0239178D01*
X0268678Y0239265D01*
X0268616Y0239354D01*
X0268557Y0239446D01*
X0268502Y0239539D01*
X0268451Y0239634D01*
X0268402Y0239732D01*
X0268358Y0239831D01*
X0268317Y0239931D01*
X0268280Y0240033D01*
X0268247Y0240136D01*
X0268217Y0240241D01*
X0268191Y0240346D01*
X0268170Y0240453D01*
X0268152Y0240560D01*
X0268138Y0240667D01*
X0268128Y0240775D01*
X0268122Y0240884D01*
X0268120Y0240992D01*
X0297648Y0240992D02*
X0297650Y0241100D01*
X0297656Y0241209D01*
X0297666Y0241317D01*
X0297680Y0241424D01*
X0297698Y0241531D01*
X0297719Y0241638D01*
X0297745Y0241743D01*
X0297775Y0241848D01*
X0297808Y0241951D01*
X0297845Y0242053D01*
X0297886Y0242153D01*
X0297930Y0242252D01*
X0297979Y0242350D01*
X0298030Y0242445D01*
X0298085Y0242538D01*
X0298144Y0242630D01*
X0298206Y0242719D01*
X0298271Y0242806D01*
X0298339Y0242890D01*
X0298410Y0242972D01*
X0298484Y0243051D01*
X0298561Y0243127D01*
X0298641Y0243201D01*
X0298724Y0243271D01*
X0298809Y0243339D01*
X0298896Y0243403D01*
X0298986Y0243464D01*
X0299078Y0243522D01*
X0299172Y0243576D01*
X0299268Y0243627D01*
X0299365Y0243674D01*
X0299465Y0243718D01*
X0299566Y0243758D01*
X0299668Y0243794D01*
X0299771Y0243826D01*
X0299876Y0243855D01*
X0299982Y0243879D01*
X0300088Y0243900D01*
X0300195Y0243917D01*
X0300303Y0243930D01*
X0300411Y0243939D01*
X0300520Y0243944D01*
X0300628Y0243945D01*
X0300737Y0243942D01*
X0300845Y0243935D01*
X0300953Y0243924D01*
X0301060Y0243909D01*
X0301167Y0243890D01*
X0301273Y0243867D01*
X0301378Y0243841D01*
X0301483Y0243810D01*
X0301585Y0243776D01*
X0301687Y0243738D01*
X0301787Y0243696D01*
X0301886Y0243651D01*
X0301983Y0243602D01*
X0302077Y0243549D01*
X0302170Y0243493D01*
X0302261Y0243434D01*
X0302350Y0243371D01*
X0302436Y0243306D01*
X0302520Y0243237D01*
X0302601Y0243165D01*
X0302679Y0243090D01*
X0302755Y0243012D01*
X0302828Y0242931D01*
X0302898Y0242848D01*
X0302964Y0242763D01*
X0303028Y0242675D01*
X0303088Y0242584D01*
X0303145Y0242492D01*
X0303198Y0242397D01*
X0303248Y0242301D01*
X0303294Y0242203D01*
X0303337Y0242103D01*
X0303376Y0242002D01*
X0303411Y0241899D01*
X0303443Y0241796D01*
X0303470Y0241691D01*
X0303494Y0241585D01*
X0303514Y0241478D01*
X0303530Y0241371D01*
X0303542Y0241263D01*
X0303550Y0241155D01*
X0303554Y0241046D01*
X0303554Y0240938D01*
X0303550Y0240829D01*
X0303542Y0240721D01*
X0303530Y0240613D01*
X0303514Y0240506D01*
X0303494Y0240399D01*
X0303470Y0240293D01*
X0303443Y0240188D01*
X0303411Y0240085D01*
X0303376Y0239982D01*
X0303337Y0239881D01*
X0303294Y0239781D01*
X0303248Y0239683D01*
X0303198Y0239587D01*
X0303145Y0239492D01*
X0303088Y0239400D01*
X0303028Y0239309D01*
X0302964Y0239221D01*
X0302898Y0239136D01*
X0302828Y0239053D01*
X0302755Y0238972D01*
X0302679Y0238894D01*
X0302601Y0238819D01*
X0302520Y0238747D01*
X0302436Y0238678D01*
X0302350Y0238613D01*
X0302261Y0238550D01*
X0302170Y0238491D01*
X0302078Y0238435D01*
X0301983Y0238382D01*
X0301886Y0238333D01*
X0301787Y0238288D01*
X0301687Y0238246D01*
X0301585Y0238208D01*
X0301483Y0238174D01*
X0301378Y0238143D01*
X0301273Y0238117D01*
X0301167Y0238094D01*
X0301060Y0238075D01*
X0300953Y0238060D01*
X0300845Y0238049D01*
X0300737Y0238042D01*
X0300628Y0238039D01*
X0300520Y0238040D01*
X0300411Y0238045D01*
X0300303Y0238054D01*
X0300195Y0238067D01*
X0300088Y0238084D01*
X0299982Y0238105D01*
X0299876Y0238129D01*
X0299771Y0238158D01*
X0299668Y0238190D01*
X0299566Y0238226D01*
X0299465Y0238266D01*
X0299365Y0238310D01*
X0299268Y0238357D01*
X0299172Y0238408D01*
X0299078Y0238462D01*
X0298986Y0238520D01*
X0298896Y0238581D01*
X0298809Y0238645D01*
X0298724Y0238713D01*
X0298641Y0238783D01*
X0298561Y0238857D01*
X0298484Y0238933D01*
X0298410Y0239012D01*
X0298339Y0239094D01*
X0298271Y0239178D01*
X0298206Y0239265D01*
X0298144Y0239354D01*
X0298085Y0239446D01*
X0298030Y0239539D01*
X0297979Y0239634D01*
X0297930Y0239732D01*
X0297886Y0239831D01*
X0297845Y0239931D01*
X0297808Y0240033D01*
X0297775Y0240136D01*
X0297745Y0240241D01*
X0297719Y0240346D01*
X0297698Y0240453D01*
X0297680Y0240560D01*
X0297666Y0240667D01*
X0297656Y0240775D01*
X0297650Y0240884D01*
X0297648Y0240992D01*
X0322066Y0257594D02*
X0322068Y0257752D01*
X0322074Y0257910D01*
X0322084Y0258068D01*
X0322098Y0258226D01*
X0322116Y0258383D01*
X0322137Y0258540D01*
X0322163Y0258696D01*
X0322193Y0258852D01*
X0322226Y0259007D01*
X0322264Y0259160D01*
X0322305Y0259313D01*
X0322350Y0259465D01*
X0322399Y0259616D01*
X0322452Y0259765D01*
X0322508Y0259913D01*
X0322568Y0260059D01*
X0322632Y0260204D01*
X0322700Y0260347D01*
X0322771Y0260489D01*
X0322845Y0260629D01*
X0322923Y0260766D01*
X0323005Y0260902D01*
X0323089Y0261036D01*
X0323178Y0261167D01*
X0323269Y0261296D01*
X0323364Y0261423D01*
X0323461Y0261548D01*
X0323562Y0261670D01*
X0323666Y0261789D01*
X0323773Y0261906D01*
X0323883Y0262020D01*
X0323996Y0262131D01*
X0324111Y0262240D01*
X0324229Y0262345D01*
X0324350Y0262447D01*
X0324473Y0262547D01*
X0324599Y0262643D01*
X0324727Y0262736D01*
X0324857Y0262826D01*
X0324990Y0262912D01*
X0325125Y0262996D01*
X0325261Y0263075D01*
X0325400Y0263152D01*
X0325541Y0263224D01*
X0325683Y0263294D01*
X0325827Y0263359D01*
X0325973Y0263421D01*
X0326120Y0263479D01*
X0326269Y0263534D01*
X0326419Y0263585D01*
X0326570Y0263632D01*
X0326722Y0263675D01*
X0326875Y0263714D01*
X0327030Y0263750D01*
X0327185Y0263781D01*
X0327341Y0263809D01*
X0327497Y0263833D01*
X0327654Y0263853D01*
X0327812Y0263869D01*
X0327969Y0263881D01*
X0328128Y0263889D01*
X0328286Y0263893D01*
X0328444Y0263893D01*
X0328602Y0263889D01*
X0328761Y0263881D01*
X0328918Y0263869D01*
X0329076Y0263853D01*
X0329233Y0263833D01*
X0329389Y0263809D01*
X0329545Y0263781D01*
X0329700Y0263750D01*
X0329855Y0263714D01*
X0330008Y0263675D01*
X0330160Y0263632D01*
X0330311Y0263585D01*
X0330461Y0263534D01*
X0330610Y0263479D01*
X0330757Y0263421D01*
X0330903Y0263359D01*
X0331047Y0263294D01*
X0331189Y0263224D01*
X0331330Y0263152D01*
X0331469Y0263075D01*
X0331605Y0262996D01*
X0331740Y0262912D01*
X0331873Y0262826D01*
X0332003Y0262736D01*
X0332131Y0262643D01*
X0332257Y0262547D01*
X0332380Y0262447D01*
X0332501Y0262345D01*
X0332619Y0262240D01*
X0332734Y0262131D01*
X0332847Y0262020D01*
X0332957Y0261906D01*
X0333064Y0261789D01*
X0333168Y0261670D01*
X0333269Y0261548D01*
X0333366Y0261423D01*
X0333461Y0261296D01*
X0333552Y0261167D01*
X0333641Y0261036D01*
X0333725Y0260902D01*
X0333807Y0260766D01*
X0333885Y0260629D01*
X0333959Y0260489D01*
X0334030Y0260347D01*
X0334098Y0260204D01*
X0334162Y0260059D01*
X0334222Y0259913D01*
X0334278Y0259765D01*
X0334331Y0259616D01*
X0334380Y0259465D01*
X0334425Y0259313D01*
X0334466Y0259160D01*
X0334504Y0259007D01*
X0334537Y0258852D01*
X0334567Y0258696D01*
X0334593Y0258540D01*
X0334614Y0258383D01*
X0334632Y0258226D01*
X0334646Y0258068D01*
X0334656Y0257910D01*
X0334662Y0257752D01*
X0334664Y0257594D01*
X0334662Y0257436D01*
X0334656Y0257278D01*
X0334646Y0257120D01*
X0334632Y0256962D01*
X0334614Y0256805D01*
X0334593Y0256648D01*
X0334567Y0256492D01*
X0334537Y0256336D01*
X0334504Y0256181D01*
X0334466Y0256028D01*
X0334425Y0255875D01*
X0334380Y0255723D01*
X0334331Y0255572D01*
X0334278Y0255423D01*
X0334222Y0255275D01*
X0334162Y0255129D01*
X0334098Y0254984D01*
X0334030Y0254841D01*
X0333959Y0254699D01*
X0333885Y0254559D01*
X0333807Y0254422D01*
X0333725Y0254286D01*
X0333641Y0254152D01*
X0333552Y0254021D01*
X0333461Y0253892D01*
X0333366Y0253765D01*
X0333269Y0253640D01*
X0333168Y0253518D01*
X0333064Y0253399D01*
X0332957Y0253282D01*
X0332847Y0253168D01*
X0332734Y0253057D01*
X0332619Y0252948D01*
X0332501Y0252843D01*
X0332380Y0252741D01*
X0332257Y0252641D01*
X0332131Y0252545D01*
X0332003Y0252452D01*
X0331873Y0252362D01*
X0331740Y0252276D01*
X0331605Y0252192D01*
X0331469Y0252113D01*
X0331330Y0252036D01*
X0331189Y0251964D01*
X0331047Y0251894D01*
X0330903Y0251829D01*
X0330757Y0251767D01*
X0330610Y0251709D01*
X0330461Y0251654D01*
X0330311Y0251603D01*
X0330160Y0251556D01*
X0330008Y0251513D01*
X0329855Y0251474D01*
X0329700Y0251438D01*
X0329545Y0251407D01*
X0329389Y0251379D01*
X0329233Y0251355D01*
X0329076Y0251335D01*
X0328918Y0251319D01*
X0328761Y0251307D01*
X0328602Y0251299D01*
X0328444Y0251295D01*
X0328286Y0251295D01*
X0328128Y0251299D01*
X0327969Y0251307D01*
X0327812Y0251319D01*
X0327654Y0251335D01*
X0327497Y0251355D01*
X0327341Y0251379D01*
X0327185Y0251407D01*
X0327030Y0251438D01*
X0326875Y0251474D01*
X0326722Y0251513D01*
X0326570Y0251556D01*
X0326419Y0251603D01*
X0326269Y0251654D01*
X0326120Y0251709D01*
X0325973Y0251767D01*
X0325827Y0251829D01*
X0325683Y0251894D01*
X0325541Y0251964D01*
X0325400Y0252036D01*
X0325261Y0252113D01*
X0325125Y0252192D01*
X0324990Y0252276D01*
X0324857Y0252362D01*
X0324727Y0252452D01*
X0324599Y0252545D01*
X0324473Y0252641D01*
X0324350Y0252741D01*
X0324229Y0252843D01*
X0324111Y0252948D01*
X0323996Y0253057D01*
X0323883Y0253168D01*
X0323773Y0253282D01*
X0323666Y0253399D01*
X0323562Y0253518D01*
X0323461Y0253640D01*
X0323364Y0253765D01*
X0323269Y0253892D01*
X0323178Y0254021D01*
X0323089Y0254152D01*
X0323005Y0254286D01*
X0322923Y0254422D01*
X0322845Y0254559D01*
X0322771Y0254699D01*
X0322700Y0254841D01*
X0322632Y0254984D01*
X0322568Y0255129D01*
X0322508Y0255275D01*
X0322452Y0255423D01*
X0322399Y0255572D01*
X0322350Y0255723D01*
X0322305Y0255875D01*
X0322264Y0256028D01*
X0322226Y0256181D01*
X0322193Y0256336D01*
X0322163Y0256492D01*
X0322137Y0256648D01*
X0322116Y0256805D01*
X0322098Y0256962D01*
X0322084Y0257120D01*
X0322074Y0257278D01*
X0322068Y0257436D01*
X0322066Y0257594D01*
X0322066Y0092240D02*
X0322068Y0092398D01*
X0322074Y0092556D01*
X0322084Y0092714D01*
X0322098Y0092872D01*
X0322116Y0093029D01*
X0322137Y0093186D01*
X0322163Y0093342D01*
X0322193Y0093498D01*
X0322226Y0093653D01*
X0322264Y0093806D01*
X0322305Y0093959D01*
X0322350Y0094111D01*
X0322399Y0094262D01*
X0322452Y0094411D01*
X0322508Y0094559D01*
X0322568Y0094705D01*
X0322632Y0094850D01*
X0322700Y0094993D01*
X0322771Y0095135D01*
X0322845Y0095275D01*
X0322923Y0095412D01*
X0323005Y0095548D01*
X0323089Y0095682D01*
X0323178Y0095813D01*
X0323269Y0095942D01*
X0323364Y0096069D01*
X0323461Y0096194D01*
X0323562Y0096316D01*
X0323666Y0096435D01*
X0323773Y0096552D01*
X0323883Y0096666D01*
X0323996Y0096777D01*
X0324111Y0096886D01*
X0324229Y0096991D01*
X0324350Y0097093D01*
X0324473Y0097193D01*
X0324599Y0097289D01*
X0324727Y0097382D01*
X0324857Y0097472D01*
X0324990Y0097558D01*
X0325125Y0097642D01*
X0325261Y0097721D01*
X0325400Y0097798D01*
X0325541Y0097870D01*
X0325683Y0097940D01*
X0325827Y0098005D01*
X0325973Y0098067D01*
X0326120Y0098125D01*
X0326269Y0098180D01*
X0326419Y0098231D01*
X0326570Y0098278D01*
X0326722Y0098321D01*
X0326875Y0098360D01*
X0327030Y0098396D01*
X0327185Y0098427D01*
X0327341Y0098455D01*
X0327497Y0098479D01*
X0327654Y0098499D01*
X0327812Y0098515D01*
X0327969Y0098527D01*
X0328128Y0098535D01*
X0328286Y0098539D01*
X0328444Y0098539D01*
X0328602Y0098535D01*
X0328761Y0098527D01*
X0328918Y0098515D01*
X0329076Y0098499D01*
X0329233Y0098479D01*
X0329389Y0098455D01*
X0329545Y0098427D01*
X0329700Y0098396D01*
X0329855Y0098360D01*
X0330008Y0098321D01*
X0330160Y0098278D01*
X0330311Y0098231D01*
X0330461Y0098180D01*
X0330610Y0098125D01*
X0330757Y0098067D01*
X0330903Y0098005D01*
X0331047Y0097940D01*
X0331189Y0097870D01*
X0331330Y0097798D01*
X0331469Y0097721D01*
X0331605Y0097642D01*
X0331740Y0097558D01*
X0331873Y0097472D01*
X0332003Y0097382D01*
X0332131Y0097289D01*
X0332257Y0097193D01*
X0332380Y0097093D01*
X0332501Y0096991D01*
X0332619Y0096886D01*
X0332734Y0096777D01*
X0332847Y0096666D01*
X0332957Y0096552D01*
X0333064Y0096435D01*
X0333168Y0096316D01*
X0333269Y0096194D01*
X0333366Y0096069D01*
X0333461Y0095942D01*
X0333552Y0095813D01*
X0333641Y0095682D01*
X0333725Y0095548D01*
X0333807Y0095412D01*
X0333885Y0095275D01*
X0333959Y0095135D01*
X0334030Y0094993D01*
X0334098Y0094850D01*
X0334162Y0094705D01*
X0334222Y0094559D01*
X0334278Y0094411D01*
X0334331Y0094262D01*
X0334380Y0094111D01*
X0334425Y0093959D01*
X0334466Y0093806D01*
X0334504Y0093653D01*
X0334537Y0093498D01*
X0334567Y0093342D01*
X0334593Y0093186D01*
X0334614Y0093029D01*
X0334632Y0092872D01*
X0334646Y0092714D01*
X0334656Y0092556D01*
X0334662Y0092398D01*
X0334664Y0092240D01*
X0334662Y0092082D01*
X0334656Y0091924D01*
X0334646Y0091766D01*
X0334632Y0091608D01*
X0334614Y0091451D01*
X0334593Y0091294D01*
X0334567Y0091138D01*
X0334537Y0090982D01*
X0334504Y0090827D01*
X0334466Y0090674D01*
X0334425Y0090521D01*
X0334380Y0090369D01*
X0334331Y0090218D01*
X0334278Y0090069D01*
X0334222Y0089921D01*
X0334162Y0089775D01*
X0334098Y0089630D01*
X0334030Y0089487D01*
X0333959Y0089345D01*
X0333885Y0089205D01*
X0333807Y0089068D01*
X0333725Y0088932D01*
X0333641Y0088798D01*
X0333552Y0088667D01*
X0333461Y0088538D01*
X0333366Y0088411D01*
X0333269Y0088286D01*
X0333168Y0088164D01*
X0333064Y0088045D01*
X0332957Y0087928D01*
X0332847Y0087814D01*
X0332734Y0087703D01*
X0332619Y0087594D01*
X0332501Y0087489D01*
X0332380Y0087387D01*
X0332257Y0087287D01*
X0332131Y0087191D01*
X0332003Y0087098D01*
X0331873Y0087008D01*
X0331740Y0086922D01*
X0331605Y0086838D01*
X0331469Y0086759D01*
X0331330Y0086682D01*
X0331189Y0086610D01*
X0331047Y0086540D01*
X0330903Y0086475D01*
X0330757Y0086413D01*
X0330610Y0086355D01*
X0330461Y0086300D01*
X0330311Y0086249D01*
X0330160Y0086202D01*
X0330008Y0086159D01*
X0329855Y0086120D01*
X0329700Y0086084D01*
X0329545Y0086053D01*
X0329389Y0086025D01*
X0329233Y0086001D01*
X0329076Y0085981D01*
X0328918Y0085965D01*
X0328761Y0085953D01*
X0328602Y0085945D01*
X0328444Y0085941D01*
X0328286Y0085941D01*
X0328128Y0085945D01*
X0327969Y0085953D01*
X0327812Y0085965D01*
X0327654Y0085981D01*
X0327497Y0086001D01*
X0327341Y0086025D01*
X0327185Y0086053D01*
X0327030Y0086084D01*
X0326875Y0086120D01*
X0326722Y0086159D01*
X0326570Y0086202D01*
X0326419Y0086249D01*
X0326269Y0086300D01*
X0326120Y0086355D01*
X0325973Y0086413D01*
X0325827Y0086475D01*
X0325683Y0086540D01*
X0325541Y0086610D01*
X0325400Y0086682D01*
X0325261Y0086759D01*
X0325125Y0086838D01*
X0324990Y0086922D01*
X0324857Y0087008D01*
X0324727Y0087098D01*
X0324599Y0087191D01*
X0324473Y0087287D01*
X0324350Y0087387D01*
X0324229Y0087489D01*
X0324111Y0087594D01*
X0323996Y0087703D01*
X0323883Y0087814D01*
X0323773Y0087928D01*
X0323666Y0088045D01*
X0323562Y0088164D01*
X0323461Y0088286D01*
X0323364Y0088411D01*
X0323269Y0088538D01*
X0323178Y0088667D01*
X0323089Y0088798D01*
X0323005Y0088932D01*
X0322923Y0089068D01*
X0322845Y0089205D01*
X0322771Y0089345D01*
X0322700Y0089487D01*
X0322632Y0089630D01*
X0322568Y0089775D01*
X0322508Y0089921D01*
X0322452Y0090069D01*
X0322399Y0090218D01*
X0322350Y0090369D01*
X0322305Y0090521D01*
X0322264Y0090674D01*
X0322226Y0090827D01*
X0322193Y0090982D01*
X0322163Y0091138D01*
X0322137Y0091294D01*
X0322116Y0091451D01*
X0322098Y0091608D01*
X0322084Y0091766D01*
X0322074Y0091924D01*
X0322068Y0092082D01*
X0322066Y0092240D01*
X0058286Y0257594D02*
X0058288Y0257752D01*
X0058294Y0257910D01*
X0058304Y0258068D01*
X0058318Y0258226D01*
X0058336Y0258383D01*
X0058357Y0258540D01*
X0058383Y0258696D01*
X0058413Y0258852D01*
X0058446Y0259007D01*
X0058484Y0259160D01*
X0058525Y0259313D01*
X0058570Y0259465D01*
X0058619Y0259616D01*
X0058672Y0259765D01*
X0058728Y0259913D01*
X0058788Y0260059D01*
X0058852Y0260204D01*
X0058920Y0260347D01*
X0058991Y0260489D01*
X0059065Y0260629D01*
X0059143Y0260766D01*
X0059225Y0260902D01*
X0059309Y0261036D01*
X0059398Y0261167D01*
X0059489Y0261296D01*
X0059584Y0261423D01*
X0059681Y0261548D01*
X0059782Y0261670D01*
X0059886Y0261789D01*
X0059993Y0261906D01*
X0060103Y0262020D01*
X0060216Y0262131D01*
X0060331Y0262240D01*
X0060449Y0262345D01*
X0060570Y0262447D01*
X0060693Y0262547D01*
X0060819Y0262643D01*
X0060947Y0262736D01*
X0061077Y0262826D01*
X0061210Y0262912D01*
X0061345Y0262996D01*
X0061481Y0263075D01*
X0061620Y0263152D01*
X0061761Y0263224D01*
X0061903Y0263294D01*
X0062047Y0263359D01*
X0062193Y0263421D01*
X0062340Y0263479D01*
X0062489Y0263534D01*
X0062639Y0263585D01*
X0062790Y0263632D01*
X0062942Y0263675D01*
X0063095Y0263714D01*
X0063250Y0263750D01*
X0063405Y0263781D01*
X0063561Y0263809D01*
X0063717Y0263833D01*
X0063874Y0263853D01*
X0064032Y0263869D01*
X0064189Y0263881D01*
X0064348Y0263889D01*
X0064506Y0263893D01*
X0064664Y0263893D01*
X0064822Y0263889D01*
X0064981Y0263881D01*
X0065138Y0263869D01*
X0065296Y0263853D01*
X0065453Y0263833D01*
X0065609Y0263809D01*
X0065765Y0263781D01*
X0065920Y0263750D01*
X0066075Y0263714D01*
X0066228Y0263675D01*
X0066380Y0263632D01*
X0066531Y0263585D01*
X0066681Y0263534D01*
X0066830Y0263479D01*
X0066977Y0263421D01*
X0067123Y0263359D01*
X0067267Y0263294D01*
X0067409Y0263224D01*
X0067550Y0263152D01*
X0067689Y0263075D01*
X0067825Y0262996D01*
X0067960Y0262912D01*
X0068093Y0262826D01*
X0068223Y0262736D01*
X0068351Y0262643D01*
X0068477Y0262547D01*
X0068600Y0262447D01*
X0068721Y0262345D01*
X0068839Y0262240D01*
X0068954Y0262131D01*
X0069067Y0262020D01*
X0069177Y0261906D01*
X0069284Y0261789D01*
X0069388Y0261670D01*
X0069489Y0261548D01*
X0069586Y0261423D01*
X0069681Y0261296D01*
X0069772Y0261167D01*
X0069861Y0261036D01*
X0069945Y0260902D01*
X0070027Y0260766D01*
X0070105Y0260629D01*
X0070179Y0260489D01*
X0070250Y0260347D01*
X0070318Y0260204D01*
X0070382Y0260059D01*
X0070442Y0259913D01*
X0070498Y0259765D01*
X0070551Y0259616D01*
X0070600Y0259465D01*
X0070645Y0259313D01*
X0070686Y0259160D01*
X0070724Y0259007D01*
X0070757Y0258852D01*
X0070787Y0258696D01*
X0070813Y0258540D01*
X0070834Y0258383D01*
X0070852Y0258226D01*
X0070866Y0258068D01*
X0070876Y0257910D01*
X0070882Y0257752D01*
X0070884Y0257594D01*
X0070882Y0257436D01*
X0070876Y0257278D01*
X0070866Y0257120D01*
X0070852Y0256962D01*
X0070834Y0256805D01*
X0070813Y0256648D01*
X0070787Y0256492D01*
X0070757Y0256336D01*
X0070724Y0256181D01*
X0070686Y0256028D01*
X0070645Y0255875D01*
X0070600Y0255723D01*
X0070551Y0255572D01*
X0070498Y0255423D01*
X0070442Y0255275D01*
X0070382Y0255129D01*
X0070318Y0254984D01*
X0070250Y0254841D01*
X0070179Y0254699D01*
X0070105Y0254559D01*
X0070027Y0254422D01*
X0069945Y0254286D01*
X0069861Y0254152D01*
X0069772Y0254021D01*
X0069681Y0253892D01*
X0069586Y0253765D01*
X0069489Y0253640D01*
X0069388Y0253518D01*
X0069284Y0253399D01*
X0069177Y0253282D01*
X0069067Y0253168D01*
X0068954Y0253057D01*
X0068839Y0252948D01*
X0068721Y0252843D01*
X0068600Y0252741D01*
X0068477Y0252641D01*
X0068351Y0252545D01*
X0068223Y0252452D01*
X0068093Y0252362D01*
X0067960Y0252276D01*
X0067825Y0252192D01*
X0067689Y0252113D01*
X0067550Y0252036D01*
X0067409Y0251964D01*
X0067267Y0251894D01*
X0067123Y0251829D01*
X0066977Y0251767D01*
X0066830Y0251709D01*
X0066681Y0251654D01*
X0066531Y0251603D01*
X0066380Y0251556D01*
X0066228Y0251513D01*
X0066075Y0251474D01*
X0065920Y0251438D01*
X0065765Y0251407D01*
X0065609Y0251379D01*
X0065453Y0251355D01*
X0065296Y0251335D01*
X0065138Y0251319D01*
X0064981Y0251307D01*
X0064822Y0251299D01*
X0064664Y0251295D01*
X0064506Y0251295D01*
X0064348Y0251299D01*
X0064189Y0251307D01*
X0064032Y0251319D01*
X0063874Y0251335D01*
X0063717Y0251355D01*
X0063561Y0251379D01*
X0063405Y0251407D01*
X0063250Y0251438D01*
X0063095Y0251474D01*
X0062942Y0251513D01*
X0062790Y0251556D01*
X0062639Y0251603D01*
X0062489Y0251654D01*
X0062340Y0251709D01*
X0062193Y0251767D01*
X0062047Y0251829D01*
X0061903Y0251894D01*
X0061761Y0251964D01*
X0061620Y0252036D01*
X0061481Y0252113D01*
X0061345Y0252192D01*
X0061210Y0252276D01*
X0061077Y0252362D01*
X0060947Y0252452D01*
X0060819Y0252545D01*
X0060693Y0252641D01*
X0060570Y0252741D01*
X0060449Y0252843D01*
X0060331Y0252948D01*
X0060216Y0253057D01*
X0060103Y0253168D01*
X0059993Y0253282D01*
X0059886Y0253399D01*
X0059782Y0253518D01*
X0059681Y0253640D01*
X0059584Y0253765D01*
X0059489Y0253892D01*
X0059398Y0254021D01*
X0059309Y0254152D01*
X0059225Y0254286D01*
X0059143Y0254422D01*
X0059065Y0254559D01*
X0058991Y0254699D01*
X0058920Y0254841D01*
X0058852Y0254984D01*
X0058788Y0255129D01*
X0058728Y0255275D01*
X0058672Y0255423D01*
X0058619Y0255572D01*
X0058570Y0255723D01*
X0058525Y0255875D01*
X0058484Y0256028D01*
X0058446Y0256181D01*
X0058413Y0256336D01*
X0058383Y0256492D01*
X0058357Y0256648D01*
X0058336Y0256805D01*
X0058318Y0256962D01*
X0058304Y0257120D01*
X0058294Y0257278D01*
X0058288Y0257436D01*
X0058286Y0257594D01*
D11*
X0086423Y0247343D02*
X0087957Y0245809D01*
X0086423Y0247343D02*
X0091027Y0247343D01*
X0091027Y0245809D02*
X0091027Y0248878D01*
X0078410Y0223249D02*
X0077809Y0223249D01*
X0077209Y0222648D01*
X0077209Y0221447D01*
X0076608Y0220847D01*
X0076008Y0220847D01*
X0075407Y0221447D01*
X0075407Y0222648D01*
X0076008Y0223249D01*
X0078410Y0223249D02*
X0079010Y0222648D01*
X0079010Y0221447D01*
X0078410Y0220847D01*
X0079010Y0219566D02*
X0075407Y0219566D01*
X0076608Y0218365D01*
X0075407Y0217164D01*
X0079010Y0217164D01*
X0077809Y0215883D02*
X0079010Y0214682D01*
X0075407Y0214682D01*
X0075407Y0215883D02*
X0075407Y0213480D01*
X0108537Y0175792D02*
X0112140Y0173390D01*
X0111540Y0172109D02*
X0112140Y0171508D01*
X0112140Y0170307D01*
X0111540Y0169707D01*
X0110939Y0169707D01*
X0110339Y0170307D01*
X0109738Y0169707D01*
X0109138Y0169707D01*
X0108537Y0170307D01*
X0108537Y0171508D01*
X0109138Y0172109D01*
X0108537Y0173390D02*
X0112140Y0175792D01*
X0110339Y0170908D02*
X0110339Y0170307D01*
X0144537Y0180807D02*
X0145138Y0180207D01*
X0145738Y0180207D01*
X0146339Y0180807D01*
X0146339Y0182609D01*
X0145138Y0182609D01*
X0144537Y0182008D01*
X0144537Y0180807D01*
X0146339Y0182609D02*
X0147540Y0181408D01*
X0148140Y0180207D01*
X0148140Y0183890D02*
X0144537Y0186292D01*
X0144537Y0183890D02*
X0148140Y0186292D01*
X0159448Y0203689D02*
X0161850Y0207292D01*
X0163131Y0207292D02*
X0163131Y0204890D01*
X0164332Y0203689D01*
X0165533Y0204890D01*
X0165533Y0207292D01*
X0166814Y0207292D02*
X0166814Y0203689D01*
X0168015Y0204890D01*
X0169216Y0203689D01*
X0169216Y0207292D01*
X0165533Y0205491D02*
X0163131Y0205491D01*
X0161850Y0203689D02*
X0159448Y0207292D01*
X0174181Y0206091D02*
X0174181Y0203689D01*
X0176583Y0203689D02*
X0176583Y0206091D01*
X0175382Y0207292D01*
X0174181Y0206091D01*
X0177864Y0206091D02*
X0177864Y0206692D01*
X0178464Y0207292D01*
X0179665Y0207292D01*
X0180266Y0206692D01*
X0180266Y0205491D01*
X0178464Y0205491D01*
X0177864Y0206091D01*
X0179065Y0204290D02*
X0180266Y0205491D01*
X0179065Y0204290D02*
X0177864Y0203689D01*
X0181507Y0206692D02*
X0181507Y0207292D01*
X0182107Y0207292D01*
X0182107Y0206692D01*
X0181507Y0206692D01*
X0183389Y0206692D02*
X0183389Y0206091D01*
X0183989Y0205491D01*
X0184590Y0205491D01*
X0183989Y0205491D02*
X0183389Y0204890D01*
X0183389Y0204290D01*
X0183989Y0203689D01*
X0185190Y0203689D01*
X0185791Y0204290D01*
X0185791Y0206692D02*
X0185190Y0207292D01*
X0183989Y0207292D01*
X0183389Y0206692D01*
X0190715Y0206692D02*
X0190715Y0207292D01*
X0191315Y0207292D01*
X0191315Y0206692D01*
X0190715Y0206692D01*
X0190715Y0205491D02*
X0191315Y0205491D01*
X0191315Y0204890D01*
X0190715Y0204890D01*
X0190715Y0205491D01*
X0192596Y0207292D02*
X0192596Y0203689D01*
X0194998Y0203689D02*
X0192596Y0207292D01*
X0194998Y0207292D02*
X0194998Y0203689D01*
X0196253Y0203689D02*
X0197454Y0203689D01*
X0196853Y0203689D02*
X0196853Y0207292D01*
X0196253Y0207292D02*
X0197454Y0207292D01*
X0198735Y0206091D02*
X0199936Y0207292D01*
X0201137Y0206091D01*
X0201137Y0203689D01*
X0198735Y0203689D02*
X0198735Y0206091D01*
X0231537Y0205292D02*
X0235140Y0202890D01*
X0234540Y0201609D02*
X0233939Y0201609D01*
X0233339Y0201008D01*
X0233339Y0199207D01*
X0234540Y0199207D02*
X0235140Y0199807D01*
X0235140Y0201008D01*
X0234540Y0201609D01*
X0234540Y0199207D02*
X0232138Y0199207D01*
X0231537Y0199807D01*
X0231537Y0201008D01*
X0232138Y0201609D01*
X0231537Y0202890D02*
X0235140Y0205292D01*
X0247537Y0195792D02*
X0247537Y0193991D01*
X0248138Y0193390D01*
X0250540Y0193390D01*
X0251140Y0193991D01*
X0251140Y0195792D01*
X0247537Y0195792D01*
X0247537Y0190908D02*
X0251140Y0190908D01*
X0251140Y0192109D02*
X0251140Y0189707D01*
X0251140Y0188426D02*
X0251140Y0186624D01*
X0250540Y0186024D01*
X0249339Y0186024D01*
X0248738Y0186624D01*
X0248738Y0188426D01*
X0247537Y0188426D02*
X0251140Y0188426D01*
X0248738Y0187225D02*
X0247537Y0186024D01*
X0247537Y0184743D02*
X0251140Y0182341D01*
X0251140Y0181060D02*
X0251140Y0179258D01*
X0250540Y0178658D01*
X0248138Y0178658D01*
X0247537Y0179258D01*
X0247537Y0181060D01*
X0251140Y0181060D01*
X0250540Y0177376D02*
X0251140Y0176776D01*
X0251140Y0175575D01*
X0250540Y0174974D01*
X0249939Y0174974D01*
X0247537Y0177376D01*
X0247537Y0174974D01*
X0248138Y0173693D02*
X0250540Y0171291D01*
X0248138Y0171291D01*
X0247537Y0171892D01*
X0247537Y0173093D01*
X0248138Y0173693D01*
X0250540Y0173693D01*
X0251140Y0173093D01*
X0251140Y0171892D01*
X0250540Y0171291D01*
X0256037Y0166389D02*
X0256037Y0165188D01*
X0256638Y0164588D01*
X0259040Y0164588D01*
X0259640Y0165188D01*
X0259640Y0166389D01*
X0259040Y0166990D01*
X0256638Y0166990D01*
X0256037Y0166389D01*
X0256037Y0163307D02*
X0259640Y0163307D01*
X0256037Y0160905D01*
X0259640Y0160905D01*
X0255437Y0159624D02*
X0255437Y0157222D01*
X0256638Y0155940D02*
X0256037Y0155340D01*
X0256037Y0154139D01*
X0256638Y0153538D01*
X0257238Y0153538D01*
X0257839Y0154139D01*
X0257839Y0155340D01*
X0258439Y0155940D01*
X0259040Y0155940D01*
X0259640Y0155340D01*
X0259640Y0154139D01*
X0259040Y0153538D01*
X0259640Y0152257D02*
X0256037Y0152257D01*
X0256037Y0149855D01*
X0256037Y0148574D02*
X0256037Y0146172D01*
X0256037Y0144891D02*
X0256037Y0142489D01*
X0256037Y0141208D02*
X0259640Y0141208D01*
X0259640Y0139406D01*
X0259040Y0138806D01*
X0257839Y0138806D01*
X0257238Y0139406D01*
X0257238Y0141208D01*
X0257839Y0143690D02*
X0257839Y0144891D01*
X0259640Y0144891D02*
X0256037Y0144891D01*
X0257839Y0147373D02*
X0257839Y0148574D01*
X0259640Y0148574D02*
X0256037Y0148574D01*
X0259640Y0148574D02*
X0259640Y0146172D01*
X0259640Y0144891D02*
X0259640Y0142489D01*
X0256037Y0137525D02*
X0259640Y0135123D01*
X0259640Y0133842D02*
X0259640Y0132040D01*
X0259040Y0131440D01*
X0256638Y0131440D01*
X0256037Y0132040D01*
X0256037Y0133842D01*
X0259640Y0133842D01*
X0259040Y0130158D02*
X0259640Y0129558D01*
X0259640Y0128357D01*
X0259040Y0127756D01*
X0258439Y0127756D01*
X0256037Y0130158D01*
X0256037Y0127756D01*
X0256037Y0126475D02*
X0258439Y0124073D01*
X0259040Y0124073D01*
X0259640Y0124674D01*
X0259640Y0125875D01*
X0259040Y0126475D01*
X0256037Y0126475D02*
X0256037Y0124073D01*
X0235640Y0122792D02*
X0232037Y0120390D01*
X0232037Y0119109D02*
X0232037Y0116707D01*
X0232037Y0117908D02*
X0235640Y0117908D01*
X0234439Y0119109D01*
X0235640Y0120390D02*
X0232037Y0122792D01*
X0232638Y0115426D02*
X0235040Y0113024D01*
X0232638Y0113024D01*
X0232037Y0113624D01*
X0232037Y0114825D01*
X0232638Y0115426D01*
X0235040Y0115426D01*
X0235640Y0114825D01*
X0235640Y0113624D01*
X0235040Y0113024D01*
X0229396Y0105795D02*
X0229396Y0102192D01*
X0228195Y0102192D02*
X0230597Y0102192D01*
X0228195Y0104594D02*
X0229396Y0105795D01*
X0237138Y0091292D02*
X0236537Y0090692D01*
X0236537Y0089491D01*
X0237138Y0088890D01*
X0237138Y0087609D02*
X0236537Y0087008D01*
X0236537Y0085807D01*
X0237138Y0085207D01*
X0237738Y0085207D01*
X0238339Y0085807D01*
X0238339Y0087008D01*
X0238939Y0087609D01*
X0239540Y0087609D01*
X0240140Y0087008D01*
X0240140Y0085807D01*
X0239540Y0085207D01*
X0239540Y0088890D02*
X0240140Y0089491D01*
X0240140Y0090692D01*
X0239540Y0091292D01*
X0237138Y0091292D01*
X0246537Y0091292D02*
X0250140Y0091292D01*
X0248939Y0090091D01*
X0250140Y0088890D01*
X0246537Y0088890D01*
X0247138Y0087609D02*
X0246537Y0087008D01*
X0246537Y0085807D01*
X0247138Y0085207D01*
X0249540Y0085207D01*
X0250140Y0085807D01*
X0250140Y0087008D01*
X0249540Y0087609D01*
X0247138Y0087609D01*
X0247138Y0083926D02*
X0246537Y0083325D01*
X0246537Y0082124D01*
X0247138Y0081524D01*
X0247738Y0081524D01*
X0248339Y0082124D01*
X0248339Y0083325D01*
X0248939Y0083926D01*
X0249540Y0083926D01*
X0250140Y0083325D01*
X0250140Y0082124D01*
X0249540Y0081524D01*
X0250140Y0080243D02*
X0250140Y0079042D01*
X0250140Y0079642D02*
X0246537Y0079642D01*
X0246537Y0079042D02*
X0246537Y0080243D01*
X0256537Y0079669D02*
X0257138Y0079068D01*
X0259540Y0079068D01*
X0260140Y0079669D01*
X0260140Y0080870D01*
X0259540Y0081470D01*
X0257138Y0081470D01*
X0256537Y0080870D01*
X0256537Y0079669D01*
X0257138Y0082752D02*
X0256537Y0083352D01*
X0256537Y0084553D01*
X0257138Y0085154D01*
X0258339Y0084553D02*
X0258339Y0083352D01*
X0257738Y0082752D01*
X0257138Y0082752D01*
X0258339Y0084553D02*
X0258939Y0085154D01*
X0259540Y0085154D01*
X0260140Y0084553D01*
X0260140Y0083352D01*
X0259540Y0082752D01*
X0260140Y0086408D02*
X0260140Y0087609D01*
X0260140Y0087008D02*
X0256537Y0087008D01*
X0256537Y0086408D02*
X0256537Y0087609D01*
X0256537Y0088890D02*
X0260140Y0088890D01*
X0258939Y0090091D01*
X0260140Y0091292D01*
X0256537Y0091292D01*
X0266537Y0090692D02*
X0266537Y0089491D01*
X0267138Y0088890D01*
X0267738Y0088890D01*
X0268339Y0089491D01*
X0268339Y0090692D01*
X0268939Y0091292D01*
X0269540Y0091292D01*
X0270140Y0090692D01*
X0270140Y0089491D01*
X0269540Y0088890D01*
X0269540Y0087609D02*
X0267138Y0087609D01*
X0266537Y0087008D01*
X0266537Y0085807D01*
X0267138Y0085207D01*
X0267738Y0083926D02*
X0270140Y0081524D01*
X0270140Y0083926D02*
X0266537Y0083926D01*
X0268339Y0083325D02*
X0266537Y0081524D01*
X0269540Y0085207D02*
X0270140Y0085807D01*
X0270140Y0087008D01*
X0269540Y0087609D01*
X0266537Y0090692D02*
X0267138Y0091292D01*
X0276537Y0090692D02*
X0276537Y0089491D01*
X0277138Y0088890D01*
X0278339Y0088890D01*
X0278339Y0090091D01*
X0279540Y0088890D02*
X0280140Y0089491D01*
X0280140Y0090692D01*
X0279540Y0091292D01*
X0277138Y0091292D01*
X0276537Y0090692D01*
X0276537Y0087609D02*
X0280140Y0087609D01*
X0276537Y0085207D01*
X0280140Y0085207D01*
X0280140Y0083926D02*
X0280140Y0082124D01*
X0279540Y0081524D01*
X0277138Y0081524D01*
X0276537Y0082124D01*
X0276537Y0083926D01*
X0280140Y0083926D01*
X0286537Y0083325D02*
X0286537Y0082124D01*
X0287138Y0081524D01*
X0287738Y0081524D01*
X0288339Y0082124D01*
X0288339Y0082725D01*
X0288339Y0082124D02*
X0288939Y0081524D01*
X0289540Y0081524D01*
X0290140Y0082124D01*
X0290140Y0083325D01*
X0289540Y0083926D01*
X0290140Y0085207D02*
X0287738Y0085207D01*
X0286537Y0086408D01*
X0287738Y0087609D01*
X0290140Y0087609D01*
X0289540Y0088890D02*
X0288939Y0088890D01*
X0288339Y0089491D01*
X0287738Y0088890D01*
X0287138Y0088890D01*
X0286537Y0089491D01*
X0286537Y0090692D01*
X0287138Y0091292D01*
X0288339Y0090091D02*
X0288339Y0089491D01*
X0289540Y0088890D02*
X0290140Y0089491D01*
X0290140Y0090692D01*
X0289540Y0091292D01*
X0296537Y0090692D02*
X0296537Y0089491D01*
X0297138Y0088890D01*
X0297738Y0088890D01*
X0298339Y0089491D01*
X0298339Y0090692D01*
X0298939Y0091292D01*
X0299540Y0091292D01*
X0300140Y0090692D01*
X0300140Y0089491D01*
X0299540Y0088890D01*
X0300140Y0087609D02*
X0300140Y0085807D01*
X0299540Y0085207D01*
X0297138Y0085207D01*
X0296537Y0085807D01*
X0296537Y0087609D01*
X0300140Y0087609D01*
X0298939Y0083926D02*
X0300140Y0082725D01*
X0298939Y0081524D01*
X0296537Y0081524D01*
X0298339Y0081524D02*
X0298339Y0083926D01*
X0298939Y0083926D02*
X0296537Y0083926D01*
X0296537Y0090692D02*
X0297138Y0091292D01*
X0306537Y0090692D02*
X0306537Y0089491D01*
X0307138Y0088890D01*
X0307738Y0088890D01*
X0308339Y0089491D01*
X0308339Y0090692D01*
X0308939Y0091292D01*
X0309540Y0091292D01*
X0310140Y0090692D01*
X0310140Y0089491D01*
X0309540Y0088890D01*
X0309540Y0087609D02*
X0307138Y0087609D01*
X0306537Y0087008D01*
X0306537Y0085807D01*
X0307138Y0085207D01*
X0306537Y0083926D02*
X0306537Y0081524D01*
X0306537Y0083926D02*
X0310140Y0083926D01*
X0309540Y0085207D02*
X0310140Y0085807D01*
X0310140Y0087008D01*
X0309540Y0087609D01*
X0306537Y0090692D02*
X0307138Y0091292D01*
X0316138Y0101707D02*
X0315537Y0102307D01*
X0315537Y0103508D01*
X0316138Y0104109D01*
X0316738Y0104109D01*
X0317339Y0103508D01*
X0317339Y0102307D01*
X0316738Y0101707D01*
X0316138Y0101707D01*
X0317339Y0102307D02*
X0317939Y0101707D01*
X0318540Y0101707D01*
X0319140Y0102307D01*
X0319140Y0103508D01*
X0318540Y0104109D01*
X0317939Y0104109D01*
X0317339Y0103508D01*
X0319140Y0105390D02*
X0315537Y0107792D01*
X0315537Y0105390D02*
X0319140Y0107792D01*
X0287138Y0083926D02*
X0286537Y0083325D01*
X0217640Y0085408D02*
X0214037Y0085408D01*
X0214037Y0086609D02*
X0214037Y0084207D01*
X0216439Y0086609D02*
X0217640Y0085408D01*
X0217040Y0087890D02*
X0217640Y0088491D01*
X0217640Y0089692D01*
X0217040Y0090292D01*
X0214638Y0090292D01*
X0214037Y0089692D01*
X0214037Y0088491D01*
X0214638Y0087890D01*
X0207640Y0088491D02*
X0207640Y0090292D01*
X0204037Y0090292D01*
X0205238Y0090292D02*
X0205238Y0088491D01*
X0205839Y0087890D01*
X0207040Y0087890D01*
X0207640Y0088491D01*
X0207040Y0086609D02*
X0207640Y0086008D01*
X0207640Y0084807D01*
X0207040Y0084207D01*
X0206439Y0084207D01*
X0205839Y0084807D01*
X0205238Y0084207D01*
X0204638Y0084207D01*
X0204037Y0084807D01*
X0204037Y0086008D01*
X0204638Y0086609D01*
X0204037Y0087890D02*
X0205238Y0089091D01*
X0205839Y0085408D02*
X0205839Y0084807D01*
X0179140Y0085052D02*
X0178623Y0085569D01*
X0179140Y0085052D02*
X0179140Y0084018D01*
X0178623Y0083501D01*
X0178105Y0083501D01*
X0176037Y0085569D01*
X0176037Y0083501D01*
X0176037Y0086724D02*
X0177071Y0087758D01*
X0177071Y0087241D02*
X0177071Y0088792D01*
X0176037Y0088792D02*
X0179140Y0088792D01*
X0179140Y0087241D01*
X0178623Y0086724D01*
X0177588Y0086724D01*
X0177071Y0087241D01*
X0166140Y0100807D02*
X0162537Y0100807D01*
X0164339Y0100207D02*
X0164339Y0102609D01*
X0166140Y0100807D01*
X0166140Y0103890D02*
X0162537Y0106292D01*
X0162537Y0103890D02*
X0166140Y0106292D01*
X0172037Y0119207D02*
X0172037Y0121609D01*
X0172037Y0120408D02*
X0175640Y0120408D01*
X0174439Y0121609D01*
X0173839Y0122890D02*
X0173238Y0123491D01*
X0173238Y0125292D01*
X0173238Y0124091D02*
X0172037Y0122890D01*
X0173839Y0122890D02*
X0175040Y0122890D01*
X0175640Y0123491D01*
X0175640Y0125292D01*
X0172037Y0125292D01*
X0149640Y0142707D02*
X0149640Y0145109D01*
X0147839Y0145109D01*
X0148439Y0143908D01*
X0148439Y0143307D01*
X0147839Y0142707D01*
X0146638Y0142707D01*
X0146037Y0143307D01*
X0146037Y0144508D01*
X0146638Y0145109D01*
X0146037Y0146390D02*
X0149640Y0148792D01*
X0149640Y0146390D02*
X0146037Y0148792D01*
X0178537Y0161109D02*
X0179138Y0161109D01*
X0181540Y0158707D01*
X0182140Y0158707D01*
X0182140Y0161109D01*
X0182140Y0162390D02*
X0178537Y0164792D01*
X0178537Y0162390D02*
X0182140Y0164792D01*
X0116140Y0117792D02*
X0112537Y0117792D01*
X0113738Y0117792D02*
X0113738Y0115991D01*
X0114339Y0115390D01*
X0115540Y0115390D01*
X0116140Y0115991D01*
X0116140Y0117792D01*
X0113738Y0116591D02*
X0112537Y0115390D01*
X0114339Y0114109D02*
X0114339Y0111707D01*
X0116140Y0112307D02*
X0114339Y0114109D01*
X0116140Y0112307D02*
X0112537Y0112307D01*
X0089140Y0112307D02*
X0089140Y0113508D01*
X0088540Y0114109D01*
X0088540Y0115390D02*
X0089140Y0115991D01*
X0089140Y0117192D01*
X0088540Y0117792D01*
X0086138Y0117792D01*
X0085537Y0117192D01*
X0085537Y0115991D01*
X0086138Y0115390D01*
X0085537Y0114109D02*
X0087939Y0111707D01*
X0088540Y0111707D01*
X0089140Y0112307D01*
X0085537Y0111707D02*
X0085537Y0114109D01*
X0076396Y0105795D02*
X0076396Y0102192D01*
X0075195Y0102192D02*
X0077597Y0102192D01*
X0075195Y0104594D02*
X0076396Y0105795D01*
X0084138Y0091292D02*
X0083537Y0090692D01*
X0083537Y0089491D01*
X0084138Y0088890D01*
X0085339Y0088890D01*
X0085339Y0090091D01*
X0086540Y0088890D02*
X0087140Y0089491D01*
X0087140Y0090692D01*
X0086540Y0091292D01*
X0084138Y0091292D01*
X0083537Y0087609D02*
X0087140Y0087609D01*
X0083537Y0085207D01*
X0087140Y0085207D01*
X0087140Y0083926D02*
X0087140Y0082124D01*
X0086540Y0081524D01*
X0084138Y0081524D01*
X0083537Y0082124D01*
X0083537Y0083926D01*
X0087140Y0083926D01*
X0093537Y0083325D02*
X0093537Y0082124D01*
X0094138Y0081524D01*
X0094738Y0081524D01*
X0095339Y0082124D01*
X0095339Y0082725D01*
X0095339Y0082124D02*
X0095939Y0081524D01*
X0096540Y0081524D01*
X0097140Y0082124D01*
X0097140Y0083325D01*
X0096540Y0083926D01*
X0097140Y0085207D02*
X0094738Y0085207D01*
X0093537Y0086408D01*
X0094738Y0087609D01*
X0097140Y0087609D01*
X0096540Y0088890D02*
X0095939Y0088890D01*
X0095339Y0089491D01*
X0094738Y0088890D01*
X0094138Y0088890D01*
X0093537Y0089491D01*
X0093537Y0090692D01*
X0094138Y0091292D01*
X0095339Y0090091D02*
X0095339Y0089491D01*
X0096540Y0088890D02*
X0097140Y0089491D01*
X0097140Y0090692D01*
X0096540Y0091292D01*
X0103537Y0091292D02*
X0107140Y0091292D01*
X0107140Y0089491D01*
X0106540Y0088890D01*
X0105339Y0088890D01*
X0104738Y0089491D01*
X0104738Y0091292D01*
X0104738Y0090091D02*
X0103537Y0088890D01*
X0103537Y0087609D02*
X0107140Y0085207D01*
X0107140Y0087609D02*
X0103537Y0085207D01*
X0094138Y0083926D02*
X0093537Y0083325D01*
X0113537Y0085207D02*
X0117140Y0087609D01*
X0117140Y0088890D02*
X0117140Y0091292D01*
X0117140Y0090091D02*
X0113537Y0090091D01*
X0113537Y0087609D02*
X0117140Y0085207D01*
X0120537Y0085307D02*
X0120537Y0087109D01*
X0124140Y0087109D01*
X0124140Y0085307D01*
X0123540Y0084707D01*
X0121138Y0084707D01*
X0120537Y0085307D01*
X0120537Y0088390D02*
X0124140Y0088390D01*
X0122939Y0089591D01*
X0124140Y0090792D01*
X0120537Y0090792D01*
X0124937Y0090992D02*
X0124937Y0083626D01*
X0126537Y0082225D02*
X0130140Y0082225D01*
X0130140Y0083426D02*
X0130140Y0081024D01*
X0129540Y0084707D02*
X0130140Y0085307D01*
X0130140Y0086508D01*
X0129540Y0087109D01*
X0128939Y0087109D01*
X0128339Y0086508D01*
X0128339Y0085307D01*
X0127738Y0084707D01*
X0127138Y0084707D01*
X0126537Y0085307D01*
X0126537Y0086508D01*
X0127138Y0087109D01*
X0126537Y0088390D02*
X0127738Y0089591D01*
X0127738Y0088991D02*
X0127738Y0090792D01*
X0126537Y0090792D02*
X0130140Y0090792D01*
X0130140Y0088991D01*
X0129540Y0088390D01*
X0128339Y0088390D01*
X0127738Y0088991D01*
X0133537Y0088890D02*
X0133537Y0091292D01*
X0137140Y0091292D01*
X0136540Y0087609D02*
X0134138Y0087609D01*
X0133537Y0087008D01*
X0133537Y0085807D01*
X0134138Y0085207D01*
X0135339Y0085207D01*
X0135339Y0086408D01*
X0136540Y0087609D02*
X0137140Y0087008D01*
X0137140Y0085807D01*
X0136540Y0085207D01*
X0143537Y0085207D02*
X0143537Y0087609D01*
X0147140Y0087609D01*
X0146540Y0088890D02*
X0147140Y0089491D01*
X0147140Y0090692D01*
X0146540Y0091292D01*
X0145939Y0091292D01*
X0145339Y0090692D01*
X0145339Y0089491D01*
X0144738Y0088890D01*
X0144138Y0088890D01*
X0143537Y0089491D01*
X0143537Y0090692D01*
X0144138Y0091292D01*
X0147937Y0091492D02*
X0147937Y0080443D01*
X0146540Y0081524D02*
X0145339Y0081524D01*
X0144738Y0082124D01*
X0144738Y0083926D01*
X0143537Y0083926D02*
X0147140Y0083926D01*
X0147140Y0082124D01*
X0146540Y0081524D01*
X0153537Y0082124D02*
X0154138Y0081524D01*
X0156540Y0081524D01*
X0157140Y0082124D01*
X0157140Y0083926D01*
X0153537Y0083926D01*
X0153537Y0082124D01*
X0153537Y0085207D02*
X0157140Y0085207D01*
X0157140Y0087609D02*
X0153537Y0085207D01*
X0153537Y0087609D02*
X0157140Y0087609D01*
X0156540Y0088890D02*
X0157140Y0089491D01*
X0157140Y0090692D01*
X0156540Y0091292D01*
X0154138Y0091292D01*
X0153537Y0090692D01*
X0153537Y0089491D01*
X0154138Y0088890D01*
X0155339Y0088890D01*
X0155339Y0090091D01*
X0279037Y0163925D02*
X0279037Y0166327D01*
X0279037Y0165126D02*
X0282640Y0165126D01*
X0281439Y0166327D01*
X0281439Y0167608D02*
X0282040Y0167608D01*
X0282640Y0168209D01*
X0282640Y0169410D01*
X0282040Y0170010D01*
X0282040Y0171291D02*
X0282640Y0171892D01*
X0282640Y0173693D01*
X0279037Y0173693D01*
X0279037Y0171892D01*
X0279638Y0171291D01*
X0282040Y0171291D01*
X0279037Y0170010D02*
X0279037Y0167608D01*
X0279037Y0170010D02*
X0281439Y0167608D01*
X0282640Y0174974D02*
X0279037Y0177376D01*
X0279037Y0179859D02*
X0282640Y0179859D01*
X0282640Y0181060D02*
X0282640Y0178658D01*
X0282640Y0182341D02*
X0282640Y0184743D01*
X0279037Y0184743D01*
X0279037Y0182341D01*
X0280839Y0183542D02*
X0280839Y0184743D01*
X0280238Y0186024D02*
X0279638Y0186024D01*
X0279037Y0186624D01*
X0279037Y0187825D01*
X0279638Y0188426D01*
X0280839Y0187825D02*
X0280839Y0186624D01*
X0280238Y0186024D01*
X0282040Y0186024D02*
X0282640Y0186624D01*
X0282640Y0187825D01*
X0282040Y0188426D01*
X0281439Y0188426D01*
X0280839Y0187825D01*
X0282640Y0189707D02*
X0282640Y0192109D01*
X0279037Y0192109D01*
X0279037Y0189707D01*
X0280839Y0190908D02*
X0280839Y0192109D01*
X0280839Y0193390D02*
X0280238Y0193991D01*
X0280238Y0195792D01*
X0280238Y0194591D02*
X0279037Y0193390D01*
X0280839Y0193390D02*
X0282040Y0193390D01*
X0282640Y0193991D01*
X0282640Y0195792D01*
X0279037Y0195792D01*
X0295037Y0195792D02*
X0298640Y0195792D01*
X0298640Y0193991D01*
X0298040Y0193390D01*
X0296839Y0193390D01*
X0296238Y0193991D01*
X0296238Y0195792D01*
X0296238Y0194591D02*
X0295037Y0193390D01*
X0295037Y0192109D02*
X0298640Y0189707D01*
X0298640Y0192109D02*
X0295037Y0189707D01*
X0295037Y0188426D02*
X0298640Y0186024D01*
X0298640Y0184743D02*
X0298640Y0182941D01*
X0298040Y0182341D01*
X0295638Y0182341D01*
X0295037Y0182941D01*
X0295037Y0184743D01*
X0298640Y0184743D01*
X0297439Y0181060D02*
X0298640Y0179859D01*
X0295037Y0179859D01*
X0295037Y0181060D02*
X0295037Y0178658D01*
X0295638Y0177376D02*
X0298040Y0174974D01*
X0295638Y0174974D01*
X0295037Y0175575D01*
X0295037Y0176776D01*
X0295638Y0177376D01*
X0298040Y0177376D01*
X0298640Y0176776D01*
X0298640Y0175575D01*
X0298040Y0174974D01*
X0302537Y0179258D02*
X0303138Y0178658D01*
X0305540Y0178658D01*
X0306140Y0179258D01*
X0306140Y0180459D01*
X0305540Y0181060D01*
X0304939Y0181060D01*
X0304339Y0180459D01*
X0304339Y0178658D01*
X0302537Y0179258D02*
X0302537Y0180459D01*
X0303138Y0181060D01*
X0303138Y0182341D02*
X0305540Y0182341D01*
X0306140Y0182941D01*
X0306140Y0184743D01*
X0302537Y0184743D01*
X0302537Y0182941D01*
X0303138Y0182341D01*
X0306140Y0186024D02*
X0302537Y0188426D01*
X0302537Y0189707D02*
X0306140Y0192109D01*
X0306140Y0193390D02*
X0306140Y0195792D01*
X0306140Y0194591D02*
X0302537Y0194591D01*
X0302537Y0192109D02*
X0306140Y0189707D01*
X0311537Y0172792D02*
X0315140Y0172792D01*
X0315140Y0170991D01*
X0314540Y0170390D01*
X0313339Y0170390D01*
X0312738Y0170991D01*
X0312738Y0172792D01*
X0312738Y0171591D02*
X0311537Y0170390D01*
X0312138Y0169109D02*
X0311537Y0168508D01*
X0311537Y0167307D01*
X0312138Y0166707D01*
X0313339Y0166707D01*
X0313939Y0167307D01*
X0313939Y0167908D01*
X0313339Y0169109D01*
X0315140Y0169109D01*
X0315140Y0166707D01*
X0322037Y0167307D02*
X0322037Y0168508D01*
X0322638Y0169109D01*
X0322638Y0170390D02*
X0322037Y0170991D01*
X0322037Y0172192D01*
X0322638Y0172792D01*
X0325040Y0172792D01*
X0325640Y0172192D01*
X0325640Y0170991D01*
X0325040Y0170390D01*
X0325040Y0169109D02*
X0325640Y0168508D01*
X0325640Y0167307D01*
X0325040Y0166707D01*
X0324439Y0166707D01*
X0323839Y0167307D01*
X0323238Y0166707D01*
X0322638Y0166707D01*
X0322037Y0167307D01*
X0323839Y0167307D02*
X0323839Y0167908D01*
X0332429Y0208399D02*
X0331829Y0209000D01*
X0331829Y0210801D01*
X0330628Y0210801D02*
X0334231Y0210801D01*
X0334231Y0209000D01*
X0333630Y0208399D01*
X0332429Y0208399D01*
X0331228Y0212082D02*
X0334231Y0212082D01*
X0334231Y0214484D02*
X0331228Y0214484D01*
X0330628Y0213884D01*
X0330628Y0212683D01*
X0331228Y0212082D01*
X0330628Y0215766D02*
X0332429Y0217567D01*
X0331829Y0218168D02*
X0334231Y0215766D01*
X0334231Y0218168D02*
X0330628Y0218168D01*
X0331228Y0219449D02*
X0330628Y0220049D01*
X0330628Y0221250D01*
X0331228Y0221851D01*
X0333630Y0221851D01*
X0334231Y0221250D01*
X0334231Y0220049D01*
X0333630Y0219449D01*
X0333030Y0223132D02*
X0330628Y0223132D01*
X0332429Y0223132D02*
X0332429Y0225534D01*
X0333030Y0225534D02*
X0334231Y0224333D01*
X0333030Y0223132D01*
X0333030Y0225534D02*
X0330628Y0225534D01*
X0331228Y0226815D02*
X0330628Y0227415D01*
X0330628Y0229217D01*
X0334231Y0229217D01*
X0334231Y0227415D01*
X0333630Y0226815D01*
X0333030Y0226815D01*
X0332429Y0227415D01*
X0332429Y0229217D01*
X0332429Y0227415D02*
X0331829Y0226815D01*
X0331228Y0226815D01*
X0336628Y0226815D02*
X0336628Y0229217D01*
X0339030Y0226815D01*
X0339630Y0226815D01*
X0340231Y0227415D01*
X0340231Y0228617D01*
X0339630Y0229217D01*
X0339630Y0230498D02*
X0340231Y0231099D01*
X0340231Y0232300D01*
X0339630Y0232900D01*
X0339630Y0230498D02*
X0339030Y0230498D01*
X0336628Y0232900D01*
X0336628Y0230498D01*
X0336628Y0234181D02*
X0336628Y0236583D01*
X0336628Y0235382D02*
X0340231Y0235382D01*
X0339030Y0236583D01*
X0339630Y0237864D02*
X0338429Y0237864D01*
X0337829Y0238465D01*
X0337829Y0240266D01*
X0337829Y0239065D02*
X0336628Y0237864D01*
X0334231Y0237864D02*
X0334231Y0240266D01*
X0334231Y0239065D02*
X0330628Y0239065D01*
X0330628Y0241548D02*
X0331829Y0242749D01*
X0331829Y0242148D02*
X0331829Y0243950D01*
X0330628Y0243950D02*
X0334231Y0243950D01*
X0334231Y0242148D01*
X0333630Y0241548D01*
X0332429Y0241548D01*
X0331829Y0242148D01*
X0336628Y0242148D02*
X0336628Y0243349D01*
X0337228Y0243950D01*
X0339630Y0243950D01*
X0340231Y0243349D01*
X0340231Y0242148D01*
X0339630Y0241548D01*
X0340231Y0240266D02*
X0340231Y0238465D01*
X0339630Y0237864D01*
X0340231Y0240266D02*
X0336628Y0240266D01*
X0337228Y0241548D02*
X0336628Y0242148D01*
X0333630Y0236583D02*
X0331228Y0236583D01*
X0330628Y0235983D01*
X0330628Y0234782D01*
X0331228Y0234181D01*
X0333630Y0234181D02*
X0334231Y0234782D01*
X0334231Y0235983D01*
X0333630Y0236583D01*
X0337228Y0225534D02*
X0339630Y0223132D01*
X0337228Y0223132D01*
X0336628Y0223732D01*
X0336628Y0224933D01*
X0337228Y0225534D01*
X0339630Y0225534D01*
X0340231Y0224933D01*
X0340231Y0223732D01*
X0339630Y0223132D01*
X0251640Y0222725D02*
X0248037Y0222725D01*
X0248037Y0225207D02*
X0250439Y0225207D01*
X0251640Y0226408D01*
X0250439Y0227609D01*
X0248037Y0227609D01*
X0248638Y0228890D02*
X0248037Y0229491D01*
X0248037Y0231292D01*
X0251640Y0231292D01*
X0251640Y0229491D01*
X0251040Y0228890D01*
X0250439Y0228890D01*
X0249839Y0229491D01*
X0249839Y0231292D01*
X0249839Y0229491D02*
X0249238Y0228890D01*
X0248638Y0228890D01*
X0249839Y0227609D02*
X0249839Y0225207D01*
X0251640Y0223926D02*
X0251640Y0221524D01*
X0250439Y0220243D02*
X0251640Y0219042D01*
X0248037Y0219042D01*
X0248037Y0220243D02*
X0248037Y0217841D01*
X0199140Y0246807D02*
X0198540Y0246207D01*
X0197939Y0246207D01*
X0195537Y0248609D01*
X0195537Y0246207D01*
X0199140Y0246807D02*
X0199140Y0248008D01*
X0198540Y0248609D01*
X0199140Y0249890D02*
X0195537Y0252292D01*
X0195537Y0249890D02*
X0199140Y0252292D01*
X0195140Y0239792D02*
X0191537Y0239792D01*
X0193339Y0239792D02*
X0193339Y0238591D01*
X0195140Y0239792D02*
X0195140Y0237390D01*
X0193939Y0236109D02*
X0195140Y0234908D01*
X0191537Y0234908D01*
X0191537Y0236109D02*
X0191537Y0233707D01*
X0178140Y0234908D02*
X0174537Y0234908D01*
X0174537Y0236109D02*
X0174537Y0233707D01*
X0176939Y0236109D02*
X0178140Y0234908D01*
X0177540Y0237390D02*
X0178140Y0237991D01*
X0178140Y0239792D01*
X0174537Y0239792D01*
X0174537Y0237991D01*
X0175138Y0237390D01*
X0177540Y0237390D01*
X0242537Y0262207D02*
X0242537Y0264609D01*
X0242537Y0263408D02*
X0246140Y0263408D01*
X0244939Y0264609D01*
X0246140Y0265890D02*
X0242537Y0268292D01*
X0242537Y0265890D02*
X0246140Y0268292D01*
D12*
X0209443Y0207898D02*
X0209443Y0111047D01*
X0317605Y0111047D01*
X0342802Y0140181D01*
X0342802Y0178764D01*
X0317605Y0207898D01*
X0209443Y0207898D01*
D13*
X0157151Y0262288D02*
X0154949Y0262288D01*
X0154215Y0263022D01*
X0154215Y0263756D01*
X0154949Y0264490D01*
X0157151Y0264490D01*
X0157151Y0266692D02*
X0157151Y0262288D01*
X0154949Y0264490D02*
X0154215Y0265224D01*
X0154215Y0265958D01*
X0154949Y0266692D01*
X0157151Y0266692D01*
X0152547Y0266692D02*
X0152547Y0263756D01*
X0151079Y0262288D01*
X0149611Y0263756D01*
X0149611Y0266692D01*
X0149611Y0264490D02*
X0152547Y0264490D01*
X0147943Y0262288D02*
X0145007Y0262288D01*
X0146475Y0262288D02*
X0146475Y0266692D01*
X0141871Y0266692D02*
X0141871Y0262288D01*
X0143339Y0262288D02*
X0140403Y0262288D01*
X0138735Y0262288D02*
X0138735Y0266692D01*
X0135799Y0266692D01*
X0134131Y0266692D02*
X0134131Y0262288D01*
X0131929Y0262288D01*
X0131195Y0263022D01*
X0131195Y0264490D01*
X0131929Y0265224D01*
X0134131Y0265224D01*
X0132663Y0265224D02*
X0131195Y0266692D01*
X0128059Y0266692D02*
X0128059Y0264490D01*
X0126591Y0263022D01*
X0126591Y0262288D01*
X0128059Y0264490D02*
X0129527Y0263022D01*
X0129527Y0262288D01*
X0135799Y0262288D02*
X0138735Y0262288D01*
X0138735Y0264490D02*
X0137267Y0264490D01*
X0172533Y0268994D02*
X0175469Y0268994D01*
X0186533Y0268994D02*
X0189469Y0268994D01*
X0188001Y0270462D02*
X0188001Y0267526D01*
X0093443Y0265958D02*
X0093443Y0262288D01*
X0090507Y0262288D02*
X0090507Y0265958D01*
X0091241Y0266692D01*
X0092709Y0266692D01*
X0093443Y0265958D01*
X0088839Y0265958D02*
X0088105Y0266692D01*
X0086637Y0266692D01*
X0085903Y0265958D01*
X0085903Y0265224D01*
X0086637Y0264490D01*
X0088105Y0264490D01*
X0088839Y0263756D01*
X0088839Y0263022D01*
X0088105Y0262288D01*
X0086637Y0262288D01*
X0085903Y0263022D01*
X0084235Y0262288D02*
X0082033Y0262288D01*
X0081299Y0263022D01*
X0081299Y0263756D01*
X0082033Y0264490D01*
X0084235Y0264490D01*
X0084235Y0266692D02*
X0084235Y0262288D01*
X0082033Y0264490D02*
X0081299Y0265224D01*
X0081299Y0265958D01*
X0082033Y0266692D01*
X0084235Y0266692D01*
D14*
X0166337Y0236992D02*
X0166337Y0227992D01*
X0169837Y0230992D02*
X0167837Y0233992D01*
X0171837Y0233492D01*
X0169837Y0231492D01*
X0168337Y0233992D01*
X0171337Y0233492D01*
X0169837Y0231992D01*
X0168837Y0233492D01*
X0169337Y0233492D01*
X0170337Y0232992D01*
X0169837Y0232992D01*
X0169837Y0232492D02*
X0169337Y0233492D01*
X0170837Y0233492D01*
X0170337Y0232992D01*
X0169837Y0232492D01*
X0169837Y0230992D02*
X0172337Y0233992D01*
X0168337Y0233992D01*
X0167837Y0233992D01*
X0167337Y0233992D01*
X0169837Y0230992D01*
X0173337Y0227992D02*
X0173337Y0236992D01*
X0181337Y0239992D02*
X0189337Y0239992D01*
X0189337Y0222992D01*
X0181337Y0222992D01*
X0181337Y0239992D01*
X0176337Y0246192D02*
X0169537Y0246192D01*
X0169526Y0246240D02*
X0169526Y0264744D01*
X0193148Y0264744D01*
X0193148Y0246240D01*
X0193137Y0246192D02*
X0186337Y0246192D01*
X0186337Y0248192D01*
X0176337Y0248192D01*
X0176337Y0246192D01*
X0164837Y0216992D02*
X0164837Y0212992D01*
X0161922Y0214992D02*
X0161924Y0215100D01*
X0161930Y0215207D01*
X0161940Y0215315D01*
X0161954Y0215421D01*
X0161972Y0215528D01*
X0161993Y0215633D01*
X0162019Y0215738D01*
X0162048Y0215841D01*
X0162082Y0215944D01*
X0162119Y0216045D01*
X0162160Y0216145D01*
X0162204Y0216243D01*
X0162252Y0216339D01*
X0162304Y0216434D01*
X0162359Y0216527D01*
X0162417Y0216617D01*
X0162479Y0216705D01*
X0162544Y0216791D01*
X0162612Y0216875D01*
X0162683Y0216956D01*
X0162757Y0217034D01*
X0162834Y0217110D01*
X0162913Y0217182D01*
X0162996Y0217252D01*
X0163080Y0217318D01*
X0163167Y0217382D01*
X0163257Y0217442D01*
X0163349Y0217498D01*
X0163442Y0217552D01*
X0163538Y0217601D01*
X0163635Y0217648D01*
X0163734Y0217690D01*
X0163834Y0217729D01*
X0163936Y0217764D01*
X0164039Y0217796D01*
X0164143Y0217823D01*
X0164249Y0217847D01*
X0164354Y0217867D01*
X0164461Y0217883D01*
X0164568Y0217895D01*
X0164675Y0217903D01*
X0164783Y0217907D01*
X0164891Y0217907D01*
X0164999Y0217903D01*
X0165106Y0217895D01*
X0165213Y0217883D01*
X0165320Y0217867D01*
X0165425Y0217847D01*
X0165531Y0217823D01*
X0165635Y0217796D01*
X0165738Y0217764D01*
X0165840Y0217729D01*
X0165940Y0217690D01*
X0166039Y0217648D01*
X0166136Y0217601D01*
X0166232Y0217552D01*
X0166325Y0217498D01*
X0166417Y0217442D01*
X0166507Y0217382D01*
X0166594Y0217318D01*
X0166678Y0217252D01*
X0166761Y0217182D01*
X0166840Y0217110D01*
X0166917Y0217034D01*
X0166991Y0216956D01*
X0167062Y0216875D01*
X0167130Y0216791D01*
X0167195Y0216705D01*
X0167257Y0216617D01*
X0167315Y0216527D01*
X0167370Y0216434D01*
X0167422Y0216339D01*
X0167470Y0216243D01*
X0167514Y0216145D01*
X0167555Y0216045D01*
X0167592Y0215944D01*
X0167626Y0215841D01*
X0167655Y0215738D01*
X0167681Y0215633D01*
X0167702Y0215528D01*
X0167720Y0215421D01*
X0167734Y0215315D01*
X0167744Y0215207D01*
X0167750Y0215100D01*
X0167752Y0214992D01*
X0167750Y0214884D01*
X0167744Y0214777D01*
X0167734Y0214669D01*
X0167720Y0214563D01*
X0167702Y0214456D01*
X0167681Y0214351D01*
X0167655Y0214246D01*
X0167626Y0214143D01*
X0167592Y0214040D01*
X0167555Y0213939D01*
X0167514Y0213839D01*
X0167470Y0213741D01*
X0167422Y0213645D01*
X0167370Y0213550D01*
X0167315Y0213457D01*
X0167257Y0213367D01*
X0167195Y0213279D01*
X0167130Y0213193D01*
X0167062Y0213109D01*
X0166991Y0213028D01*
X0166917Y0212950D01*
X0166840Y0212874D01*
X0166761Y0212802D01*
X0166678Y0212732D01*
X0166594Y0212666D01*
X0166507Y0212602D01*
X0166417Y0212542D01*
X0166325Y0212486D01*
X0166232Y0212432D01*
X0166136Y0212383D01*
X0166039Y0212336D01*
X0165940Y0212294D01*
X0165840Y0212255D01*
X0165738Y0212220D01*
X0165635Y0212188D01*
X0165531Y0212161D01*
X0165425Y0212137D01*
X0165320Y0212117D01*
X0165213Y0212101D01*
X0165106Y0212089D01*
X0164999Y0212081D01*
X0164891Y0212077D01*
X0164783Y0212077D01*
X0164675Y0212081D01*
X0164568Y0212089D01*
X0164461Y0212101D01*
X0164354Y0212117D01*
X0164249Y0212137D01*
X0164143Y0212161D01*
X0164039Y0212188D01*
X0163936Y0212220D01*
X0163834Y0212255D01*
X0163734Y0212294D01*
X0163635Y0212336D01*
X0163538Y0212383D01*
X0163442Y0212432D01*
X0163349Y0212486D01*
X0163257Y0212542D01*
X0163167Y0212602D01*
X0163080Y0212666D01*
X0162996Y0212732D01*
X0162913Y0212802D01*
X0162834Y0212874D01*
X0162757Y0212950D01*
X0162683Y0213028D01*
X0162612Y0213109D01*
X0162544Y0213193D01*
X0162479Y0213279D01*
X0162417Y0213367D01*
X0162359Y0213457D01*
X0162304Y0213550D01*
X0162252Y0213645D01*
X0162204Y0213741D01*
X0162160Y0213839D01*
X0162119Y0213939D01*
X0162082Y0214040D01*
X0162048Y0214143D01*
X0162019Y0214246D01*
X0161993Y0214351D01*
X0161972Y0214456D01*
X0161954Y0214563D01*
X0161940Y0214669D01*
X0161930Y0214777D01*
X0161924Y0214884D01*
X0161922Y0214992D01*
X0162837Y0214992D02*
X0166837Y0214992D01*
X0167837Y0214992D02*
X0175837Y0214992D01*
X0174337Y0215992D01*
X0175837Y0214992D02*
X0174337Y0213992D01*
X0178337Y0214992D02*
X0178837Y0214492D01*
X0179337Y0214992D01*
X0178837Y0215492D01*
X0178337Y0214992D01*
X0179337Y0214992D01*
X0178130Y0214992D02*
X0178132Y0215045D01*
X0178138Y0215097D01*
X0178148Y0215149D01*
X0178161Y0215200D01*
X0178179Y0215250D01*
X0178200Y0215299D01*
X0178225Y0215346D01*
X0178253Y0215390D01*
X0178284Y0215433D01*
X0178319Y0215473D01*
X0178356Y0215510D01*
X0178396Y0215545D01*
X0178439Y0215576D01*
X0178484Y0215604D01*
X0178530Y0215629D01*
X0178579Y0215650D01*
X0178629Y0215668D01*
X0178680Y0215681D01*
X0178732Y0215691D01*
X0178784Y0215697D01*
X0178837Y0215699D01*
X0178890Y0215697D01*
X0178942Y0215691D01*
X0178994Y0215681D01*
X0179045Y0215668D01*
X0179095Y0215650D01*
X0179144Y0215629D01*
X0179191Y0215604D01*
X0179235Y0215576D01*
X0179278Y0215545D01*
X0179318Y0215510D01*
X0179355Y0215473D01*
X0179390Y0215433D01*
X0179421Y0215390D01*
X0179449Y0215345D01*
X0179474Y0215299D01*
X0179495Y0215250D01*
X0179513Y0215200D01*
X0179526Y0215149D01*
X0179536Y0215097D01*
X0179542Y0215045D01*
X0179544Y0214992D01*
X0179542Y0214939D01*
X0179536Y0214887D01*
X0179526Y0214835D01*
X0179513Y0214784D01*
X0179495Y0214734D01*
X0179474Y0214685D01*
X0179449Y0214638D01*
X0179421Y0214594D01*
X0179390Y0214551D01*
X0179355Y0214511D01*
X0179318Y0214474D01*
X0179278Y0214439D01*
X0179235Y0214408D01*
X0179190Y0214380D01*
X0179144Y0214355D01*
X0179095Y0214334D01*
X0179045Y0214316D01*
X0178994Y0214303D01*
X0178942Y0214293D01*
X0178890Y0214287D01*
X0178837Y0214285D01*
X0178784Y0214287D01*
X0178732Y0214293D01*
X0178680Y0214303D01*
X0178629Y0214316D01*
X0178579Y0214334D01*
X0178530Y0214355D01*
X0178483Y0214380D01*
X0178439Y0214408D01*
X0178396Y0214439D01*
X0178356Y0214474D01*
X0178319Y0214511D01*
X0178284Y0214551D01*
X0178253Y0214594D01*
X0178225Y0214639D01*
X0178200Y0214685D01*
X0178179Y0214734D01*
X0178161Y0214784D01*
X0178148Y0214835D01*
X0178138Y0214887D01*
X0178132Y0214939D01*
X0178130Y0214992D01*
X0176144Y0214992D02*
X0176146Y0215095D01*
X0176152Y0215198D01*
X0176162Y0215301D01*
X0176176Y0215403D01*
X0176193Y0215505D01*
X0176215Y0215606D01*
X0176240Y0215706D01*
X0176270Y0215805D01*
X0176303Y0215902D01*
X0176339Y0215999D01*
X0176380Y0216094D01*
X0176424Y0216187D01*
X0176471Y0216278D01*
X0176522Y0216368D01*
X0176577Y0216456D01*
X0176634Y0216541D01*
X0176695Y0216625D01*
X0176759Y0216705D01*
X0176827Y0216784D01*
X0176897Y0216859D01*
X0176970Y0216932D01*
X0177045Y0217002D01*
X0177124Y0217070D01*
X0177204Y0217134D01*
X0177288Y0217195D01*
X0177373Y0217252D01*
X0177461Y0217307D01*
X0177551Y0217358D01*
X0177642Y0217405D01*
X0177735Y0217449D01*
X0177830Y0217490D01*
X0177927Y0217526D01*
X0178024Y0217559D01*
X0178123Y0217589D01*
X0178223Y0217614D01*
X0178324Y0217636D01*
X0178426Y0217653D01*
X0178528Y0217667D01*
X0178631Y0217677D01*
X0178734Y0217683D01*
X0178837Y0217685D01*
X0178940Y0217683D01*
X0179043Y0217677D01*
X0179146Y0217667D01*
X0179248Y0217653D01*
X0179350Y0217636D01*
X0179451Y0217614D01*
X0179551Y0217589D01*
X0179650Y0217559D01*
X0179747Y0217526D01*
X0179844Y0217490D01*
X0179939Y0217449D01*
X0180032Y0217405D01*
X0180123Y0217358D01*
X0180213Y0217307D01*
X0180301Y0217252D01*
X0180386Y0217195D01*
X0180470Y0217134D01*
X0180550Y0217070D01*
X0180629Y0217002D01*
X0180704Y0216932D01*
X0180777Y0216859D01*
X0180847Y0216784D01*
X0180915Y0216705D01*
X0180979Y0216625D01*
X0181040Y0216541D01*
X0181097Y0216456D01*
X0181152Y0216368D01*
X0181203Y0216278D01*
X0181250Y0216187D01*
X0181294Y0216094D01*
X0181335Y0215999D01*
X0181371Y0215902D01*
X0181404Y0215805D01*
X0181434Y0215706D01*
X0181459Y0215606D01*
X0181481Y0215505D01*
X0181498Y0215403D01*
X0181512Y0215301D01*
X0181522Y0215198D01*
X0181528Y0215095D01*
X0181530Y0214992D01*
X0181528Y0214889D01*
X0181522Y0214786D01*
X0181512Y0214683D01*
X0181498Y0214581D01*
X0181481Y0214479D01*
X0181459Y0214378D01*
X0181434Y0214278D01*
X0181404Y0214179D01*
X0181371Y0214082D01*
X0181335Y0213985D01*
X0181294Y0213890D01*
X0181250Y0213797D01*
X0181203Y0213706D01*
X0181152Y0213616D01*
X0181097Y0213528D01*
X0181040Y0213443D01*
X0180979Y0213359D01*
X0180915Y0213279D01*
X0180847Y0213200D01*
X0180777Y0213125D01*
X0180704Y0213052D01*
X0180629Y0212982D01*
X0180550Y0212914D01*
X0180470Y0212850D01*
X0180386Y0212789D01*
X0180301Y0212732D01*
X0180213Y0212677D01*
X0180123Y0212626D01*
X0180032Y0212579D01*
X0179939Y0212535D01*
X0179844Y0212494D01*
X0179747Y0212458D01*
X0179650Y0212425D01*
X0179551Y0212395D01*
X0179451Y0212370D01*
X0179350Y0212348D01*
X0179248Y0212331D01*
X0179146Y0212317D01*
X0179043Y0212307D01*
X0178940Y0212301D01*
X0178837Y0212299D01*
X0178734Y0212301D01*
X0178631Y0212307D01*
X0178528Y0212317D01*
X0178426Y0212331D01*
X0178324Y0212348D01*
X0178223Y0212370D01*
X0178123Y0212395D01*
X0178024Y0212425D01*
X0177927Y0212458D01*
X0177830Y0212494D01*
X0177735Y0212535D01*
X0177642Y0212579D01*
X0177551Y0212626D01*
X0177461Y0212677D01*
X0177373Y0212732D01*
X0177288Y0212789D01*
X0177204Y0212850D01*
X0177124Y0212914D01*
X0177045Y0212982D01*
X0176970Y0213052D01*
X0176897Y0213125D01*
X0176827Y0213200D01*
X0176759Y0213279D01*
X0176695Y0213359D01*
X0176634Y0213443D01*
X0176577Y0213528D01*
X0176522Y0213616D01*
X0176471Y0213706D01*
X0176424Y0213797D01*
X0176380Y0213890D01*
X0176339Y0213985D01*
X0176303Y0214082D01*
X0176270Y0214179D01*
X0176240Y0214278D01*
X0176215Y0214378D01*
X0176193Y0214479D01*
X0176176Y0214581D01*
X0176162Y0214683D01*
X0176152Y0214786D01*
X0176146Y0214889D01*
X0176144Y0214992D01*
X0178130Y0214992D02*
X0178132Y0215045D01*
X0178138Y0215097D01*
X0178148Y0215149D01*
X0178161Y0215200D01*
X0178179Y0215250D01*
X0178200Y0215299D01*
X0178225Y0215346D01*
X0178253Y0215390D01*
X0178284Y0215433D01*
X0178319Y0215473D01*
X0178356Y0215510D01*
X0178396Y0215545D01*
X0178439Y0215576D01*
X0178484Y0215604D01*
X0178530Y0215629D01*
X0178579Y0215650D01*
X0178629Y0215668D01*
X0178680Y0215681D01*
X0178732Y0215691D01*
X0178784Y0215697D01*
X0178837Y0215699D01*
X0178890Y0215697D01*
X0178942Y0215691D01*
X0178994Y0215681D01*
X0179045Y0215668D01*
X0179095Y0215650D01*
X0179144Y0215629D01*
X0179191Y0215604D01*
X0179235Y0215576D01*
X0179278Y0215545D01*
X0179318Y0215510D01*
X0179355Y0215473D01*
X0179390Y0215433D01*
X0179421Y0215390D01*
X0179449Y0215345D01*
X0179474Y0215299D01*
X0179495Y0215250D01*
X0179513Y0215200D01*
X0179526Y0215149D01*
X0179536Y0215097D01*
X0179542Y0215045D01*
X0179544Y0214992D01*
X0179542Y0214939D01*
X0179536Y0214887D01*
X0179526Y0214835D01*
X0179513Y0214784D01*
X0179495Y0214734D01*
X0179474Y0214685D01*
X0179449Y0214638D01*
X0179421Y0214594D01*
X0179390Y0214551D01*
X0179355Y0214511D01*
X0179318Y0214474D01*
X0179278Y0214439D01*
X0179235Y0214408D01*
X0179190Y0214380D01*
X0179144Y0214355D01*
X0179095Y0214334D01*
X0179045Y0214316D01*
X0178994Y0214303D01*
X0178942Y0214293D01*
X0178890Y0214287D01*
X0178837Y0214285D01*
X0178784Y0214287D01*
X0178732Y0214293D01*
X0178680Y0214303D01*
X0178629Y0214316D01*
X0178579Y0214334D01*
X0178530Y0214355D01*
X0178483Y0214380D01*
X0178439Y0214408D01*
X0178396Y0214439D01*
X0178356Y0214474D01*
X0178319Y0214511D01*
X0178284Y0214551D01*
X0178253Y0214594D01*
X0178225Y0214639D01*
X0178200Y0214685D01*
X0178179Y0214734D01*
X0178161Y0214784D01*
X0178148Y0214835D01*
X0178138Y0214887D01*
X0178132Y0214939D01*
X0178130Y0214992D01*
X0176144Y0214992D02*
X0176146Y0215095D01*
X0176152Y0215198D01*
X0176162Y0215301D01*
X0176176Y0215403D01*
X0176193Y0215505D01*
X0176215Y0215606D01*
X0176240Y0215706D01*
X0176270Y0215805D01*
X0176303Y0215902D01*
X0176339Y0215999D01*
X0176380Y0216094D01*
X0176424Y0216187D01*
X0176471Y0216278D01*
X0176522Y0216368D01*
X0176577Y0216456D01*
X0176634Y0216541D01*
X0176695Y0216625D01*
X0176759Y0216705D01*
X0176827Y0216784D01*
X0176897Y0216859D01*
X0176970Y0216932D01*
X0177045Y0217002D01*
X0177124Y0217070D01*
X0177204Y0217134D01*
X0177288Y0217195D01*
X0177373Y0217252D01*
X0177461Y0217307D01*
X0177551Y0217358D01*
X0177642Y0217405D01*
X0177735Y0217449D01*
X0177830Y0217490D01*
X0177927Y0217526D01*
X0178024Y0217559D01*
X0178123Y0217589D01*
X0178223Y0217614D01*
X0178324Y0217636D01*
X0178426Y0217653D01*
X0178528Y0217667D01*
X0178631Y0217677D01*
X0178734Y0217683D01*
X0178837Y0217685D01*
X0178940Y0217683D01*
X0179043Y0217677D01*
X0179146Y0217667D01*
X0179248Y0217653D01*
X0179350Y0217636D01*
X0179451Y0217614D01*
X0179551Y0217589D01*
X0179650Y0217559D01*
X0179747Y0217526D01*
X0179844Y0217490D01*
X0179939Y0217449D01*
X0180032Y0217405D01*
X0180123Y0217358D01*
X0180213Y0217307D01*
X0180301Y0217252D01*
X0180386Y0217195D01*
X0180470Y0217134D01*
X0180550Y0217070D01*
X0180629Y0217002D01*
X0180704Y0216932D01*
X0180777Y0216859D01*
X0180847Y0216784D01*
X0180915Y0216705D01*
X0180979Y0216625D01*
X0181040Y0216541D01*
X0181097Y0216456D01*
X0181152Y0216368D01*
X0181203Y0216278D01*
X0181250Y0216187D01*
X0181294Y0216094D01*
X0181335Y0215999D01*
X0181371Y0215902D01*
X0181404Y0215805D01*
X0181434Y0215706D01*
X0181459Y0215606D01*
X0181481Y0215505D01*
X0181498Y0215403D01*
X0181512Y0215301D01*
X0181522Y0215198D01*
X0181528Y0215095D01*
X0181530Y0214992D01*
X0181528Y0214889D01*
X0181522Y0214786D01*
X0181512Y0214683D01*
X0181498Y0214581D01*
X0181481Y0214479D01*
X0181459Y0214378D01*
X0181434Y0214278D01*
X0181404Y0214179D01*
X0181371Y0214082D01*
X0181335Y0213985D01*
X0181294Y0213890D01*
X0181250Y0213797D01*
X0181203Y0213706D01*
X0181152Y0213616D01*
X0181097Y0213528D01*
X0181040Y0213443D01*
X0180979Y0213359D01*
X0180915Y0213279D01*
X0180847Y0213200D01*
X0180777Y0213125D01*
X0180704Y0213052D01*
X0180629Y0212982D01*
X0180550Y0212914D01*
X0180470Y0212850D01*
X0180386Y0212789D01*
X0180301Y0212732D01*
X0180213Y0212677D01*
X0180123Y0212626D01*
X0180032Y0212579D01*
X0179939Y0212535D01*
X0179844Y0212494D01*
X0179747Y0212458D01*
X0179650Y0212425D01*
X0179551Y0212395D01*
X0179451Y0212370D01*
X0179350Y0212348D01*
X0179248Y0212331D01*
X0179146Y0212317D01*
X0179043Y0212307D01*
X0178940Y0212301D01*
X0178837Y0212299D01*
X0178734Y0212301D01*
X0178631Y0212307D01*
X0178528Y0212317D01*
X0178426Y0212331D01*
X0178324Y0212348D01*
X0178223Y0212370D01*
X0178123Y0212395D01*
X0178024Y0212425D01*
X0177927Y0212458D01*
X0177830Y0212494D01*
X0177735Y0212535D01*
X0177642Y0212579D01*
X0177551Y0212626D01*
X0177461Y0212677D01*
X0177373Y0212732D01*
X0177288Y0212789D01*
X0177204Y0212850D01*
X0177124Y0212914D01*
X0177045Y0212982D01*
X0176970Y0213052D01*
X0176897Y0213125D01*
X0176827Y0213200D01*
X0176759Y0213279D01*
X0176695Y0213359D01*
X0176634Y0213443D01*
X0176577Y0213528D01*
X0176522Y0213616D01*
X0176471Y0213706D01*
X0176424Y0213797D01*
X0176380Y0213890D01*
X0176339Y0213985D01*
X0176303Y0214082D01*
X0176270Y0214179D01*
X0176240Y0214278D01*
X0176215Y0214378D01*
X0176193Y0214479D01*
X0176176Y0214581D01*
X0176162Y0214683D01*
X0176152Y0214786D01*
X0176146Y0214889D01*
X0176144Y0214992D01*
X0174837Y0210992D02*
X0174944Y0210887D01*
X0175054Y0210786D01*
X0175167Y0210687D01*
X0175282Y0210591D01*
X0175400Y0210499D01*
X0175520Y0210410D01*
X0175642Y0210323D01*
X0175767Y0210240D01*
X0175894Y0210161D01*
X0176023Y0210085D01*
X0176154Y0210012D01*
X0176287Y0209943D01*
X0176421Y0209877D01*
X0176557Y0209815D01*
X0176695Y0209756D01*
X0176835Y0209701D01*
X0176975Y0209650D01*
X0177117Y0209603D01*
X0177261Y0209559D01*
X0177405Y0209519D01*
X0177550Y0209483D01*
X0177697Y0209451D01*
X0177844Y0209423D01*
X0177992Y0209399D01*
X0178140Y0209378D01*
X0178289Y0209362D01*
X0178438Y0209349D01*
X0178587Y0209341D01*
X0178737Y0209336D01*
X0178887Y0209335D01*
X0179037Y0209339D01*
X0179186Y0209346D01*
X0179336Y0209357D01*
X0179485Y0209372D01*
X0179633Y0209391D01*
X0179781Y0209414D01*
X0179928Y0209441D01*
X0180075Y0209472D01*
X0180221Y0209507D01*
X0180365Y0209545D01*
X0180509Y0209588D01*
X0180651Y0209634D01*
X0180793Y0209684D01*
X0180932Y0209737D01*
X0181071Y0209795D01*
X0181208Y0209856D01*
X0181343Y0209920D01*
X0181476Y0209988D01*
X0181608Y0210060D01*
X0181737Y0210135D01*
X0181865Y0210213D01*
X0181990Y0210295D01*
X0182113Y0210380D01*
X0182234Y0210469D01*
X0182353Y0210560D01*
X0182469Y0210655D01*
X0182583Y0210753D01*
X0182693Y0210853D01*
X0182802Y0210957D01*
X0182907Y0211063D01*
X0183010Y0211172D01*
X0183109Y0211284D01*
X0183206Y0211398D01*
X0183300Y0211515D01*
X0183390Y0211635D01*
X0183477Y0211756D01*
X0183561Y0211880D01*
X0183642Y0212006D01*
X0183719Y0212135D01*
X0183793Y0212265D01*
X0183864Y0212397D01*
X0183931Y0212531D01*
X0183994Y0212667D01*
X0184054Y0212804D01*
X0184110Y0212943D01*
X0184162Y0213083D01*
X0184211Y0213225D01*
X0184256Y0213368D01*
X0184297Y0213512D01*
X0184334Y0213657D01*
X0184368Y0213803D01*
X0184397Y0213950D01*
X0184423Y0214097D01*
X0184445Y0214245D01*
X0184462Y0214394D01*
X0184476Y0214543D01*
X0184486Y0214693D01*
X0184492Y0214842D01*
X0184494Y0214992D01*
X0184492Y0215142D01*
X0184486Y0215291D01*
X0184476Y0215441D01*
X0184462Y0215590D01*
X0184445Y0215739D01*
X0184423Y0215887D01*
X0184397Y0216034D01*
X0184368Y0216181D01*
X0184334Y0216327D01*
X0184297Y0216472D01*
X0184256Y0216616D01*
X0184211Y0216759D01*
X0184162Y0216901D01*
X0184110Y0217041D01*
X0184054Y0217180D01*
X0183994Y0217317D01*
X0183931Y0217453D01*
X0183864Y0217587D01*
X0183793Y0217719D01*
X0183719Y0217849D01*
X0183642Y0217978D01*
X0183561Y0218104D01*
X0183477Y0218228D01*
X0183390Y0218349D01*
X0183300Y0218469D01*
X0183206Y0218586D01*
X0183109Y0218700D01*
X0183010Y0218812D01*
X0182907Y0218921D01*
X0182802Y0219027D01*
X0182693Y0219131D01*
X0182583Y0219231D01*
X0182469Y0219329D01*
X0182353Y0219424D01*
X0182234Y0219515D01*
X0182113Y0219604D01*
X0181990Y0219689D01*
X0181865Y0219771D01*
X0181737Y0219849D01*
X0181608Y0219924D01*
X0181476Y0219996D01*
X0181343Y0220064D01*
X0181208Y0220128D01*
X0181071Y0220189D01*
X0180932Y0220247D01*
X0180793Y0220300D01*
X0180651Y0220350D01*
X0180509Y0220396D01*
X0180365Y0220439D01*
X0180221Y0220477D01*
X0180075Y0220512D01*
X0179928Y0220543D01*
X0179781Y0220570D01*
X0179633Y0220593D01*
X0179485Y0220612D01*
X0179336Y0220627D01*
X0179186Y0220638D01*
X0179037Y0220645D01*
X0178887Y0220649D01*
X0178737Y0220648D01*
X0178587Y0220643D01*
X0178438Y0220635D01*
X0178289Y0220622D01*
X0178140Y0220606D01*
X0177992Y0220585D01*
X0177844Y0220561D01*
X0177697Y0220533D01*
X0177550Y0220501D01*
X0177405Y0220465D01*
X0177261Y0220425D01*
X0177117Y0220381D01*
X0176975Y0220334D01*
X0176835Y0220283D01*
X0176695Y0220228D01*
X0176557Y0220169D01*
X0176421Y0220107D01*
X0176287Y0220041D01*
X0176154Y0219972D01*
X0176023Y0219899D01*
X0175894Y0219823D01*
X0175767Y0219744D01*
X0175642Y0219661D01*
X0175520Y0219574D01*
X0175400Y0219485D01*
X0175282Y0219393D01*
X0175167Y0219297D01*
X0175054Y0219198D01*
X0174944Y0219097D01*
X0174837Y0218992D01*
X0174944Y0219097D01*
X0175054Y0219198D01*
X0175167Y0219297D01*
X0175282Y0219393D01*
X0175400Y0219485D01*
X0175520Y0219574D01*
X0175642Y0219661D01*
X0175767Y0219744D01*
X0175894Y0219823D01*
X0176023Y0219899D01*
X0176154Y0219972D01*
X0176287Y0220041D01*
X0176421Y0220107D01*
X0176557Y0220169D01*
X0176695Y0220228D01*
X0176835Y0220283D01*
X0176975Y0220334D01*
X0177117Y0220381D01*
X0177261Y0220425D01*
X0177405Y0220465D01*
X0177550Y0220501D01*
X0177697Y0220533D01*
X0177844Y0220561D01*
X0177992Y0220585D01*
X0178140Y0220606D01*
X0178289Y0220622D01*
X0178438Y0220635D01*
X0178587Y0220643D01*
X0178737Y0220648D01*
X0178887Y0220649D01*
X0179037Y0220645D01*
X0179186Y0220638D01*
X0179336Y0220627D01*
X0179485Y0220612D01*
X0179633Y0220593D01*
X0179781Y0220570D01*
X0179928Y0220543D01*
X0180075Y0220512D01*
X0180221Y0220477D01*
X0180365Y0220439D01*
X0180509Y0220396D01*
X0180651Y0220350D01*
X0180793Y0220300D01*
X0180932Y0220247D01*
X0181071Y0220189D01*
X0181208Y0220128D01*
X0181343Y0220064D01*
X0181476Y0219996D01*
X0181608Y0219924D01*
X0181737Y0219849D01*
X0181865Y0219771D01*
X0181990Y0219689D01*
X0182113Y0219604D01*
X0182234Y0219515D01*
X0182353Y0219424D01*
X0182469Y0219329D01*
X0182583Y0219231D01*
X0182693Y0219131D01*
X0182802Y0219027D01*
X0182907Y0218921D01*
X0183010Y0218812D01*
X0183109Y0218700D01*
X0183206Y0218586D01*
X0183300Y0218469D01*
X0183390Y0218349D01*
X0183477Y0218228D01*
X0183561Y0218104D01*
X0183642Y0217978D01*
X0183719Y0217849D01*
X0183793Y0217719D01*
X0183864Y0217587D01*
X0183931Y0217453D01*
X0183994Y0217317D01*
X0184054Y0217180D01*
X0184110Y0217041D01*
X0184162Y0216901D01*
X0184211Y0216759D01*
X0184256Y0216616D01*
X0184297Y0216472D01*
X0184334Y0216327D01*
X0184368Y0216181D01*
X0184397Y0216034D01*
X0184423Y0215887D01*
X0184445Y0215739D01*
X0184462Y0215590D01*
X0184476Y0215441D01*
X0184486Y0215291D01*
X0184492Y0215142D01*
X0184494Y0214992D01*
X0184492Y0214842D01*
X0184486Y0214693D01*
X0184476Y0214543D01*
X0184462Y0214394D01*
X0184445Y0214245D01*
X0184423Y0214097D01*
X0184397Y0213950D01*
X0184368Y0213803D01*
X0184334Y0213657D01*
X0184297Y0213512D01*
X0184256Y0213368D01*
X0184211Y0213225D01*
X0184162Y0213083D01*
X0184110Y0212943D01*
X0184054Y0212804D01*
X0183994Y0212667D01*
X0183931Y0212531D01*
X0183864Y0212397D01*
X0183793Y0212265D01*
X0183719Y0212135D01*
X0183642Y0212006D01*
X0183561Y0211880D01*
X0183477Y0211756D01*
X0183390Y0211635D01*
X0183300Y0211515D01*
X0183206Y0211398D01*
X0183109Y0211284D01*
X0183010Y0211172D01*
X0182907Y0211063D01*
X0182802Y0210957D01*
X0182693Y0210853D01*
X0182583Y0210753D01*
X0182469Y0210655D01*
X0182353Y0210560D01*
X0182234Y0210469D01*
X0182113Y0210380D01*
X0181990Y0210295D01*
X0181865Y0210213D01*
X0181737Y0210135D01*
X0181608Y0210060D01*
X0181476Y0209988D01*
X0181343Y0209920D01*
X0181208Y0209856D01*
X0181071Y0209795D01*
X0180932Y0209737D01*
X0180793Y0209684D01*
X0180651Y0209634D01*
X0180509Y0209588D01*
X0180365Y0209545D01*
X0180221Y0209507D01*
X0180075Y0209472D01*
X0179928Y0209441D01*
X0179781Y0209414D01*
X0179633Y0209391D01*
X0179485Y0209372D01*
X0179336Y0209357D01*
X0179186Y0209346D01*
X0179037Y0209339D01*
X0178887Y0209335D01*
X0178737Y0209336D01*
X0178587Y0209341D01*
X0178438Y0209349D01*
X0178289Y0209362D01*
X0178140Y0209378D01*
X0177992Y0209399D01*
X0177844Y0209423D01*
X0177697Y0209451D01*
X0177550Y0209483D01*
X0177405Y0209519D01*
X0177261Y0209559D01*
X0177117Y0209603D01*
X0176975Y0209650D01*
X0176835Y0209701D01*
X0176695Y0209756D01*
X0176557Y0209815D01*
X0176421Y0209877D01*
X0176287Y0209943D01*
X0176154Y0210012D01*
X0176023Y0210085D01*
X0175894Y0210161D01*
X0175767Y0210240D01*
X0175642Y0210323D01*
X0175520Y0210410D01*
X0175400Y0210499D01*
X0175282Y0210591D01*
X0175167Y0210687D01*
X0175054Y0210786D01*
X0174944Y0210887D01*
X0174837Y0210992D01*
X0161922Y0214992D02*
X0161924Y0215100D01*
X0161930Y0215207D01*
X0161940Y0215315D01*
X0161954Y0215421D01*
X0161972Y0215528D01*
X0161993Y0215633D01*
X0162019Y0215738D01*
X0162048Y0215841D01*
X0162082Y0215944D01*
X0162119Y0216045D01*
X0162160Y0216145D01*
X0162204Y0216243D01*
X0162252Y0216339D01*
X0162304Y0216434D01*
X0162359Y0216527D01*
X0162417Y0216617D01*
X0162479Y0216705D01*
X0162544Y0216791D01*
X0162612Y0216875D01*
X0162683Y0216956D01*
X0162757Y0217034D01*
X0162834Y0217110D01*
X0162913Y0217182D01*
X0162996Y0217252D01*
X0163080Y0217318D01*
X0163167Y0217382D01*
X0163257Y0217442D01*
X0163349Y0217498D01*
X0163442Y0217552D01*
X0163538Y0217601D01*
X0163635Y0217648D01*
X0163734Y0217690D01*
X0163834Y0217729D01*
X0163936Y0217764D01*
X0164039Y0217796D01*
X0164143Y0217823D01*
X0164249Y0217847D01*
X0164354Y0217867D01*
X0164461Y0217883D01*
X0164568Y0217895D01*
X0164675Y0217903D01*
X0164783Y0217907D01*
X0164891Y0217907D01*
X0164999Y0217903D01*
X0165106Y0217895D01*
X0165213Y0217883D01*
X0165320Y0217867D01*
X0165425Y0217847D01*
X0165531Y0217823D01*
X0165635Y0217796D01*
X0165738Y0217764D01*
X0165840Y0217729D01*
X0165940Y0217690D01*
X0166039Y0217648D01*
X0166136Y0217601D01*
X0166232Y0217552D01*
X0166325Y0217498D01*
X0166417Y0217442D01*
X0166507Y0217382D01*
X0166594Y0217318D01*
X0166678Y0217252D01*
X0166761Y0217182D01*
X0166840Y0217110D01*
X0166917Y0217034D01*
X0166991Y0216956D01*
X0167062Y0216875D01*
X0167130Y0216791D01*
X0167195Y0216705D01*
X0167257Y0216617D01*
X0167315Y0216527D01*
X0167370Y0216434D01*
X0167422Y0216339D01*
X0167470Y0216243D01*
X0167514Y0216145D01*
X0167555Y0216045D01*
X0167592Y0215944D01*
X0167626Y0215841D01*
X0167655Y0215738D01*
X0167681Y0215633D01*
X0167702Y0215528D01*
X0167720Y0215421D01*
X0167734Y0215315D01*
X0167744Y0215207D01*
X0167750Y0215100D01*
X0167752Y0214992D01*
X0167750Y0214884D01*
X0167744Y0214777D01*
X0167734Y0214669D01*
X0167720Y0214563D01*
X0167702Y0214456D01*
X0167681Y0214351D01*
X0167655Y0214246D01*
X0167626Y0214143D01*
X0167592Y0214040D01*
X0167555Y0213939D01*
X0167514Y0213839D01*
X0167470Y0213741D01*
X0167422Y0213645D01*
X0167370Y0213550D01*
X0167315Y0213457D01*
X0167257Y0213367D01*
X0167195Y0213279D01*
X0167130Y0213193D01*
X0167062Y0213109D01*
X0166991Y0213028D01*
X0166917Y0212950D01*
X0166840Y0212874D01*
X0166761Y0212802D01*
X0166678Y0212732D01*
X0166594Y0212666D01*
X0166507Y0212602D01*
X0166417Y0212542D01*
X0166325Y0212486D01*
X0166232Y0212432D01*
X0166136Y0212383D01*
X0166039Y0212336D01*
X0165940Y0212294D01*
X0165840Y0212255D01*
X0165738Y0212220D01*
X0165635Y0212188D01*
X0165531Y0212161D01*
X0165425Y0212137D01*
X0165320Y0212117D01*
X0165213Y0212101D01*
X0165106Y0212089D01*
X0164999Y0212081D01*
X0164891Y0212077D01*
X0164783Y0212077D01*
X0164675Y0212081D01*
X0164568Y0212089D01*
X0164461Y0212101D01*
X0164354Y0212117D01*
X0164249Y0212137D01*
X0164143Y0212161D01*
X0164039Y0212188D01*
X0163936Y0212220D01*
X0163834Y0212255D01*
X0163734Y0212294D01*
X0163635Y0212336D01*
X0163538Y0212383D01*
X0163442Y0212432D01*
X0163349Y0212486D01*
X0163257Y0212542D01*
X0163167Y0212602D01*
X0163080Y0212666D01*
X0162996Y0212732D01*
X0162913Y0212802D01*
X0162834Y0212874D01*
X0162757Y0212950D01*
X0162683Y0213028D01*
X0162612Y0213109D01*
X0162544Y0213193D01*
X0162479Y0213279D01*
X0162417Y0213367D01*
X0162359Y0213457D01*
X0162304Y0213550D01*
X0162252Y0213645D01*
X0162204Y0213741D01*
X0162160Y0213839D01*
X0162119Y0213939D01*
X0162082Y0214040D01*
X0162048Y0214143D01*
X0162019Y0214246D01*
X0161993Y0214351D01*
X0161972Y0214456D01*
X0161954Y0214563D01*
X0161940Y0214669D01*
X0161930Y0214777D01*
X0161924Y0214884D01*
X0161922Y0214992D01*
X0184837Y0214992D02*
X0186337Y0215992D01*
X0184837Y0214992D02*
X0186337Y0213992D01*
X0184837Y0214992D02*
X0193837Y0214992D01*
X0194837Y0214992D02*
X0198837Y0214992D01*
X0193922Y0214992D02*
X0193924Y0215100D01*
X0193930Y0215207D01*
X0193940Y0215315D01*
X0193954Y0215421D01*
X0193972Y0215528D01*
X0193993Y0215633D01*
X0194019Y0215738D01*
X0194048Y0215841D01*
X0194082Y0215944D01*
X0194119Y0216045D01*
X0194160Y0216145D01*
X0194204Y0216243D01*
X0194252Y0216339D01*
X0194304Y0216434D01*
X0194359Y0216527D01*
X0194417Y0216617D01*
X0194479Y0216705D01*
X0194544Y0216791D01*
X0194612Y0216875D01*
X0194683Y0216956D01*
X0194757Y0217034D01*
X0194834Y0217110D01*
X0194913Y0217182D01*
X0194996Y0217252D01*
X0195080Y0217318D01*
X0195167Y0217382D01*
X0195257Y0217442D01*
X0195349Y0217498D01*
X0195442Y0217552D01*
X0195538Y0217601D01*
X0195635Y0217648D01*
X0195734Y0217690D01*
X0195834Y0217729D01*
X0195936Y0217764D01*
X0196039Y0217796D01*
X0196143Y0217823D01*
X0196249Y0217847D01*
X0196354Y0217867D01*
X0196461Y0217883D01*
X0196568Y0217895D01*
X0196675Y0217903D01*
X0196783Y0217907D01*
X0196891Y0217907D01*
X0196999Y0217903D01*
X0197106Y0217895D01*
X0197213Y0217883D01*
X0197320Y0217867D01*
X0197425Y0217847D01*
X0197531Y0217823D01*
X0197635Y0217796D01*
X0197738Y0217764D01*
X0197840Y0217729D01*
X0197940Y0217690D01*
X0198039Y0217648D01*
X0198136Y0217601D01*
X0198232Y0217552D01*
X0198325Y0217498D01*
X0198417Y0217442D01*
X0198507Y0217382D01*
X0198594Y0217318D01*
X0198678Y0217252D01*
X0198761Y0217182D01*
X0198840Y0217110D01*
X0198917Y0217034D01*
X0198991Y0216956D01*
X0199062Y0216875D01*
X0199130Y0216791D01*
X0199195Y0216705D01*
X0199257Y0216617D01*
X0199315Y0216527D01*
X0199370Y0216434D01*
X0199422Y0216339D01*
X0199470Y0216243D01*
X0199514Y0216145D01*
X0199555Y0216045D01*
X0199592Y0215944D01*
X0199626Y0215841D01*
X0199655Y0215738D01*
X0199681Y0215633D01*
X0199702Y0215528D01*
X0199720Y0215421D01*
X0199734Y0215315D01*
X0199744Y0215207D01*
X0199750Y0215100D01*
X0199752Y0214992D01*
X0199750Y0214884D01*
X0199744Y0214777D01*
X0199734Y0214669D01*
X0199720Y0214563D01*
X0199702Y0214456D01*
X0199681Y0214351D01*
X0199655Y0214246D01*
X0199626Y0214143D01*
X0199592Y0214040D01*
X0199555Y0213939D01*
X0199514Y0213839D01*
X0199470Y0213741D01*
X0199422Y0213645D01*
X0199370Y0213550D01*
X0199315Y0213457D01*
X0199257Y0213367D01*
X0199195Y0213279D01*
X0199130Y0213193D01*
X0199062Y0213109D01*
X0198991Y0213028D01*
X0198917Y0212950D01*
X0198840Y0212874D01*
X0198761Y0212802D01*
X0198678Y0212732D01*
X0198594Y0212666D01*
X0198507Y0212602D01*
X0198417Y0212542D01*
X0198325Y0212486D01*
X0198232Y0212432D01*
X0198136Y0212383D01*
X0198039Y0212336D01*
X0197940Y0212294D01*
X0197840Y0212255D01*
X0197738Y0212220D01*
X0197635Y0212188D01*
X0197531Y0212161D01*
X0197425Y0212137D01*
X0197320Y0212117D01*
X0197213Y0212101D01*
X0197106Y0212089D01*
X0196999Y0212081D01*
X0196891Y0212077D01*
X0196783Y0212077D01*
X0196675Y0212081D01*
X0196568Y0212089D01*
X0196461Y0212101D01*
X0196354Y0212117D01*
X0196249Y0212137D01*
X0196143Y0212161D01*
X0196039Y0212188D01*
X0195936Y0212220D01*
X0195834Y0212255D01*
X0195734Y0212294D01*
X0195635Y0212336D01*
X0195538Y0212383D01*
X0195442Y0212432D01*
X0195349Y0212486D01*
X0195257Y0212542D01*
X0195167Y0212602D01*
X0195080Y0212666D01*
X0194996Y0212732D01*
X0194913Y0212802D01*
X0194834Y0212874D01*
X0194757Y0212950D01*
X0194683Y0213028D01*
X0194612Y0213109D01*
X0194544Y0213193D01*
X0194479Y0213279D01*
X0194417Y0213367D01*
X0194359Y0213457D01*
X0194304Y0213550D01*
X0194252Y0213645D01*
X0194204Y0213741D01*
X0194160Y0213839D01*
X0194119Y0213939D01*
X0194082Y0214040D01*
X0194048Y0214143D01*
X0194019Y0214246D01*
X0193993Y0214351D01*
X0193972Y0214456D01*
X0193954Y0214563D01*
X0193940Y0214669D01*
X0193930Y0214777D01*
X0193924Y0214884D01*
X0193922Y0214992D01*
X0193924Y0215100D01*
X0193930Y0215207D01*
X0193940Y0215315D01*
X0193954Y0215421D01*
X0193972Y0215528D01*
X0193993Y0215633D01*
X0194019Y0215738D01*
X0194048Y0215841D01*
X0194082Y0215944D01*
X0194119Y0216045D01*
X0194160Y0216145D01*
X0194204Y0216243D01*
X0194252Y0216339D01*
X0194304Y0216434D01*
X0194359Y0216527D01*
X0194417Y0216617D01*
X0194479Y0216705D01*
X0194544Y0216791D01*
X0194612Y0216875D01*
X0194683Y0216956D01*
X0194757Y0217034D01*
X0194834Y0217110D01*
X0194913Y0217182D01*
X0194996Y0217252D01*
X0195080Y0217318D01*
X0195167Y0217382D01*
X0195257Y0217442D01*
X0195349Y0217498D01*
X0195442Y0217552D01*
X0195538Y0217601D01*
X0195635Y0217648D01*
X0195734Y0217690D01*
X0195834Y0217729D01*
X0195936Y0217764D01*
X0196039Y0217796D01*
X0196143Y0217823D01*
X0196249Y0217847D01*
X0196354Y0217867D01*
X0196461Y0217883D01*
X0196568Y0217895D01*
X0196675Y0217903D01*
X0196783Y0217907D01*
X0196891Y0217907D01*
X0196999Y0217903D01*
X0197106Y0217895D01*
X0197213Y0217883D01*
X0197320Y0217867D01*
X0197425Y0217847D01*
X0197531Y0217823D01*
X0197635Y0217796D01*
X0197738Y0217764D01*
X0197840Y0217729D01*
X0197940Y0217690D01*
X0198039Y0217648D01*
X0198136Y0217601D01*
X0198232Y0217552D01*
X0198325Y0217498D01*
X0198417Y0217442D01*
X0198507Y0217382D01*
X0198594Y0217318D01*
X0198678Y0217252D01*
X0198761Y0217182D01*
X0198840Y0217110D01*
X0198917Y0217034D01*
X0198991Y0216956D01*
X0199062Y0216875D01*
X0199130Y0216791D01*
X0199195Y0216705D01*
X0199257Y0216617D01*
X0199315Y0216527D01*
X0199370Y0216434D01*
X0199422Y0216339D01*
X0199470Y0216243D01*
X0199514Y0216145D01*
X0199555Y0216045D01*
X0199592Y0215944D01*
X0199626Y0215841D01*
X0199655Y0215738D01*
X0199681Y0215633D01*
X0199702Y0215528D01*
X0199720Y0215421D01*
X0199734Y0215315D01*
X0199744Y0215207D01*
X0199750Y0215100D01*
X0199752Y0214992D01*
X0199750Y0214884D01*
X0199744Y0214777D01*
X0199734Y0214669D01*
X0199720Y0214563D01*
X0199702Y0214456D01*
X0199681Y0214351D01*
X0199655Y0214246D01*
X0199626Y0214143D01*
X0199592Y0214040D01*
X0199555Y0213939D01*
X0199514Y0213839D01*
X0199470Y0213741D01*
X0199422Y0213645D01*
X0199370Y0213550D01*
X0199315Y0213457D01*
X0199257Y0213367D01*
X0199195Y0213279D01*
X0199130Y0213193D01*
X0199062Y0213109D01*
X0198991Y0213028D01*
X0198917Y0212950D01*
X0198840Y0212874D01*
X0198761Y0212802D01*
X0198678Y0212732D01*
X0198594Y0212666D01*
X0198507Y0212602D01*
X0198417Y0212542D01*
X0198325Y0212486D01*
X0198232Y0212432D01*
X0198136Y0212383D01*
X0198039Y0212336D01*
X0197940Y0212294D01*
X0197840Y0212255D01*
X0197738Y0212220D01*
X0197635Y0212188D01*
X0197531Y0212161D01*
X0197425Y0212137D01*
X0197320Y0212117D01*
X0197213Y0212101D01*
X0197106Y0212089D01*
X0196999Y0212081D01*
X0196891Y0212077D01*
X0196783Y0212077D01*
X0196675Y0212081D01*
X0196568Y0212089D01*
X0196461Y0212101D01*
X0196354Y0212117D01*
X0196249Y0212137D01*
X0196143Y0212161D01*
X0196039Y0212188D01*
X0195936Y0212220D01*
X0195834Y0212255D01*
X0195734Y0212294D01*
X0195635Y0212336D01*
X0195538Y0212383D01*
X0195442Y0212432D01*
X0195349Y0212486D01*
X0195257Y0212542D01*
X0195167Y0212602D01*
X0195080Y0212666D01*
X0194996Y0212732D01*
X0194913Y0212802D01*
X0194834Y0212874D01*
X0194757Y0212950D01*
X0194683Y0213028D01*
X0194612Y0213109D01*
X0194544Y0213193D01*
X0194479Y0213279D01*
X0194417Y0213367D01*
X0194359Y0213457D01*
X0194304Y0213550D01*
X0194252Y0213645D01*
X0194204Y0213741D01*
X0194160Y0213839D01*
X0194119Y0213939D01*
X0194082Y0214040D01*
X0194048Y0214143D01*
X0194019Y0214246D01*
X0193993Y0214351D01*
X0193972Y0214456D01*
X0193954Y0214563D01*
X0193940Y0214669D01*
X0193930Y0214777D01*
X0193924Y0214884D01*
X0193922Y0214992D01*
X0205227Y0216335D02*
X0205227Y0273815D01*
X0240660Y0273815D01*
X0240660Y0216335D01*
X0205227Y0216335D01*
X0195337Y0198992D02*
X0055337Y0198992D01*
X0055337Y0188992D01*
X0195337Y0188992D01*
X0195337Y0138992D01*
X0185337Y0138992D01*
X0185337Y0188992D01*
X0195337Y0188992D01*
X0195337Y0198992D01*
X0237774Y0198862D02*
X0237774Y0206736D01*
X0316514Y0206736D01*
X0316514Y0198862D01*
X0237774Y0198862D01*
X0254735Y0213039D02*
X0254735Y0236268D01*
X0254735Y0245717D02*
X0254735Y0268945D01*
X0266546Y0268945D01*
X0266546Y0213039D01*
X0260640Y0213039D01*
X0254735Y0213039D01*
X0257097Y0237055D02*
X0257191Y0236361D01*
X0257301Y0235670D01*
X0257429Y0234982D01*
X0257573Y0234297D01*
X0257733Y0233616D01*
X0257910Y0232939D01*
X0258103Y0232267D01*
X0258313Y0231599D01*
X0258538Y0230936D01*
X0258780Y0230280D01*
X0259037Y0229629D01*
X0259310Y0228984D01*
X0259598Y0228347D01*
X0259902Y0227716D01*
X0260221Y0227093D01*
X0260555Y0226478D01*
X0260903Y0225872D01*
X0261266Y0225273D01*
X0261644Y0224684D01*
X0262035Y0224104D01*
X0262441Y0223534D01*
X0262860Y0222974D01*
X0263293Y0222423D01*
X0263738Y0221884D01*
X0264197Y0221355D01*
X0264668Y0220838D01*
X0265152Y0220332D01*
X0265648Y0219839D01*
X0266155Y0219357D01*
X0266674Y0218887D01*
X0267204Y0218431D01*
X0267745Y0217987D01*
X0268297Y0217556D01*
X0268859Y0217139D01*
X0269431Y0216736D01*
X0270012Y0216346D01*
X0270603Y0215971D01*
X0271202Y0215610D01*
X0271810Y0215264D01*
X0272427Y0214932D01*
X0273051Y0214616D01*
X0273682Y0214314D01*
X0274321Y0214028D01*
X0274966Y0213758D01*
X0275618Y0213503D01*
X0276276Y0213264D01*
X0276939Y0213041D01*
X0277608Y0212834D01*
X0278281Y0212643D01*
X0278959Y0212469D01*
X0279640Y0212311D01*
X0280326Y0212169D01*
X0281014Y0212044D01*
X0281706Y0211936D01*
X0282399Y0211845D01*
X0283095Y0211770D01*
X0283793Y0211712D01*
X0284491Y0211671D01*
X0285190Y0211647D01*
X0285890Y0211640D01*
X0286590Y0211650D01*
X0287289Y0211676D01*
X0287988Y0211720D01*
X0288685Y0211780D01*
X0289380Y0211858D01*
X0309837Y0191492D02*
X0316837Y0191492D01*
X0316837Y0178492D01*
X0309837Y0178492D01*
X0309837Y0191492D01*
X0320337Y0191492D02*
X0327337Y0191492D01*
X0327337Y0178492D01*
X0320337Y0178492D01*
X0320337Y0191492D01*
X0282688Y0211858D02*
X0283383Y0211780D01*
X0284080Y0211720D01*
X0284779Y0211676D01*
X0285478Y0211650D01*
X0286178Y0211640D01*
X0286878Y0211647D01*
X0287577Y0211671D01*
X0288275Y0211712D01*
X0288973Y0211770D01*
X0289669Y0211845D01*
X0290362Y0211936D01*
X0291054Y0212044D01*
X0291742Y0212169D01*
X0292428Y0212311D01*
X0293109Y0212469D01*
X0293787Y0212643D01*
X0294460Y0212834D01*
X0295129Y0213041D01*
X0295792Y0213264D01*
X0296450Y0213503D01*
X0297102Y0213758D01*
X0297747Y0214028D01*
X0298386Y0214314D01*
X0299017Y0214616D01*
X0299641Y0214932D01*
X0300258Y0215264D01*
X0300866Y0215610D01*
X0301465Y0215971D01*
X0302056Y0216346D01*
X0302637Y0216736D01*
X0303209Y0217139D01*
X0303771Y0217556D01*
X0304323Y0217987D01*
X0304864Y0218431D01*
X0305394Y0218887D01*
X0305913Y0219357D01*
X0306420Y0219839D01*
X0306916Y0220332D01*
X0307400Y0220838D01*
X0307871Y0221355D01*
X0308330Y0221884D01*
X0308775Y0222423D01*
X0309208Y0222974D01*
X0309627Y0223534D01*
X0310033Y0224104D01*
X0310424Y0224684D01*
X0310802Y0225273D01*
X0311165Y0225872D01*
X0311513Y0226478D01*
X0311847Y0227093D01*
X0312166Y0227716D01*
X0312470Y0228347D01*
X0312758Y0228984D01*
X0313031Y0229629D01*
X0313288Y0230280D01*
X0313530Y0230936D01*
X0313755Y0231599D01*
X0313965Y0232267D01*
X0314158Y0232939D01*
X0314335Y0233616D01*
X0314495Y0234297D01*
X0314639Y0234982D01*
X0314767Y0235670D01*
X0314877Y0236361D01*
X0314971Y0237055D01*
X0314971Y0244929D02*
X0314882Y0245618D01*
X0314776Y0246305D01*
X0314654Y0246988D01*
X0314515Y0247669D01*
X0314360Y0248346D01*
X0314188Y0249019D01*
X0314001Y0249687D01*
X0313797Y0250351D01*
X0313577Y0251010D01*
X0313341Y0251663D01*
X0313090Y0252311D01*
X0312823Y0252952D01*
X0312540Y0253586D01*
X0312243Y0254214D01*
X0311930Y0254834D01*
X0311602Y0255446D01*
X0311260Y0256050D01*
X0310903Y0256646D01*
X0310532Y0257233D01*
X0310147Y0257811D01*
X0309748Y0258379D01*
X0309335Y0258938D01*
X0308909Y0259486D01*
X0308470Y0260024D01*
X0308018Y0260552D01*
X0307553Y0261068D01*
X0307076Y0261573D01*
X0306587Y0262066D01*
X0306086Y0262547D01*
X0305574Y0263016D01*
X0305051Y0263472D01*
X0304516Y0263916D01*
X0303971Y0264346D01*
X0303416Y0264764D01*
X0302851Y0265167D01*
X0302276Y0265557D01*
X0301692Y0265933D01*
X0301100Y0266295D01*
X0300498Y0266642D01*
X0299888Y0266975D01*
X0299271Y0267293D01*
X0298646Y0267596D01*
X0298014Y0267883D01*
X0297375Y0268155D01*
X0296730Y0268412D01*
X0296078Y0268653D01*
X0295421Y0268879D01*
X0294759Y0269088D01*
X0294092Y0269281D01*
X0293421Y0269458D01*
X0292745Y0269619D01*
X0292066Y0269764D01*
X0291383Y0269892D01*
X0290698Y0270003D01*
X0290010Y0270098D01*
X0289320Y0270176D01*
X0288628Y0270238D01*
X0287935Y0270282D01*
X0287241Y0270311D01*
X0286546Y0270322D01*
X0285852Y0270316D01*
X0285158Y0270294D01*
X0284464Y0270255D01*
X0283772Y0270199D01*
X0283082Y0270126D01*
X0288986Y0270126D02*
X0288280Y0270205D01*
X0287572Y0270266D01*
X0286862Y0270309D01*
X0286152Y0270335D01*
X0285442Y0270344D01*
X0284731Y0270335D01*
X0284021Y0270309D01*
X0283311Y0270265D01*
X0282603Y0270204D01*
X0281897Y0270126D01*
X0281193Y0270030D01*
X0280491Y0269917D01*
X0279792Y0269787D01*
X0279097Y0269640D01*
X0278405Y0269476D01*
X0277718Y0269295D01*
X0277036Y0269097D01*
X0276358Y0268882D01*
X0275686Y0268651D01*
X0275020Y0268403D01*
X0274360Y0268139D01*
X0273707Y0267859D01*
X0273061Y0267563D01*
X0272422Y0267251D01*
X0271791Y0266924D01*
X0271168Y0266581D01*
X0270554Y0266223D01*
X0269949Y0265850D01*
X0269354Y0265463D01*
X0268768Y0265061D01*
X0268192Y0264644D01*
X0267626Y0264214D01*
X0267071Y0263770D01*
X0266527Y0263312D01*
X0265995Y0262841D01*
X0265474Y0262358D01*
X0264966Y0261861D01*
X0264469Y0261353D01*
X0263986Y0260832D01*
X0263515Y0260299D01*
X0263057Y0259756D01*
X0262613Y0259201D01*
X0262183Y0258635D01*
X0261767Y0258059D01*
X0261365Y0257473D01*
X0260977Y0256877D01*
X0260604Y0256272D01*
X0260246Y0255658D01*
X0259904Y0255035D01*
X0259576Y0254405D01*
X0259265Y0253766D01*
X0258969Y0253120D01*
X0258689Y0252466D01*
X0258425Y0251806D01*
X0258177Y0251140D01*
X0257946Y0250468D01*
X0257732Y0249791D01*
X0257534Y0249108D01*
X0257352Y0248421D01*
X0257188Y0247729D01*
X0257041Y0247034D01*
X0256911Y0246335D01*
X0256798Y0245634D01*
X0256703Y0244929D01*
X0115337Y0188992D02*
X0115337Y0178992D01*
X0065337Y0178992D01*
X0065337Y0188992D01*
X0115337Y0188992D01*
X0062591Y0185611D02*
X0062591Y0182608D01*
X0062591Y0184110D02*
X0058087Y0184110D01*
X0058087Y0181007D02*
X0058087Y0178004D01*
X0058087Y0176403D02*
X0058087Y0173400D01*
X0058087Y0171799D02*
X0062591Y0171799D01*
X0058087Y0168796D01*
X0062591Y0168796D01*
X0061840Y0167195D02*
X0061090Y0167195D01*
X0060339Y0166444D01*
X0060339Y0164943D01*
X0059588Y0164193D01*
X0058838Y0164193D01*
X0058087Y0164943D01*
X0058087Y0166444D01*
X0058838Y0167195D01*
X0061840Y0167195D02*
X0062591Y0166444D01*
X0062591Y0164943D01*
X0061840Y0164193D01*
X0061840Y0162591D02*
X0060339Y0161090D01*
X0058087Y0161090D01*
X0060339Y0161090D02*
X0061840Y0159589D01*
X0062591Y0159589D01*
X0062591Y0162591D02*
X0061840Y0162591D01*
X0061840Y0153383D02*
X0062591Y0152633D01*
X0062591Y0151131D01*
X0061840Y0150381D01*
X0061090Y0150381D01*
X0060339Y0151131D01*
X0059588Y0150381D01*
X0058838Y0150381D01*
X0058087Y0151131D01*
X0058087Y0152633D01*
X0058838Y0153383D01*
X0060339Y0151882D02*
X0060339Y0151131D01*
X0058838Y0148779D02*
X0058838Y0148029D01*
X0058087Y0148029D01*
X0058087Y0148779D01*
X0058838Y0148779D01*
X0058087Y0146477D02*
X0061090Y0143475D01*
X0061840Y0143475D01*
X0062591Y0144226D01*
X0062591Y0145727D01*
X0061840Y0146477D01*
X0058087Y0146477D02*
X0058087Y0143475D01*
X0055337Y0138992D02*
X0195337Y0138992D01*
X0195337Y0128992D01*
X0055337Y0128992D01*
X0055337Y0138992D01*
X0070837Y0118492D02*
X0083837Y0118492D01*
X0083837Y0111492D01*
X0070837Y0111492D01*
X0070837Y0118492D01*
X0080337Y0103992D02*
X0160337Y0103992D01*
X0160337Y0093992D01*
X0080337Y0093992D01*
X0080337Y0103992D01*
X0098337Y0111492D02*
X0098337Y0118492D01*
X0111337Y0118492D01*
X0111337Y0111492D01*
X0098337Y0111492D01*
X0167337Y0096992D02*
X0167337Y0083992D01*
X0174337Y0083992D01*
X0174337Y0096992D01*
X0167337Y0096992D01*
X0177557Y0098213D02*
X0177557Y0125772D01*
X0205117Y0125772D01*
X0205117Y0098213D01*
X0177557Y0098213D01*
X0219337Y0096992D02*
X0219337Y0083992D01*
X0226337Y0083992D01*
X0226337Y0096992D01*
X0219337Y0096992D01*
X0233337Y0093992D02*
X0313337Y0093992D01*
X0313337Y0103992D01*
X0233337Y0103992D01*
X0233337Y0093992D01*
X0237774Y0112248D02*
X0316514Y0112248D01*
X0316514Y0120122D01*
X0237774Y0120122D01*
X0237774Y0112248D01*
X0062591Y0173400D02*
X0062591Y0176403D01*
X0058087Y0176403D01*
X0060339Y0176403D02*
X0060339Y0174902D01*
X0062591Y0178004D02*
X0062591Y0181007D01*
X0058087Y0181007D01*
X0060339Y0181007D02*
X0060339Y0179506D01*
D15*
X0055337Y0188992D02*
X0055337Y0138992D01*
X0081542Y0212732D02*
X0156345Y0212732D01*
X0156345Y0255252D01*
X0081542Y0255252D01*
X0081542Y0212732D01*
X0102837Y0261992D02*
X0097837Y0264492D01*
X0102837Y0266992D01*
X0097837Y0264492D02*
X0122837Y0264492D01*
X0117837Y0266992D01*
X0117837Y0261992D02*
X0122837Y0264492D01*
X0260640Y0268551D02*
X0260640Y0245717D01*
X0260640Y0236268D02*
X0260640Y0213039D01*
D16*
X0316554Y0257594D02*
X0316558Y0257884D01*
X0316568Y0258174D01*
X0316586Y0258463D01*
X0316611Y0258752D01*
X0316643Y0259040D01*
X0316682Y0259327D01*
X0316728Y0259613D01*
X0316781Y0259898D01*
X0316841Y0260182D01*
X0316908Y0260464D01*
X0316982Y0260744D01*
X0317063Y0261023D01*
X0317150Y0261299D01*
X0317244Y0261573D01*
X0317345Y0261845D01*
X0317453Y0262114D01*
X0317567Y0262380D01*
X0317688Y0262644D01*
X0317815Y0262904D01*
X0317949Y0263162D01*
X0318088Y0263416D01*
X0318234Y0263666D01*
X0318386Y0263913D01*
X0318545Y0264156D01*
X0318709Y0264395D01*
X0318878Y0264630D01*
X0319054Y0264861D01*
X0319235Y0265087D01*
X0319422Y0265309D01*
X0319614Y0265526D01*
X0319811Y0265738D01*
X0320013Y0265946D01*
X0320221Y0266148D01*
X0320433Y0266345D01*
X0320650Y0266537D01*
X0320872Y0266724D01*
X0321098Y0266905D01*
X0321329Y0267081D01*
X0321564Y0267250D01*
X0321803Y0267414D01*
X0322046Y0267573D01*
X0322293Y0267725D01*
X0322543Y0267871D01*
X0322797Y0268010D01*
X0323055Y0268144D01*
X0323315Y0268271D01*
X0323579Y0268392D01*
X0323845Y0268506D01*
X0324114Y0268614D01*
X0324386Y0268715D01*
X0324660Y0268809D01*
X0324936Y0268896D01*
X0325215Y0268977D01*
X0325495Y0269051D01*
X0325777Y0269118D01*
X0326061Y0269178D01*
X0326346Y0269231D01*
X0326632Y0269277D01*
X0326919Y0269316D01*
X0327207Y0269348D01*
X0327496Y0269373D01*
X0327785Y0269391D01*
X0328075Y0269401D01*
X0328365Y0269405D01*
X0328655Y0269401D01*
X0328945Y0269391D01*
X0329234Y0269373D01*
X0329523Y0269348D01*
X0329811Y0269316D01*
X0330098Y0269277D01*
X0330384Y0269231D01*
X0330669Y0269178D01*
X0330953Y0269118D01*
X0331235Y0269051D01*
X0331515Y0268977D01*
X0331794Y0268896D01*
X0332070Y0268809D01*
X0332344Y0268715D01*
X0332616Y0268614D01*
X0332885Y0268506D01*
X0333151Y0268392D01*
X0333415Y0268271D01*
X0333675Y0268144D01*
X0333933Y0268010D01*
X0334187Y0267871D01*
X0334437Y0267725D01*
X0334684Y0267573D01*
X0334927Y0267414D01*
X0335166Y0267250D01*
X0335401Y0267081D01*
X0335632Y0266905D01*
X0335858Y0266724D01*
X0336080Y0266537D01*
X0336297Y0266345D01*
X0336509Y0266148D01*
X0336717Y0265946D01*
X0336919Y0265738D01*
X0337116Y0265526D01*
X0337308Y0265309D01*
X0337495Y0265087D01*
X0337676Y0264861D01*
X0337852Y0264630D01*
X0338021Y0264395D01*
X0338185Y0264156D01*
X0338344Y0263913D01*
X0338496Y0263666D01*
X0338642Y0263416D01*
X0338781Y0263162D01*
X0338915Y0262904D01*
X0339042Y0262644D01*
X0339163Y0262380D01*
X0339277Y0262114D01*
X0339385Y0261845D01*
X0339486Y0261573D01*
X0339580Y0261299D01*
X0339667Y0261023D01*
X0339748Y0260744D01*
X0339822Y0260464D01*
X0339889Y0260182D01*
X0339949Y0259898D01*
X0340002Y0259613D01*
X0340048Y0259327D01*
X0340087Y0259040D01*
X0340119Y0258752D01*
X0340144Y0258463D01*
X0340162Y0258174D01*
X0340172Y0257884D01*
X0340176Y0257594D01*
X0340172Y0257304D01*
X0340162Y0257014D01*
X0340144Y0256725D01*
X0340119Y0256436D01*
X0340087Y0256148D01*
X0340048Y0255861D01*
X0340002Y0255575D01*
X0339949Y0255290D01*
X0339889Y0255006D01*
X0339822Y0254724D01*
X0339748Y0254444D01*
X0339667Y0254165D01*
X0339580Y0253889D01*
X0339486Y0253615D01*
X0339385Y0253343D01*
X0339277Y0253074D01*
X0339163Y0252808D01*
X0339042Y0252544D01*
X0338915Y0252284D01*
X0338781Y0252026D01*
X0338642Y0251772D01*
X0338496Y0251522D01*
X0338344Y0251275D01*
X0338185Y0251032D01*
X0338021Y0250793D01*
X0337852Y0250558D01*
X0337676Y0250327D01*
X0337495Y0250101D01*
X0337308Y0249879D01*
X0337116Y0249662D01*
X0336919Y0249450D01*
X0336717Y0249242D01*
X0336509Y0249040D01*
X0336297Y0248843D01*
X0336080Y0248651D01*
X0335858Y0248464D01*
X0335632Y0248283D01*
X0335401Y0248107D01*
X0335166Y0247938D01*
X0334927Y0247774D01*
X0334684Y0247615D01*
X0334437Y0247463D01*
X0334187Y0247317D01*
X0333933Y0247178D01*
X0333675Y0247044D01*
X0333415Y0246917D01*
X0333151Y0246796D01*
X0332885Y0246682D01*
X0332616Y0246574D01*
X0332344Y0246473D01*
X0332070Y0246379D01*
X0331794Y0246292D01*
X0331515Y0246211D01*
X0331235Y0246137D01*
X0330953Y0246070D01*
X0330669Y0246010D01*
X0330384Y0245957D01*
X0330098Y0245911D01*
X0329811Y0245872D01*
X0329523Y0245840D01*
X0329234Y0245815D01*
X0328945Y0245797D01*
X0328655Y0245787D01*
X0328365Y0245783D01*
X0328075Y0245787D01*
X0327785Y0245797D01*
X0327496Y0245815D01*
X0327207Y0245840D01*
X0326919Y0245872D01*
X0326632Y0245911D01*
X0326346Y0245957D01*
X0326061Y0246010D01*
X0325777Y0246070D01*
X0325495Y0246137D01*
X0325215Y0246211D01*
X0324936Y0246292D01*
X0324660Y0246379D01*
X0324386Y0246473D01*
X0324114Y0246574D01*
X0323845Y0246682D01*
X0323579Y0246796D01*
X0323315Y0246917D01*
X0323055Y0247044D01*
X0322797Y0247178D01*
X0322543Y0247317D01*
X0322293Y0247463D01*
X0322046Y0247615D01*
X0321803Y0247774D01*
X0321564Y0247938D01*
X0321329Y0248107D01*
X0321098Y0248283D01*
X0320872Y0248464D01*
X0320650Y0248651D01*
X0320433Y0248843D01*
X0320221Y0249040D01*
X0320013Y0249242D01*
X0319811Y0249450D01*
X0319614Y0249662D01*
X0319422Y0249879D01*
X0319235Y0250101D01*
X0319054Y0250327D01*
X0318878Y0250558D01*
X0318709Y0250793D01*
X0318545Y0251032D01*
X0318386Y0251275D01*
X0318234Y0251522D01*
X0318088Y0251772D01*
X0317949Y0252026D01*
X0317815Y0252284D01*
X0317688Y0252544D01*
X0317567Y0252808D01*
X0317453Y0253074D01*
X0317345Y0253343D01*
X0317244Y0253615D01*
X0317150Y0253889D01*
X0317063Y0254165D01*
X0316982Y0254444D01*
X0316908Y0254724D01*
X0316841Y0255006D01*
X0316781Y0255290D01*
X0316728Y0255575D01*
X0316682Y0255861D01*
X0316643Y0256148D01*
X0316611Y0256436D01*
X0316586Y0256725D01*
X0316568Y0257014D01*
X0316558Y0257304D01*
X0316554Y0257594D01*
X0316554Y0092240D02*
X0316558Y0092530D01*
X0316568Y0092820D01*
X0316586Y0093109D01*
X0316611Y0093398D01*
X0316643Y0093686D01*
X0316682Y0093973D01*
X0316728Y0094259D01*
X0316781Y0094544D01*
X0316841Y0094828D01*
X0316908Y0095110D01*
X0316982Y0095390D01*
X0317063Y0095669D01*
X0317150Y0095945D01*
X0317244Y0096219D01*
X0317345Y0096491D01*
X0317453Y0096760D01*
X0317567Y0097026D01*
X0317688Y0097290D01*
X0317815Y0097550D01*
X0317949Y0097808D01*
X0318088Y0098062D01*
X0318234Y0098312D01*
X0318386Y0098559D01*
X0318545Y0098802D01*
X0318709Y0099041D01*
X0318878Y0099276D01*
X0319054Y0099507D01*
X0319235Y0099733D01*
X0319422Y0099955D01*
X0319614Y0100172D01*
X0319811Y0100384D01*
X0320013Y0100592D01*
X0320221Y0100794D01*
X0320433Y0100991D01*
X0320650Y0101183D01*
X0320872Y0101370D01*
X0321098Y0101551D01*
X0321329Y0101727D01*
X0321564Y0101896D01*
X0321803Y0102060D01*
X0322046Y0102219D01*
X0322293Y0102371D01*
X0322543Y0102517D01*
X0322797Y0102656D01*
X0323055Y0102790D01*
X0323315Y0102917D01*
X0323579Y0103038D01*
X0323845Y0103152D01*
X0324114Y0103260D01*
X0324386Y0103361D01*
X0324660Y0103455D01*
X0324936Y0103542D01*
X0325215Y0103623D01*
X0325495Y0103697D01*
X0325777Y0103764D01*
X0326061Y0103824D01*
X0326346Y0103877D01*
X0326632Y0103923D01*
X0326919Y0103962D01*
X0327207Y0103994D01*
X0327496Y0104019D01*
X0327785Y0104037D01*
X0328075Y0104047D01*
X0328365Y0104051D01*
X0328655Y0104047D01*
X0328945Y0104037D01*
X0329234Y0104019D01*
X0329523Y0103994D01*
X0329811Y0103962D01*
X0330098Y0103923D01*
X0330384Y0103877D01*
X0330669Y0103824D01*
X0330953Y0103764D01*
X0331235Y0103697D01*
X0331515Y0103623D01*
X0331794Y0103542D01*
X0332070Y0103455D01*
X0332344Y0103361D01*
X0332616Y0103260D01*
X0332885Y0103152D01*
X0333151Y0103038D01*
X0333415Y0102917D01*
X0333675Y0102790D01*
X0333933Y0102656D01*
X0334187Y0102517D01*
X0334437Y0102371D01*
X0334684Y0102219D01*
X0334927Y0102060D01*
X0335166Y0101896D01*
X0335401Y0101727D01*
X0335632Y0101551D01*
X0335858Y0101370D01*
X0336080Y0101183D01*
X0336297Y0100991D01*
X0336509Y0100794D01*
X0336717Y0100592D01*
X0336919Y0100384D01*
X0337116Y0100172D01*
X0337308Y0099955D01*
X0337495Y0099733D01*
X0337676Y0099507D01*
X0337852Y0099276D01*
X0338021Y0099041D01*
X0338185Y0098802D01*
X0338344Y0098559D01*
X0338496Y0098312D01*
X0338642Y0098062D01*
X0338781Y0097808D01*
X0338915Y0097550D01*
X0339042Y0097290D01*
X0339163Y0097026D01*
X0339277Y0096760D01*
X0339385Y0096491D01*
X0339486Y0096219D01*
X0339580Y0095945D01*
X0339667Y0095669D01*
X0339748Y0095390D01*
X0339822Y0095110D01*
X0339889Y0094828D01*
X0339949Y0094544D01*
X0340002Y0094259D01*
X0340048Y0093973D01*
X0340087Y0093686D01*
X0340119Y0093398D01*
X0340144Y0093109D01*
X0340162Y0092820D01*
X0340172Y0092530D01*
X0340176Y0092240D01*
X0340172Y0091950D01*
X0340162Y0091660D01*
X0340144Y0091371D01*
X0340119Y0091082D01*
X0340087Y0090794D01*
X0340048Y0090507D01*
X0340002Y0090221D01*
X0339949Y0089936D01*
X0339889Y0089652D01*
X0339822Y0089370D01*
X0339748Y0089090D01*
X0339667Y0088811D01*
X0339580Y0088535D01*
X0339486Y0088261D01*
X0339385Y0087989D01*
X0339277Y0087720D01*
X0339163Y0087454D01*
X0339042Y0087190D01*
X0338915Y0086930D01*
X0338781Y0086672D01*
X0338642Y0086418D01*
X0338496Y0086168D01*
X0338344Y0085921D01*
X0338185Y0085678D01*
X0338021Y0085439D01*
X0337852Y0085204D01*
X0337676Y0084973D01*
X0337495Y0084747D01*
X0337308Y0084525D01*
X0337116Y0084308D01*
X0336919Y0084096D01*
X0336717Y0083888D01*
X0336509Y0083686D01*
X0336297Y0083489D01*
X0336080Y0083297D01*
X0335858Y0083110D01*
X0335632Y0082929D01*
X0335401Y0082753D01*
X0335166Y0082584D01*
X0334927Y0082420D01*
X0334684Y0082261D01*
X0334437Y0082109D01*
X0334187Y0081963D01*
X0333933Y0081824D01*
X0333675Y0081690D01*
X0333415Y0081563D01*
X0333151Y0081442D01*
X0332885Y0081328D01*
X0332616Y0081220D01*
X0332344Y0081119D01*
X0332070Y0081025D01*
X0331794Y0080938D01*
X0331515Y0080857D01*
X0331235Y0080783D01*
X0330953Y0080716D01*
X0330669Y0080656D01*
X0330384Y0080603D01*
X0330098Y0080557D01*
X0329811Y0080518D01*
X0329523Y0080486D01*
X0329234Y0080461D01*
X0328945Y0080443D01*
X0328655Y0080433D01*
X0328365Y0080429D01*
X0328075Y0080433D01*
X0327785Y0080443D01*
X0327496Y0080461D01*
X0327207Y0080486D01*
X0326919Y0080518D01*
X0326632Y0080557D01*
X0326346Y0080603D01*
X0326061Y0080656D01*
X0325777Y0080716D01*
X0325495Y0080783D01*
X0325215Y0080857D01*
X0324936Y0080938D01*
X0324660Y0081025D01*
X0324386Y0081119D01*
X0324114Y0081220D01*
X0323845Y0081328D01*
X0323579Y0081442D01*
X0323315Y0081563D01*
X0323055Y0081690D01*
X0322797Y0081824D01*
X0322543Y0081963D01*
X0322293Y0082109D01*
X0322046Y0082261D01*
X0321803Y0082420D01*
X0321564Y0082584D01*
X0321329Y0082753D01*
X0321098Y0082929D01*
X0320872Y0083110D01*
X0320650Y0083297D01*
X0320433Y0083489D01*
X0320221Y0083686D01*
X0320013Y0083888D01*
X0319811Y0084096D01*
X0319614Y0084308D01*
X0319422Y0084525D01*
X0319235Y0084747D01*
X0319054Y0084973D01*
X0318878Y0085204D01*
X0318709Y0085439D01*
X0318545Y0085678D01*
X0318386Y0085921D01*
X0318234Y0086168D01*
X0318088Y0086418D01*
X0317949Y0086672D01*
X0317815Y0086930D01*
X0317688Y0087190D01*
X0317567Y0087454D01*
X0317453Y0087720D01*
X0317345Y0087989D01*
X0317244Y0088261D01*
X0317150Y0088535D01*
X0317063Y0088811D01*
X0316982Y0089090D01*
X0316908Y0089370D01*
X0316841Y0089652D01*
X0316781Y0089936D01*
X0316728Y0090221D01*
X0316682Y0090507D01*
X0316643Y0090794D01*
X0316611Y0091082D01*
X0316586Y0091371D01*
X0316568Y0091660D01*
X0316558Y0091950D01*
X0316554Y0092240D01*
X0052774Y0092240D02*
X0052778Y0092530D01*
X0052788Y0092820D01*
X0052806Y0093109D01*
X0052831Y0093398D01*
X0052863Y0093686D01*
X0052902Y0093973D01*
X0052948Y0094259D01*
X0053001Y0094544D01*
X0053061Y0094828D01*
X0053128Y0095110D01*
X0053202Y0095390D01*
X0053283Y0095669D01*
X0053370Y0095945D01*
X0053464Y0096219D01*
X0053565Y0096491D01*
X0053673Y0096760D01*
X0053787Y0097026D01*
X0053908Y0097290D01*
X0054035Y0097550D01*
X0054169Y0097808D01*
X0054308Y0098062D01*
X0054454Y0098312D01*
X0054606Y0098559D01*
X0054765Y0098802D01*
X0054929Y0099041D01*
X0055098Y0099276D01*
X0055274Y0099507D01*
X0055455Y0099733D01*
X0055642Y0099955D01*
X0055834Y0100172D01*
X0056031Y0100384D01*
X0056233Y0100592D01*
X0056441Y0100794D01*
X0056653Y0100991D01*
X0056870Y0101183D01*
X0057092Y0101370D01*
X0057318Y0101551D01*
X0057549Y0101727D01*
X0057784Y0101896D01*
X0058023Y0102060D01*
X0058266Y0102219D01*
X0058513Y0102371D01*
X0058763Y0102517D01*
X0059017Y0102656D01*
X0059275Y0102790D01*
X0059535Y0102917D01*
X0059799Y0103038D01*
X0060065Y0103152D01*
X0060334Y0103260D01*
X0060606Y0103361D01*
X0060880Y0103455D01*
X0061156Y0103542D01*
X0061435Y0103623D01*
X0061715Y0103697D01*
X0061997Y0103764D01*
X0062281Y0103824D01*
X0062566Y0103877D01*
X0062852Y0103923D01*
X0063139Y0103962D01*
X0063427Y0103994D01*
X0063716Y0104019D01*
X0064005Y0104037D01*
X0064295Y0104047D01*
X0064585Y0104051D01*
X0064875Y0104047D01*
X0065165Y0104037D01*
X0065454Y0104019D01*
X0065743Y0103994D01*
X0066031Y0103962D01*
X0066318Y0103923D01*
X0066604Y0103877D01*
X0066889Y0103824D01*
X0067173Y0103764D01*
X0067455Y0103697D01*
X0067735Y0103623D01*
X0068014Y0103542D01*
X0068290Y0103455D01*
X0068564Y0103361D01*
X0068836Y0103260D01*
X0069105Y0103152D01*
X0069371Y0103038D01*
X0069635Y0102917D01*
X0069895Y0102790D01*
X0070153Y0102656D01*
X0070407Y0102517D01*
X0070657Y0102371D01*
X0070904Y0102219D01*
X0071147Y0102060D01*
X0071386Y0101896D01*
X0071621Y0101727D01*
X0071852Y0101551D01*
X0072078Y0101370D01*
X0072300Y0101183D01*
X0072517Y0100991D01*
X0072729Y0100794D01*
X0072937Y0100592D01*
X0073139Y0100384D01*
X0073336Y0100172D01*
X0073528Y0099955D01*
X0073715Y0099733D01*
X0073896Y0099507D01*
X0074072Y0099276D01*
X0074241Y0099041D01*
X0074405Y0098802D01*
X0074564Y0098559D01*
X0074716Y0098312D01*
X0074862Y0098062D01*
X0075001Y0097808D01*
X0075135Y0097550D01*
X0075262Y0097290D01*
X0075383Y0097026D01*
X0075497Y0096760D01*
X0075605Y0096491D01*
X0075706Y0096219D01*
X0075800Y0095945D01*
X0075887Y0095669D01*
X0075968Y0095390D01*
X0076042Y0095110D01*
X0076109Y0094828D01*
X0076169Y0094544D01*
X0076222Y0094259D01*
X0076268Y0093973D01*
X0076307Y0093686D01*
X0076339Y0093398D01*
X0076364Y0093109D01*
X0076382Y0092820D01*
X0076392Y0092530D01*
X0076396Y0092240D01*
X0076392Y0091950D01*
X0076382Y0091660D01*
X0076364Y0091371D01*
X0076339Y0091082D01*
X0076307Y0090794D01*
X0076268Y0090507D01*
X0076222Y0090221D01*
X0076169Y0089936D01*
X0076109Y0089652D01*
X0076042Y0089370D01*
X0075968Y0089090D01*
X0075887Y0088811D01*
X0075800Y0088535D01*
X0075706Y0088261D01*
X0075605Y0087989D01*
X0075497Y0087720D01*
X0075383Y0087454D01*
X0075262Y0087190D01*
X0075135Y0086930D01*
X0075001Y0086672D01*
X0074862Y0086418D01*
X0074716Y0086168D01*
X0074564Y0085921D01*
X0074405Y0085678D01*
X0074241Y0085439D01*
X0074072Y0085204D01*
X0073896Y0084973D01*
X0073715Y0084747D01*
X0073528Y0084525D01*
X0073336Y0084308D01*
X0073139Y0084096D01*
X0072937Y0083888D01*
X0072729Y0083686D01*
X0072517Y0083489D01*
X0072300Y0083297D01*
X0072078Y0083110D01*
X0071852Y0082929D01*
X0071621Y0082753D01*
X0071386Y0082584D01*
X0071147Y0082420D01*
X0070904Y0082261D01*
X0070657Y0082109D01*
X0070407Y0081963D01*
X0070153Y0081824D01*
X0069895Y0081690D01*
X0069635Y0081563D01*
X0069371Y0081442D01*
X0069105Y0081328D01*
X0068836Y0081220D01*
X0068564Y0081119D01*
X0068290Y0081025D01*
X0068014Y0080938D01*
X0067735Y0080857D01*
X0067455Y0080783D01*
X0067173Y0080716D01*
X0066889Y0080656D01*
X0066604Y0080603D01*
X0066318Y0080557D01*
X0066031Y0080518D01*
X0065743Y0080486D01*
X0065454Y0080461D01*
X0065165Y0080443D01*
X0064875Y0080433D01*
X0064585Y0080429D01*
X0064295Y0080433D01*
X0064005Y0080443D01*
X0063716Y0080461D01*
X0063427Y0080486D01*
X0063139Y0080518D01*
X0062852Y0080557D01*
X0062566Y0080603D01*
X0062281Y0080656D01*
X0061997Y0080716D01*
X0061715Y0080783D01*
X0061435Y0080857D01*
X0061156Y0080938D01*
X0060880Y0081025D01*
X0060606Y0081119D01*
X0060334Y0081220D01*
X0060065Y0081328D01*
X0059799Y0081442D01*
X0059535Y0081563D01*
X0059275Y0081690D01*
X0059017Y0081824D01*
X0058763Y0081963D01*
X0058513Y0082109D01*
X0058266Y0082261D01*
X0058023Y0082420D01*
X0057784Y0082584D01*
X0057549Y0082753D01*
X0057318Y0082929D01*
X0057092Y0083110D01*
X0056870Y0083297D01*
X0056653Y0083489D01*
X0056441Y0083686D01*
X0056233Y0083888D01*
X0056031Y0084096D01*
X0055834Y0084308D01*
X0055642Y0084525D01*
X0055455Y0084747D01*
X0055274Y0084973D01*
X0055098Y0085204D01*
X0054929Y0085439D01*
X0054765Y0085678D01*
X0054606Y0085921D01*
X0054454Y0086168D01*
X0054308Y0086418D01*
X0054169Y0086672D01*
X0054035Y0086930D01*
X0053908Y0087190D01*
X0053787Y0087454D01*
X0053673Y0087720D01*
X0053565Y0087989D01*
X0053464Y0088261D01*
X0053370Y0088535D01*
X0053283Y0088811D01*
X0053202Y0089090D01*
X0053128Y0089370D01*
X0053061Y0089652D01*
X0053001Y0089936D01*
X0052948Y0090221D01*
X0052902Y0090507D01*
X0052863Y0090794D01*
X0052831Y0091082D01*
X0052806Y0091371D01*
X0052788Y0091660D01*
X0052778Y0091950D01*
X0052774Y0092240D01*
X0052774Y0257594D02*
X0052778Y0257884D01*
X0052788Y0258174D01*
X0052806Y0258463D01*
X0052831Y0258752D01*
X0052863Y0259040D01*
X0052902Y0259327D01*
X0052948Y0259613D01*
X0053001Y0259898D01*
X0053061Y0260182D01*
X0053128Y0260464D01*
X0053202Y0260744D01*
X0053283Y0261023D01*
X0053370Y0261299D01*
X0053464Y0261573D01*
X0053565Y0261845D01*
X0053673Y0262114D01*
X0053787Y0262380D01*
X0053908Y0262644D01*
X0054035Y0262904D01*
X0054169Y0263162D01*
X0054308Y0263416D01*
X0054454Y0263666D01*
X0054606Y0263913D01*
X0054765Y0264156D01*
X0054929Y0264395D01*
X0055098Y0264630D01*
X0055274Y0264861D01*
X0055455Y0265087D01*
X0055642Y0265309D01*
X0055834Y0265526D01*
X0056031Y0265738D01*
X0056233Y0265946D01*
X0056441Y0266148D01*
X0056653Y0266345D01*
X0056870Y0266537D01*
X0057092Y0266724D01*
X0057318Y0266905D01*
X0057549Y0267081D01*
X0057784Y0267250D01*
X0058023Y0267414D01*
X0058266Y0267573D01*
X0058513Y0267725D01*
X0058763Y0267871D01*
X0059017Y0268010D01*
X0059275Y0268144D01*
X0059535Y0268271D01*
X0059799Y0268392D01*
X0060065Y0268506D01*
X0060334Y0268614D01*
X0060606Y0268715D01*
X0060880Y0268809D01*
X0061156Y0268896D01*
X0061435Y0268977D01*
X0061715Y0269051D01*
X0061997Y0269118D01*
X0062281Y0269178D01*
X0062566Y0269231D01*
X0062852Y0269277D01*
X0063139Y0269316D01*
X0063427Y0269348D01*
X0063716Y0269373D01*
X0064005Y0269391D01*
X0064295Y0269401D01*
X0064585Y0269405D01*
X0064875Y0269401D01*
X0065165Y0269391D01*
X0065454Y0269373D01*
X0065743Y0269348D01*
X0066031Y0269316D01*
X0066318Y0269277D01*
X0066604Y0269231D01*
X0066889Y0269178D01*
X0067173Y0269118D01*
X0067455Y0269051D01*
X0067735Y0268977D01*
X0068014Y0268896D01*
X0068290Y0268809D01*
X0068564Y0268715D01*
X0068836Y0268614D01*
X0069105Y0268506D01*
X0069371Y0268392D01*
X0069635Y0268271D01*
X0069895Y0268144D01*
X0070153Y0268010D01*
X0070407Y0267871D01*
X0070657Y0267725D01*
X0070904Y0267573D01*
X0071147Y0267414D01*
X0071386Y0267250D01*
X0071621Y0267081D01*
X0071852Y0266905D01*
X0072078Y0266724D01*
X0072300Y0266537D01*
X0072517Y0266345D01*
X0072729Y0266148D01*
X0072937Y0265946D01*
X0073139Y0265738D01*
X0073336Y0265526D01*
X0073528Y0265309D01*
X0073715Y0265087D01*
X0073896Y0264861D01*
X0074072Y0264630D01*
X0074241Y0264395D01*
X0074405Y0264156D01*
X0074564Y0263913D01*
X0074716Y0263666D01*
X0074862Y0263416D01*
X0075001Y0263162D01*
X0075135Y0262904D01*
X0075262Y0262644D01*
X0075383Y0262380D01*
X0075497Y0262114D01*
X0075605Y0261845D01*
X0075706Y0261573D01*
X0075800Y0261299D01*
X0075887Y0261023D01*
X0075968Y0260744D01*
X0076042Y0260464D01*
X0076109Y0260182D01*
X0076169Y0259898D01*
X0076222Y0259613D01*
X0076268Y0259327D01*
X0076307Y0259040D01*
X0076339Y0258752D01*
X0076364Y0258463D01*
X0076382Y0258174D01*
X0076392Y0257884D01*
X0076396Y0257594D01*
X0076392Y0257304D01*
X0076382Y0257014D01*
X0076364Y0256725D01*
X0076339Y0256436D01*
X0076307Y0256148D01*
X0076268Y0255861D01*
X0076222Y0255575D01*
X0076169Y0255290D01*
X0076109Y0255006D01*
X0076042Y0254724D01*
X0075968Y0254444D01*
X0075887Y0254165D01*
X0075800Y0253889D01*
X0075706Y0253615D01*
X0075605Y0253343D01*
X0075497Y0253074D01*
X0075383Y0252808D01*
X0075262Y0252544D01*
X0075135Y0252284D01*
X0075001Y0252026D01*
X0074862Y0251772D01*
X0074716Y0251522D01*
X0074564Y0251275D01*
X0074405Y0251032D01*
X0074241Y0250793D01*
X0074072Y0250558D01*
X0073896Y0250327D01*
X0073715Y0250101D01*
X0073528Y0249879D01*
X0073336Y0249662D01*
X0073139Y0249450D01*
X0072937Y0249242D01*
X0072729Y0249040D01*
X0072517Y0248843D01*
X0072300Y0248651D01*
X0072078Y0248464D01*
X0071852Y0248283D01*
X0071621Y0248107D01*
X0071386Y0247938D01*
X0071147Y0247774D01*
X0070904Y0247615D01*
X0070657Y0247463D01*
X0070407Y0247317D01*
X0070153Y0247178D01*
X0069895Y0247044D01*
X0069635Y0246917D01*
X0069371Y0246796D01*
X0069105Y0246682D01*
X0068836Y0246574D01*
X0068564Y0246473D01*
X0068290Y0246379D01*
X0068014Y0246292D01*
X0067735Y0246211D01*
X0067455Y0246137D01*
X0067173Y0246070D01*
X0066889Y0246010D01*
X0066604Y0245957D01*
X0066318Y0245911D01*
X0066031Y0245872D01*
X0065743Y0245840D01*
X0065454Y0245815D01*
X0065165Y0245797D01*
X0064875Y0245787D01*
X0064585Y0245783D01*
X0064295Y0245787D01*
X0064005Y0245797D01*
X0063716Y0245815D01*
X0063427Y0245840D01*
X0063139Y0245872D01*
X0062852Y0245911D01*
X0062566Y0245957D01*
X0062281Y0246010D01*
X0061997Y0246070D01*
X0061715Y0246137D01*
X0061435Y0246211D01*
X0061156Y0246292D01*
X0060880Y0246379D01*
X0060606Y0246473D01*
X0060334Y0246574D01*
X0060065Y0246682D01*
X0059799Y0246796D01*
X0059535Y0246917D01*
X0059275Y0247044D01*
X0059017Y0247178D01*
X0058763Y0247317D01*
X0058513Y0247463D01*
X0058266Y0247615D01*
X0058023Y0247774D01*
X0057784Y0247938D01*
X0057549Y0248107D01*
X0057318Y0248283D01*
X0057092Y0248464D01*
X0056870Y0248651D01*
X0056653Y0248843D01*
X0056441Y0249040D01*
X0056233Y0249242D01*
X0056031Y0249450D01*
X0055834Y0249662D01*
X0055642Y0249879D01*
X0055455Y0250101D01*
X0055274Y0250327D01*
X0055098Y0250558D01*
X0054929Y0250793D01*
X0054765Y0251032D01*
X0054606Y0251275D01*
X0054454Y0251522D01*
X0054308Y0251772D01*
X0054169Y0252026D01*
X0054035Y0252284D01*
X0053908Y0252544D01*
X0053787Y0252808D01*
X0053673Y0253074D01*
X0053565Y0253343D01*
X0053464Y0253615D01*
X0053370Y0253889D01*
X0053283Y0254165D01*
X0053202Y0254444D01*
X0053128Y0254724D01*
X0053061Y0255006D01*
X0053001Y0255290D01*
X0052948Y0255575D01*
X0052902Y0255861D01*
X0052863Y0256148D01*
X0052831Y0256436D01*
X0052806Y0256725D01*
X0052788Y0257014D01*
X0052778Y0257304D01*
X0052774Y0257594D01*
D17*
X0187522Y0093685D02*
X0193231Y0093685D01*
X0197955Y0093685D01*
X0193231Y0093685D02*
X0193034Y0093685D01*
X0201498Y0086992D02*
X0201491Y0086790D01*
X0201480Y0086589D01*
X0201465Y0086388D01*
X0201444Y0086188D01*
X0201419Y0085988D01*
X0201388Y0085789D01*
X0201353Y0085591D01*
X0201314Y0085393D01*
X0201269Y0085197D01*
X0201220Y0085001D01*
X0201166Y0084807D01*
X0201107Y0084614D01*
X0201044Y0084423D01*
X0200977Y0084233D01*
X0200904Y0084045D01*
X0200828Y0083859D01*
X0200746Y0083675D01*
X0200661Y0083492D01*
X0200571Y0083312D01*
X0200477Y0083134D01*
X0200378Y0082958D01*
X0200275Y0082785D01*
X0200169Y0082614D01*
X0200058Y0082446D01*
X0199943Y0082281D01*
X0199824Y0082118D01*
X0199701Y0081958D01*
X0199575Y0081801D01*
X0199444Y0081648D01*
X0199311Y0081497D01*
X0199173Y0081350D01*
X0199032Y0081206D01*
X0198888Y0081066D01*
X0198740Y0080929D01*
X0198589Y0080795D01*
X0198435Y0080666D01*
X0198278Y0080540D01*
X0198118Y0080417D01*
X0197954Y0080299D01*
X0197955Y0080299D02*
X0192837Y0080299D01*
X0187522Y0080299D01*
X0184176Y0086992D02*
X0184180Y0087196D01*
X0184188Y0087400D01*
X0184201Y0087604D01*
X0184219Y0087807D01*
X0184242Y0088010D01*
X0184270Y0088212D01*
X0184303Y0088413D01*
X0184341Y0088614D01*
X0184383Y0088813D01*
X0184431Y0089012D01*
X0184483Y0089209D01*
X0184540Y0089405D01*
X0184601Y0089599D01*
X0184668Y0089792D01*
X0184738Y0089983D01*
X0184814Y0090173D01*
X0184894Y0090361D01*
X0184979Y0090546D01*
X0185068Y0090730D01*
X0185161Y0090911D01*
X0185259Y0091090D01*
X0185361Y0091267D01*
X0185467Y0091441D01*
X0185578Y0091612D01*
X0185692Y0091781D01*
X0185811Y0091947D01*
X0185933Y0092110D01*
X0186060Y0092270D01*
X0186190Y0092427D01*
X0186324Y0092581D01*
X0186462Y0092731D01*
X0186604Y0092878D01*
X0186748Y0093022D01*
X0186897Y0093162D01*
X0187048Y0093298D01*
X0187203Y0093431D01*
X0187361Y0093560D01*
X0187522Y0093685D01*
X0184176Y0086993D02*
X0184180Y0086789D01*
X0184188Y0086585D01*
X0184201Y0086381D01*
X0184219Y0086178D01*
X0184242Y0085975D01*
X0184270Y0085773D01*
X0184303Y0085572D01*
X0184341Y0085371D01*
X0184383Y0085172D01*
X0184431Y0084973D01*
X0184483Y0084776D01*
X0184540Y0084580D01*
X0184601Y0084386D01*
X0184668Y0084193D01*
X0184738Y0084002D01*
X0184814Y0083812D01*
X0184894Y0083624D01*
X0184979Y0083439D01*
X0185068Y0083255D01*
X0185161Y0083074D01*
X0185259Y0082895D01*
X0185361Y0082718D01*
X0185467Y0082544D01*
X0185578Y0082373D01*
X0185692Y0082204D01*
X0185811Y0082038D01*
X0185933Y0081875D01*
X0186060Y0081715D01*
X0186190Y0081558D01*
X0186324Y0081404D01*
X0186462Y0081254D01*
X0186604Y0081107D01*
X0186748Y0080963D01*
X0186897Y0080823D01*
X0187048Y0080687D01*
X0187203Y0080554D01*
X0187361Y0080425D01*
X0187522Y0080300D01*
X0201499Y0086992D02*
X0201490Y0087198D01*
X0201477Y0087404D01*
X0201459Y0087610D01*
X0201436Y0087815D01*
X0201408Y0088019D01*
X0201375Y0088223D01*
X0201337Y0088426D01*
X0201294Y0088628D01*
X0201246Y0088829D01*
X0201194Y0089029D01*
X0201136Y0089227D01*
X0201074Y0089424D01*
X0201007Y0089619D01*
X0200936Y0089813D01*
X0200859Y0090005D01*
X0200778Y0090195D01*
X0200693Y0090383D01*
X0200603Y0090568D01*
X0200509Y0090752D01*
X0200410Y0090933D01*
X0200307Y0091112D01*
X0200199Y0091288D01*
X0200088Y0091462D01*
X0199972Y0091633D01*
X0199852Y0091801D01*
X0199728Y0091966D01*
X0199600Y0092128D01*
X0199468Y0092287D01*
X0199333Y0092443D01*
X0199193Y0092595D01*
X0199051Y0092744D01*
X0198904Y0092890D01*
X0198754Y0093032D01*
X0198601Y0093170D01*
X0198444Y0093304D01*
X0198284Y0093435D01*
X0198121Y0093562D01*
X0197955Y0093685D01*
M02*
