G75*
%MOIN*%
%OFA0B0*%
%FSLAX25Y25*%
%IPPOS*%
%LPD*%
%AMOC8*
5,1,8,0,0,1.08239X$1,22.5*
%
%ADD10C,0.00000*%
%ADD11C,0.00400*%
%ADD12C,0.00709*%
D10*
X0048837Y0076492D02*
X0048837Y0273343D01*
X0344113Y0273343D01*
X0344113Y0076492D01*
X0048837Y0076492D01*
X0058286Y0092240D02*
X0058288Y0092398D01*
X0058294Y0092556D01*
X0058304Y0092714D01*
X0058318Y0092872D01*
X0058336Y0093029D01*
X0058357Y0093186D01*
X0058383Y0093342D01*
X0058413Y0093498D01*
X0058446Y0093653D01*
X0058484Y0093806D01*
X0058525Y0093959D01*
X0058570Y0094111D01*
X0058619Y0094262D01*
X0058672Y0094411D01*
X0058728Y0094559D01*
X0058788Y0094705D01*
X0058852Y0094850D01*
X0058920Y0094993D01*
X0058991Y0095135D01*
X0059065Y0095275D01*
X0059143Y0095412D01*
X0059225Y0095548D01*
X0059309Y0095682D01*
X0059398Y0095813D01*
X0059489Y0095942D01*
X0059584Y0096069D01*
X0059681Y0096194D01*
X0059782Y0096316D01*
X0059886Y0096435D01*
X0059993Y0096552D01*
X0060103Y0096666D01*
X0060216Y0096777D01*
X0060331Y0096886D01*
X0060449Y0096991D01*
X0060570Y0097093D01*
X0060693Y0097193D01*
X0060819Y0097289D01*
X0060947Y0097382D01*
X0061077Y0097472D01*
X0061210Y0097558D01*
X0061345Y0097642D01*
X0061481Y0097721D01*
X0061620Y0097798D01*
X0061761Y0097870D01*
X0061903Y0097940D01*
X0062047Y0098005D01*
X0062193Y0098067D01*
X0062340Y0098125D01*
X0062489Y0098180D01*
X0062639Y0098231D01*
X0062790Y0098278D01*
X0062942Y0098321D01*
X0063095Y0098360D01*
X0063250Y0098396D01*
X0063405Y0098427D01*
X0063561Y0098455D01*
X0063717Y0098479D01*
X0063874Y0098499D01*
X0064032Y0098515D01*
X0064189Y0098527D01*
X0064348Y0098535D01*
X0064506Y0098539D01*
X0064664Y0098539D01*
X0064822Y0098535D01*
X0064981Y0098527D01*
X0065138Y0098515D01*
X0065296Y0098499D01*
X0065453Y0098479D01*
X0065609Y0098455D01*
X0065765Y0098427D01*
X0065920Y0098396D01*
X0066075Y0098360D01*
X0066228Y0098321D01*
X0066380Y0098278D01*
X0066531Y0098231D01*
X0066681Y0098180D01*
X0066830Y0098125D01*
X0066977Y0098067D01*
X0067123Y0098005D01*
X0067267Y0097940D01*
X0067409Y0097870D01*
X0067550Y0097798D01*
X0067689Y0097721D01*
X0067825Y0097642D01*
X0067960Y0097558D01*
X0068093Y0097472D01*
X0068223Y0097382D01*
X0068351Y0097289D01*
X0068477Y0097193D01*
X0068600Y0097093D01*
X0068721Y0096991D01*
X0068839Y0096886D01*
X0068954Y0096777D01*
X0069067Y0096666D01*
X0069177Y0096552D01*
X0069284Y0096435D01*
X0069388Y0096316D01*
X0069489Y0096194D01*
X0069586Y0096069D01*
X0069681Y0095942D01*
X0069772Y0095813D01*
X0069861Y0095682D01*
X0069945Y0095548D01*
X0070027Y0095412D01*
X0070105Y0095275D01*
X0070179Y0095135D01*
X0070250Y0094993D01*
X0070318Y0094850D01*
X0070382Y0094705D01*
X0070442Y0094559D01*
X0070498Y0094411D01*
X0070551Y0094262D01*
X0070600Y0094111D01*
X0070645Y0093959D01*
X0070686Y0093806D01*
X0070724Y0093653D01*
X0070757Y0093498D01*
X0070787Y0093342D01*
X0070813Y0093186D01*
X0070834Y0093029D01*
X0070852Y0092872D01*
X0070866Y0092714D01*
X0070876Y0092556D01*
X0070882Y0092398D01*
X0070884Y0092240D01*
X0070882Y0092082D01*
X0070876Y0091924D01*
X0070866Y0091766D01*
X0070852Y0091608D01*
X0070834Y0091451D01*
X0070813Y0091294D01*
X0070787Y0091138D01*
X0070757Y0090982D01*
X0070724Y0090827D01*
X0070686Y0090674D01*
X0070645Y0090521D01*
X0070600Y0090369D01*
X0070551Y0090218D01*
X0070498Y0090069D01*
X0070442Y0089921D01*
X0070382Y0089775D01*
X0070318Y0089630D01*
X0070250Y0089487D01*
X0070179Y0089345D01*
X0070105Y0089205D01*
X0070027Y0089068D01*
X0069945Y0088932D01*
X0069861Y0088798D01*
X0069772Y0088667D01*
X0069681Y0088538D01*
X0069586Y0088411D01*
X0069489Y0088286D01*
X0069388Y0088164D01*
X0069284Y0088045D01*
X0069177Y0087928D01*
X0069067Y0087814D01*
X0068954Y0087703D01*
X0068839Y0087594D01*
X0068721Y0087489D01*
X0068600Y0087387D01*
X0068477Y0087287D01*
X0068351Y0087191D01*
X0068223Y0087098D01*
X0068093Y0087008D01*
X0067960Y0086922D01*
X0067825Y0086838D01*
X0067689Y0086759D01*
X0067550Y0086682D01*
X0067409Y0086610D01*
X0067267Y0086540D01*
X0067123Y0086475D01*
X0066977Y0086413D01*
X0066830Y0086355D01*
X0066681Y0086300D01*
X0066531Y0086249D01*
X0066380Y0086202D01*
X0066228Y0086159D01*
X0066075Y0086120D01*
X0065920Y0086084D01*
X0065765Y0086053D01*
X0065609Y0086025D01*
X0065453Y0086001D01*
X0065296Y0085981D01*
X0065138Y0085965D01*
X0064981Y0085953D01*
X0064822Y0085945D01*
X0064664Y0085941D01*
X0064506Y0085941D01*
X0064348Y0085945D01*
X0064189Y0085953D01*
X0064032Y0085965D01*
X0063874Y0085981D01*
X0063717Y0086001D01*
X0063561Y0086025D01*
X0063405Y0086053D01*
X0063250Y0086084D01*
X0063095Y0086120D01*
X0062942Y0086159D01*
X0062790Y0086202D01*
X0062639Y0086249D01*
X0062489Y0086300D01*
X0062340Y0086355D01*
X0062193Y0086413D01*
X0062047Y0086475D01*
X0061903Y0086540D01*
X0061761Y0086610D01*
X0061620Y0086682D01*
X0061481Y0086759D01*
X0061345Y0086838D01*
X0061210Y0086922D01*
X0061077Y0087008D01*
X0060947Y0087098D01*
X0060819Y0087191D01*
X0060693Y0087287D01*
X0060570Y0087387D01*
X0060449Y0087489D01*
X0060331Y0087594D01*
X0060216Y0087703D01*
X0060103Y0087814D01*
X0059993Y0087928D01*
X0059886Y0088045D01*
X0059782Y0088164D01*
X0059681Y0088286D01*
X0059584Y0088411D01*
X0059489Y0088538D01*
X0059398Y0088667D01*
X0059309Y0088798D01*
X0059225Y0088932D01*
X0059143Y0089068D01*
X0059065Y0089205D01*
X0058991Y0089345D01*
X0058920Y0089487D01*
X0058852Y0089630D01*
X0058788Y0089775D01*
X0058728Y0089921D01*
X0058672Y0090069D01*
X0058619Y0090218D01*
X0058570Y0090369D01*
X0058525Y0090521D01*
X0058484Y0090674D01*
X0058446Y0090827D01*
X0058413Y0090982D01*
X0058383Y0091138D01*
X0058357Y0091294D01*
X0058336Y0091451D01*
X0058318Y0091608D01*
X0058304Y0091766D01*
X0058294Y0091924D01*
X0058288Y0092082D01*
X0058286Y0092240D01*
X0251620Y0241492D02*
X0251622Y0241600D01*
X0251628Y0241709D01*
X0251638Y0241817D01*
X0251652Y0241924D01*
X0251670Y0242031D01*
X0251691Y0242138D01*
X0251717Y0242243D01*
X0251747Y0242348D01*
X0251780Y0242451D01*
X0251817Y0242553D01*
X0251858Y0242653D01*
X0251902Y0242752D01*
X0251951Y0242850D01*
X0252002Y0242945D01*
X0252057Y0243038D01*
X0252116Y0243130D01*
X0252178Y0243219D01*
X0252243Y0243306D01*
X0252311Y0243390D01*
X0252382Y0243472D01*
X0252456Y0243551D01*
X0252533Y0243627D01*
X0252613Y0243701D01*
X0252696Y0243771D01*
X0252781Y0243839D01*
X0252868Y0243903D01*
X0252958Y0243964D01*
X0253050Y0244022D01*
X0253144Y0244076D01*
X0253240Y0244127D01*
X0253337Y0244174D01*
X0253437Y0244218D01*
X0253538Y0244258D01*
X0253640Y0244294D01*
X0253743Y0244326D01*
X0253848Y0244355D01*
X0253954Y0244379D01*
X0254060Y0244400D01*
X0254167Y0244417D01*
X0254275Y0244430D01*
X0254383Y0244439D01*
X0254492Y0244444D01*
X0254600Y0244445D01*
X0254709Y0244442D01*
X0254817Y0244435D01*
X0254925Y0244424D01*
X0255032Y0244409D01*
X0255139Y0244390D01*
X0255245Y0244367D01*
X0255350Y0244341D01*
X0255455Y0244310D01*
X0255557Y0244276D01*
X0255659Y0244238D01*
X0255759Y0244196D01*
X0255858Y0244151D01*
X0255955Y0244102D01*
X0256049Y0244049D01*
X0256142Y0243993D01*
X0256233Y0243934D01*
X0256322Y0243871D01*
X0256408Y0243806D01*
X0256492Y0243737D01*
X0256573Y0243665D01*
X0256651Y0243590D01*
X0256727Y0243512D01*
X0256800Y0243431D01*
X0256870Y0243348D01*
X0256936Y0243263D01*
X0257000Y0243175D01*
X0257060Y0243084D01*
X0257117Y0242992D01*
X0257170Y0242897D01*
X0257220Y0242801D01*
X0257266Y0242703D01*
X0257309Y0242603D01*
X0257348Y0242502D01*
X0257383Y0242399D01*
X0257415Y0242296D01*
X0257442Y0242191D01*
X0257466Y0242085D01*
X0257486Y0241978D01*
X0257502Y0241871D01*
X0257514Y0241763D01*
X0257522Y0241655D01*
X0257526Y0241546D01*
X0257526Y0241438D01*
X0257522Y0241329D01*
X0257514Y0241221D01*
X0257502Y0241113D01*
X0257486Y0241006D01*
X0257466Y0240899D01*
X0257442Y0240793D01*
X0257415Y0240688D01*
X0257383Y0240585D01*
X0257348Y0240482D01*
X0257309Y0240381D01*
X0257266Y0240281D01*
X0257220Y0240183D01*
X0257170Y0240087D01*
X0257117Y0239992D01*
X0257060Y0239900D01*
X0257000Y0239809D01*
X0256936Y0239721D01*
X0256870Y0239636D01*
X0256800Y0239553D01*
X0256727Y0239472D01*
X0256651Y0239394D01*
X0256573Y0239319D01*
X0256492Y0239247D01*
X0256408Y0239178D01*
X0256322Y0239113D01*
X0256233Y0239050D01*
X0256142Y0238991D01*
X0256050Y0238935D01*
X0255955Y0238882D01*
X0255858Y0238833D01*
X0255759Y0238788D01*
X0255659Y0238746D01*
X0255557Y0238708D01*
X0255455Y0238674D01*
X0255350Y0238643D01*
X0255245Y0238617D01*
X0255139Y0238594D01*
X0255032Y0238575D01*
X0254925Y0238560D01*
X0254817Y0238549D01*
X0254709Y0238542D01*
X0254600Y0238539D01*
X0254492Y0238540D01*
X0254383Y0238545D01*
X0254275Y0238554D01*
X0254167Y0238567D01*
X0254060Y0238584D01*
X0253954Y0238605D01*
X0253848Y0238629D01*
X0253743Y0238658D01*
X0253640Y0238690D01*
X0253538Y0238726D01*
X0253437Y0238766D01*
X0253337Y0238810D01*
X0253240Y0238857D01*
X0253144Y0238908D01*
X0253050Y0238962D01*
X0252958Y0239020D01*
X0252868Y0239081D01*
X0252781Y0239145D01*
X0252696Y0239213D01*
X0252613Y0239283D01*
X0252533Y0239357D01*
X0252456Y0239433D01*
X0252382Y0239512D01*
X0252311Y0239594D01*
X0252243Y0239678D01*
X0252178Y0239765D01*
X0252116Y0239854D01*
X0252057Y0239946D01*
X0252002Y0240039D01*
X0251951Y0240134D01*
X0251902Y0240232D01*
X0251858Y0240331D01*
X0251817Y0240431D01*
X0251780Y0240533D01*
X0251747Y0240636D01*
X0251717Y0240741D01*
X0251691Y0240846D01*
X0251670Y0240953D01*
X0251652Y0241060D01*
X0251638Y0241167D01*
X0251628Y0241275D01*
X0251622Y0241384D01*
X0251620Y0241492D01*
X0281148Y0241492D02*
X0281150Y0241600D01*
X0281156Y0241709D01*
X0281166Y0241817D01*
X0281180Y0241924D01*
X0281198Y0242031D01*
X0281219Y0242138D01*
X0281245Y0242243D01*
X0281275Y0242348D01*
X0281308Y0242451D01*
X0281345Y0242553D01*
X0281386Y0242653D01*
X0281430Y0242752D01*
X0281479Y0242850D01*
X0281530Y0242945D01*
X0281585Y0243038D01*
X0281644Y0243130D01*
X0281706Y0243219D01*
X0281771Y0243306D01*
X0281839Y0243390D01*
X0281910Y0243472D01*
X0281984Y0243551D01*
X0282061Y0243627D01*
X0282141Y0243701D01*
X0282224Y0243771D01*
X0282309Y0243839D01*
X0282396Y0243903D01*
X0282486Y0243964D01*
X0282578Y0244022D01*
X0282672Y0244076D01*
X0282768Y0244127D01*
X0282865Y0244174D01*
X0282965Y0244218D01*
X0283066Y0244258D01*
X0283168Y0244294D01*
X0283271Y0244326D01*
X0283376Y0244355D01*
X0283482Y0244379D01*
X0283588Y0244400D01*
X0283695Y0244417D01*
X0283803Y0244430D01*
X0283911Y0244439D01*
X0284020Y0244444D01*
X0284128Y0244445D01*
X0284237Y0244442D01*
X0284345Y0244435D01*
X0284453Y0244424D01*
X0284560Y0244409D01*
X0284667Y0244390D01*
X0284773Y0244367D01*
X0284878Y0244341D01*
X0284983Y0244310D01*
X0285085Y0244276D01*
X0285187Y0244238D01*
X0285287Y0244196D01*
X0285386Y0244151D01*
X0285483Y0244102D01*
X0285577Y0244049D01*
X0285670Y0243993D01*
X0285761Y0243934D01*
X0285850Y0243871D01*
X0285936Y0243806D01*
X0286020Y0243737D01*
X0286101Y0243665D01*
X0286179Y0243590D01*
X0286255Y0243512D01*
X0286328Y0243431D01*
X0286398Y0243348D01*
X0286464Y0243263D01*
X0286528Y0243175D01*
X0286588Y0243084D01*
X0286645Y0242992D01*
X0286698Y0242897D01*
X0286748Y0242801D01*
X0286794Y0242703D01*
X0286837Y0242603D01*
X0286876Y0242502D01*
X0286911Y0242399D01*
X0286943Y0242296D01*
X0286970Y0242191D01*
X0286994Y0242085D01*
X0287014Y0241978D01*
X0287030Y0241871D01*
X0287042Y0241763D01*
X0287050Y0241655D01*
X0287054Y0241546D01*
X0287054Y0241438D01*
X0287050Y0241329D01*
X0287042Y0241221D01*
X0287030Y0241113D01*
X0287014Y0241006D01*
X0286994Y0240899D01*
X0286970Y0240793D01*
X0286943Y0240688D01*
X0286911Y0240585D01*
X0286876Y0240482D01*
X0286837Y0240381D01*
X0286794Y0240281D01*
X0286748Y0240183D01*
X0286698Y0240087D01*
X0286645Y0239992D01*
X0286588Y0239900D01*
X0286528Y0239809D01*
X0286464Y0239721D01*
X0286398Y0239636D01*
X0286328Y0239553D01*
X0286255Y0239472D01*
X0286179Y0239394D01*
X0286101Y0239319D01*
X0286020Y0239247D01*
X0285936Y0239178D01*
X0285850Y0239113D01*
X0285761Y0239050D01*
X0285670Y0238991D01*
X0285578Y0238935D01*
X0285483Y0238882D01*
X0285386Y0238833D01*
X0285287Y0238788D01*
X0285187Y0238746D01*
X0285085Y0238708D01*
X0284983Y0238674D01*
X0284878Y0238643D01*
X0284773Y0238617D01*
X0284667Y0238594D01*
X0284560Y0238575D01*
X0284453Y0238560D01*
X0284345Y0238549D01*
X0284237Y0238542D01*
X0284128Y0238539D01*
X0284020Y0238540D01*
X0283911Y0238545D01*
X0283803Y0238554D01*
X0283695Y0238567D01*
X0283588Y0238584D01*
X0283482Y0238605D01*
X0283376Y0238629D01*
X0283271Y0238658D01*
X0283168Y0238690D01*
X0283066Y0238726D01*
X0282965Y0238766D01*
X0282865Y0238810D01*
X0282768Y0238857D01*
X0282672Y0238908D01*
X0282578Y0238962D01*
X0282486Y0239020D01*
X0282396Y0239081D01*
X0282309Y0239145D01*
X0282224Y0239213D01*
X0282141Y0239283D01*
X0282061Y0239357D01*
X0281984Y0239433D01*
X0281910Y0239512D01*
X0281839Y0239594D01*
X0281771Y0239678D01*
X0281706Y0239765D01*
X0281644Y0239854D01*
X0281585Y0239946D01*
X0281530Y0240039D01*
X0281479Y0240134D01*
X0281430Y0240232D01*
X0281386Y0240331D01*
X0281345Y0240431D01*
X0281308Y0240533D01*
X0281275Y0240636D01*
X0281245Y0240741D01*
X0281219Y0240846D01*
X0281198Y0240953D01*
X0281180Y0241060D01*
X0281166Y0241167D01*
X0281156Y0241275D01*
X0281150Y0241384D01*
X0281148Y0241492D01*
X0322066Y0257594D02*
X0322068Y0257752D01*
X0322074Y0257910D01*
X0322084Y0258068D01*
X0322098Y0258226D01*
X0322116Y0258383D01*
X0322137Y0258540D01*
X0322163Y0258696D01*
X0322193Y0258852D01*
X0322226Y0259007D01*
X0322264Y0259160D01*
X0322305Y0259313D01*
X0322350Y0259465D01*
X0322399Y0259616D01*
X0322452Y0259765D01*
X0322508Y0259913D01*
X0322568Y0260059D01*
X0322632Y0260204D01*
X0322700Y0260347D01*
X0322771Y0260489D01*
X0322845Y0260629D01*
X0322923Y0260766D01*
X0323005Y0260902D01*
X0323089Y0261036D01*
X0323178Y0261167D01*
X0323269Y0261296D01*
X0323364Y0261423D01*
X0323461Y0261548D01*
X0323562Y0261670D01*
X0323666Y0261789D01*
X0323773Y0261906D01*
X0323883Y0262020D01*
X0323996Y0262131D01*
X0324111Y0262240D01*
X0324229Y0262345D01*
X0324350Y0262447D01*
X0324473Y0262547D01*
X0324599Y0262643D01*
X0324727Y0262736D01*
X0324857Y0262826D01*
X0324990Y0262912D01*
X0325125Y0262996D01*
X0325261Y0263075D01*
X0325400Y0263152D01*
X0325541Y0263224D01*
X0325683Y0263294D01*
X0325827Y0263359D01*
X0325973Y0263421D01*
X0326120Y0263479D01*
X0326269Y0263534D01*
X0326419Y0263585D01*
X0326570Y0263632D01*
X0326722Y0263675D01*
X0326875Y0263714D01*
X0327030Y0263750D01*
X0327185Y0263781D01*
X0327341Y0263809D01*
X0327497Y0263833D01*
X0327654Y0263853D01*
X0327812Y0263869D01*
X0327969Y0263881D01*
X0328128Y0263889D01*
X0328286Y0263893D01*
X0328444Y0263893D01*
X0328602Y0263889D01*
X0328761Y0263881D01*
X0328918Y0263869D01*
X0329076Y0263853D01*
X0329233Y0263833D01*
X0329389Y0263809D01*
X0329545Y0263781D01*
X0329700Y0263750D01*
X0329855Y0263714D01*
X0330008Y0263675D01*
X0330160Y0263632D01*
X0330311Y0263585D01*
X0330461Y0263534D01*
X0330610Y0263479D01*
X0330757Y0263421D01*
X0330903Y0263359D01*
X0331047Y0263294D01*
X0331189Y0263224D01*
X0331330Y0263152D01*
X0331469Y0263075D01*
X0331605Y0262996D01*
X0331740Y0262912D01*
X0331873Y0262826D01*
X0332003Y0262736D01*
X0332131Y0262643D01*
X0332257Y0262547D01*
X0332380Y0262447D01*
X0332501Y0262345D01*
X0332619Y0262240D01*
X0332734Y0262131D01*
X0332847Y0262020D01*
X0332957Y0261906D01*
X0333064Y0261789D01*
X0333168Y0261670D01*
X0333269Y0261548D01*
X0333366Y0261423D01*
X0333461Y0261296D01*
X0333552Y0261167D01*
X0333641Y0261036D01*
X0333725Y0260902D01*
X0333807Y0260766D01*
X0333885Y0260629D01*
X0333959Y0260489D01*
X0334030Y0260347D01*
X0334098Y0260204D01*
X0334162Y0260059D01*
X0334222Y0259913D01*
X0334278Y0259765D01*
X0334331Y0259616D01*
X0334380Y0259465D01*
X0334425Y0259313D01*
X0334466Y0259160D01*
X0334504Y0259007D01*
X0334537Y0258852D01*
X0334567Y0258696D01*
X0334593Y0258540D01*
X0334614Y0258383D01*
X0334632Y0258226D01*
X0334646Y0258068D01*
X0334656Y0257910D01*
X0334662Y0257752D01*
X0334664Y0257594D01*
X0334662Y0257436D01*
X0334656Y0257278D01*
X0334646Y0257120D01*
X0334632Y0256962D01*
X0334614Y0256805D01*
X0334593Y0256648D01*
X0334567Y0256492D01*
X0334537Y0256336D01*
X0334504Y0256181D01*
X0334466Y0256028D01*
X0334425Y0255875D01*
X0334380Y0255723D01*
X0334331Y0255572D01*
X0334278Y0255423D01*
X0334222Y0255275D01*
X0334162Y0255129D01*
X0334098Y0254984D01*
X0334030Y0254841D01*
X0333959Y0254699D01*
X0333885Y0254559D01*
X0333807Y0254422D01*
X0333725Y0254286D01*
X0333641Y0254152D01*
X0333552Y0254021D01*
X0333461Y0253892D01*
X0333366Y0253765D01*
X0333269Y0253640D01*
X0333168Y0253518D01*
X0333064Y0253399D01*
X0332957Y0253282D01*
X0332847Y0253168D01*
X0332734Y0253057D01*
X0332619Y0252948D01*
X0332501Y0252843D01*
X0332380Y0252741D01*
X0332257Y0252641D01*
X0332131Y0252545D01*
X0332003Y0252452D01*
X0331873Y0252362D01*
X0331740Y0252276D01*
X0331605Y0252192D01*
X0331469Y0252113D01*
X0331330Y0252036D01*
X0331189Y0251964D01*
X0331047Y0251894D01*
X0330903Y0251829D01*
X0330757Y0251767D01*
X0330610Y0251709D01*
X0330461Y0251654D01*
X0330311Y0251603D01*
X0330160Y0251556D01*
X0330008Y0251513D01*
X0329855Y0251474D01*
X0329700Y0251438D01*
X0329545Y0251407D01*
X0329389Y0251379D01*
X0329233Y0251355D01*
X0329076Y0251335D01*
X0328918Y0251319D01*
X0328761Y0251307D01*
X0328602Y0251299D01*
X0328444Y0251295D01*
X0328286Y0251295D01*
X0328128Y0251299D01*
X0327969Y0251307D01*
X0327812Y0251319D01*
X0327654Y0251335D01*
X0327497Y0251355D01*
X0327341Y0251379D01*
X0327185Y0251407D01*
X0327030Y0251438D01*
X0326875Y0251474D01*
X0326722Y0251513D01*
X0326570Y0251556D01*
X0326419Y0251603D01*
X0326269Y0251654D01*
X0326120Y0251709D01*
X0325973Y0251767D01*
X0325827Y0251829D01*
X0325683Y0251894D01*
X0325541Y0251964D01*
X0325400Y0252036D01*
X0325261Y0252113D01*
X0325125Y0252192D01*
X0324990Y0252276D01*
X0324857Y0252362D01*
X0324727Y0252452D01*
X0324599Y0252545D01*
X0324473Y0252641D01*
X0324350Y0252741D01*
X0324229Y0252843D01*
X0324111Y0252948D01*
X0323996Y0253057D01*
X0323883Y0253168D01*
X0323773Y0253282D01*
X0323666Y0253399D01*
X0323562Y0253518D01*
X0323461Y0253640D01*
X0323364Y0253765D01*
X0323269Y0253892D01*
X0323178Y0254021D01*
X0323089Y0254152D01*
X0323005Y0254286D01*
X0322923Y0254422D01*
X0322845Y0254559D01*
X0322771Y0254699D01*
X0322700Y0254841D01*
X0322632Y0254984D01*
X0322568Y0255129D01*
X0322508Y0255275D01*
X0322452Y0255423D01*
X0322399Y0255572D01*
X0322350Y0255723D01*
X0322305Y0255875D01*
X0322264Y0256028D01*
X0322226Y0256181D01*
X0322193Y0256336D01*
X0322163Y0256492D01*
X0322137Y0256648D01*
X0322116Y0256805D01*
X0322098Y0256962D01*
X0322084Y0257120D01*
X0322074Y0257278D01*
X0322068Y0257436D01*
X0322066Y0257594D01*
X0322066Y0092240D02*
X0322068Y0092398D01*
X0322074Y0092556D01*
X0322084Y0092714D01*
X0322098Y0092872D01*
X0322116Y0093029D01*
X0322137Y0093186D01*
X0322163Y0093342D01*
X0322193Y0093498D01*
X0322226Y0093653D01*
X0322264Y0093806D01*
X0322305Y0093959D01*
X0322350Y0094111D01*
X0322399Y0094262D01*
X0322452Y0094411D01*
X0322508Y0094559D01*
X0322568Y0094705D01*
X0322632Y0094850D01*
X0322700Y0094993D01*
X0322771Y0095135D01*
X0322845Y0095275D01*
X0322923Y0095412D01*
X0323005Y0095548D01*
X0323089Y0095682D01*
X0323178Y0095813D01*
X0323269Y0095942D01*
X0323364Y0096069D01*
X0323461Y0096194D01*
X0323562Y0096316D01*
X0323666Y0096435D01*
X0323773Y0096552D01*
X0323883Y0096666D01*
X0323996Y0096777D01*
X0324111Y0096886D01*
X0324229Y0096991D01*
X0324350Y0097093D01*
X0324473Y0097193D01*
X0324599Y0097289D01*
X0324727Y0097382D01*
X0324857Y0097472D01*
X0324990Y0097558D01*
X0325125Y0097642D01*
X0325261Y0097721D01*
X0325400Y0097798D01*
X0325541Y0097870D01*
X0325683Y0097940D01*
X0325827Y0098005D01*
X0325973Y0098067D01*
X0326120Y0098125D01*
X0326269Y0098180D01*
X0326419Y0098231D01*
X0326570Y0098278D01*
X0326722Y0098321D01*
X0326875Y0098360D01*
X0327030Y0098396D01*
X0327185Y0098427D01*
X0327341Y0098455D01*
X0327497Y0098479D01*
X0327654Y0098499D01*
X0327812Y0098515D01*
X0327969Y0098527D01*
X0328128Y0098535D01*
X0328286Y0098539D01*
X0328444Y0098539D01*
X0328602Y0098535D01*
X0328761Y0098527D01*
X0328918Y0098515D01*
X0329076Y0098499D01*
X0329233Y0098479D01*
X0329389Y0098455D01*
X0329545Y0098427D01*
X0329700Y0098396D01*
X0329855Y0098360D01*
X0330008Y0098321D01*
X0330160Y0098278D01*
X0330311Y0098231D01*
X0330461Y0098180D01*
X0330610Y0098125D01*
X0330757Y0098067D01*
X0330903Y0098005D01*
X0331047Y0097940D01*
X0331189Y0097870D01*
X0331330Y0097798D01*
X0331469Y0097721D01*
X0331605Y0097642D01*
X0331740Y0097558D01*
X0331873Y0097472D01*
X0332003Y0097382D01*
X0332131Y0097289D01*
X0332257Y0097193D01*
X0332380Y0097093D01*
X0332501Y0096991D01*
X0332619Y0096886D01*
X0332734Y0096777D01*
X0332847Y0096666D01*
X0332957Y0096552D01*
X0333064Y0096435D01*
X0333168Y0096316D01*
X0333269Y0096194D01*
X0333366Y0096069D01*
X0333461Y0095942D01*
X0333552Y0095813D01*
X0333641Y0095682D01*
X0333725Y0095548D01*
X0333807Y0095412D01*
X0333885Y0095275D01*
X0333959Y0095135D01*
X0334030Y0094993D01*
X0334098Y0094850D01*
X0334162Y0094705D01*
X0334222Y0094559D01*
X0334278Y0094411D01*
X0334331Y0094262D01*
X0334380Y0094111D01*
X0334425Y0093959D01*
X0334466Y0093806D01*
X0334504Y0093653D01*
X0334537Y0093498D01*
X0334567Y0093342D01*
X0334593Y0093186D01*
X0334614Y0093029D01*
X0334632Y0092872D01*
X0334646Y0092714D01*
X0334656Y0092556D01*
X0334662Y0092398D01*
X0334664Y0092240D01*
X0334662Y0092082D01*
X0334656Y0091924D01*
X0334646Y0091766D01*
X0334632Y0091608D01*
X0334614Y0091451D01*
X0334593Y0091294D01*
X0334567Y0091138D01*
X0334537Y0090982D01*
X0334504Y0090827D01*
X0334466Y0090674D01*
X0334425Y0090521D01*
X0334380Y0090369D01*
X0334331Y0090218D01*
X0334278Y0090069D01*
X0334222Y0089921D01*
X0334162Y0089775D01*
X0334098Y0089630D01*
X0334030Y0089487D01*
X0333959Y0089345D01*
X0333885Y0089205D01*
X0333807Y0089068D01*
X0333725Y0088932D01*
X0333641Y0088798D01*
X0333552Y0088667D01*
X0333461Y0088538D01*
X0333366Y0088411D01*
X0333269Y0088286D01*
X0333168Y0088164D01*
X0333064Y0088045D01*
X0332957Y0087928D01*
X0332847Y0087814D01*
X0332734Y0087703D01*
X0332619Y0087594D01*
X0332501Y0087489D01*
X0332380Y0087387D01*
X0332257Y0087287D01*
X0332131Y0087191D01*
X0332003Y0087098D01*
X0331873Y0087008D01*
X0331740Y0086922D01*
X0331605Y0086838D01*
X0331469Y0086759D01*
X0331330Y0086682D01*
X0331189Y0086610D01*
X0331047Y0086540D01*
X0330903Y0086475D01*
X0330757Y0086413D01*
X0330610Y0086355D01*
X0330461Y0086300D01*
X0330311Y0086249D01*
X0330160Y0086202D01*
X0330008Y0086159D01*
X0329855Y0086120D01*
X0329700Y0086084D01*
X0329545Y0086053D01*
X0329389Y0086025D01*
X0329233Y0086001D01*
X0329076Y0085981D01*
X0328918Y0085965D01*
X0328761Y0085953D01*
X0328602Y0085945D01*
X0328444Y0085941D01*
X0328286Y0085941D01*
X0328128Y0085945D01*
X0327969Y0085953D01*
X0327812Y0085965D01*
X0327654Y0085981D01*
X0327497Y0086001D01*
X0327341Y0086025D01*
X0327185Y0086053D01*
X0327030Y0086084D01*
X0326875Y0086120D01*
X0326722Y0086159D01*
X0326570Y0086202D01*
X0326419Y0086249D01*
X0326269Y0086300D01*
X0326120Y0086355D01*
X0325973Y0086413D01*
X0325827Y0086475D01*
X0325683Y0086540D01*
X0325541Y0086610D01*
X0325400Y0086682D01*
X0325261Y0086759D01*
X0325125Y0086838D01*
X0324990Y0086922D01*
X0324857Y0087008D01*
X0324727Y0087098D01*
X0324599Y0087191D01*
X0324473Y0087287D01*
X0324350Y0087387D01*
X0324229Y0087489D01*
X0324111Y0087594D01*
X0323996Y0087703D01*
X0323883Y0087814D01*
X0323773Y0087928D01*
X0323666Y0088045D01*
X0323562Y0088164D01*
X0323461Y0088286D01*
X0323364Y0088411D01*
X0323269Y0088538D01*
X0323178Y0088667D01*
X0323089Y0088798D01*
X0323005Y0088932D01*
X0322923Y0089068D01*
X0322845Y0089205D01*
X0322771Y0089345D01*
X0322700Y0089487D01*
X0322632Y0089630D01*
X0322568Y0089775D01*
X0322508Y0089921D01*
X0322452Y0090069D01*
X0322399Y0090218D01*
X0322350Y0090369D01*
X0322305Y0090521D01*
X0322264Y0090674D01*
X0322226Y0090827D01*
X0322193Y0090982D01*
X0322163Y0091138D01*
X0322137Y0091294D01*
X0322116Y0091451D01*
X0322098Y0091608D01*
X0322084Y0091766D01*
X0322074Y0091924D01*
X0322068Y0092082D01*
X0322066Y0092240D01*
X0058286Y0257594D02*
X0058288Y0257752D01*
X0058294Y0257910D01*
X0058304Y0258068D01*
X0058318Y0258226D01*
X0058336Y0258383D01*
X0058357Y0258540D01*
X0058383Y0258696D01*
X0058413Y0258852D01*
X0058446Y0259007D01*
X0058484Y0259160D01*
X0058525Y0259313D01*
X0058570Y0259465D01*
X0058619Y0259616D01*
X0058672Y0259765D01*
X0058728Y0259913D01*
X0058788Y0260059D01*
X0058852Y0260204D01*
X0058920Y0260347D01*
X0058991Y0260489D01*
X0059065Y0260629D01*
X0059143Y0260766D01*
X0059225Y0260902D01*
X0059309Y0261036D01*
X0059398Y0261167D01*
X0059489Y0261296D01*
X0059584Y0261423D01*
X0059681Y0261548D01*
X0059782Y0261670D01*
X0059886Y0261789D01*
X0059993Y0261906D01*
X0060103Y0262020D01*
X0060216Y0262131D01*
X0060331Y0262240D01*
X0060449Y0262345D01*
X0060570Y0262447D01*
X0060693Y0262547D01*
X0060819Y0262643D01*
X0060947Y0262736D01*
X0061077Y0262826D01*
X0061210Y0262912D01*
X0061345Y0262996D01*
X0061481Y0263075D01*
X0061620Y0263152D01*
X0061761Y0263224D01*
X0061903Y0263294D01*
X0062047Y0263359D01*
X0062193Y0263421D01*
X0062340Y0263479D01*
X0062489Y0263534D01*
X0062639Y0263585D01*
X0062790Y0263632D01*
X0062942Y0263675D01*
X0063095Y0263714D01*
X0063250Y0263750D01*
X0063405Y0263781D01*
X0063561Y0263809D01*
X0063717Y0263833D01*
X0063874Y0263853D01*
X0064032Y0263869D01*
X0064189Y0263881D01*
X0064348Y0263889D01*
X0064506Y0263893D01*
X0064664Y0263893D01*
X0064822Y0263889D01*
X0064981Y0263881D01*
X0065138Y0263869D01*
X0065296Y0263853D01*
X0065453Y0263833D01*
X0065609Y0263809D01*
X0065765Y0263781D01*
X0065920Y0263750D01*
X0066075Y0263714D01*
X0066228Y0263675D01*
X0066380Y0263632D01*
X0066531Y0263585D01*
X0066681Y0263534D01*
X0066830Y0263479D01*
X0066977Y0263421D01*
X0067123Y0263359D01*
X0067267Y0263294D01*
X0067409Y0263224D01*
X0067550Y0263152D01*
X0067689Y0263075D01*
X0067825Y0262996D01*
X0067960Y0262912D01*
X0068093Y0262826D01*
X0068223Y0262736D01*
X0068351Y0262643D01*
X0068477Y0262547D01*
X0068600Y0262447D01*
X0068721Y0262345D01*
X0068839Y0262240D01*
X0068954Y0262131D01*
X0069067Y0262020D01*
X0069177Y0261906D01*
X0069284Y0261789D01*
X0069388Y0261670D01*
X0069489Y0261548D01*
X0069586Y0261423D01*
X0069681Y0261296D01*
X0069772Y0261167D01*
X0069861Y0261036D01*
X0069945Y0260902D01*
X0070027Y0260766D01*
X0070105Y0260629D01*
X0070179Y0260489D01*
X0070250Y0260347D01*
X0070318Y0260204D01*
X0070382Y0260059D01*
X0070442Y0259913D01*
X0070498Y0259765D01*
X0070551Y0259616D01*
X0070600Y0259465D01*
X0070645Y0259313D01*
X0070686Y0259160D01*
X0070724Y0259007D01*
X0070757Y0258852D01*
X0070787Y0258696D01*
X0070813Y0258540D01*
X0070834Y0258383D01*
X0070852Y0258226D01*
X0070866Y0258068D01*
X0070876Y0257910D01*
X0070882Y0257752D01*
X0070884Y0257594D01*
X0070882Y0257436D01*
X0070876Y0257278D01*
X0070866Y0257120D01*
X0070852Y0256962D01*
X0070834Y0256805D01*
X0070813Y0256648D01*
X0070787Y0256492D01*
X0070757Y0256336D01*
X0070724Y0256181D01*
X0070686Y0256028D01*
X0070645Y0255875D01*
X0070600Y0255723D01*
X0070551Y0255572D01*
X0070498Y0255423D01*
X0070442Y0255275D01*
X0070382Y0255129D01*
X0070318Y0254984D01*
X0070250Y0254841D01*
X0070179Y0254699D01*
X0070105Y0254559D01*
X0070027Y0254422D01*
X0069945Y0254286D01*
X0069861Y0254152D01*
X0069772Y0254021D01*
X0069681Y0253892D01*
X0069586Y0253765D01*
X0069489Y0253640D01*
X0069388Y0253518D01*
X0069284Y0253399D01*
X0069177Y0253282D01*
X0069067Y0253168D01*
X0068954Y0253057D01*
X0068839Y0252948D01*
X0068721Y0252843D01*
X0068600Y0252741D01*
X0068477Y0252641D01*
X0068351Y0252545D01*
X0068223Y0252452D01*
X0068093Y0252362D01*
X0067960Y0252276D01*
X0067825Y0252192D01*
X0067689Y0252113D01*
X0067550Y0252036D01*
X0067409Y0251964D01*
X0067267Y0251894D01*
X0067123Y0251829D01*
X0066977Y0251767D01*
X0066830Y0251709D01*
X0066681Y0251654D01*
X0066531Y0251603D01*
X0066380Y0251556D01*
X0066228Y0251513D01*
X0066075Y0251474D01*
X0065920Y0251438D01*
X0065765Y0251407D01*
X0065609Y0251379D01*
X0065453Y0251355D01*
X0065296Y0251335D01*
X0065138Y0251319D01*
X0064981Y0251307D01*
X0064822Y0251299D01*
X0064664Y0251295D01*
X0064506Y0251295D01*
X0064348Y0251299D01*
X0064189Y0251307D01*
X0064032Y0251319D01*
X0063874Y0251335D01*
X0063717Y0251355D01*
X0063561Y0251379D01*
X0063405Y0251407D01*
X0063250Y0251438D01*
X0063095Y0251474D01*
X0062942Y0251513D01*
X0062790Y0251556D01*
X0062639Y0251603D01*
X0062489Y0251654D01*
X0062340Y0251709D01*
X0062193Y0251767D01*
X0062047Y0251829D01*
X0061903Y0251894D01*
X0061761Y0251964D01*
X0061620Y0252036D01*
X0061481Y0252113D01*
X0061345Y0252192D01*
X0061210Y0252276D01*
X0061077Y0252362D01*
X0060947Y0252452D01*
X0060819Y0252545D01*
X0060693Y0252641D01*
X0060570Y0252741D01*
X0060449Y0252843D01*
X0060331Y0252948D01*
X0060216Y0253057D01*
X0060103Y0253168D01*
X0059993Y0253282D01*
X0059886Y0253399D01*
X0059782Y0253518D01*
X0059681Y0253640D01*
X0059584Y0253765D01*
X0059489Y0253892D01*
X0059398Y0254021D01*
X0059309Y0254152D01*
X0059225Y0254286D01*
X0059143Y0254422D01*
X0059065Y0254559D01*
X0058991Y0254699D01*
X0058920Y0254841D01*
X0058852Y0254984D01*
X0058788Y0255129D01*
X0058728Y0255275D01*
X0058672Y0255423D01*
X0058619Y0255572D01*
X0058570Y0255723D01*
X0058525Y0255875D01*
X0058484Y0256028D01*
X0058446Y0256181D01*
X0058413Y0256336D01*
X0058383Y0256492D01*
X0058357Y0256648D01*
X0058336Y0256805D01*
X0058318Y0256962D01*
X0058304Y0257120D01*
X0058294Y0257278D01*
X0058288Y0257436D01*
X0058286Y0257594D01*
D11*
X0103537Y0090411D02*
X0103537Y0088009D01*
X0103537Y0089210D02*
X0107140Y0089210D01*
X0105939Y0088009D01*
X0106540Y0086728D02*
X0107140Y0086127D01*
X0107140Y0084326D01*
X0103537Y0084326D01*
X0103537Y0086127D01*
X0104138Y0086728D01*
X0106540Y0086728D01*
X0113537Y0086127D02*
X0114138Y0086728D01*
X0116540Y0086728D01*
X0117140Y0086127D01*
X0117140Y0084326D01*
X0113537Y0084326D01*
X0113537Y0086127D01*
X0114138Y0088009D02*
X0116540Y0090411D01*
X0114138Y0090411D01*
X0113537Y0089811D01*
X0113537Y0088609D01*
X0114138Y0088009D01*
X0116540Y0088009D01*
X0117140Y0088609D01*
X0117140Y0089811D01*
X0116540Y0090411D01*
X0123537Y0089911D02*
X0123537Y0087509D01*
X0125939Y0089911D01*
X0126540Y0089911D01*
X0127140Y0089311D01*
X0127140Y0088109D01*
X0126540Y0087509D01*
X0126540Y0086228D02*
X0127140Y0085627D01*
X0127140Y0083826D01*
X0123537Y0083826D01*
X0123537Y0085627D01*
X0124138Y0086228D01*
X0126540Y0086228D01*
X0143537Y0086127D02*
X0144138Y0086728D01*
X0146540Y0086728D01*
X0147140Y0086127D01*
X0147140Y0084326D01*
X0143537Y0084326D01*
X0143537Y0086127D01*
X0144138Y0088009D02*
X0143537Y0088609D01*
X0143537Y0089811D01*
X0144138Y0090411D01*
X0144738Y0090411D01*
X0145339Y0089811D01*
X0145339Y0089210D01*
X0145339Y0089811D02*
X0145939Y0090411D01*
X0146540Y0090411D01*
X0147140Y0089811D01*
X0147140Y0088609D01*
X0146540Y0088009D01*
X0236537Y0088609D02*
X0236537Y0089811D01*
X0237138Y0090411D01*
X0237738Y0090411D01*
X0238339Y0089811D01*
X0238339Y0088009D01*
X0237138Y0088009D01*
X0236537Y0088609D01*
X0238339Y0088009D02*
X0239540Y0089210D01*
X0240140Y0090411D01*
X0239540Y0086728D02*
X0240140Y0086127D01*
X0240140Y0084326D01*
X0236537Y0084326D01*
X0236537Y0086127D01*
X0237138Y0086728D01*
X0239540Y0086728D01*
X0246537Y0086728D02*
X0246537Y0084326D01*
X0246537Y0085527D02*
X0250140Y0085527D01*
X0248939Y0084326D01*
X0249540Y0083045D02*
X0250140Y0082444D01*
X0250140Y0080643D01*
X0246537Y0080643D01*
X0246537Y0082444D01*
X0247138Y0083045D01*
X0249540Y0083045D01*
X0248939Y0088009D02*
X0250140Y0089210D01*
X0246537Y0089210D01*
X0246537Y0088009D02*
X0246537Y0090411D01*
X0256537Y0090411D02*
X0256537Y0088009D01*
X0258939Y0090411D01*
X0259540Y0090411D01*
X0260140Y0089811D01*
X0260140Y0088609D01*
X0259540Y0088009D01*
X0260140Y0085527D02*
X0256537Y0085527D01*
X0256537Y0084326D02*
X0256537Y0086728D01*
X0258939Y0084326D02*
X0260140Y0085527D01*
X0259540Y0083045D02*
X0260140Y0082444D01*
X0260140Y0080643D01*
X0256537Y0080643D01*
X0256537Y0082444D01*
X0257138Y0083045D01*
X0259540Y0083045D01*
X0266537Y0082444D02*
X0267138Y0083045D01*
X0269540Y0083045D01*
X0270140Y0082444D01*
X0270140Y0080643D01*
X0266537Y0080643D01*
X0266537Y0082444D01*
X0266537Y0084326D02*
X0266537Y0086728D01*
X0266537Y0085527D02*
X0270140Y0085527D01*
X0268939Y0084326D01*
X0269540Y0088009D02*
X0270140Y0088609D01*
X0270140Y0089811D01*
X0269540Y0090411D01*
X0268939Y0090411D01*
X0268339Y0089811D01*
X0267738Y0090411D01*
X0267138Y0090411D01*
X0266537Y0089811D01*
X0266537Y0088609D01*
X0267138Y0088009D01*
X0268339Y0089210D02*
X0268339Y0089811D01*
X0296537Y0089811D02*
X0300140Y0089811D01*
X0298339Y0088009D01*
X0298339Y0090411D01*
X0298339Y0086728D02*
X0298339Y0084326D01*
X0298939Y0084326D02*
X0300140Y0085527D01*
X0298939Y0086728D01*
X0296537Y0086728D01*
X0296537Y0084326D02*
X0298939Y0084326D01*
X0306537Y0084326D02*
X0308939Y0084326D01*
X0310140Y0085527D01*
X0308939Y0086728D01*
X0306537Y0086728D01*
X0307138Y0088009D02*
X0306537Y0088609D01*
X0306537Y0089811D01*
X0307138Y0090411D01*
X0308339Y0090411D01*
X0308939Y0089811D01*
X0308939Y0089210D01*
X0308339Y0088009D01*
X0310140Y0088009D01*
X0310140Y0090411D01*
X0308339Y0086728D02*
X0308339Y0084326D01*
D12*
X0316554Y0092240D02*
X0316558Y0092530D01*
X0316568Y0092820D01*
X0316586Y0093109D01*
X0316611Y0093398D01*
X0316643Y0093686D01*
X0316682Y0093973D01*
X0316728Y0094259D01*
X0316781Y0094544D01*
X0316841Y0094828D01*
X0316908Y0095110D01*
X0316982Y0095390D01*
X0317063Y0095669D01*
X0317150Y0095945D01*
X0317244Y0096219D01*
X0317345Y0096491D01*
X0317453Y0096760D01*
X0317567Y0097026D01*
X0317688Y0097290D01*
X0317815Y0097550D01*
X0317949Y0097808D01*
X0318088Y0098062D01*
X0318234Y0098312D01*
X0318386Y0098559D01*
X0318545Y0098802D01*
X0318709Y0099041D01*
X0318878Y0099276D01*
X0319054Y0099507D01*
X0319235Y0099733D01*
X0319422Y0099955D01*
X0319614Y0100172D01*
X0319811Y0100384D01*
X0320013Y0100592D01*
X0320221Y0100794D01*
X0320433Y0100991D01*
X0320650Y0101183D01*
X0320872Y0101370D01*
X0321098Y0101551D01*
X0321329Y0101727D01*
X0321564Y0101896D01*
X0321803Y0102060D01*
X0322046Y0102219D01*
X0322293Y0102371D01*
X0322543Y0102517D01*
X0322797Y0102656D01*
X0323055Y0102790D01*
X0323315Y0102917D01*
X0323579Y0103038D01*
X0323845Y0103152D01*
X0324114Y0103260D01*
X0324386Y0103361D01*
X0324660Y0103455D01*
X0324936Y0103542D01*
X0325215Y0103623D01*
X0325495Y0103697D01*
X0325777Y0103764D01*
X0326061Y0103824D01*
X0326346Y0103877D01*
X0326632Y0103923D01*
X0326919Y0103962D01*
X0327207Y0103994D01*
X0327496Y0104019D01*
X0327785Y0104037D01*
X0328075Y0104047D01*
X0328365Y0104051D01*
X0328655Y0104047D01*
X0328945Y0104037D01*
X0329234Y0104019D01*
X0329523Y0103994D01*
X0329811Y0103962D01*
X0330098Y0103923D01*
X0330384Y0103877D01*
X0330669Y0103824D01*
X0330953Y0103764D01*
X0331235Y0103697D01*
X0331515Y0103623D01*
X0331794Y0103542D01*
X0332070Y0103455D01*
X0332344Y0103361D01*
X0332616Y0103260D01*
X0332885Y0103152D01*
X0333151Y0103038D01*
X0333415Y0102917D01*
X0333675Y0102790D01*
X0333933Y0102656D01*
X0334187Y0102517D01*
X0334437Y0102371D01*
X0334684Y0102219D01*
X0334927Y0102060D01*
X0335166Y0101896D01*
X0335401Y0101727D01*
X0335632Y0101551D01*
X0335858Y0101370D01*
X0336080Y0101183D01*
X0336297Y0100991D01*
X0336509Y0100794D01*
X0336717Y0100592D01*
X0336919Y0100384D01*
X0337116Y0100172D01*
X0337308Y0099955D01*
X0337495Y0099733D01*
X0337676Y0099507D01*
X0337852Y0099276D01*
X0338021Y0099041D01*
X0338185Y0098802D01*
X0338344Y0098559D01*
X0338496Y0098312D01*
X0338642Y0098062D01*
X0338781Y0097808D01*
X0338915Y0097550D01*
X0339042Y0097290D01*
X0339163Y0097026D01*
X0339277Y0096760D01*
X0339385Y0096491D01*
X0339486Y0096219D01*
X0339580Y0095945D01*
X0339667Y0095669D01*
X0339748Y0095390D01*
X0339822Y0095110D01*
X0339889Y0094828D01*
X0339949Y0094544D01*
X0340002Y0094259D01*
X0340048Y0093973D01*
X0340087Y0093686D01*
X0340119Y0093398D01*
X0340144Y0093109D01*
X0340162Y0092820D01*
X0340172Y0092530D01*
X0340176Y0092240D01*
X0340172Y0091950D01*
X0340162Y0091660D01*
X0340144Y0091371D01*
X0340119Y0091082D01*
X0340087Y0090794D01*
X0340048Y0090507D01*
X0340002Y0090221D01*
X0339949Y0089936D01*
X0339889Y0089652D01*
X0339822Y0089370D01*
X0339748Y0089090D01*
X0339667Y0088811D01*
X0339580Y0088535D01*
X0339486Y0088261D01*
X0339385Y0087989D01*
X0339277Y0087720D01*
X0339163Y0087454D01*
X0339042Y0087190D01*
X0338915Y0086930D01*
X0338781Y0086672D01*
X0338642Y0086418D01*
X0338496Y0086168D01*
X0338344Y0085921D01*
X0338185Y0085678D01*
X0338021Y0085439D01*
X0337852Y0085204D01*
X0337676Y0084973D01*
X0337495Y0084747D01*
X0337308Y0084525D01*
X0337116Y0084308D01*
X0336919Y0084096D01*
X0336717Y0083888D01*
X0336509Y0083686D01*
X0336297Y0083489D01*
X0336080Y0083297D01*
X0335858Y0083110D01*
X0335632Y0082929D01*
X0335401Y0082753D01*
X0335166Y0082584D01*
X0334927Y0082420D01*
X0334684Y0082261D01*
X0334437Y0082109D01*
X0334187Y0081963D01*
X0333933Y0081824D01*
X0333675Y0081690D01*
X0333415Y0081563D01*
X0333151Y0081442D01*
X0332885Y0081328D01*
X0332616Y0081220D01*
X0332344Y0081119D01*
X0332070Y0081025D01*
X0331794Y0080938D01*
X0331515Y0080857D01*
X0331235Y0080783D01*
X0330953Y0080716D01*
X0330669Y0080656D01*
X0330384Y0080603D01*
X0330098Y0080557D01*
X0329811Y0080518D01*
X0329523Y0080486D01*
X0329234Y0080461D01*
X0328945Y0080443D01*
X0328655Y0080433D01*
X0328365Y0080429D01*
X0328075Y0080433D01*
X0327785Y0080443D01*
X0327496Y0080461D01*
X0327207Y0080486D01*
X0326919Y0080518D01*
X0326632Y0080557D01*
X0326346Y0080603D01*
X0326061Y0080656D01*
X0325777Y0080716D01*
X0325495Y0080783D01*
X0325215Y0080857D01*
X0324936Y0080938D01*
X0324660Y0081025D01*
X0324386Y0081119D01*
X0324114Y0081220D01*
X0323845Y0081328D01*
X0323579Y0081442D01*
X0323315Y0081563D01*
X0323055Y0081690D01*
X0322797Y0081824D01*
X0322543Y0081963D01*
X0322293Y0082109D01*
X0322046Y0082261D01*
X0321803Y0082420D01*
X0321564Y0082584D01*
X0321329Y0082753D01*
X0321098Y0082929D01*
X0320872Y0083110D01*
X0320650Y0083297D01*
X0320433Y0083489D01*
X0320221Y0083686D01*
X0320013Y0083888D01*
X0319811Y0084096D01*
X0319614Y0084308D01*
X0319422Y0084525D01*
X0319235Y0084747D01*
X0319054Y0084973D01*
X0318878Y0085204D01*
X0318709Y0085439D01*
X0318545Y0085678D01*
X0318386Y0085921D01*
X0318234Y0086168D01*
X0318088Y0086418D01*
X0317949Y0086672D01*
X0317815Y0086930D01*
X0317688Y0087190D01*
X0317567Y0087454D01*
X0317453Y0087720D01*
X0317345Y0087989D01*
X0317244Y0088261D01*
X0317150Y0088535D01*
X0317063Y0088811D01*
X0316982Y0089090D01*
X0316908Y0089370D01*
X0316841Y0089652D01*
X0316781Y0089936D01*
X0316728Y0090221D01*
X0316682Y0090507D01*
X0316643Y0090794D01*
X0316611Y0091082D01*
X0316586Y0091371D01*
X0316568Y0091660D01*
X0316558Y0091950D01*
X0316554Y0092240D01*
X0316554Y0257594D02*
X0316558Y0257884D01*
X0316568Y0258174D01*
X0316586Y0258463D01*
X0316611Y0258752D01*
X0316643Y0259040D01*
X0316682Y0259327D01*
X0316728Y0259613D01*
X0316781Y0259898D01*
X0316841Y0260182D01*
X0316908Y0260464D01*
X0316982Y0260744D01*
X0317063Y0261023D01*
X0317150Y0261299D01*
X0317244Y0261573D01*
X0317345Y0261845D01*
X0317453Y0262114D01*
X0317567Y0262380D01*
X0317688Y0262644D01*
X0317815Y0262904D01*
X0317949Y0263162D01*
X0318088Y0263416D01*
X0318234Y0263666D01*
X0318386Y0263913D01*
X0318545Y0264156D01*
X0318709Y0264395D01*
X0318878Y0264630D01*
X0319054Y0264861D01*
X0319235Y0265087D01*
X0319422Y0265309D01*
X0319614Y0265526D01*
X0319811Y0265738D01*
X0320013Y0265946D01*
X0320221Y0266148D01*
X0320433Y0266345D01*
X0320650Y0266537D01*
X0320872Y0266724D01*
X0321098Y0266905D01*
X0321329Y0267081D01*
X0321564Y0267250D01*
X0321803Y0267414D01*
X0322046Y0267573D01*
X0322293Y0267725D01*
X0322543Y0267871D01*
X0322797Y0268010D01*
X0323055Y0268144D01*
X0323315Y0268271D01*
X0323579Y0268392D01*
X0323845Y0268506D01*
X0324114Y0268614D01*
X0324386Y0268715D01*
X0324660Y0268809D01*
X0324936Y0268896D01*
X0325215Y0268977D01*
X0325495Y0269051D01*
X0325777Y0269118D01*
X0326061Y0269178D01*
X0326346Y0269231D01*
X0326632Y0269277D01*
X0326919Y0269316D01*
X0327207Y0269348D01*
X0327496Y0269373D01*
X0327785Y0269391D01*
X0328075Y0269401D01*
X0328365Y0269405D01*
X0328655Y0269401D01*
X0328945Y0269391D01*
X0329234Y0269373D01*
X0329523Y0269348D01*
X0329811Y0269316D01*
X0330098Y0269277D01*
X0330384Y0269231D01*
X0330669Y0269178D01*
X0330953Y0269118D01*
X0331235Y0269051D01*
X0331515Y0268977D01*
X0331794Y0268896D01*
X0332070Y0268809D01*
X0332344Y0268715D01*
X0332616Y0268614D01*
X0332885Y0268506D01*
X0333151Y0268392D01*
X0333415Y0268271D01*
X0333675Y0268144D01*
X0333933Y0268010D01*
X0334187Y0267871D01*
X0334437Y0267725D01*
X0334684Y0267573D01*
X0334927Y0267414D01*
X0335166Y0267250D01*
X0335401Y0267081D01*
X0335632Y0266905D01*
X0335858Y0266724D01*
X0336080Y0266537D01*
X0336297Y0266345D01*
X0336509Y0266148D01*
X0336717Y0265946D01*
X0336919Y0265738D01*
X0337116Y0265526D01*
X0337308Y0265309D01*
X0337495Y0265087D01*
X0337676Y0264861D01*
X0337852Y0264630D01*
X0338021Y0264395D01*
X0338185Y0264156D01*
X0338344Y0263913D01*
X0338496Y0263666D01*
X0338642Y0263416D01*
X0338781Y0263162D01*
X0338915Y0262904D01*
X0339042Y0262644D01*
X0339163Y0262380D01*
X0339277Y0262114D01*
X0339385Y0261845D01*
X0339486Y0261573D01*
X0339580Y0261299D01*
X0339667Y0261023D01*
X0339748Y0260744D01*
X0339822Y0260464D01*
X0339889Y0260182D01*
X0339949Y0259898D01*
X0340002Y0259613D01*
X0340048Y0259327D01*
X0340087Y0259040D01*
X0340119Y0258752D01*
X0340144Y0258463D01*
X0340162Y0258174D01*
X0340172Y0257884D01*
X0340176Y0257594D01*
X0340172Y0257304D01*
X0340162Y0257014D01*
X0340144Y0256725D01*
X0340119Y0256436D01*
X0340087Y0256148D01*
X0340048Y0255861D01*
X0340002Y0255575D01*
X0339949Y0255290D01*
X0339889Y0255006D01*
X0339822Y0254724D01*
X0339748Y0254444D01*
X0339667Y0254165D01*
X0339580Y0253889D01*
X0339486Y0253615D01*
X0339385Y0253343D01*
X0339277Y0253074D01*
X0339163Y0252808D01*
X0339042Y0252544D01*
X0338915Y0252284D01*
X0338781Y0252026D01*
X0338642Y0251772D01*
X0338496Y0251522D01*
X0338344Y0251275D01*
X0338185Y0251032D01*
X0338021Y0250793D01*
X0337852Y0250558D01*
X0337676Y0250327D01*
X0337495Y0250101D01*
X0337308Y0249879D01*
X0337116Y0249662D01*
X0336919Y0249450D01*
X0336717Y0249242D01*
X0336509Y0249040D01*
X0336297Y0248843D01*
X0336080Y0248651D01*
X0335858Y0248464D01*
X0335632Y0248283D01*
X0335401Y0248107D01*
X0335166Y0247938D01*
X0334927Y0247774D01*
X0334684Y0247615D01*
X0334437Y0247463D01*
X0334187Y0247317D01*
X0333933Y0247178D01*
X0333675Y0247044D01*
X0333415Y0246917D01*
X0333151Y0246796D01*
X0332885Y0246682D01*
X0332616Y0246574D01*
X0332344Y0246473D01*
X0332070Y0246379D01*
X0331794Y0246292D01*
X0331515Y0246211D01*
X0331235Y0246137D01*
X0330953Y0246070D01*
X0330669Y0246010D01*
X0330384Y0245957D01*
X0330098Y0245911D01*
X0329811Y0245872D01*
X0329523Y0245840D01*
X0329234Y0245815D01*
X0328945Y0245797D01*
X0328655Y0245787D01*
X0328365Y0245783D01*
X0328075Y0245787D01*
X0327785Y0245797D01*
X0327496Y0245815D01*
X0327207Y0245840D01*
X0326919Y0245872D01*
X0326632Y0245911D01*
X0326346Y0245957D01*
X0326061Y0246010D01*
X0325777Y0246070D01*
X0325495Y0246137D01*
X0325215Y0246211D01*
X0324936Y0246292D01*
X0324660Y0246379D01*
X0324386Y0246473D01*
X0324114Y0246574D01*
X0323845Y0246682D01*
X0323579Y0246796D01*
X0323315Y0246917D01*
X0323055Y0247044D01*
X0322797Y0247178D01*
X0322543Y0247317D01*
X0322293Y0247463D01*
X0322046Y0247615D01*
X0321803Y0247774D01*
X0321564Y0247938D01*
X0321329Y0248107D01*
X0321098Y0248283D01*
X0320872Y0248464D01*
X0320650Y0248651D01*
X0320433Y0248843D01*
X0320221Y0249040D01*
X0320013Y0249242D01*
X0319811Y0249450D01*
X0319614Y0249662D01*
X0319422Y0249879D01*
X0319235Y0250101D01*
X0319054Y0250327D01*
X0318878Y0250558D01*
X0318709Y0250793D01*
X0318545Y0251032D01*
X0318386Y0251275D01*
X0318234Y0251522D01*
X0318088Y0251772D01*
X0317949Y0252026D01*
X0317815Y0252284D01*
X0317688Y0252544D01*
X0317567Y0252808D01*
X0317453Y0253074D01*
X0317345Y0253343D01*
X0317244Y0253615D01*
X0317150Y0253889D01*
X0317063Y0254165D01*
X0316982Y0254444D01*
X0316908Y0254724D01*
X0316841Y0255006D01*
X0316781Y0255290D01*
X0316728Y0255575D01*
X0316682Y0255861D01*
X0316643Y0256148D01*
X0316611Y0256436D01*
X0316586Y0256725D01*
X0316568Y0257014D01*
X0316558Y0257304D01*
X0316554Y0257594D01*
X0052774Y0257594D02*
X0052778Y0257884D01*
X0052788Y0258174D01*
X0052806Y0258463D01*
X0052831Y0258752D01*
X0052863Y0259040D01*
X0052902Y0259327D01*
X0052948Y0259613D01*
X0053001Y0259898D01*
X0053061Y0260182D01*
X0053128Y0260464D01*
X0053202Y0260744D01*
X0053283Y0261023D01*
X0053370Y0261299D01*
X0053464Y0261573D01*
X0053565Y0261845D01*
X0053673Y0262114D01*
X0053787Y0262380D01*
X0053908Y0262644D01*
X0054035Y0262904D01*
X0054169Y0263162D01*
X0054308Y0263416D01*
X0054454Y0263666D01*
X0054606Y0263913D01*
X0054765Y0264156D01*
X0054929Y0264395D01*
X0055098Y0264630D01*
X0055274Y0264861D01*
X0055455Y0265087D01*
X0055642Y0265309D01*
X0055834Y0265526D01*
X0056031Y0265738D01*
X0056233Y0265946D01*
X0056441Y0266148D01*
X0056653Y0266345D01*
X0056870Y0266537D01*
X0057092Y0266724D01*
X0057318Y0266905D01*
X0057549Y0267081D01*
X0057784Y0267250D01*
X0058023Y0267414D01*
X0058266Y0267573D01*
X0058513Y0267725D01*
X0058763Y0267871D01*
X0059017Y0268010D01*
X0059275Y0268144D01*
X0059535Y0268271D01*
X0059799Y0268392D01*
X0060065Y0268506D01*
X0060334Y0268614D01*
X0060606Y0268715D01*
X0060880Y0268809D01*
X0061156Y0268896D01*
X0061435Y0268977D01*
X0061715Y0269051D01*
X0061997Y0269118D01*
X0062281Y0269178D01*
X0062566Y0269231D01*
X0062852Y0269277D01*
X0063139Y0269316D01*
X0063427Y0269348D01*
X0063716Y0269373D01*
X0064005Y0269391D01*
X0064295Y0269401D01*
X0064585Y0269405D01*
X0064875Y0269401D01*
X0065165Y0269391D01*
X0065454Y0269373D01*
X0065743Y0269348D01*
X0066031Y0269316D01*
X0066318Y0269277D01*
X0066604Y0269231D01*
X0066889Y0269178D01*
X0067173Y0269118D01*
X0067455Y0269051D01*
X0067735Y0268977D01*
X0068014Y0268896D01*
X0068290Y0268809D01*
X0068564Y0268715D01*
X0068836Y0268614D01*
X0069105Y0268506D01*
X0069371Y0268392D01*
X0069635Y0268271D01*
X0069895Y0268144D01*
X0070153Y0268010D01*
X0070407Y0267871D01*
X0070657Y0267725D01*
X0070904Y0267573D01*
X0071147Y0267414D01*
X0071386Y0267250D01*
X0071621Y0267081D01*
X0071852Y0266905D01*
X0072078Y0266724D01*
X0072300Y0266537D01*
X0072517Y0266345D01*
X0072729Y0266148D01*
X0072937Y0265946D01*
X0073139Y0265738D01*
X0073336Y0265526D01*
X0073528Y0265309D01*
X0073715Y0265087D01*
X0073896Y0264861D01*
X0074072Y0264630D01*
X0074241Y0264395D01*
X0074405Y0264156D01*
X0074564Y0263913D01*
X0074716Y0263666D01*
X0074862Y0263416D01*
X0075001Y0263162D01*
X0075135Y0262904D01*
X0075262Y0262644D01*
X0075383Y0262380D01*
X0075497Y0262114D01*
X0075605Y0261845D01*
X0075706Y0261573D01*
X0075800Y0261299D01*
X0075887Y0261023D01*
X0075968Y0260744D01*
X0076042Y0260464D01*
X0076109Y0260182D01*
X0076169Y0259898D01*
X0076222Y0259613D01*
X0076268Y0259327D01*
X0076307Y0259040D01*
X0076339Y0258752D01*
X0076364Y0258463D01*
X0076382Y0258174D01*
X0076392Y0257884D01*
X0076396Y0257594D01*
X0076392Y0257304D01*
X0076382Y0257014D01*
X0076364Y0256725D01*
X0076339Y0256436D01*
X0076307Y0256148D01*
X0076268Y0255861D01*
X0076222Y0255575D01*
X0076169Y0255290D01*
X0076109Y0255006D01*
X0076042Y0254724D01*
X0075968Y0254444D01*
X0075887Y0254165D01*
X0075800Y0253889D01*
X0075706Y0253615D01*
X0075605Y0253343D01*
X0075497Y0253074D01*
X0075383Y0252808D01*
X0075262Y0252544D01*
X0075135Y0252284D01*
X0075001Y0252026D01*
X0074862Y0251772D01*
X0074716Y0251522D01*
X0074564Y0251275D01*
X0074405Y0251032D01*
X0074241Y0250793D01*
X0074072Y0250558D01*
X0073896Y0250327D01*
X0073715Y0250101D01*
X0073528Y0249879D01*
X0073336Y0249662D01*
X0073139Y0249450D01*
X0072937Y0249242D01*
X0072729Y0249040D01*
X0072517Y0248843D01*
X0072300Y0248651D01*
X0072078Y0248464D01*
X0071852Y0248283D01*
X0071621Y0248107D01*
X0071386Y0247938D01*
X0071147Y0247774D01*
X0070904Y0247615D01*
X0070657Y0247463D01*
X0070407Y0247317D01*
X0070153Y0247178D01*
X0069895Y0247044D01*
X0069635Y0246917D01*
X0069371Y0246796D01*
X0069105Y0246682D01*
X0068836Y0246574D01*
X0068564Y0246473D01*
X0068290Y0246379D01*
X0068014Y0246292D01*
X0067735Y0246211D01*
X0067455Y0246137D01*
X0067173Y0246070D01*
X0066889Y0246010D01*
X0066604Y0245957D01*
X0066318Y0245911D01*
X0066031Y0245872D01*
X0065743Y0245840D01*
X0065454Y0245815D01*
X0065165Y0245797D01*
X0064875Y0245787D01*
X0064585Y0245783D01*
X0064295Y0245787D01*
X0064005Y0245797D01*
X0063716Y0245815D01*
X0063427Y0245840D01*
X0063139Y0245872D01*
X0062852Y0245911D01*
X0062566Y0245957D01*
X0062281Y0246010D01*
X0061997Y0246070D01*
X0061715Y0246137D01*
X0061435Y0246211D01*
X0061156Y0246292D01*
X0060880Y0246379D01*
X0060606Y0246473D01*
X0060334Y0246574D01*
X0060065Y0246682D01*
X0059799Y0246796D01*
X0059535Y0246917D01*
X0059275Y0247044D01*
X0059017Y0247178D01*
X0058763Y0247317D01*
X0058513Y0247463D01*
X0058266Y0247615D01*
X0058023Y0247774D01*
X0057784Y0247938D01*
X0057549Y0248107D01*
X0057318Y0248283D01*
X0057092Y0248464D01*
X0056870Y0248651D01*
X0056653Y0248843D01*
X0056441Y0249040D01*
X0056233Y0249242D01*
X0056031Y0249450D01*
X0055834Y0249662D01*
X0055642Y0249879D01*
X0055455Y0250101D01*
X0055274Y0250327D01*
X0055098Y0250558D01*
X0054929Y0250793D01*
X0054765Y0251032D01*
X0054606Y0251275D01*
X0054454Y0251522D01*
X0054308Y0251772D01*
X0054169Y0252026D01*
X0054035Y0252284D01*
X0053908Y0252544D01*
X0053787Y0252808D01*
X0053673Y0253074D01*
X0053565Y0253343D01*
X0053464Y0253615D01*
X0053370Y0253889D01*
X0053283Y0254165D01*
X0053202Y0254444D01*
X0053128Y0254724D01*
X0053061Y0255006D01*
X0053001Y0255290D01*
X0052948Y0255575D01*
X0052902Y0255861D01*
X0052863Y0256148D01*
X0052831Y0256436D01*
X0052806Y0256725D01*
X0052788Y0257014D01*
X0052778Y0257304D01*
X0052774Y0257594D01*
X0052774Y0092240D02*
X0052778Y0092530D01*
X0052788Y0092820D01*
X0052806Y0093109D01*
X0052831Y0093398D01*
X0052863Y0093686D01*
X0052902Y0093973D01*
X0052948Y0094259D01*
X0053001Y0094544D01*
X0053061Y0094828D01*
X0053128Y0095110D01*
X0053202Y0095390D01*
X0053283Y0095669D01*
X0053370Y0095945D01*
X0053464Y0096219D01*
X0053565Y0096491D01*
X0053673Y0096760D01*
X0053787Y0097026D01*
X0053908Y0097290D01*
X0054035Y0097550D01*
X0054169Y0097808D01*
X0054308Y0098062D01*
X0054454Y0098312D01*
X0054606Y0098559D01*
X0054765Y0098802D01*
X0054929Y0099041D01*
X0055098Y0099276D01*
X0055274Y0099507D01*
X0055455Y0099733D01*
X0055642Y0099955D01*
X0055834Y0100172D01*
X0056031Y0100384D01*
X0056233Y0100592D01*
X0056441Y0100794D01*
X0056653Y0100991D01*
X0056870Y0101183D01*
X0057092Y0101370D01*
X0057318Y0101551D01*
X0057549Y0101727D01*
X0057784Y0101896D01*
X0058023Y0102060D01*
X0058266Y0102219D01*
X0058513Y0102371D01*
X0058763Y0102517D01*
X0059017Y0102656D01*
X0059275Y0102790D01*
X0059535Y0102917D01*
X0059799Y0103038D01*
X0060065Y0103152D01*
X0060334Y0103260D01*
X0060606Y0103361D01*
X0060880Y0103455D01*
X0061156Y0103542D01*
X0061435Y0103623D01*
X0061715Y0103697D01*
X0061997Y0103764D01*
X0062281Y0103824D01*
X0062566Y0103877D01*
X0062852Y0103923D01*
X0063139Y0103962D01*
X0063427Y0103994D01*
X0063716Y0104019D01*
X0064005Y0104037D01*
X0064295Y0104047D01*
X0064585Y0104051D01*
X0064875Y0104047D01*
X0065165Y0104037D01*
X0065454Y0104019D01*
X0065743Y0103994D01*
X0066031Y0103962D01*
X0066318Y0103923D01*
X0066604Y0103877D01*
X0066889Y0103824D01*
X0067173Y0103764D01*
X0067455Y0103697D01*
X0067735Y0103623D01*
X0068014Y0103542D01*
X0068290Y0103455D01*
X0068564Y0103361D01*
X0068836Y0103260D01*
X0069105Y0103152D01*
X0069371Y0103038D01*
X0069635Y0102917D01*
X0069895Y0102790D01*
X0070153Y0102656D01*
X0070407Y0102517D01*
X0070657Y0102371D01*
X0070904Y0102219D01*
X0071147Y0102060D01*
X0071386Y0101896D01*
X0071621Y0101727D01*
X0071852Y0101551D01*
X0072078Y0101370D01*
X0072300Y0101183D01*
X0072517Y0100991D01*
X0072729Y0100794D01*
X0072937Y0100592D01*
X0073139Y0100384D01*
X0073336Y0100172D01*
X0073528Y0099955D01*
X0073715Y0099733D01*
X0073896Y0099507D01*
X0074072Y0099276D01*
X0074241Y0099041D01*
X0074405Y0098802D01*
X0074564Y0098559D01*
X0074716Y0098312D01*
X0074862Y0098062D01*
X0075001Y0097808D01*
X0075135Y0097550D01*
X0075262Y0097290D01*
X0075383Y0097026D01*
X0075497Y0096760D01*
X0075605Y0096491D01*
X0075706Y0096219D01*
X0075800Y0095945D01*
X0075887Y0095669D01*
X0075968Y0095390D01*
X0076042Y0095110D01*
X0076109Y0094828D01*
X0076169Y0094544D01*
X0076222Y0094259D01*
X0076268Y0093973D01*
X0076307Y0093686D01*
X0076339Y0093398D01*
X0076364Y0093109D01*
X0076382Y0092820D01*
X0076392Y0092530D01*
X0076396Y0092240D01*
X0076392Y0091950D01*
X0076382Y0091660D01*
X0076364Y0091371D01*
X0076339Y0091082D01*
X0076307Y0090794D01*
X0076268Y0090507D01*
X0076222Y0090221D01*
X0076169Y0089936D01*
X0076109Y0089652D01*
X0076042Y0089370D01*
X0075968Y0089090D01*
X0075887Y0088811D01*
X0075800Y0088535D01*
X0075706Y0088261D01*
X0075605Y0087989D01*
X0075497Y0087720D01*
X0075383Y0087454D01*
X0075262Y0087190D01*
X0075135Y0086930D01*
X0075001Y0086672D01*
X0074862Y0086418D01*
X0074716Y0086168D01*
X0074564Y0085921D01*
X0074405Y0085678D01*
X0074241Y0085439D01*
X0074072Y0085204D01*
X0073896Y0084973D01*
X0073715Y0084747D01*
X0073528Y0084525D01*
X0073336Y0084308D01*
X0073139Y0084096D01*
X0072937Y0083888D01*
X0072729Y0083686D01*
X0072517Y0083489D01*
X0072300Y0083297D01*
X0072078Y0083110D01*
X0071852Y0082929D01*
X0071621Y0082753D01*
X0071386Y0082584D01*
X0071147Y0082420D01*
X0070904Y0082261D01*
X0070657Y0082109D01*
X0070407Y0081963D01*
X0070153Y0081824D01*
X0069895Y0081690D01*
X0069635Y0081563D01*
X0069371Y0081442D01*
X0069105Y0081328D01*
X0068836Y0081220D01*
X0068564Y0081119D01*
X0068290Y0081025D01*
X0068014Y0080938D01*
X0067735Y0080857D01*
X0067455Y0080783D01*
X0067173Y0080716D01*
X0066889Y0080656D01*
X0066604Y0080603D01*
X0066318Y0080557D01*
X0066031Y0080518D01*
X0065743Y0080486D01*
X0065454Y0080461D01*
X0065165Y0080443D01*
X0064875Y0080433D01*
X0064585Y0080429D01*
X0064295Y0080433D01*
X0064005Y0080443D01*
X0063716Y0080461D01*
X0063427Y0080486D01*
X0063139Y0080518D01*
X0062852Y0080557D01*
X0062566Y0080603D01*
X0062281Y0080656D01*
X0061997Y0080716D01*
X0061715Y0080783D01*
X0061435Y0080857D01*
X0061156Y0080938D01*
X0060880Y0081025D01*
X0060606Y0081119D01*
X0060334Y0081220D01*
X0060065Y0081328D01*
X0059799Y0081442D01*
X0059535Y0081563D01*
X0059275Y0081690D01*
X0059017Y0081824D01*
X0058763Y0081963D01*
X0058513Y0082109D01*
X0058266Y0082261D01*
X0058023Y0082420D01*
X0057784Y0082584D01*
X0057549Y0082753D01*
X0057318Y0082929D01*
X0057092Y0083110D01*
X0056870Y0083297D01*
X0056653Y0083489D01*
X0056441Y0083686D01*
X0056233Y0083888D01*
X0056031Y0084096D01*
X0055834Y0084308D01*
X0055642Y0084525D01*
X0055455Y0084747D01*
X0055274Y0084973D01*
X0055098Y0085204D01*
X0054929Y0085439D01*
X0054765Y0085678D01*
X0054606Y0085921D01*
X0054454Y0086168D01*
X0054308Y0086418D01*
X0054169Y0086672D01*
X0054035Y0086930D01*
X0053908Y0087190D01*
X0053787Y0087454D01*
X0053673Y0087720D01*
X0053565Y0087989D01*
X0053464Y0088261D01*
X0053370Y0088535D01*
X0053283Y0088811D01*
X0053202Y0089090D01*
X0053128Y0089370D01*
X0053061Y0089652D01*
X0053001Y0089936D01*
X0052948Y0090221D01*
X0052902Y0090507D01*
X0052863Y0090794D01*
X0052831Y0091082D01*
X0052806Y0091371D01*
X0052788Y0091660D01*
X0052778Y0091950D01*
X0052774Y0092240D01*
M02*
