%
M48
M72
T01C0.0170
T02C0.0315
T03C0.0320
T04C0.0350
T05C0.0591
T06C0.0669
T07C0.1181
T08C0.1260
%
T01
X12034Y8049
X12034Y11499
X6784Y11499
X17384Y14749
X19834Y16549
X20234Y16549
X20634Y16549
X21034Y16549
X21434Y16549
X21034Y14399
X21434Y18899
X20634Y19749
X20234Y19749
X21834Y20149
X31334Y17649
X31834Y17649
X32334Y22949
X22284Y10049
T02
X20134Y11101
X19134Y12085
X18134Y11101
X18784Y8699
X19784Y8699
X18527Y25304
X17740Y25304
T03
X24171Y20280
X24959Y20280
X25746Y20280
X26533Y20280
X27321Y20280
X28108Y20280
X28896Y20280
X29683Y20280
X30470Y20280
X31258Y20280
X31258Y11619
X30470Y11619
X29683Y11619
X28896Y11619
X28108Y11619
X27321Y11619
X26533Y11619
X25746Y11619
X24959Y11619
X24171Y11619
T04
X23834Y9899
X24834Y9899
X25834Y9899
X26834Y9899
X27834Y9899
X28834Y9899
X29834Y9899
X30834Y9899
X19034Y13399
X18034Y13399
X17034Y13399
X16034Y13399
X15034Y13399
X14034Y13399
X13034Y13399
X12034Y13399
X11034Y13399
X10034Y13399
X9034Y13399
X8034Y13399
X7034Y13399
X6034Y13399
X8534Y9899
X9534Y9899
X10534Y9899
X11534Y9899
X12534Y9899
X13534Y9899
X14534Y9899
X15534Y9899
X19034Y14399
X19034Y15399
X19034Y16399
X19034Y17399
X19034Y18399
X19034Y19399
X18034Y19399
X17034Y19399
X16034Y19399
X15034Y19399
X14034Y19399
X13034Y19399
X12034Y19399
X11034Y19399
X10034Y19399
X9034Y19399
X8034Y19399
X7034Y19399
X6034Y19399
X7034Y18399
X8034Y18399
X9034Y18399
X10034Y18399
X11034Y18399
T05
X27107Y24099
X30060Y24099
T06
X13745Y24521
X11934Y24521
X10123Y24521
X10123Y22277
X11934Y22277
X13745Y22277
T07
X20523Y23173
X22373Y24315
X22373Y21992
T08
X32836Y25759
X32836Y9224
X6459Y9224
X6459Y25759
M30
