G75*
%MOIN*%
%OFA0B0*%
%FSLAX25Y25*%
%IPPOS*%
%LPD*%
%AMOC8*
5,1,8,0,0,1.08239X$1,22.5*
%
%ADD10C,0.00000*%
%ADD11C,0.00400*%
%ADD12C,0.00800*%
%ADD13C,0.00600*%
%ADD14C,0.00500*%
%ADD15C,0.01000*%
%ADD16C,0.00709*%
%ADD17C,0.00866*%
D10*
X0048837Y0076492D02*
X0048837Y0273343D01*
X0344113Y0273343D01*
X0344113Y0076492D01*
X0048837Y0076492D01*
X0058286Y0092240D02*
X0058288Y0092398D01*
X0058294Y0092556D01*
X0058304Y0092714D01*
X0058318Y0092872D01*
X0058336Y0093029D01*
X0058357Y0093186D01*
X0058383Y0093342D01*
X0058413Y0093498D01*
X0058446Y0093653D01*
X0058484Y0093806D01*
X0058525Y0093959D01*
X0058570Y0094111D01*
X0058619Y0094262D01*
X0058672Y0094411D01*
X0058728Y0094559D01*
X0058788Y0094705D01*
X0058852Y0094850D01*
X0058920Y0094993D01*
X0058991Y0095135D01*
X0059065Y0095275D01*
X0059143Y0095412D01*
X0059225Y0095548D01*
X0059309Y0095682D01*
X0059398Y0095813D01*
X0059489Y0095942D01*
X0059584Y0096069D01*
X0059681Y0096194D01*
X0059782Y0096316D01*
X0059886Y0096435D01*
X0059993Y0096552D01*
X0060103Y0096666D01*
X0060216Y0096777D01*
X0060331Y0096886D01*
X0060449Y0096991D01*
X0060570Y0097093D01*
X0060693Y0097193D01*
X0060819Y0097289D01*
X0060947Y0097382D01*
X0061077Y0097472D01*
X0061210Y0097558D01*
X0061345Y0097642D01*
X0061481Y0097721D01*
X0061620Y0097798D01*
X0061761Y0097870D01*
X0061903Y0097940D01*
X0062047Y0098005D01*
X0062193Y0098067D01*
X0062340Y0098125D01*
X0062489Y0098180D01*
X0062639Y0098231D01*
X0062790Y0098278D01*
X0062942Y0098321D01*
X0063095Y0098360D01*
X0063250Y0098396D01*
X0063405Y0098427D01*
X0063561Y0098455D01*
X0063717Y0098479D01*
X0063874Y0098499D01*
X0064032Y0098515D01*
X0064189Y0098527D01*
X0064348Y0098535D01*
X0064506Y0098539D01*
X0064664Y0098539D01*
X0064822Y0098535D01*
X0064981Y0098527D01*
X0065138Y0098515D01*
X0065296Y0098499D01*
X0065453Y0098479D01*
X0065609Y0098455D01*
X0065765Y0098427D01*
X0065920Y0098396D01*
X0066075Y0098360D01*
X0066228Y0098321D01*
X0066380Y0098278D01*
X0066531Y0098231D01*
X0066681Y0098180D01*
X0066830Y0098125D01*
X0066977Y0098067D01*
X0067123Y0098005D01*
X0067267Y0097940D01*
X0067409Y0097870D01*
X0067550Y0097798D01*
X0067689Y0097721D01*
X0067825Y0097642D01*
X0067960Y0097558D01*
X0068093Y0097472D01*
X0068223Y0097382D01*
X0068351Y0097289D01*
X0068477Y0097193D01*
X0068600Y0097093D01*
X0068721Y0096991D01*
X0068839Y0096886D01*
X0068954Y0096777D01*
X0069067Y0096666D01*
X0069177Y0096552D01*
X0069284Y0096435D01*
X0069388Y0096316D01*
X0069489Y0096194D01*
X0069586Y0096069D01*
X0069681Y0095942D01*
X0069772Y0095813D01*
X0069861Y0095682D01*
X0069945Y0095548D01*
X0070027Y0095412D01*
X0070105Y0095275D01*
X0070179Y0095135D01*
X0070250Y0094993D01*
X0070318Y0094850D01*
X0070382Y0094705D01*
X0070442Y0094559D01*
X0070498Y0094411D01*
X0070551Y0094262D01*
X0070600Y0094111D01*
X0070645Y0093959D01*
X0070686Y0093806D01*
X0070724Y0093653D01*
X0070757Y0093498D01*
X0070787Y0093342D01*
X0070813Y0093186D01*
X0070834Y0093029D01*
X0070852Y0092872D01*
X0070866Y0092714D01*
X0070876Y0092556D01*
X0070882Y0092398D01*
X0070884Y0092240D01*
X0070882Y0092082D01*
X0070876Y0091924D01*
X0070866Y0091766D01*
X0070852Y0091608D01*
X0070834Y0091451D01*
X0070813Y0091294D01*
X0070787Y0091138D01*
X0070757Y0090982D01*
X0070724Y0090827D01*
X0070686Y0090674D01*
X0070645Y0090521D01*
X0070600Y0090369D01*
X0070551Y0090218D01*
X0070498Y0090069D01*
X0070442Y0089921D01*
X0070382Y0089775D01*
X0070318Y0089630D01*
X0070250Y0089487D01*
X0070179Y0089345D01*
X0070105Y0089205D01*
X0070027Y0089068D01*
X0069945Y0088932D01*
X0069861Y0088798D01*
X0069772Y0088667D01*
X0069681Y0088538D01*
X0069586Y0088411D01*
X0069489Y0088286D01*
X0069388Y0088164D01*
X0069284Y0088045D01*
X0069177Y0087928D01*
X0069067Y0087814D01*
X0068954Y0087703D01*
X0068839Y0087594D01*
X0068721Y0087489D01*
X0068600Y0087387D01*
X0068477Y0087287D01*
X0068351Y0087191D01*
X0068223Y0087098D01*
X0068093Y0087008D01*
X0067960Y0086922D01*
X0067825Y0086838D01*
X0067689Y0086759D01*
X0067550Y0086682D01*
X0067409Y0086610D01*
X0067267Y0086540D01*
X0067123Y0086475D01*
X0066977Y0086413D01*
X0066830Y0086355D01*
X0066681Y0086300D01*
X0066531Y0086249D01*
X0066380Y0086202D01*
X0066228Y0086159D01*
X0066075Y0086120D01*
X0065920Y0086084D01*
X0065765Y0086053D01*
X0065609Y0086025D01*
X0065453Y0086001D01*
X0065296Y0085981D01*
X0065138Y0085965D01*
X0064981Y0085953D01*
X0064822Y0085945D01*
X0064664Y0085941D01*
X0064506Y0085941D01*
X0064348Y0085945D01*
X0064189Y0085953D01*
X0064032Y0085965D01*
X0063874Y0085981D01*
X0063717Y0086001D01*
X0063561Y0086025D01*
X0063405Y0086053D01*
X0063250Y0086084D01*
X0063095Y0086120D01*
X0062942Y0086159D01*
X0062790Y0086202D01*
X0062639Y0086249D01*
X0062489Y0086300D01*
X0062340Y0086355D01*
X0062193Y0086413D01*
X0062047Y0086475D01*
X0061903Y0086540D01*
X0061761Y0086610D01*
X0061620Y0086682D01*
X0061481Y0086759D01*
X0061345Y0086838D01*
X0061210Y0086922D01*
X0061077Y0087008D01*
X0060947Y0087098D01*
X0060819Y0087191D01*
X0060693Y0087287D01*
X0060570Y0087387D01*
X0060449Y0087489D01*
X0060331Y0087594D01*
X0060216Y0087703D01*
X0060103Y0087814D01*
X0059993Y0087928D01*
X0059886Y0088045D01*
X0059782Y0088164D01*
X0059681Y0088286D01*
X0059584Y0088411D01*
X0059489Y0088538D01*
X0059398Y0088667D01*
X0059309Y0088798D01*
X0059225Y0088932D01*
X0059143Y0089068D01*
X0059065Y0089205D01*
X0058991Y0089345D01*
X0058920Y0089487D01*
X0058852Y0089630D01*
X0058788Y0089775D01*
X0058728Y0089921D01*
X0058672Y0090069D01*
X0058619Y0090218D01*
X0058570Y0090369D01*
X0058525Y0090521D01*
X0058484Y0090674D01*
X0058446Y0090827D01*
X0058413Y0090982D01*
X0058383Y0091138D01*
X0058357Y0091294D01*
X0058336Y0091451D01*
X0058318Y0091608D01*
X0058304Y0091766D01*
X0058294Y0091924D01*
X0058288Y0092082D01*
X0058286Y0092240D01*
X0251620Y0241492D02*
X0251622Y0241600D01*
X0251628Y0241709D01*
X0251638Y0241817D01*
X0251652Y0241924D01*
X0251670Y0242031D01*
X0251691Y0242138D01*
X0251717Y0242243D01*
X0251747Y0242348D01*
X0251780Y0242451D01*
X0251817Y0242553D01*
X0251858Y0242653D01*
X0251902Y0242752D01*
X0251951Y0242850D01*
X0252002Y0242945D01*
X0252057Y0243038D01*
X0252116Y0243130D01*
X0252178Y0243219D01*
X0252243Y0243306D01*
X0252311Y0243390D01*
X0252382Y0243472D01*
X0252456Y0243551D01*
X0252533Y0243627D01*
X0252613Y0243701D01*
X0252696Y0243771D01*
X0252781Y0243839D01*
X0252868Y0243903D01*
X0252958Y0243964D01*
X0253050Y0244022D01*
X0253144Y0244076D01*
X0253240Y0244127D01*
X0253337Y0244174D01*
X0253437Y0244218D01*
X0253538Y0244258D01*
X0253640Y0244294D01*
X0253743Y0244326D01*
X0253848Y0244355D01*
X0253954Y0244379D01*
X0254060Y0244400D01*
X0254167Y0244417D01*
X0254275Y0244430D01*
X0254383Y0244439D01*
X0254492Y0244444D01*
X0254600Y0244445D01*
X0254709Y0244442D01*
X0254817Y0244435D01*
X0254925Y0244424D01*
X0255032Y0244409D01*
X0255139Y0244390D01*
X0255245Y0244367D01*
X0255350Y0244341D01*
X0255455Y0244310D01*
X0255557Y0244276D01*
X0255659Y0244238D01*
X0255759Y0244196D01*
X0255858Y0244151D01*
X0255955Y0244102D01*
X0256049Y0244049D01*
X0256142Y0243993D01*
X0256233Y0243934D01*
X0256322Y0243871D01*
X0256408Y0243806D01*
X0256492Y0243737D01*
X0256573Y0243665D01*
X0256651Y0243590D01*
X0256727Y0243512D01*
X0256800Y0243431D01*
X0256870Y0243348D01*
X0256936Y0243263D01*
X0257000Y0243175D01*
X0257060Y0243084D01*
X0257117Y0242992D01*
X0257170Y0242897D01*
X0257220Y0242801D01*
X0257266Y0242703D01*
X0257309Y0242603D01*
X0257348Y0242502D01*
X0257383Y0242399D01*
X0257415Y0242296D01*
X0257442Y0242191D01*
X0257466Y0242085D01*
X0257486Y0241978D01*
X0257502Y0241871D01*
X0257514Y0241763D01*
X0257522Y0241655D01*
X0257526Y0241546D01*
X0257526Y0241438D01*
X0257522Y0241329D01*
X0257514Y0241221D01*
X0257502Y0241113D01*
X0257486Y0241006D01*
X0257466Y0240899D01*
X0257442Y0240793D01*
X0257415Y0240688D01*
X0257383Y0240585D01*
X0257348Y0240482D01*
X0257309Y0240381D01*
X0257266Y0240281D01*
X0257220Y0240183D01*
X0257170Y0240087D01*
X0257117Y0239992D01*
X0257060Y0239900D01*
X0257000Y0239809D01*
X0256936Y0239721D01*
X0256870Y0239636D01*
X0256800Y0239553D01*
X0256727Y0239472D01*
X0256651Y0239394D01*
X0256573Y0239319D01*
X0256492Y0239247D01*
X0256408Y0239178D01*
X0256322Y0239113D01*
X0256233Y0239050D01*
X0256142Y0238991D01*
X0256050Y0238935D01*
X0255955Y0238882D01*
X0255858Y0238833D01*
X0255759Y0238788D01*
X0255659Y0238746D01*
X0255557Y0238708D01*
X0255455Y0238674D01*
X0255350Y0238643D01*
X0255245Y0238617D01*
X0255139Y0238594D01*
X0255032Y0238575D01*
X0254925Y0238560D01*
X0254817Y0238549D01*
X0254709Y0238542D01*
X0254600Y0238539D01*
X0254492Y0238540D01*
X0254383Y0238545D01*
X0254275Y0238554D01*
X0254167Y0238567D01*
X0254060Y0238584D01*
X0253954Y0238605D01*
X0253848Y0238629D01*
X0253743Y0238658D01*
X0253640Y0238690D01*
X0253538Y0238726D01*
X0253437Y0238766D01*
X0253337Y0238810D01*
X0253240Y0238857D01*
X0253144Y0238908D01*
X0253050Y0238962D01*
X0252958Y0239020D01*
X0252868Y0239081D01*
X0252781Y0239145D01*
X0252696Y0239213D01*
X0252613Y0239283D01*
X0252533Y0239357D01*
X0252456Y0239433D01*
X0252382Y0239512D01*
X0252311Y0239594D01*
X0252243Y0239678D01*
X0252178Y0239765D01*
X0252116Y0239854D01*
X0252057Y0239946D01*
X0252002Y0240039D01*
X0251951Y0240134D01*
X0251902Y0240232D01*
X0251858Y0240331D01*
X0251817Y0240431D01*
X0251780Y0240533D01*
X0251747Y0240636D01*
X0251717Y0240741D01*
X0251691Y0240846D01*
X0251670Y0240953D01*
X0251652Y0241060D01*
X0251638Y0241167D01*
X0251628Y0241275D01*
X0251622Y0241384D01*
X0251620Y0241492D01*
X0281148Y0241492D02*
X0281150Y0241600D01*
X0281156Y0241709D01*
X0281166Y0241817D01*
X0281180Y0241924D01*
X0281198Y0242031D01*
X0281219Y0242138D01*
X0281245Y0242243D01*
X0281275Y0242348D01*
X0281308Y0242451D01*
X0281345Y0242553D01*
X0281386Y0242653D01*
X0281430Y0242752D01*
X0281479Y0242850D01*
X0281530Y0242945D01*
X0281585Y0243038D01*
X0281644Y0243130D01*
X0281706Y0243219D01*
X0281771Y0243306D01*
X0281839Y0243390D01*
X0281910Y0243472D01*
X0281984Y0243551D01*
X0282061Y0243627D01*
X0282141Y0243701D01*
X0282224Y0243771D01*
X0282309Y0243839D01*
X0282396Y0243903D01*
X0282486Y0243964D01*
X0282578Y0244022D01*
X0282672Y0244076D01*
X0282768Y0244127D01*
X0282865Y0244174D01*
X0282965Y0244218D01*
X0283066Y0244258D01*
X0283168Y0244294D01*
X0283271Y0244326D01*
X0283376Y0244355D01*
X0283482Y0244379D01*
X0283588Y0244400D01*
X0283695Y0244417D01*
X0283803Y0244430D01*
X0283911Y0244439D01*
X0284020Y0244444D01*
X0284128Y0244445D01*
X0284237Y0244442D01*
X0284345Y0244435D01*
X0284453Y0244424D01*
X0284560Y0244409D01*
X0284667Y0244390D01*
X0284773Y0244367D01*
X0284878Y0244341D01*
X0284983Y0244310D01*
X0285085Y0244276D01*
X0285187Y0244238D01*
X0285287Y0244196D01*
X0285386Y0244151D01*
X0285483Y0244102D01*
X0285577Y0244049D01*
X0285670Y0243993D01*
X0285761Y0243934D01*
X0285850Y0243871D01*
X0285936Y0243806D01*
X0286020Y0243737D01*
X0286101Y0243665D01*
X0286179Y0243590D01*
X0286255Y0243512D01*
X0286328Y0243431D01*
X0286398Y0243348D01*
X0286464Y0243263D01*
X0286528Y0243175D01*
X0286588Y0243084D01*
X0286645Y0242992D01*
X0286698Y0242897D01*
X0286748Y0242801D01*
X0286794Y0242703D01*
X0286837Y0242603D01*
X0286876Y0242502D01*
X0286911Y0242399D01*
X0286943Y0242296D01*
X0286970Y0242191D01*
X0286994Y0242085D01*
X0287014Y0241978D01*
X0287030Y0241871D01*
X0287042Y0241763D01*
X0287050Y0241655D01*
X0287054Y0241546D01*
X0287054Y0241438D01*
X0287050Y0241329D01*
X0287042Y0241221D01*
X0287030Y0241113D01*
X0287014Y0241006D01*
X0286994Y0240899D01*
X0286970Y0240793D01*
X0286943Y0240688D01*
X0286911Y0240585D01*
X0286876Y0240482D01*
X0286837Y0240381D01*
X0286794Y0240281D01*
X0286748Y0240183D01*
X0286698Y0240087D01*
X0286645Y0239992D01*
X0286588Y0239900D01*
X0286528Y0239809D01*
X0286464Y0239721D01*
X0286398Y0239636D01*
X0286328Y0239553D01*
X0286255Y0239472D01*
X0286179Y0239394D01*
X0286101Y0239319D01*
X0286020Y0239247D01*
X0285936Y0239178D01*
X0285850Y0239113D01*
X0285761Y0239050D01*
X0285670Y0238991D01*
X0285578Y0238935D01*
X0285483Y0238882D01*
X0285386Y0238833D01*
X0285287Y0238788D01*
X0285187Y0238746D01*
X0285085Y0238708D01*
X0284983Y0238674D01*
X0284878Y0238643D01*
X0284773Y0238617D01*
X0284667Y0238594D01*
X0284560Y0238575D01*
X0284453Y0238560D01*
X0284345Y0238549D01*
X0284237Y0238542D01*
X0284128Y0238539D01*
X0284020Y0238540D01*
X0283911Y0238545D01*
X0283803Y0238554D01*
X0283695Y0238567D01*
X0283588Y0238584D01*
X0283482Y0238605D01*
X0283376Y0238629D01*
X0283271Y0238658D01*
X0283168Y0238690D01*
X0283066Y0238726D01*
X0282965Y0238766D01*
X0282865Y0238810D01*
X0282768Y0238857D01*
X0282672Y0238908D01*
X0282578Y0238962D01*
X0282486Y0239020D01*
X0282396Y0239081D01*
X0282309Y0239145D01*
X0282224Y0239213D01*
X0282141Y0239283D01*
X0282061Y0239357D01*
X0281984Y0239433D01*
X0281910Y0239512D01*
X0281839Y0239594D01*
X0281771Y0239678D01*
X0281706Y0239765D01*
X0281644Y0239854D01*
X0281585Y0239946D01*
X0281530Y0240039D01*
X0281479Y0240134D01*
X0281430Y0240232D01*
X0281386Y0240331D01*
X0281345Y0240431D01*
X0281308Y0240533D01*
X0281275Y0240636D01*
X0281245Y0240741D01*
X0281219Y0240846D01*
X0281198Y0240953D01*
X0281180Y0241060D01*
X0281166Y0241167D01*
X0281156Y0241275D01*
X0281150Y0241384D01*
X0281148Y0241492D01*
X0322066Y0257594D02*
X0322068Y0257752D01*
X0322074Y0257910D01*
X0322084Y0258068D01*
X0322098Y0258226D01*
X0322116Y0258383D01*
X0322137Y0258540D01*
X0322163Y0258696D01*
X0322193Y0258852D01*
X0322226Y0259007D01*
X0322264Y0259160D01*
X0322305Y0259313D01*
X0322350Y0259465D01*
X0322399Y0259616D01*
X0322452Y0259765D01*
X0322508Y0259913D01*
X0322568Y0260059D01*
X0322632Y0260204D01*
X0322700Y0260347D01*
X0322771Y0260489D01*
X0322845Y0260629D01*
X0322923Y0260766D01*
X0323005Y0260902D01*
X0323089Y0261036D01*
X0323178Y0261167D01*
X0323269Y0261296D01*
X0323364Y0261423D01*
X0323461Y0261548D01*
X0323562Y0261670D01*
X0323666Y0261789D01*
X0323773Y0261906D01*
X0323883Y0262020D01*
X0323996Y0262131D01*
X0324111Y0262240D01*
X0324229Y0262345D01*
X0324350Y0262447D01*
X0324473Y0262547D01*
X0324599Y0262643D01*
X0324727Y0262736D01*
X0324857Y0262826D01*
X0324990Y0262912D01*
X0325125Y0262996D01*
X0325261Y0263075D01*
X0325400Y0263152D01*
X0325541Y0263224D01*
X0325683Y0263294D01*
X0325827Y0263359D01*
X0325973Y0263421D01*
X0326120Y0263479D01*
X0326269Y0263534D01*
X0326419Y0263585D01*
X0326570Y0263632D01*
X0326722Y0263675D01*
X0326875Y0263714D01*
X0327030Y0263750D01*
X0327185Y0263781D01*
X0327341Y0263809D01*
X0327497Y0263833D01*
X0327654Y0263853D01*
X0327812Y0263869D01*
X0327969Y0263881D01*
X0328128Y0263889D01*
X0328286Y0263893D01*
X0328444Y0263893D01*
X0328602Y0263889D01*
X0328761Y0263881D01*
X0328918Y0263869D01*
X0329076Y0263853D01*
X0329233Y0263833D01*
X0329389Y0263809D01*
X0329545Y0263781D01*
X0329700Y0263750D01*
X0329855Y0263714D01*
X0330008Y0263675D01*
X0330160Y0263632D01*
X0330311Y0263585D01*
X0330461Y0263534D01*
X0330610Y0263479D01*
X0330757Y0263421D01*
X0330903Y0263359D01*
X0331047Y0263294D01*
X0331189Y0263224D01*
X0331330Y0263152D01*
X0331469Y0263075D01*
X0331605Y0262996D01*
X0331740Y0262912D01*
X0331873Y0262826D01*
X0332003Y0262736D01*
X0332131Y0262643D01*
X0332257Y0262547D01*
X0332380Y0262447D01*
X0332501Y0262345D01*
X0332619Y0262240D01*
X0332734Y0262131D01*
X0332847Y0262020D01*
X0332957Y0261906D01*
X0333064Y0261789D01*
X0333168Y0261670D01*
X0333269Y0261548D01*
X0333366Y0261423D01*
X0333461Y0261296D01*
X0333552Y0261167D01*
X0333641Y0261036D01*
X0333725Y0260902D01*
X0333807Y0260766D01*
X0333885Y0260629D01*
X0333959Y0260489D01*
X0334030Y0260347D01*
X0334098Y0260204D01*
X0334162Y0260059D01*
X0334222Y0259913D01*
X0334278Y0259765D01*
X0334331Y0259616D01*
X0334380Y0259465D01*
X0334425Y0259313D01*
X0334466Y0259160D01*
X0334504Y0259007D01*
X0334537Y0258852D01*
X0334567Y0258696D01*
X0334593Y0258540D01*
X0334614Y0258383D01*
X0334632Y0258226D01*
X0334646Y0258068D01*
X0334656Y0257910D01*
X0334662Y0257752D01*
X0334664Y0257594D01*
X0334662Y0257436D01*
X0334656Y0257278D01*
X0334646Y0257120D01*
X0334632Y0256962D01*
X0334614Y0256805D01*
X0334593Y0256648D01*
X0334567Y0256492D01*
X0334537Y0256336D01*
X0334504Y0256181D01*
X0334466Y0256028D01*
X0334425Y0255875D01*
X0334380Y0255723D01*
X0334331Y0255572D01*
X0334278Y0255423D01*
X0334222Y0255275D01*
X0334162Y0255129D01*
X0334098Y0254984D01*
X0334030Y0254841D01*
X0333959Y0254699D01*
X0333885Y0254559D01*
X0333807Y0254422D01*
X0333725Y0254286D01*
X0333641Y0254152D01*
X0333552Y0254021D01*
X0333461Y0253892D01*
X0333366Y0253765D01*
X0333269Y0253640D01*
X0333168Y0253518D01*
X0333064Y0253399D01*
X0332957Y0253282D01*
X0332847Y0253168D01*
X0332734Y0253057D01*
X0332619Y0252948D01*
X0332501Y0252843D01*
X0332380Y0252741D01*
X0332257Y0252641D01*
X0332131Y0252545D01*
X0332003Y0252452D01*
X0331873Y0252362D01*
X0331740Y0252276D01*
X0331605Y0252192D01*
X0331469Y0252113D01*
X0331330Y0252036D01*
X0331189Y0251964D01*
X0331047Y0251894D01*
X0330903Y0251829D01*
X0330757Y0251767D01*
X0330610Y0251709D01*
X0330461Y0251654D01*
X0330311Y0251603D01*
X0330160Y0251556D01*
X0330008Y0251513D01*
X0329855Y0251474D01*
X0329700Y0251438D01*
X0329545Y0251407D01*
X0329389Y0251379D01*
X0329233Y0251355D01*
X0329076Y0251335D01*
X0328918Y0251319D01*
X0328761Y0251307D01*
X0328602Y0251299D01*
X0328444Y0251295D01*
X0328286Y0251295D01*
X0328128Y0251299D01*
X0327969Y0251307D01*
X0327812Y0251319D01*
X0327654Y0251335D01*
X0327497Y0251355D01*
X0327341Y0251379D01*
X0327185Y0251407D01*
X0327030Y0251438D01*
X0326875Y0251474D01*
X0326722Y0251513D01*
X0326570Y0251556D01*
X0326419Y0251603D01*
X0326269Y0251654D01*
X0326120Y0251709D01*
X0325973Y0251767D01*
X0325827Y0251829D01*
X0325683Y0251894D01*
X0325541Y0251964D01*
X0325400Y0252036D01*
X0325261Y0252113D01*
X0325125Y0252192D01*
X0324990Y0252276D01*
X0324857Y0252362D01*
X0324727Y0252452D01*
X0324599Y0252545D01*
X0324473Y0252641D01*
X0324350Y0252741D01*
X0324229Y0252843D01*
X0324111Y0252948D01*
X0323996Y0253057D01*
X0323883Y0253168D01*
X0323773Y0253282D01*
X0323666Y0253399D01*
X0323562Y0253518D01*
X0323461Y0253640D01*
X0323364Y0253765D01*
X0323269Y0253892D01*
X0323178Y0254021D01*
X0323089Y0254152D01*
X0323005Y0254286D01*
X0322923Y0254422D01*
X0322845Y0254559D01*
X0322771Y0254699D01*
X0322700Y0254841D01*
X0322632Y0254984D01*
X0322568Y0255129D01*
X0322508Y0255275D01*
X0322452Y0255423D01*
X0322399Y0255572D01*
X0322350Y0255723D01*
X0322305Y0255875D01*
X0322264Y0256028D01*
X0322226Y0256181D01*
X0322193Y0256336D01*
X0322163Y0256492D01*
X0322137Y0256648D01*
X0322116Y0256805D01*
X0322098Y0256962D01*
X0322084Y0257120D01*
X0322074Y0257278D01*
X0322068Y0257436D01*
X0322066Y0257594D01*
X0322066Y0092240D02*
X0322068Y0092398D01*
X0322074Y0092556D01*
X0322084Y0092714D01*
X0322098Y0092872D01*
X0322116Y0093029D01*
X0322137Y0093186D01*
X0322163Y0093342D01*
X0322193Y0093498D01*
X0322226Y0093653D01*
X0322264Y0093806D01*
X0322305Y0093959D01*
X0322350Y0094111D01*
X0322399Y0094262D01*
X0322452Y0094411D01*
X0322508Y0094559D01*
X0322568Y0094705D01*
X0322632Y0094850D01*
X0322700Y0094993D01*
X0322771Y0095135D01*
X0322845Y0095275D01*
X0322923Y0095412D01*
X0323005Y0095548D01*
X0323089Y0095682D01*
X0323178Y0095813D01*
X0323269Y0095942D01*
X0323364Y0096069D01*
X0323461Y0096194D01*
X0323562Y0096316D01*
X0323666Y0096435D01*
X0323773Y0096552D01*
X0323883Y0096666D01*
X0323996Y0096777D01*
X0324111Y0096886D01*
X0324229Y0096991D01*
X0324350Y0097093D01*
X0324473Y0097193D01*
X0324599Y0097289D01*
X0324727Y0097382D01*
X0324857Y0097472D01*
X0324990Y0097558D01*
X0325125Y0097642D01*
X0325261Y0097721D01*
X0325400Y0097798D01*
X0325541Y0097870D01*
X0325683Y0097940D01*
X0325827Y0098005D01*
X0325973Y0098067D01*
X0326120Y0098125D01*
X0326269Y0098180D01*
X0326419Y0098231D01*
X0326570Y0098278D01*
X0326722Y0098321D01*
X0326875Y0098360D01*
X0327030Y0098396D01*
X0327185Y0098427D01*
X0327341Y0098455D01*
X0327497Y0098479D01*
X0327654Y0098499D01*
X0327812Y0098515D01*
X0327969Y0098527D01*
X0328128Y0098535D01*
X0328286Y0098539D01*
X0328444Y0098539D01*
X0328602Y0098535D01*
X0328761Y0098527D01*
X0328918Y0098515D01*
X0329076Y0098499D01*
X0329233Y0098479D01*
X0329389Y0098455D01*
X0329545Y0098427D01*
X0329700Y0098396D01*
X0329855Y0098360D01*
X0330008Y0098321D01*
X0330160Y0098278D01*
X0330311Y0098231D01*
X0330461Y0098180D01*
X0330610Y0098125D01*
X0330757Y0098067D01*
X0330903Y0098005D01*
X0331047Y0097940D01*
X0331189Y0097870D01*
X0331330Y0097798D01*
X0331469Y0097721D01*
X0331605Y0097642D01*
X0331740Y0097558D01*
X0331873Y0097472D01*
X0332003Y0097382D01*
X0332131Y0097289D01*
X0332257Y0097193D01*
X0332380Y0097093D01*
X0332501Y0096991D01*
X0332619Y0096886D01*
X0332734Y0096777D01*
X0332847Y0096666D01*
X0332957Y0096552D01*
X0333064Y0096435D01*
X0333168Y0096316D01*
X0333269Y0096194D01*
X0333366Y0096069D01*
X0333461Y0095942D01*
X0333552Y0095813D01*
X0333641Y0095682D01*
X0333725Y0095548D01*
X0333807Y0095412D01*
X0333885Y0095275D01*
X0333959Y0095135D01*
X0334030Y0094993D01*
X0334098Y0094850D01*
X0334162Y0094705D01*
X0334222Y0094559D01*
X0334278Y0094411D01*
X0334331Y0094262D01*
X0334380Y0094111D01*
X0334425Y0093959D01*
X0334466Y0093806D01*
X0334504Y0093653D01*
X0334537Y0093498D01*
X0334567Y0093342D01*
X0334593Y0093186D01*
X0334614Y0093029D01*
X0334632Y0092872D01*
X0334646Y0092714D01*
X0334656Y0092556D01*
X0334662Y0092398D01*
X0334664Y0092240D01*
X0334662Y0092082D01*
X0334656Y0091924D01*
X0334646Y0091766D01*
X0334632Y0091608D01*
X0334614Y0091451D01*
X0334593Y0091294D01*
X0334567Y0091138D01*
X0334537Y0090982D01*
X0334504Y0090827D01*
X0334466Y0090674D01*
X0334425Y0090521D01*
X0334380Y0090369D01*
X0334331Y0090218D01*
X0334278Y0090069D01*
X0334222Y0089921D01*
X0334162Y0089775D01*
X0334098Y0089630D01*
X0334030Y0089487D01*
X0333959Y0089345D01*
X0333885Y0089205D01*
X0333807Y0089068D01*
X0333725Y0088932D01*
X0333641Y0088798D01*
X0333552Y0088667D01*
X0333461Y0088538D01*
X0333366Y0088411D01*
X0333269Y0088286D01*
X0333168Y0088164D01*
X0333064Y0088045D01*
X0332957Y0087928D01*
X0332847Y0087814D01*
X0332734Y0087703D01*
X0332619Y0087594D01*
X0332501Y0087489D01*
X0332380Y0087387D01*
X0332257Y0087287D01*
X0332131Y0087191D01*
X0332003Y0087098D01*
X0331873Y0087008D01*
X0331740Y0086922D01*
X0331605Y0086838D01*
X0331469Y0086759D01*
X0331330Y0086682D01*
X0331189Y0086610D01*
X0331047Y0086540D01*
X0330903Y0086475D01*
X0330757Y0086413D01*
X0330610Y0086355D01*
X0330461Y0086300D01*
X0330311Y0086249D01*
X0330160Y0086202D01*
X0330008Y0086159D01*
X0329855Y0086120D01*
X0329700Y0086084D01*
X0329545Y0086053D01*
X0329389Y0086025D01*
X0329233Y0086001D01*
X0329076Y0085981D01*
X0328918Y0085965D01*
X0328761Y0085953D01*
X0328602Y0085945D01*
X0328444Y0085941D01*
X0328286Y0085941D01*
X0328128Y0085945D01*
X0327969Y0085953D01*
X0327812Y0085965D01*
X0327654Y0085981D01*
X0327497Y0086001D01*
X0327341Y0086025D01*
X0327185Y0086053D01*
X0327030Y0086084D01*
X0326875Y0086120D01*
X0326722Y0086159D01*
X0326570Y0086202D01*
X0326419Y0086249D01*
X0326269Y0086300D01*
X0326120Y0086355D01*
X0325973Y0086413D01*
X0325827Y0086475D01*
X0325683Y0086540D01*
X0325541Y0086610D01*
X0325400Y0086682D01*
X0325261Y0086759D01*
X0325125Y0086838D01*
X0324990Y0086922D01*
X0324857Y0087008D01*
X0324727Y0087098D01*
X0324599Y0087191D01*
X0324473Y0087287D01*
X0324350Y0087387D01*
X0324229Y0087489D01*
X0324111Y0087594D01*
X0323996Y0087703D01*
X0323883Y0087814D01*
X0323773Y0087928D01*
X0323666Y0088045D01*
X0323562Y0088164D01*
X0323461Y0088286D01*
X0323364Y0088411D01*
X0323269Y0088538D01*
X0323178Y0088667D01*
X0323089Y0088798D01*
X0323005Y0088932D01*
X0322923Y0089068D01*
X0322845Y0089205D01*
X0322771Y0089345D01*
X0322700Y0089487D01*
X0322632Y0089630D01*
X0322568Y0089775D01*
X0322508Y0089921D01*
X0322452Y0090069D01*
X0322399Y0090218D01*
X0322350Y0090369D01*
X0322305Y0090521D01*
X0322264Y0090674D01*
X0322226Y0090827D01*
X0322193Y0090982D01*
X0322163Y0091138D01*
X0322137Y0091294D01*
X0322116Y0091451D01*
X0322098Y0091608D01*
X0322084Y0091766D01*
X0322074Y0091924D01*
X0322068Y0092082D01*
X0322066Y0092240D01*
X0058286Y0257594D02*
X0058288Y0257752D01*
X0058294Y0257910D01*
X0058304Y0258068D01*
X0058318Y0258226D01*
X0058336Y0258383D01*
X0058357Y0258540D01*
X0058383Y0258696D01*
X0058413Y0258852D01*
X0058446Y0259007D01*
X0058484Y0259160D01*
X0058525Y0259313D01*
X0058570Y0259465D01*
X0058619Y0259616D01*
X0058672Y0259765D01*
X0058728Y0259913D01*
X0058788Y0260059D01*
X0058852Y0260204D01*
X0058920Y0260347D01*
X0058991Y0260489D01*
X0059065Y0260629D01*
X0059143Y0260766D01*
X0059225Y0260902D01*
X0059309Y0261036D01*
X0059398Y0261167D01*
X0059489Y0261296D01*
X0059584Y0261423D01*
X0059681Y0261548D01*
X0059782Y0261670D01*
X0059886Y0261789D01*
X0059993Y0261906D01*
X0060103Y0262020D01*
X0060216Y0262131D01*
X0060331Y0262240D01*
X0060449Y0262345D01*
X0060570Y0262447D01*
X0060693Y0262547D01*
X0060819Y0262643D01*
X0060947Y0262736D01*
X0061077Y0262826D01*
X0061210Y0262912D01*
X0061345Y0262996D01*
X0061481Y0263075D01*
X0061620Y0263152D01*
X0061761Y0263224D01*
X0061903Y0263294D01*
X0062047Y0263359D01*
X0062193Y0263421D01*
X0062340Y0263479D01*
X0062489Y0263534D01*
X0062639Y0263585D01*
X0062790Y0263632D01*
X0062942Y0263675D01*
X0063095Y0263714D01*
X0063250Y0263750D01*
X0063405Y0263781D01*
X0063561Y0263809D01*
X0063717Y0263833D01*
X0063874Y0263853D01*
X0064032Y0263869D01*
X0064189Y0263881D01*
X0064348Y0263889D01*
X0064506Y0263893D01*
X0064664Y0263893D01*
X0064822Y0263889D01*
X0064981Y0263881D01*
X0065138Y0263869D01*
X0065296Y0263853D01*
X0065453Y0263833D01*
X0065609Y0263809D01*
X0065765Y0263781D01*
X0065920Y0263750D01*
X0066075Y0263714D01*
X0066228Y0263675D01*
X0066380Y0263632D01*
X0066531Y0263585D01*
X0066681Y0263534D01*
X0066830Y0263479D01*
X0066977Y0263421D01*
X0067123Y0263359D01*
X0067267Y0263294D01*
X0067409Y0263224D01*
X0067550Y0263152D01*
X0067689Y0263075D01*
X0067825Y0262996D01*
X0067960Y0262912D01*
X0068093Y0262826D01*
X0068223Y0262736D01*
X0068351Y0262643D01*
X0068477Y0262547D01*
X0068600Y0262447D01*
X0068721Y0262345D01*
X0068839Y0262240D01*
X0068954Y0262131D01*
X0069067Y0262020D01*
X0069177Y0261906D01*
X0069284Y0261789D01*
X0069388Y0261670D01*
X0069489Y0261548D01*
X0069586Y0261423D01*
X0069681Y0261296D01*
X0069772Y0261167D01*
X0069861Y0261036D01*
X0069945Y0260902D01*
X0070027Y0260766D01*
X0070105Y0260629D01*
X0070179Y0260489D01*
X0070250Y0260347D01*
X0070318Y0260204D01*
X0070382Y0260059D01*
X0070442Y0259913D01*
X0070498Y0259765D01*
X0070551Y0259616D01*
X0070600Y0259465D01*
X0070645Y0259313D01*
X0070686Y0259160D01*
X0070724Y0259007D01*
X0070757Y0258852D01*
X0070787Y0258696D01*
X0070813Y0258540D01*
X0070834Y0258383D01*
X0070852Y0258226D01*
X0070866Y0258068D01*
X0070876Y0257910D01*
X0070882Y0257752D01*
X0070884Y0257594D01*
X0070882Y0257436D01*
X0070876Y0257278D01*
X0070866Y0257120D01*
X0070852Y0256962D01*
X0070834Y0256805D01*
X0070813Y0256648D01*
X0070787Y0256492D01*
X0070757Y0256336D01*
X0070724Y0256181D01*
X0070686Y0256028D01*
X0070645Y0255875D01*
X0070600Y0255723D01*
X0070551Y0255572D01*
X0070498Y0255423D01*
X0070442Y0255275D01*
X0070382Y0255129D01*
X0070318Y0254984D01*
X0070250Y0254841D01*
X0070179Y0254699D01*
X0070105Y0254559D01*
X0070027Y0254422D01*
X0069945Y0254286D01*
X0069861Y0254152D01*
X0069772Y0254021D01*
X0069681Y0253892D01*
X0069586Y0253765D01*
X0069489Y0253640D01*
X0069388Y0253518D01*
X0069284Y0253399D01*
X0069177Y0253282D01*
X0069067Y0253168D01*
X0068954Y0253057D01*
X0068839Y0252948D01*
X0068721Y0252843D01*
X0068600Y0252741D01*
X0068477Y0252641D01*
X0068351Y0252545D01*
X0068223Y0252452D01*
X0068093Y0252362D01*
X0067960Y0252276D01*
X0067825Y0252192D01*
X0067689Y0252113D01*
X0067550Y0252036D01*
X0067409Y0251964D01*
X0067267Y0251894D01*
X0067123Y0251829D01*
X0066977Y0251767D01*
X0066830Y0251709D01*
X0066681Y0251654D01*
X0066531Y0251603D01*
X0066380Y0251556D01*
X0066228Y0251513D01*
X0066075Y0251474D01*
X0065920Y0251438D01*
X0065765Y0251407D01*
X0065609Y0251379D01*
X0065453Y0251355D01*
X0065296Y0251335D01*
X0065138Y0251319D01*
X0064981Y0251307D01*
X0064822Y0251299D01*
X0064664Y0251295D01*
X0064506Y0251295D01*
X0064348Y0251299D01*
X0064189Y0251307D01*
X0064032Y0251319D01*
X0063874Y0251335D01*
X0063717Y0251355D01*
X0063561Y0251379D01*
X0063405Y0251407D01*
X0063250Y0251438D01*
X0063095Y0251474D01*
X0062942Y0251513D01*
X0062790Y0251556D01*
X0062639Y0251603D01*
X0062489Y0251654D01*
X0062340Y0251709D01*
X0062193Y0251767D01*
X0062047Y0251829D01*
X0061903Y0251894D01*
X0061761Y0251964D01*
X0061620Y0252036D01*
X0061481Y0252113D01*
X0061345Y0252192D01*
X0061210Y0252276D01*
X0061077Y0252362D01*
X0060947Y0252452D01*
X0060819Y0252545D01*
X0060693Y0252641D01*
X0060570Y0252741D01*
X0060449Y0252843D01*
X0060331Y0252948D01*
X0060216Y0253057D01*
X0060103Y0253168D01*
X0059993Y0253282D01*
X0059886Y0253399D01*
X0059782Y0253518D01*
X0059681Y0253640D01*
X0059584Y0253765D01*
X0059489Y0253892D01*
X0059398Y0254021D01*
X0059309Y0254152D01*
X0059225Y0254286D01*
X0059143Y0254422D01*
X0059065Y0254559D01*
X0058991Y0254699D01*
X0058920Y0254841D01*
X0058852Y0254984D01*
X0058788Y0255129D01*
X0058728Y0255275D01*
X0058672Y0255423D01*
X0058619Y0255572D01*
X0058570Y0255723D01*
X0058525Y0255875D01*
X0058484Y0256028D01*
X0058446Y0256181D01*
X0058413Y0256336D01*
X0058383Y0256492D01*
X0058357Y0256648D01*
X0058336Y0256805D01*
X0058318Y0256962D01*
X0058304Y0257120D01*
X0058294Y0257278D01*
X0058288Y0257436D01*
X0058286Y0257594D01*
D11*
X0077537Y0245192D02*
X0078138Y0245792D01*
X0077537Y0245192D02*
X0077537Y0243991D01*
X0078138Y0243390D01*
X0078738Y0243390D01*
X0079339Y0243991D01*
X0079339Y0245192D01*
X0079939Y0245792D01*
X0080540Y0245792D01*
X0081140Y0245192D01*
X0081140Y0243991D01*
X0080540Y0243390D01*
X0081140Y0242109D02*
X0077537Y0242109D01*
X0078738Y0240908D01*
X0077537Y0239707D01*
X0081140Y0239707D01*
X0079939Y0238426D02*
X0081140Y0237225D01*
X0077537Y0237225D01*
X0077537Y0238426D02*
X0077537Y0236024D01*
X0104037Y0244207D02*
X0104037Y0246609D01*
X0106439Y0244207D01*
X0107040Y0244207D01*
X0107640Y0244807D01*
X0107640Y0246008D01*
X0107040Y0246609D01*
X0107640Y0247890D02*
X0104037Y0250292D01*
X0104037Y0247890D02*
X0107640Y0250292D01*
X0122037Y0239292D02*
X0122037Y0237491D01*
X0122638Y0236890D01*
X0125040Y0236890D01*
X0125640Y0237491D01*
X0125640Y0239292D01*
X0122037Y0239292D01*
X0122037Y0235609D02*
X0122037Y0233207D01*
X0122037Y0234408D02*
X0125640Y0234408D01*
X0124439Y0235609D01*
X0137537Y0235609D02*
X0137537Y0233207D01*
X0137537Y0234408D02*
X0141140Y0234408D01*
X0139939Y0235609D01*
X0141140Y0236890D02*
X0141140Y0239292D01*
X0137537Y0239292D01*
X0139339Y0239292D02*
X0139339Y0238091D01*
X0140140Y0217792D02*
X0136537Y0217792D01*
X0137738Y0217792D02*
X0137738Y0215991D01*
X0138339Y0215390D01*
X0139540Y0215390D01*
X0140140Y0215991D01*
X0140140Y0217792D01*
X0137738Y0216591D02*
X0136537Y0215390D01*
X0137138Y0214109D02*
X0136537Y0213508D01*
X0136537Y0212307D01*
X0137138Y0211707D01*
X0138339Y0211707D01*
X0138939Y0212307D01*
X0138939Y0212908D01*
X0138339Y0214109D01*
X0140140Y0214109D01*
X0140140Y0211707D01*
X0144537Y0186292D02*
X0148140Y0183890D01*
X0146339Y0182609D02*
X0146339Y0180807D01*
X0145738Y0180207D01*
X0145138Y0180207D01*
X0144537Y0180807D01*
X0144537Y0182008D01*
X0145138Y0182609D01*
X0146339Y0182609D01*
X0147540Y0181408D01*
X0148140Y0180207D01*
X0144537Y0183890D02*
X0148140Y0186292D01*
X0178537Y0164792D02*
X0182140Y0162390D01*
X0182140Y0161109D02*
X0182140Y0158707D01*
X0181540Y0158707D01*
X0179138Y0161109D01*
X0178537Y0161109D01*
X0178537Y0162390D02*
X0182140Y0164792D01*
X0149640Y0148792D02*
X0146037Y0146390D01*
X0146638Y0145109D02*
X0146037Y0144508D01*
X0146037Y0143307D01*
X0146638Y0142707D01*
X0147839Y0142707D01*
X0148439Y0143307D01*
X0148439Y0143908D01*
X0147839Y0145109D01*
X0149640Y0145109D01*
X0149640Y0142707D01*
X0149640Y0146390D02*
X0146037Y0148792D01*
X0172037Y0125292D02*
X0175640Y0125292D01*
X0175640Y0123491D01*
X0175040Y0122890D01*
X0173839Y0122890D01*
X0173238Y0123491D01*
X0173238Y0125292D01*
X0173238Y0124091D02*
X0172037Y0122890D01*
X0172037Y0121609D02*
X0172037Y0119207D01*
X0172037Y0120408D02*
X0175640Y0120408D01*
X0174439Y0121609D01*
X0166140Y0106292D02*
X0162537Y0103890D01*
X0164339Y0102609D02*
X0164339Y0100207D01*
X0166140Y0100807D02*
X0164339Y0102609D01*
X0166140Y0103890D02*
X0162537Y0106292D01*
X0162537Y0100807D02*
X0166140Y0100807D01*
X0156540Y0091292D02*
X0154138Y0091292D01*
X0153537Y0090692D01*
X0153537Y0089491D01*
X0154138Y0088890D01*
X0155339Y0088890D01*
X0155339Y0090091D01*
X0156540Y0088890D02*
X0157140Y0089491D01*
X0157140Y0090692D01*
X0156540Y0091292D01*
X0157140Y0087609D02*
X0153537Y0085207D01*
X0157140Y0085207D01*
X0157140Y0083926D02*
X0157140Y0082124D01*
X0156540Y0081524D01*
X0154138Y0081524D01*
X0153537Y0082124D01*
X0153537Y0083926D01*
X0157140Y0083926D01*
X0157140Y0087609D02*
X0153537Y0087609D01*
X0147140Y0087609D02*
X0143537Y0087609D01*
X0143537Y0085207D01*
X0143537Y0083926D02*
X0147140Y0083926D01*
X0147140Y0082124D01*
X0146540Y0081524D01*
X0145339Y0081524D01*
X0144738Y0082124D01*
X0144738Y0083926D01*
X0147937Y0080443D02*
X0147937Y0091492D01*
X0147140Y0090692D02*
X0146540Y0091292D01*
X0145939Y0091292D01*
X0145339Y0090692D01*
X0145339Y0089491D01*
X0144738Y0088890D01*
X0144138Y0088890D01*
X0143537Y0089491D01*
X0143537Y0090692D01*
X0144138Y0091292D01*
X0147140Y0090692D02*
X0147140Y0089491D01*
X0146540Y0088890D01*
X0137140Y0087008D02*
X0137140Y0085807D01*
X0136540Y0085207D01*
X0135339Y0085207D02*
X0135339Y0086408D01*
X0135339Y0085207D02*
X0134138Y0085207D01*
X0133537Y0085807D01*
X0133537Y0087008D01*
X0134138Y0087609D01*
X0136540Y0087609D01*
X0137140Y0087008D01*
X0133537Y0088890D02*
X0133537Y0091292D01*
X0137140Y0091292D01*
X0130140Y0090792D02*
X0130140Y0088991D01*
X0129540Y0088390D01*
X0128339Y0088390D01*
X0127738Y0088991D01*
X0127738Y0090792D01*
X0127738Y0089591D02*
X0126537Y0088390D01*
X0127138Y0087109D02*
X0126537Y0086508D01*
X0126537Y0085307D01*
X0127138Y0084707D01*
X0127738Y0084707D01*
X0128339Y0085307D01*
X0128339Y0086508D01*
X0128939Y0087109D01*
X0129540Y0087109D01*
X0130140Y0086508D01*
X0130140Y0085307D01*
X0129540Y0084707D01*
X0130140Y0083426D02*
X0130140Y0081024D01*
X0130140Y0082225D02*
X0126537Y0082225D01*
X0124937Y0083626D02*
X0124937Y0090992D01*
X0124140Y0090792D02*
X0122939Y0089591D01*
X0124140Y0088390D01*
X0120537Y0088390D01*
X0120537Y0087109D02*
X0120537Y0085307D01*
X0121138Y0084707D01*
X0123540Y0084707D01*
X0124140Y0085307D01*
X0124140Y0087109D01*
X0120537Y0087109D01*
X0117140Y0087609D02*
X0113537Y0085207D01*
X0113537Y0087609D02*
X0117140Y0085207D01*
X0117140Y0088890D02*
X0117140Y0091292D01*
X0117140Y0090091D02*
X0113537Y0090091D01*
X0120537Y0090792D02*
X0124140Y0090792D01*
X0126537Y0090792D02*
X0130140Y0090792D01*
X0107140Y0091292D02*
X0107140Y0089491D01*
X0106540Y0088890D01*
X0105339Y0088890D01*
X0104738Y0089491D01*
X0104738Y0091292D01*
X0104738Y0090091D02*
X0103537Y0088890D01*
X0103537Y0087609D02*
X0107140Y0085207D01*
X0107140Y0087609D02*
X0103537Y0085207D01*
X0097140Y0085207D02*
X0094738Y0085207D01*
X0093537Y0086408D01*
X0094738Y0087609D01*
X0097140Y0087609D01*
X0096540Y0088890D02*
X0095939Y0088890D01*
X0095339Y0089491D01*
X0094738Y0088890D01*
X0094138Y0088890D01*
X0093537Y0089491D01*
X0093537Y0090692D01*
X0094138Y0091292D01*
X0095339Y0090091D02*
X0095339Y0089491D01*
X0096540Y0088890D02*
X0097140Y0089491D01*
X0097140Y0090692D01*
X0096540Y0091292D01*
X0103537Y0091292D02*
X0107140Y0091292D01*
X0097140Y0083325D02*
X0097140Y0082124D01*
X0096540Y0081524D01*
X0095939Y0081524D01*
X0095339Y0082124D01*
X0094738Y0081524D01*
X0094138Y0081524D01*
X0093537Y0082124D01*
X0093537Y0083325D01*
X0094138Y0083926D01*
X0095339Y0082725D02*
X0095339Y0082124D01*
X0097140Y0083325D02*
X0096540Y0083926D01*
X0087140Y0083926D02*
X0087140Y0082124D01*
X0086540Y0081524D01*
X0084138Y0081524D01*
X0083537Y0082124D01*
X0083537Y0083926D01*
X0087140Y0083926D01*
X0087140Y0085207D02*
X0083537Y0085207D01*
X0087140Y0087609D01*
X0083537Y0087609D01*
X0084138Y0088890D02*
X0083537Y0089491D01*
X0083537Y0090692D01*
X0084138Y0091292D01*
X0086540Y0091292D01*
X0087140Y0090692D01*
X0087140Y0089491D01*
X0086540Y0088890D01*
X0085339Y0088890D02*
X0085339Y0090091D01*
X0085339Y0088890D02*
X0084138Y0088890D01*
X0077597Y0102192D02*
X0075195Y0102192D01*
X0076396Y0102192D02*
X0076396Y0105795D01*
X0075195Y0104594D01*
X0112537Y0112307D02*
X0116140Y0112307D01*
X0114339Y0114109D01*
X0114339Y0111707D01*
X0114339Y0115390D02*
X0113738Y0115991D01*
X0113738Y0117792D01*
X0113738Y0116591D02*
X0112537Y0115390D01*
X0114339Y0115390D02*
X0115540Y0115390D01*
X0116140Y0115991D01*
X0116140Y0117792D01*
X0112537Y0117792D01*
X0176037Y0088792D02*
X0179140Y0088792D01*
X0179140Y0087241D01*
X0178623Y0086724D01*
X0177588Y0086724D01*
X0177071Y0087241D01*
X0177071Y0088792D01*
X0177071Y0087758D02*
X0176037Y0086724D01*
X0176037Y0085569D02*
X0178105Y0083501D01*
X0178623Y0083501D01*
X0179140Y0084018D01*
X0179140Y0085052D01*
X0178623Y0085569D01*
X0176037Y0085569D02*
X0176037Y0083501D01*
X0204037Y0084807D02*
X0204037Y0086008D01*
X0204638Y0086609D01*
X0204037Y0087890D02*
X0205238Y0089091D01*
X0205238Y0088491D02*
X0205238Y0090292D01*
X0204037Y0090292D02*
X0207640Y0090292D01*
X0207640Y0088491D01*
X0207040Y0087890D01*
X0205839Y0087890D01*
X0205238Y0088491D01*
X0207040Y0086609D02*
X0207640Y0086008D01*
X0207640Y0084807D01*
X0207040Y0084207D01*
X0206439Y0084207D01*
X0205839Y0084807D01*
X0205238Y0084207D01*
X0204638Y0084207D01*
X0204037Y0084807D01*
X0205839Y0084807D02*
X0205839Y0085408D01*
X0228195Y0102192D02*
X0230597Y0102192D01*
X0229396Y0102192D02*
X0229396Y0105795D01*
X0228195Y0104594D01*
X0232638Y0113024D02*
X0232037Y0113624D01*
X0232037Y0114825D01*
X0232638Y0115426D01*
X0235040Y0113024D01*
X0232638Y0113024D01*
X0235040Y0113024D02*
X0235640Y0113624D01*
X0235640Y0114825D01*
X0235040Y0115426D01*
X0232638Y0115426D01*
X0232037Y0116707D02*
X0232037Y0119109D01*
X0232037Y0117908D02*
X0235640Y0117908D01*
X0234439Y0119109D01*
X0235640Y0120390D02*
X0232037Y0122792D01*
X0232037Y0120390D02*
X0235640Y0122792D01*
X0256037Y0124674D02*
X0256037Y0125875D01*
X0256638Y0126475D01*
X0256037Y0127756D02*
X0256037Y0130158D01*
X0258439Y0127756D01*
X0259040Y0127756D01*
X0259640Y0128357D01*
X0259640Y0129558D01*
X0259040Y0130158D01*
X0259040Y0131440D02*
X0259640Y0132040D01*
X0259640Y0133842D01*
X0256037Y0133842D01*
X0256037Y0132040D01*
X0256638Y0131440D01*
X0259040Y0131440D01*
X0259640Y0135123D02*
X0256037Y0137525D01*
X0257839Y0138806D02*
X0257238Y0139406D01*
X0257238Y0141208D01*
X0256037Y0141208D02*
X0259640Y0141208D01*
X0259640Y0139406D01*
X0259040Y0138806D01*
X0257839Y0138806D01*
X0259640Y0142489D02*
X0259640Y0144891D01*
X0256037Y0144891D01*
X0256037Y0142489D01*
X0257839Y0143690D02*
X0257839Y0144891D01*
X0259640Y0146172D02*
X0259640Y0148574D01*
X0256037Y0148574D01*
X0256037Y0146172D01*
X0257839Y0147373D02*
X0257839Y0148574D01*
X0256037Y0149855D02*
X0256037Y0152257D01*
X0259640Y0152257D01*
X0259040Y0153538D02*
X0259640Y0154139D01*
X0259640Y0155340D01*
X0259040Y0155940D01*
X0258439Y0155940D01*
X0257839Y0155340D01*
X0257839Y0154139D01*
X0257238Y0153538D01*
X0256638Y0153538D01*
X0256037Y0154139D01*
X0256037Y0155340D01*
X0256638Y0155940D01*
X0255437Y0157222D02*
X0255437Y0159624D01*
X0256037Y0160905D02*
X0259640Y0160905D01*
X0259640Y0163307D02*
X0256037Y0163307D01*
X0256638Y0164588D02*
X0256037Y0165188D01*
X0256037Y0166389D01*
X0256638Y0166990D01*
X0259040Y0166990D01*
X0259640Y0166389D01*
X0259640Y0165188D01*
X0259040Y0164588D01*
X0256638Y0164588D01*
X0259640Y0163307D02*
X0256037Y0160905D01*
X0250540Y0171291D02*
X0248138Y0173693D01*
X0247537Y0173093D01*
X0247537Y0171892D01*
X0248138Y0171291D01*
X0250540Y0171291D01*
X0251140Y0171892D01*
X0251140Y0173093D01*
X0250540Y0173693D01*
X0248138Y0173693D01*
X0247537Y0174974D02*
X0247537Y0177376D01*
X0249939Y0174974D01*
X0250540Y0174974D01*
X0251140Y0175575D01*
X0251140Y0176776D01*
X0250540Y0177376D01*
X0250540Y0178658D02*
X0251140Y0179258D01*
X0251140Y0181060D01*
X0247537Y0181060D01*
X0247537Y0179258D01*
X0248138Y0178658D01*
X0250540Y0178658D01*
X0251140Y0182341D02*
X0247537Y0184743D01*
X0247537Y0186024D02*
X0248738Y0187225D01*
X0248738Y0186624D02*
X0248738Y0188426D01*
X0247537Y0188426D02*
X0251140Y0188426D01*
X0251140Y0186624D01*
X0250540Y0186024D01*
X0249339Y0186024D01*
X0248738Y0186624D01*
X0251140Y0189707D02*
X0251140Y0192109D01*
X0251140Y0190908D02*
X0247537Y0190908D01*
X0248138Y0193390D02*
X0250540Y0193390D01*
X0251140Y0193991D01*
X0251140Y0195792D01*
X0247537Y0195792D01*
X0247537Y0193991D01*
X0248138Y0193390D01*
X0235140Y0199807D02*
X0235140Y0201008D01*
X0234540Y0201609D01*
X0233939Y0201609D01*
X0233339Y0201008D01*
X0233339Y0199207D01*
X0234540Y0199207D02*
X0235140Y0199807D01*
X0234540Y0199207D02*
X0232138Y0199207D01*
X0231537Y0199807D01*
X0231537Y0201008D01*
X0232138Y0201609D01*
X0231537Y0202890D02*
X0235140Y0205292D01*
X0235140Y0202890D02*
X0231537Y0205292D01*
X0231537Y0218341D02*
X0231537Y0220743D01*
X0231537Y0219542D02*
X0235140Y0219542D01*
X0233939Y0220743D01*
X0235140Y0222024D02*
X0235140Y0224426D01*
X0235140Y0223225D02*
X0231537Y0223225D01*
X0231537Y0225707D02*
X0233939Y0225707D01*
X0235140Y0226908D01*
X0233939Y0228109D01*
X0231537Y0228109D01*
X0232138Y0229390D02*
X0231537Y0229991D01*
X0231537Y0231792D01*
X0235140Y0231792D01*
X0235140Y0229991D01*
X0234540Y0229390D01*
X0233939Y0229390D01*
X0233339Y0229991D01*
X0233339Y0231792D01*
X0233339Y0229991D02*
X0232738Y0229390D01*
X0232138Y0229390D01*
X0233339Y0228109D02*
X0233339Y0225707D01*
X0212140Y0226487D02*
X0210939Y0225286D01*
X0208537Y0225286D01*
X0208537Y0224005D02*
X0212140Y0221603D01*
X0212140Y0224005D02*
X0208537Y0221603D01*
X0210339Y0225286D02*
X0210339Y0227688D01*
X0210939Y0227688D02*
X0212140Y0226487D01*
X0210939Y0227688D02*
X0208537Y0227688D01*
X0208537Y0228970D02*
X0212140Y0228970D01*
X0210939Y0230171D01*
X0212140Y0231372D01*
X0208537Y0231372D01*
X0209738Y0236336D02*
X0212140Y0236336D01*
X0212140Y0238738D02*
X0209738Y0238738D01*
X0208537Y0237537D01*
X0209738Y0236336D01*
X0209738Y0240019D02*
X0210339Y0240619D01*
X0210339Y0242421D01*
X0209138Y0242421D01*
X0208537Y0241820D01*
X0208537Y0240619D01*
X0209138Y0240019D01*
X0209738Y0240019D01*
X0211540Y0241220D02*
X0210339Y0242421D01*
X0211540Y0241220D02*
X0212140Y0240019D01*
X0209138Y0243662D02*
X0208537Y0243662D01*
X0208537Y0244263D01*
X0209138Y0244263D01*
X0209138Y0243662D01*
X0209138Y0245544D02*
X0208537Y0246144D01*
X0208537Y0247345D01*
X0209138Y0247946D01*
X0210339Y0246745D02*
X0210339Y0246144D01*
X0209738Y0245544D01*
X0209138Y0245544D01*
X0210339Y0246144D02*
X0210939Y0245544D01*
X0211540Y0245544D01*
X0212140Y0246144D01*
X0212140Y0247345D01*
X0211540Y0247946D01*
X0210939Y0252870D02*
X0210339Y0252870D01*
X0210339Y0253470D01*
X0210939Y0253470D01*
X0210939Y0252870D01*
X0209138Y0252870D02*
X0208537Y0252870D01*
X0208537Y0253470D01*
X0209138Y0253470D01*
X0209138Y0252870D01*
X0208537Y0254752D02*
X0212140Y0254752D01*
X0212140Y0257154D02*
X0208537Y0257154D01*
X0208537Y0258408D02*
X0208537Y0259609D01*
X0208537Y0259008D02*
X0212140Y0259008D01*
X0212140Y0258408D02*
X0212140Y0259609D01*
X0212140Y0260890D02*
X0209738Y0260890D01*
X0208537Y0262091D01*
X0209738Y0263292D01*
X0212140Y0263292D01*
X0212140Y0257154D02*
X0208537Y0254752D01*
X0151640Y0265908D02*
X0148037Y0265908D01*
X0148037Y0267109D02*
X0148037Y0264707D01*
X0150439Y0267109D02*
X0151640Y0265908D01*
X0151640Y0268390D02*
X0148037Y0270792D01*
X0148037Y0268390D02*
X0151640Y0270792D01*
X0279037Y0195792D02*
X0282640Y0195792D01*
X0282640Y0193991D01*
X0282040Y0193390D01*
X0280839Y0193390D01*
X0280238Y0193991D01*
X0280238Y0195792D01*
X0280238Y0194591D02*
X0279037Y0193390D01*
X0279037Y0192109D02*
X0279037Y0189707D01*
X0279638Y0188426D02*
X0279037Y0187825D01*
X0279037Y0186624D01*
X0279638Y0186024D01*
X0280238Y0186024D01*
X0280839Y0186624D01*
X0280839Y0187825D01*
X0281439Y0188426D01*
X0282040Y0188426D01*
X0282640Y0187825D01*
X0282640Y0186624D01*
X0282040Y0186024D01*
X0282640Y0184743D02*
X0279037Y0184743D01*
X0279037Y0182341D01*
X0280839Y0183542D02*
X0280839Y0184743D01*
X0282640Y0184743D02*
X0282640Y0182341D01*
X0282640Y0181060D02*
X0282640Y0178658D01*
X0282640Y0179859D02*
X0279037Y0179859D01*
X0279037Y0177376D02*
X0282640Y0174974D01*
X0282640Y0173693D02*
X0282640Y0171892D01*
X0282040Y0171291D01*
X0279638Y0171291D01*
X0279037Y0171892D01*
X0279037Y0173693D01*
X0282640Y0173693D01*
X0282040Y0170010D02*
X0282640Y0169410D01*
X0282640Y0168209D01*
X0282040Y0167608D01*
X0281439Y0167608D01*
X0279037Y0170010D01*
X0279037Y0167608D01*
X0279037Y0166327D02*
X0279037Y0163925D01*
X0279037Y0165126D02*
X0282640Y0165126D01*
X0281439Y0166327D01*
X0295037Y0175575D02*
X0295037Y0176776D01*
X0295638Y0177376D01*
X0298040Y0174974D01*
X0295638Y0174974D01*
X0295037Y0175575D01*
X0295638Y0177376D02*
X0298040Y0177376D01*
X0298640Y0176776D01*
X0298640Y0175575D01*
X0298040Y0174974D01*
X0295037Y0178658D02*
X0295037Y0181060D01*
X0295037Y0179859D02*
X0298640Y0179859D01*
X0297439Y0181060D01*
X0298040Y0182341D02*
X0298640Y0182941D01*
X0298640Y0184743D01*
X0295037Y0184743D01*
X0295037Y0182941D01*
X0295638Y0182341D01*
X0298040Y0182341D01*
X0298640Y0186024D02*
X0295037Y0188426D01*
X0295037Y0189707D02*
X0298640Y0192109D01*
X0298040Y0193390D02*
X0296839Y0193390D01*
X0296238Y0193991D01*
X0296238Y0195792D01*
X0296238Y0194591D02*
X0295037Y0193390D01*
X0295037Y0192109D02*
X0298640Y0189707D01*
X0302537Y0189707D02*
X0306140Y0192109D01*
X0306140Y0193390D02*
X0306140Y0195792D01*
X0306140Y0194591D02*
X0302537Y0194591D01*
X0302537Y0192109D02*
X0306140Y0189707D01*
X0306140Y0186024D02*
X0302537Y0188426D01*
X0302537Y0184743D02*
X0302537Y0182941D01*
X0303138Y0182341D01*
X0305540Y0182341D01*
X0306140Y0182941D01*
X0306140Y0184743D01*
X0302537Y0184743D01*
X0303138Y0181060D02*
X0302537Y0180459D01*
X0302537Y0179258D01*
X0303138Y0178658D01*
X0305540Y0178658D01*
X0306140Y0179258D01*
X0306140Y0180459D01*
X0305540Y0181060D01*
X0304939Y0181060D01*
X0304339Y0180459D01*
X0304339Y0178658D01*
X0282640Y0189707D02*
X0282640Y0192109D01*
X0279037Y0192109D01*
X0280839Y0192109D02*
X0280839Y0190908D01*
X0295037Y0195792D02*
X0298640Y0195792D01*
X0298640Y0193991D01*
X0298040Y0193390D01*
X0297610Y0213098D02*
X0300012Y0215501D01*
X0299412Y0214900D02*
X0297610Y0216702D01*
X0296329Y0216101D02*
X0295729Y0216702D01*
X0294528Y0216702D01*
X0293927Y0216101D01*
X0293927Y0213098D01*
X0292646Y0213098D02*
X0290845Y0213098D01*
X0290244Y0213699D01*
X0290244Y0214900D01*
X0290845Y0215501D01*
X0292646Y0215501D01*
X0292646Y0216702D02*
X0292646Y0213098D01*
X0296329Y0213098D02*
X0296329Y0216101D01*
X0300012Y0216702D02*
X0300012Y0213098D01*
X0301294Y0213699D02*
X0301894Y0213098D01*
X0303095Y0213098D01*
X0303696Y0213699D01*
X0303696Y0216101D01*
X0303095Y0216702D01*
X0301894Y0216702D01*
X0301294Y0216101D01*
X0304977Y0216702D02*
X0304977Y0214300D01*
X0306178Y0213098D01*
X0307379Y0214300D01*
X0307379Y0216702D01*
X0308660Y0216101D02*
X0309260Y0216702D01*
X0311062Y0216702D01*
X0311062Y0213098D01*
X0309260Y0213098D01*
X0308660Y0213699D01*
X0308660Y0214300D01*
X0309260Y0214900D01*
X0311062Y0214900D01*
X0309260Y0214900D02*
X0308660Y0215501D01*
X0308660Y0216101D01*
X0307379Y0214900D02*
X0304977Y0214900D01*
X0305577Y0219098D02*
X0304977Y0219699D01*
X0307379Y0222101D01*
X0306778Y0222702D01*
X0305577Y0222702D01*
X0304977Y0222101D01*
X0304977Y0219699D01*
X0305577Y0219098D02*
X0306778Y0219098D01*
X0307379Y0219699D01*
X0307379Y0222101D01*
X0308660Y0222702D02*
X0311062Y0222702D01*
X0308660Y0220300D01*
X0308660Y0219699D01*
X0309260Y0219098D01*
X0310461Y0219098D01*
X0311062Y0219699D01*
X0312343Y0219699D02*
X0312944Y0219098D01*
X0314145Y0219098D01*
X0314745Y0219699D01*
X0312343Y0219699D02*
X0312343Y0220300D01*
X0314745Y0222702D01*
X0312343Y0222702D01*
X0316026Y0222702D02*
X0318428Y0222702D01*
X0317227Y0222702D02*
X0317227Y0219098D01*
X0318428Y0220300D01*
X0319709Y0220900D02*
X0320310Y0221501D01*
X0322111Y0221501D01*
X0322111Y0222702D02*
X0322111Y0219098D01*
X0320310Y0219098D01*
X0319709Y0219699D01*
X0319709Y0220900D01*
X0320910Y0221501D02*
X0319709Y0222702D01*
X0323392Y0222101D02*
X0323993Y0222702D01*
X0325194Y0222702D01*
X0325794Y0222101D01*
X0325794Y0219699D01*
X0325194Y0219098D01*
X0323993Y0219098D01*
X0323392Y0219699D01*
X0323392Y0216702D02*
X0324593Y0215501D01*
X0323993Y0215501D02*
X0325794Y0215501D01*
X0325794Y0216702D02*
X0325794Y0213098D01*
X0323993Y0213098D01*
X0323392Y0213699D01*
X0323392Y0214900D01*
X0323993Y0215501D01*
X0322111Y0213098D02*
X0319709Y0213098D01*
X0320910Y0213098D02*
X0320910Y0216702D01*
X0318428Y0216101D02*
X0317828Y0216702D01*
X0316627Y0216702D01*
X0316026Y0216101D01*
X0316026Y0213699D02*
X0316627Y0213098D01*
X0317828Y0213098D01*
X0318428Y0213699D01*
X0318428Y0216101D01*
X0259040Y0126475D02*
X0259640Y0125875D01*
X0259640Y0124674D01*
X0259040Y0124073D01*
X0258439Y0124073D01*
X0257839Y0124674D01*
X0257238Y0124073D01*
X0256638Y0124073D01*
X0256037Y0124674D01*
X0257839Y0124674D02*
X0257839Y0125274D01*
X0256537Y0091292D02*
X0260140Y0091292D01*
X0258939Y0090091D01*
X0260140Y0088890D01*
X0256537Y0088890D01*
X0256537Y0087609D02*
X0256537Y0086408D01*
X0256537Y0087008D02*
X0260140Y0087008D01*
X0260140Y0086408D02*
X0260140Y0087609D01*
X0259540Y0085154D02*
X0258939Y0085154D01*
X0258339Y0084553D01*
X0258339Y0083352D01*
X0257738Y0082752D01*
X0257138Y0082752D01*
X0256537Y0083352D01*
X0256537Y0084553D01*
X0257138Y0085154D01*
X0259540Y0085154D02*
X0260140Y0084553D01*
X0260140Y0083352D01*
X0259540Y0082752D01*
X0259540Y0081470D02*
X0257138Y0081470D01*
X0256537Y0080870D01*
X0256537Y0079669D01*
X0257138Y0079068D01*
X0259540Y0079068D01*
X0260140Y0079669D01*
X0260140Y0080870D01*
X0259540Y0081470D01*
X0266534Y0081243D02*
X0267134Y0080643D01*
X0267735Y0080643D01*
X0268335Y0081243D01*
X0268335Y0082444D01*
X0268936Y0083045D01*
X0269537Y0083045D01*
X0270137Y0082444D01*
X0270137Y0081243D01*
X0269537Y0080643D01*
X0266534Y0081243D02*
X0266534Y0082444D01*
X0267134Y0083045D01*
X0267134Y0084326D02*
X0269537Y0084326D01*
X0270137Y0084926D01*
X0270137Y0086127D01*
X0269537Y0086728D01*
X0270137Y0088009D02*
X0266534Y0088009D01*
X0267134Y0086728D02*
X0266534Y0086127D01*
X0266534Y0084926D01*
X0267134Y0084326D01*
X0268936Y0088009D02*
X0266534Y0090411D01*
X0268335Y0088609D02*
X0270137Y0090411D01*
X0276537Y0090692D02*
X0276537Y0089491D01*
X0277138Y0088890D01*
X0278339Y0088890D01*
X0278339Y0090091D01*
X0279540Y0088890D02*
X0280140Y0089491D01*
X0280140Y0090692D01*
X0279540Y0091292D01*
X0277138Y0091292D01*
X0276537Y0090692D01*
X0276537Y0087609D02*
X0280140Y0087609D01*
X0276537Y0085207D01*
X0280140Y0085207D01*
X0280140Y0083926D02*
X0280140Y0082124D01*
X0279540Y0081524D01*
X0277138Y0081524D01*
X0276537Y0082124D01*
X0276537Y0083926D01*
X0280140Y0083926D01*
X0286537Y0083325D02*
X0286537Y0082124D01*
X0287138Y0081524D01*
X0287738Y0081524D01*
X0288339Y0082124D01*
X0288339Y0082725D01*
X0288339Y0082124D02*
X0288939Y0081524D01*
X0289540Y0081524D01*
X0290140Y0082124D01*
X0290140Y0083325D01*
X0289540Y0083926D01*
X0290140Y0085207D02*
X0287738Y0085207D01*
X0286537Y0086408D01*
X0287738Y0087609D01*
X0290140Y0087609D01*
X0289540Y0088890D02*
X0288939Y0088890D01*
X0288339Y0089491D01*
X0287738Y0088890D01*
X0287138Y0088890D01*
X0286537Y0089491D01*
X0286537Y0090692D01*
X0287138Y0091292D01*
X0288339Y0090091D02*
X0288339Y0089491D01*
X0289540Y0088890D02*
X0290140Y0089491D01*
X0290140Y0090692D01*
X0289540Y0091292D01*
X0296537Y0090692D02*
X0296537Y0089491D01*
X0297138Y0088890D01*
X0297738Y0088890D01*
X0298339Y0089491D01*
X0298339Y0090692D01*
X0298939Y0091292D01*
X0299540Y0091292D01*
X0300140Y0090692D01*
X0300140Y0089491D01*
X0299540Y0088890D01*
X0300140Y0087609D02*
X0300140Y0085807D01*
X0299540Y0085207D01*
X0297138Y0085207D01*
X0296537Y0085807D01*
X0296537Y0087609D01*
X0300140Y0087609D01*
X0298939Y0083926D02*
X0300140Y0082725D01*
X0298939Y0081524D01*
X0296537Y0081524D01*
X0298339Y0081524D02*
X0298339Y0083926D01*
X0298939Y0083926D02*
X0296537Y0083926D01*
X0296537Y0090692D02*
X0297138Y0091292D01*
X0306537Y0090692D02*
X0306537Y0089491D01*
X0307138Y0088890D01*
X0307738Y0088890D01*
X0308339Y0089491D01*
X0308339Y0090692D01*
X0308939Y0091292D01*
X0309540Y0091292D01*
X0310140Y0090692D01*
X0310140Y0089491D01*
X0309540Y0088890D01*
X0309540Y0087609D02*
X0307138Y0087609D01*
X0306537Y0087008D01*
X0306537Y0085807D01*
X0307138Y0085207D01*
X0306537Y0083926D02*
X0306537Y0081524D01*
X0306537Y0083926D02*
X0310140Y0083926D01*
X0309540Y0085207D02*
X0310140Y0085807D01*
X0310140Y0087008D01*
X0309540Y0087609D01*
X0306537Y0090692D02*
X0307138Y0091292D01*
X0316138Y0101707D02*
X0315537Y0102307D01*
X0315537Y0103508D01*
X0316138Y0104109D01*
X0316738Y0104109D01*
X0317339Y0103508D01*
X0317339Y0102307D01*
X0316738Y0101707D01*
X0316138Y0101707D01*
X0317339Y0102307D02*
X0317939Y0101707D01*
X0318540Y0101707D01*
X0319140Y0102307D01*
X0319140Y0103508D01*
X0318540Y0104109D01*
X0317939Y0104109D01*
X0317339Y0103508D01*
X0319140Y0105390D02*
X0315537Y0107792D01*
X0315537Y0105390D02*
X0319140Y0107792D01*
X0287138Y0083926D02*
X0286537Y0083325D01*
X0250140Y0083325D02*
X0250140Y0082124D01*
X0249540Y0081524D01*
X0248339Y0082124D02*
X0247738Y0081524D01*
X0247138Y0081524D01*
X0246537Y0082124D01*
X0246537Y0083325D01*
X0247138Y0083926D01*
X0247138Y0085207D02*
X0249540Y0085207D01*
X0250140Y0085807D01*
X0250140Y0087008D01*
X0249540Y0087609D01*
X0247138Y0087609D01*
X0246537Y0087008D01*
X0246537Y0085807D01*
X0247138Y0085207D01*
X0248939Y0083926D02*
X0248339Y0083325D01*
X0248339Y0082124D01*
X0248939Y0083926D02*
X0249540Y0083926D01*
X0250140Y0083325D01*
X0250140Y0080243D02*
X0250140Y0079042D01*
X0250140Y0079642D02*
X0246537Y0079642D01*
X0246537Y0079042D02*
X0246537Y0080243D01*
X0240140Y0085807D02*
X0240140Y0087008D01*
X0239540Y0087609D01*
X0238939Y0087609D01*
X0238339Y0087008D01*
X0238339Y0085807D01*
X0237738Y0085207D01*
X0237138Y0085207D01*
X0236537Y0085807D01*
X0236537Y0087008D01*
X0237138Y0087609D01*
X0237138Y0088890D02*
X0236537Y0089491D01*
X0236537Y0090692D01*
X0237138Y0091292D01*
X0239540Y0091292D01*
X0240140Y0090692D01*
X0240140Y0089491D01*
X0239540Y0088890D01*
X0240140Y0085807D02*
X0239540Y0085207D01*
X0246537Y0088890D02*
X0250140Y0088890D01*
X0248939Y0090091D01*
X0250140Y0091292D01*
X0246537Y0091292D01*
X0112140Y0170307D02*
X0111540Y0169707D01*
X0110939Y0169707D01*
X0110339Y0170307D01*
X0109738Y0169707D01*
X0109138Y0169707D01*
X0108537Y0170307D01*
X0108537Y0171508D01*
X0109138Y0172109D01*
X0108537Y0173390D02*
X0112140Y0175792D01*
X0112140Y0173390D02*
X0108537Y0175792D01*
X0111540Y0172109D02*
X0112140Y0171508D01*
X0112140Y0170307D01*
X0110339Y0170307D02*
X0110339Y0170908D01*
D12*
X0209443Y0207898D02*
X0209443Y0111047D01*
X0317605Y0111047D01*
X0342802Y0140181D01*
X0342802Y0178764D01*
X0317605Y0207898D01*
X0209443Y0207898D01*
D13*
X0132969Y0261494D02*
X0130033Y0261494D01*
X0131501Y0262962D02*
X0131501Y0260026D01*
X0099469Y0261494D02*
X0096533Y0261494D01*
X0104637Y0238806D02*
X0104637Y0236604D01*
X0105371Y0235870D01*
X0106105Y0235870D01*
X0106839Y0236604D01*
X0106839Y0238806D01*
X0104637Y0238806D02*
X0109041Y0238806D01*
X0109041Y0236604D01*
X0108307Y0235870D01*
X0107573Y0235870D01*
X0106839Y0236604D01*
X0106839Y0234202D02*
X0106839Y0231266D01*
X0107573Y0231266D02*
X0104637Y0231266D01*
X0107573Y0231266D02*
X0109041Y0232734D01*
X0107573Y0234202D01*
X0104637Y0234202D01*
X0104637Y0228130D02*
X0109041Y0228130D01*
X0109041Y0229598D02*
X0109041Y0226662D01*
X0109041Y0224994D02*
X0109041Y0222058D01*
X0109041Y0223526D02*
X0104637Y0223526D01*
X0104637Y0220390D02*
X0104637Y0217454D01*
X0104637Y0215786D02*
X0109041Y0215786D01*
X0109041Y0213584D01*
X0108307Y0212850D01*
X0106839Y0212850D01*
X0106105Y0213584D01*
X0106105Y0215786D01*
X0106105Y0214318D02*
X0104637Y0212850D01*
X0104637Y0209714D02*
X0106839Y0209714D01*
X0108307Y0208247D01*
X0109041Y0208247D01*
X0106839Y0209714D02*
X0108307Y0211182D01*
X0109041Y0211182D01*
X0109041Y0217454D02*
X0109041Y0220390D01*
X0104637Y0220390D01*
X0106839Y0220390D02*
X0106839Y0218922D01*
X0055541Y0218188D02*
X0054807Y0217454D01*
X0054073Y0217454D01*
X0053339Y0218188D01*
X0053339Y0220390D01*
X0052605Y0222058D02*
X0051871Y0222058D01*
X0051137Y0222792D01*
X0051137Y0224260D01*
X0051871Y0224994D01*
X0053339Y0224260D02*
X0053339Y0222792D01*
X0052605Y0222058D01*
X0054807Y0222058D02*
X0055541Y0222792D01*
X0055541Y0224260D01*
X0054807Y0224994D01*
X0054073Y0224994D01*
X0053339Y0224260D01*
X0051871Y0226662D02*
X0055541Y0226662D01*
X0055541Y0229598D02*
X0051871Y0229598D01*
X0051137Y0228864D01*
X0051137Y0227396D01*
X0051871Y0226662D01*
X0051137Y0220390D02*
X0051137Y0218188D01*
X0051871Y0217454D01*
X0052605Y0217454D01*
X0053339Y0218188D01*
X0055541Y0218188D02*
X0055541Y0220390D01*
X0051137Y0220390D01*
D14*
X0061424Y0216102D02*
X0061424Y0229882D01*
X0061620Y0229882D02*
X0066345Y0229882D01*
X0072250Y0229882D02*
X0076187Y0229882D01*
X0082093Y0229882D02*
X0086424Y0229882D01*
X0092329Y0229882D02*
X0097054Y0229882D01*
X0097250Y0229882D02*
X0097250Y0216102D01*
X0097054Y0216102D02*
X0092329Y0216102D01*
X0086424Y0216102D02*
X0082093Y0216102D01*
X0076581Y0216102D02*
X0071857Y0216102D01*
X0066345Y0216102D02*
X0061620Y0216102D01*
X0055337Y0198992D02*
X0195337Y0198992D01*
X0195337Y0188992D01*
X0195337Y0138992D01*
X0185337Y0138992D01*
X0185337Y0188992D01*
X0195337Y0188992D01*
X0055337Y0188992D01*
X0055337Y0198992D01*
X0065337Y0188992D02*
X0115337Y0188992D01*
X0115337Y0178992D01*
X0065337Y0178992D01*
X0065337Y0188992D01*
X0062591Y0185611D02*
X0062591Y0182608D01*
X0062591Y0184110D02*
X0058087Y0184110D01*
X0058087Y0181007D02*
X0058087Y0178004D01*
X0058087Y0176403D02*
X0058087Y0173400D01*
X0058087Y0171799D02*
X0062591Y0171799D01*
X0058087Y0168796D01*
X0062591Y0168796D01*
X0061840Y0167195D02*
X0061090Y0167195D01*
X0060339Y0166444D01*
X0060339Y0164943D01*
X0059588Y0164193D01*
X0058838Y0164193D01*
X0058087Y0164943D01*
X0058087Y0166444D01*
X0058838Y0167195D01*
X0061840Y0167195D02*
X0062591Y0166444D01*
X0062591Y0164943D01*
X0061840Y0164193D01*
X0061840Y0162591D02*
X0060339Y0161090D01*
X0058087Y0161090D01*
X0060339Y0161090D02*
X0061840Y0159589D01*
X0062591Y0159589D01*
X0062591Y0162591D02*
X0061840Y0162591D01*
X0061840Y0153383D02*
X0062591Y0152633D01*
X0062591Y0151131D01*
X0061840Y0150381D01*
X0061090Y0150381D01*
X0060339Y0151131D01*
X0059588Y0150381D01*
X0058838Y0150381D01*
X0058087Y0151131D01*
X0058087Y0152633D01*
X0058838Y0153383D01*
X0060339Y0151882D02*
X0060339Y0151131D01*
X0058838Y0148779D02*
X0058838Y0148029D01*
X0058087Y0148029D01*
X0058087Y0148779D01*
X0058838Y0148779D01*
X0058087Y0146477D02*
X0061090Y0143475D01*
X0061840Y0143475D01*
X0062591Y0144226D01*
X0062591Y0145727D01*
X0061840Y0146477D01*
X0058087Y0146477D02*
X0058087Y0143475D01*
X0055337Y0138992D02*
X0195337Y0138992D01*
X0195337Y0128992D01*
X0055337Y0128992D01*
X0055337Y0138992D01*
X0098337Y0118492D02*
X0098337Y0111492D01*
X0111337Y0111492D01*
X0111337Y0118492D01*
X0098337Y0118492D01*
X0080337Y0103992D02*
X0160337Y0103992D01*
X0160337Y0093992D01*
X0080337Y0093992D01*
X0080337Y0103992D01*
X0167337Y0096992D02*
X0167337Y0083992D01*
X0174337Y0083992D01*
X0174337Y0096992D01*
X0167337Y0096992D01*
X0177557Y0098213D02*
X0177557Y0125772D01*
X0205117Y0125772D01*
X0205117Y0098213D01*
X0177557Y0098213D01*
X0233337Y0093992D02*
X0313337Y0093992D01*
X0313337Y0103992D01*
X0233337Y0103992D01*
X0233337Y0093992D01*
X0237774Y0112248D02*
X0316514Y0112248D01*
X0316514Y0120122D01*
X0237774Y0120122D01*
X0237774Y0112248D01*
X0237774Y0198862D02*
X0237774Y0206736D01*
X0316514Y0206736D01*
X0316514Y0198862D01*
X0237774Y0198862D01*
X0238235Y0213539D02*
X0238235Y0236768D01*
X0238235Y0246217D02*
X0238235Y0269445D01*
X0250046Y0269445D01*
X0250046Y0213539D01*
X0244140Y0213539D01*
X0238235Y0213539D01*
X0199837Y0224492D02*
X0199837Y0228492D01*
X0199837Y0229492D02*
X0199837Y0238492D01*
X0200837Y0236992D01*
X0199837Y0238492D02*
X0198837Y0236992D01*
X0199837Y0243992D02*
X0199337Y0244492D01*
X0199837Y0244992D01*
X0200337Y0244492D01*
X0199837Y0243992D01*
X0199837Y0244992D01*
X0199130Y0244492D02*
X0199132Y0244545D01*
X0199138Y0244597D01*
X0199148Y0244649D01*
X0199161Y0244700D01*
X0199179Y0244750D01*
X0199200Y0244799D01*
X0199225Y0244846D01*
X0199253Y0244890D01*
X0199284Y0244933D01*
X0199319Y0244973D01*
X0199356Y0245010D01*
X0199396Y0245045D01*
X0199439Y0245076D01*
X0199484Y0245104D01*
X0199530Y0245129D01*
X0199579Y0245150D01*
X0199629Y0245168D01*
X0199680Y0245181D01*
X0199732Y0245191D01*
X0199784Y0245197D01*
X0199837Y0245199D01*
X0199890Y0245197D01*
X0199942Y0245191D01*
X0199994Y0245181D01*
X0200045Y0245168D01*
X0200095Y0245150D01*
X0200144Y0245129D01*
X0200191Y0245104D01*
X0200235Y0245076D01*
X0200278Y0245045D01*
X0200318Y0245010D01*
X0200355Y0244973D01*
X0200390Y0244933D01*
X0200421Y0244890D01*
X0200449Y0244845D01*
X0200474Y0244799D01*
X0200495Y0244750D01*
X0200513Y0244700D01*
X0200526Y0244649D01*
X0200536Y0244597D01*
X0200542Y0244545D01*
X0200544Y0244492D01*
X0200542Y0244439D01*
X0200536Y0244387D01*
X0200526Y0244335D01*
X0200513Y0244284D01*
X0200495Y0244234D01*
X0200474Y0244185D01*
X0200449Y0244138D01*
X0200421Y0244094D01*
X0200390Y0244051D01*
X0200355Y0244011D01*
X0200318Y0243974D01*
X0200278Y0243939D01*
X0200235Y0243908D01*
X0200190Y0243880D01*
X0200144Y0243855D01*
X0200095Y0243834D01*
X0200045Y0243816D01*
X0199994Y0243803D01*
X0199942Y0243793D01*
X0199890Y0243787D01*
X0199837Y0243785D01*
X0199784Y0243787D01*
X0199732Y0243793D01*
X0199680Y0243803D01*
X0199629Y0243816D01*
X0199579Y0243834D01*
X0199530Y0243855D01*
X0199483Y0243880D01*
X0199439Y0243908D01*
X0199396Y0243939D01*
X0199356Y0243974D01*
X0199319Y0244011D01*
X0199284Y0244051D01*
X0199253Y0244094D01*
X0199225Y0244139D01*
X0199200Y0244185D01*
X0199179Y0244234D01*
X0199161Y0244284D01*
X0199148Y0244335D01*
X0199138Y0244387D01*
X0199132Y0244439D01*
X0199130Y0244492D01*
X0197144Y0244492D02*
X0197146Y0244595D01*
X0197152Y0244698D01*
X0197162Y0244801D01*
X0197176Y0244903D01*
X0197193Y0245005D01*
X0197215Y0245106D01*
X0197240Y0245206D01*
X0197270Y0245305D01*
X0197303Y0245402D01*
X0197339Y0245499D01*
X0197380Y0245594D01*
X0197424Y0245687D01*
X0197471Y0245778D01*
X0197522Y0245868D01*
X0197577Y0245956D01*
X0197634Y0246041D01*
X0197695Y0246125D01*
X0197759Y0246205D01*
X0197827Y0246284D01*
X0197897Y0246359D01*
X0197970Y0246432D01*
X0198045Y0246502D01*
X0198124Y0246570D01*
X0198204Y0246634D01*
X0198288Y0246695D01*
X0198373Y0246752D01*
X0198461Y0246807D01*
X0198551Y0246858D01*
X0198642Y0246905D01*
X0198735Y0246949D01*
X0198830Y0246990D01*
X0198927Y0247026D01*
X0199024Y0247059D01*
X0199123Y0247089D01*
X0199223Y0247114D01*
X0199324Y0247136D01*
X0199426Y0247153D01*
X0199528Y0247167D01*
X0199631Y0247177D01*
X0199734Y0247183D01*
X0199837Y0247185D01*
X0199940Y0247183D01*
X0200043Y0247177D01*
X0200146Y0247167D01*
X0200248Y0247153D01*
X0200350Y0247136D01*
X0200451Y0247114D01*
X0200551Y0247089D01*
X0200650Y0247059D01*
X0200747Y0247026D01*
X0200844Y0246990D01*
X0200939Y0246949D01*
X0201032Y0246905D01*
X0201123Y0246858D01*
X0201213Y0246807D01*
X0201301Y0246752D01*
X0201386Y0246695D01*
X0201470Y0246634D01*
X0201550Y0246570D01*
X0201629Y0246502D01*
X0201704Y0246432D01*
X0201777Y0246359D01*
X0201847Y0246284D01*
X0201915Y0246205D01*
X0201979Y0246125D01*
X0202040Y0246041D01*
X0202097Y0245956D01*
X0202152Y0245868D01*
X0202203Y0245778D01*
X0202250Y0245687D01*
X0202294Y0245594D01*
X0202335Y0245499D01*
X0202371Y0245402D01*
X0202404Y0245305D01*
X0202434Y0245206D01*
X0202459Y0245106D01*
X0202481Y0245005D01*
X0202498Y0244903D01*
X0202512Y0244801D01*
X0202522Y0244698D01*
X0202528Y0244595D01*
X0202530Y0244492D01*
X0202528Y0244389D01*
X0202522Y0244286D01*
X0202512Y0244183D01*
X0202498Y0244081D01*
X0202481Y0243979D01*
X0202459Y0243878D01*
X0202434Y0243778D01*
X0202404Y0243679D01*
X0202371Y0243582D01*
X0202335Y0243485D01*
X0202294Y0243390D01*
X0202250Y0243297D01*
X0202203Y0243206D01*
X0202152Y0243116D01*
X0202097Y0243028D01*
X0202040Y0242943D01*
X0201979Y0242859D01*
X0201915Y0242779D01*
X0201847Y0242700D01*
X0201777Y0242625D01*
X0201704Y0242552D01*
X0201629Y0242482D01*
X0201550Y0242414D01*
X0201470Y0242350D01*
X0201386Y0242289D01*
X0201301Y0242232D01*
X0201213Y0242177D01*
X0201123Y0242126D01*
X0201032Y0242079D01*
X0200939Y0242035D01*
X0200844Y0241994D01*
X0200747Y0241958D01*
X0200650Y0241925D01*
X0200551Y0241895D01*
X0200451Y0241870D01*
X0200350Y0241848D01*
X0200248Y0241831D01*
X0200146Y0241817D01*
X0200043Y0241807D01*
X0199940Y0241801D01*
X0199837Y0241799D01*
X0199734Y0241801D01*
X0199631Y0241807D01*
X0199528Y0241817D01*
X0199426Y0241831D01*
X0199324Y0241848D01*
X0199223Y0241870D01*
X0199123Y0241895D01*
X0199024Y0241925D01*
X0198927Y0241958D01*
X0198830Y0241994D01*
X0198735Y0242035D01*
X0198642Y0242079D01*
X0198551Y0242126D01*
X0198461Y0242177D01*
X0198373Y0242232D01*
X0198288Y0242289D01*
X0198204Y0242350D01*
X0198124Y0242414D01*
X0198045Y0242482D01*
X0197970Y0242552D01*
X0197897Y0242625D01*
X0197827Y0242700D01*
X0197759Y0242779D01*
X0197695Y0242859D01*
X0197634Y0242943D01*
X0197577Y0243028D01*
X0197522Y0243116D01*
X0197471Y0243206D01*
X0197424Y0243297D01*
X0197380Y0243390D01*
X0197339Y0243485D01*
X0197303Y0243582D01*
X0197270Y0243679D01*
X0197240Y0243778D01*
X0197215Y0243878D01*
X0197193Y0243979D01*
X0197176Y0244081D01*
X0197162Y0244183D01*
X0197152Y0244286D01*
X0197146Y0244389D01*
X0197144Y0244492D01*
X0199130Y0244492D02*
X0199132Y0244545D01*
X0199138Y0244597D01*
X0199148Y0244649D01*
X0199161Y0244700D01*
X0199179Y0244750D01*
X0199200Y0244799D01*
X0199225Y0244846D01*
X0199253Y0244890D01*
X0199284Y0244933D01*
X0199319Y0244973D01*
X0199356Y0245010D01*
X0199396Y0245045D01*
X0199439Y0245076D01*
X0199484Y0245104D01*
X0199530Y0245129D01*
X0199579Y0245150D01*
X0199629Y0245168D01*
X0199680Y0245181D01*
X0199732Y0245191D01*
X0199784Y0245197D01*
X0199837Y0245199D01*
X0199890Y0245197D01*
X0199942Y0245191D01*
X0199994Y0245181D01*
X0200045Y0245168D01*
X0200095Y0245150D01*
X0200144Y0245129D01*
X0200191Y0245104D01*
X0200235Y0245076D01*
X0200278Y0245045D01*
X0200318Y0245010D01*
X0200355Y0244973D01*
X0200390Y0244933D01*
X0200421Y0244890D01*
X0200449Y0244845D01*
X0200474Y0244799D01*
X0200495Y0244750D01*
X0200513Y0244700D01*
X0200526Y0244649D01*
X0200536Y0244597D01*
X0200542Y0244545D01*
X0200544Y0244492D01*
X0200542Y0244439D01*
X0200536Y0244387D01*
X0200526Y0244335D01*
X0200513Y0244284D01*
X0200495Y0244234D01*
X0200474Y0244185D01*
X0200449Y0244138D01*
X0200421Y0244094D01*
X0200390Y0244051D01*
X0200355Y0244011D01*
X0200318Y0243974D01*
X0200278Y0243939D01*
X0200235Y0243908D01*
X0200190Y0243880D01*
X0200144Y0243855D01*
X0200095Y0243834D01*
X0200045Y0243816D01*
X0199994Y0243803D01*
X0199942Y0243793D01*
X0199890Y0243787D01*
X0199837Y0243785D01*
X0199784Y0243787D01*
X0199732Y0243793D01*
X0199680Y0243803D01*
X0199629Y0243816D01*
X0199579Y0243834D01*
X0199530Y0243855D01*
X0199483Y0243880D01*
X0199439Y0243908D01*
X0199396Y0243939D01*
X0199356Y0243974D01*
X0199319Y0244011D01*
X0199284Y0244051D01*
X0199253Y0244094D01*
X0199225Y0244139D01*
X0199200Y0244185D01*
X0199179Y0244234D01*
X0199161Y0244284D01*
X0199148Y0244335D01*
X0199138Y0244387D01*
X0199132Y0244439D01*
X0199130Y0244492D01*
X0197144Y0244492D02*
X0197146Y0244595D01*
X0197152Y0244698D01*
X0197162Y0244801D01*
X0197176Y0244903D01*
X0197193Y0245005D01*
X0197215Y0245106D01*
X0197240Y0245206D01*
X0197270Y0245305D01*
X0197303Y0245402D01*
X0197339Y0245499D01*
X0197380Y0245594D01*
X0197424Y0245687D01*
X0197471Y0245778D01*
X0197522Y0245868D01*
X0197577Y0245956D01*
X0197634Y0246041D01*
X0197695Y0246125D01*
X0197759Y0246205D01*
X0197827Y0246284D01*
X0197897Y0246359D01*
X0197970Y0246432D01*
X0198045Y0246502D01*
X0198124Y0246570D01*
X0198204Y0246634D01*
X0198288Y0246695D01*
X0198373Y0246752D01*
X0198461Y0246807D01*
X0198551Y0246858D01*
X0198642Y0246905D01*
X0198735Y0246949D01*
X0198830Y0246990D01*
X0198927Y0247026D01*
X0199024Y0247059D01*
X0199123Y0247089D01*
X0199223Y0247114D01*
X0199324Y0247136D01*
X0199426Y0247153D01*
X0199528Y0247167D01*
X0199631Y0247177D01*
X0199734Y0247183D01*
X0199837Y0247185D01*
X0199940Y0247183D01*
X0200043Y0247177D01*
X0200146Y0247167D01*
X0200248Y0247153D01*
X0200350Y0247136D01*
X0200451Y0247114D01*
X0200551Y0247089D01*
X0200650Y0247059D01*
X0200747Y0247026D01*
X0200844Y0246990D01*
X0200939Y0246949D01*
X0201032Y0246905D01*
X0201123Y0246858D01*
X0201213Y0246807D01*
X0201301Y0246752D01*
X0201386Y0246695D01*
X0201470Y0246634D01*
X0201550Y0246570D01*
X0201629Y0246502D01*
X0201704Y0246432D01*
X0201777Y0246359D01*
X0201847Y0246284D01*
X0201915Y0246205D01*
X0201979Y0246125D01*
X0202040Y0246041D01*
X0202097Y0245956D01*
X0202152Y0245868D01*
X0202203Y0245778D01*
X0202250Y0245687D01*
X0202294Y0245594D01*
X0202335Y0245499D01*
X0202371Y0245402D01*
X0202404Y0245305D01*
X0202434Y0245206D01*
X0202459Y0245106D01*
X0202481Y0245005D01*
X0202498Y0244903D01*
X0202512Y0244801D01*
X0202522Y0244698D01*
X0202528Y0244595D01*
X0202530Y0244492D01*
X0202528Y0244389D01*
X0202522Y0244286D01*
X0202512Y0244183D01*
X0202498Y0244081D01*
X0202481Y0243979D01*
X0202459Y0243878D01*
X0202434Y0243778D01*
X0202404Y0243679D01*
X0202371Y0243582D01*
X0202335Y0243485D01*
X0202294Y0243390D01*
X0202250Y0243297D01*
X0202203Y0243206D01*
X0202152Y0243116D01*
X0202097Y0243028D01*
X0202040Y0242943D01*
X0201979Y0242859D01*
X0201915Y0242779D01*
X0201847Y0242700D01*
X0201777Y0242625D01*
X0201704Y0242552D01*
X0201629Y0242482D01*
X0201550Y0242414D01*
X0201470Y0242350D01*
X0201386Y0242289D01*
X0201301Y0242232D01*
X0201213Y0242177D01*
X0201123Y0242126D01*
X0201032Y0242079D01*
X0200939Y0242035D01*
X0200844Y0241994D01*
X0200747Y0241958D01*
X0200650Y0241925D01*
X0200551Y0241895D01*
X0200451Y0241870D01*
X0200350Y0241848D01*
X0200248Y0241831D01*
X0200146Y0241817D01*
X0200043Y0241807D01*
X0199940Y0241801D01*
X0199837Y0241799D01*
X0199734Y0241801D01*
X0199631Y0241807D01*
X0199528Y0241817D01*
X0199426Y0241831D01*
X0199324Y0241848D01*
X0199223Y0241870D01*
X0199123Y0241895D01*
X0199024Y0241925D01*
X0198927Y0241958D01*
X0198830Y0241994D01*
X0198735Y0242035D01*
X0198642Y0242079D01*
X0198551Y0242126D01*
X0198461Y0242177D01*
X0198373Y0242232D01*
X0198288Y0242289D01*
X0198204Y0242350D01*
X0198124Y0242414D01*
X0198045Y0242482D01*
X0197970Y0242552D01*
X0197897Y0242625D01*
X0197827Y0242700D01*
X0197759Y0242779D01*
X0197695Y0242859D01*
X0197634Y0242943D01*
X0197577Y0243028D01*
X0197522Y0243116D01*
X0197471Y0243206D01*
X0197424Y0243297D01*
X0197380Y0243390D01*
X0197339Y0243485D01*
X0197303Y0243582D01*
X0197270Y0243679D01*
X0197240Y0243778D01*
X0197215Y0243878D01*
X0197193Y0243979D01*
X0197176Y0244081D01*
X0197162Y0244183D01*
X0197152Y0244286D01*
X0197146Y0244389D01*
X0197144Y0244492D01*
X0195837Y0248492D02*
X0195732Y0248385D01*
X0195631Y0248275D01*
X0195532Y0248162D01*
X0195436Y0248047D01*
X0195344Y0247929D01*
X0195255Y0247809D01*
X0195168Y0247687D01*
X0195085Y0247562D01*
X0195006Y0247435D01*
X0194930Y0247306D01*
X0194857Y0247175D01*
X0194788Y0247042D01*
X0194722Y0246908D01*
X0194660Y0246772D01*
X0194601Y0246634D01*
X0194546Y0246494D01*
X0194495Y0246354D01*
X0194448Y0246212D01*
X0194404Y0246068D01*
X0194364Y0245924D01*
X0194328Y0245779D01*
X0194296Y0245632D01*
X0194268Y0245485D01*
X0194244Y0245337D01*
X0194223Y0245189D01*
X0194207Y0245040D01*
X0194194Y0244891D01*
X0194186Y0244742D01*
X0194181Y0244592D01*
X0194180Y0244442D01*
X0194184Y0244292D01*
X0194191Y0244143D01*
X0194202Y0243993D01*
X0194217Y0243844D01*
X0194236Y0243696D01*
X0194259Y0243548D01*
X0194286Y0243401D01*
X0194317Y0243254D01*
X0194352Y0243108D01*
X0194390Y0242964D01*
X0194433Y0242820D01*
X0194479Y0242678D01*
X0194529Y0242536D01*
X0194582Y0242397D01*
X0194640Y0242258D01*
X0194701Y0242121D01*
X0194765Y0241986D01*
X0194833Y0241853D01*
X0194905Y0241721D01*
X0194980Y0241592D01*
X0195058Y0241464D01*
X0195140Y0241339D01*
X0195225Y0241216D01*
X0195314Y0241095D01*
X0195405Y0240976D01*
X0195500Y0240860D01*
X0195598Y0240746D01*
X0195698Y0240636D01*
X0195802Y0240527D01*
X0195908Y0240422D01*
X0196017Y0240319D01*
X0196129Y0240220D01*
X0196243Y0240123D01*
X0196360Y0240029D01*
X0196480Y0239939D01*
X0196601Y0239852D01*
X0196725Y0239768D01*
X0196851Y0239687D01*
X0196980Y0239610D01*
X0197110Y0239536D01*
X0197242Y0239465D01*
X0197376Y0239398D01*
X0197512Y0239335D01*
X0197649Y0239275D01*
X0197788Y0239219D01*
X0197928Y0239167D01*
X0198070Y0239118D01*
X0198213Y0239073D01*
X0198357Y0239032D01*
X0198502Y0238995D01*
X0198648Y0238961D01*
X0198795Y0238932D01*
X0198942Y0238906D01*
X0199090Y0238884D01*
X0199239Y0238867D01*
X0199388Y0238853D01*
X0199538Y0238843D01*
X0199687Y0238837D01*
X0199837Y0238835D01*
X0199987Y0238837D01*
X0200136Y0238843D01*
X0200286Y0238853D01*
X0200435Y0238867D01*
X0200584Y0238884D01*
X0200732Y0238906D01*
X0200879Y0238932D01*
X0201026Y0238961D01*
X0201172Y0238995D01*
X0201317Y0239032D01*
X0201461Y0239073D01*
X0201604Y0239118D01*
X0201746Y0239167D01*
X0201886Y0239219D01*
X0202025Y0239275D01*
X0202162Y0239335D01*
X0202298Y0239398D01*
X0202432Y0239465D01*
X0202564Y0239536D01*
X0202694Y0239610D01*
X0202823Y0239687D01*
X0202949Y0239768D01*
X0203073Y0239852D01*
X0203194Y0239939D01*
X0203314Y0240029D01*
X0203431Y0240123D01*
X0203545Y0240220D01*
X0203657Y0240319D01*
X0203766Y0240422D01*
X0203872Y0240527D01*
X0203976Y0240636D01*
X0204076Y0240746D01*
X0204174Y0240860D01*
X0204269Y0240976D01*
X0204360Y0241095D01*
X0204449Y0241216D01*
X0204534Y0241339D01*
X0204616Y0241464D01*
X0204694Y0241592D01*
X0204769Y0241721D01*
X0204841Y0241853D01*
X0204909Y0241986D01*
X0204973Y0242121D01*
X0205034Y0242258D01*
X0205092Y0242397D01*
X0205145Y0242536D01*
X0205195Y0242678D01*
X0205241Y0242820D01*
X0205284Y0242964D01*
X0205322Y0243108D01*
X0205357Y0243254D01*
X0205388Y0243401D01*
X0205415Y0243548D01*
X0205438Y0243696D01*
X0205457Y0243844D01*
X0205472Y0243993D01*
X0205483Y0244143D01*
X0205490Y0244292D01*
X0205494Y0244442D01*
X0205493Y0244592D01*
X0205488Y0244742D01*
X0205480Y0244891D01*
X0205467Y0245040D01*
X0205451Y0245189D01*
X0205430Y0245337D01*
X0205406Y0245485D01*
X0205378Y0245632D01*
X0205346Y0245779D01*
X0205310Y0245924D01*
X0205270Y0246068D01*
X0205226Y0246212D01*
X0205179Y0246354D01*
X0205128Y0246494D01*
X0205073Y0246634D01*
X0205014Y0246772D01*
X0204952Y0246908D01*
X0204886Y0247042D01*
X0204817Y0247175D01*
X0204744Y0247306D01*
X0204668Y0247435D01*
X0204589Y0247562D01*
X0204506Y0247687D01*
X0204419Y0247809D01*
X0204330Y0247929D01*
X0204238Y0248047D01*
X0204142Y0248162D01*
X0204043Y0248275D01*
X0203942Y0248385D01*
X0203837Y0248492D01*
X0200837Y0248992D02*
X0199837Y0247492D01*
X0198837Y0248992D01*
X0199837Y0247492D02*
X0199837Y0255492D01*
X0199837Y0256492D02*
X0199837Y0260492D01*
X0196922Y0258492D02*
X0196924Y0258600D01*
X0196930Y0258707D01*
X0196940Y0258815D01*
X0196954Y0258921D01*
X0196972Y0259028D01*
X0196993Y0259133D01*
X0197019Y0259238D01*
X0197048Y0259341D01*
X0197082Y0259444D01*
X0197119Y0259545D01*
X0197160Y0259645D01*
X0197204Y0259743D01*
X0197252Y0259839D01*
X0197304Y0259934D01*
X0197359Y0260027D01*
X0197417Y0260117D01*
X0197479Y0260205D01*
X0197544Y0260291D01*
X0197612Y0260375D01*
X0197683Y0260456D01*
X0197757Y0260534D01*
X0197834Y0260610D01*
X0197913Y0260682D01*
X0197996Y0260752D01*
X0198080Y0260818D01*
X0198167Y0260882D01*
X0198257Y0260942D01*
X0198349Y0260998D01*
X0198442Y0261052D01*
X0198538Y0261101D01*
X0198635Y0261148D01*
X0198734Y0261190D01*
X0198834Y0261229D01*
X0198936Y0261264D01*
X0199039Y0261296D01*
X0199143Y0261323D01*
X0199249Y0261347D01*
X0199354Y0261367D01*
X0199461Y0261383D01*
X0199568Y0261395D01*
X0199675Y0261403D01*
X0199783Y0261407D01*
X0199891Y0261407D01*
X0199999Y0261403D01*
X0200106Y0261395D01*
X0200213Y0261383D01*
X0200320Y0261367D01*
X0200425Y0261347D01*
X0200531Y0261323D01*
X0200635Y0261296D01*
X0200738Y0261264D01*
X0200840Y0261229D01*
X0200940Y0261190D01*
X0201039Y0261148D01*
X0201136Y0261101D01*
X0201232Y0261052D01*
X0201325Y0260998D01*
X0201417Y0260942D01*
X0201507Y0260882D01*
X0201594Y0260818D01*
X0201678Y0260752D01*
X0201761Y0260682D01*
X0201840Y0260610D01*
X0201917Y0260534D01*
X0201991Y0260456D01*
X0202062Y0260375D01*
X0202130Y0260291D01*
X0202195Y0260205D01*
X0202257Y0260117D01*
X0202315Y0260027D01*
X0202370Y0259934D01*
X0202422Y0259839D01*
X0202470Y0259743D01*
X0202514Y0259645D01*
X0202555Y0259545D01*
X0202592Y0259444D01*
X0202626Y0259341D01*
X0202655Y0259238D01*
X0202681Y0259133D01*
X0202702Y0259028D01*
X0202720Y0258921D01*
X0202734Y0258815D01*
X0202744Y0258707D01*
X0202750Y0258600D01*
X0202752Y0258492D01*
X0202750Y0258384D01*
X0202744Y0258277D01*
X0202734Y0258169D01*
X0202720Y0258063D01*
X0202702Y0257956D01*
X0202681Y0257851D01*
X0202655Y0257746D01*
X0202626Y0257643D01*
X0202592Y0257540D01*
X0202555Y0257439D01*
X0202514Y0257339D01*
X0202470Y0257241D01*
X0202422Y0257145D01*
X0202370Y0257050D01*
X0202315Y0256957D01*
X0202257Y0256867D01*
X0202195Y0256779D01*
X0202130Y0256693D01*
X0202062Y0256609D01*
X0201991Y0256528D01*
X0201917Y0256450D01*
X0201840Y0256374D01*
X0201761Y0256302D01*
X0201678Y0256232D01*
X0201594Y0256166D01*
X0201507Y0256102D01*
X0201417Y0256042D01*
X0201325Y0255986D01*
X0201232Y0255932D01*
X0201136Y0255883D01*
X0201039Y0255836D01*
X0200940Y0255794D01*
X0200840Y0255755D01*
X0200738Y0255720D01*
X0200635Y0255688D01*
X0200531Y0255661D01*
X0200425Y0255637D01*
X0200320Y0255617D01*
X0200213Y0255601D01*
X0200106Y0255589D01*
X0199999Y0255581D01*
X0199891Y0255577D01*
X0199783Y0255577D01*
X0199675Y0255581D01*
X0199568Y0255589D01*
X0199461Y0255601D01*
X0199354Y0255617D01*
X0199249Y0255637D01*
X0199143Y0255661D01*
X0199039Y0255688D01*
X0198936Y0255720D01*
X0198834Y0255755D01*
X0198734Y0255794D01*
X0198635Y0255836D01*
X0198538Y0255883D01*
X0198442Y0255932D01*
X0198349Y0255986D01*
X0198257Y0256042D01*
X0198167Y0256102D01*
X0198080Y0256166D01*
X0197996Y0256232D01*
X0197913Y0256302D01*
X0197834Y0256374D01*
X0197757Y0256450D01*
X0197683Y0256528D01*
X0197612Y0256609D01*
X0197544Y0256693D01*
X0197479Y0256779D01*
X0197417Y0256867D01*
X0197359Y0256957D01*
X0197304Y0257050D01*
X0197252Y0257145D01*
X0197204Y0257241D01*
X0197160Y0257339D01*
X0197119Y0257439D01*
X0197082Y0257540D01*
X0197048Y0257643D01*
X0197019Y0257746D01*
X0196993Y0257851D01*
X0196972Y0257956D01*
X0196954Y0258063D01*
X0196940Y0258169D01*
X0196930Y0258277D01*
X0196924Y0258384D01*
X0196922Y0258492D01*
X0197837Y0258492D02*
X0201837Y0258492D01*
X0196922Y0258492D02*
X0196924Y0258600D01*
X0196930Y0258707D01*
X0196940Y0258815D01*
X0196954Y0258921D01*
X0196972Y0259028D01*
X0196993Y0259133D01*
X0197019Y0259238D01*
X0197048Y0259341D01*
X0197082Y0259444D01*
X0197119Y0259545D01*
X0197160Y0259645D01*
X0197204Y0259743D01*
X0197252Y0259839D01*
X0197304Y0259934D01*
X0197359Y0260027D01*
X0197417Y0260117D01*
X0197479Y0260205D01*
X0197544Y0260291D01*
X0197612Y0260375D01*
X0197683Y0260456D01*
X0197757Y0260534D01*
X0197834Y0260610D01*
X0197913Y0260682D01*
X0197996Y0260752D01*
X0198080Y0260818D01*
X0198167Y0260882D01*
X0198257Y0260942D01*
X0198349Y0260998D01*
X0198442Y0261052D01*
X0198538Y0261101D01*
X0198635Y0261148D01*
X0198734Y0261190D01*
X0198834Y0261229D01*
X0198936Y0261264D01*
X0199039Y0261296D01*
X0199143Y0261323D01*
X0199249Y0261347D01*
X0199354Y0261367D01*
X0199461Y0261383D01*
X0199568Y0261395D01*
X0199675Y0261403D01*
X0199783Y0261407D01*
X0199891Y0261407D01*
X0199999Y0261403D01*
X0200106Y0261395D01*
X0200213Y0261383D01*
X0200320Y0261367D01*
X0200425Y0261347D01*
X0200531Y0261323D01*
X0200635Y0261296D01*
X0200738Y0261264D01*
X0200840Y0261229D01*
X0200940Y0261190D01*
X0201039Y0261148D01*
X0201136Y0261101D01*
X0201232Y0261052D01*
X0201325Y0260998D01*
X0201417Y0260942D01*
X0201507Y0260882D01*
X0201594Y0260818D01*
X0201678Y0260752D01*
X0201761Y0260682D01*
X0201840Y0260610D01*
X0201917Y0260534D01*
X0201991Y0260456D01*
X0202062Y0260375D01*
X0202130Y0260291D01*
X0202195Y0260205D01*
X0202257Y0260117D01*
X0202315Y0260027D01*
X0202370Y0259934D01*
X0202422Y0259839D01*
X0202470Y0259743D01*
X0202514Y0259645D01*
X0202555Y0259545D01*
X0202592Y0259444D01*
X0202626Y0259341D01*
X0202655Y0259238D01*
X0202681Y0259133D01*
X0202702Y0259028D01*
X0202720Y0258921D01*
X0202734Y0258815D01*
X0202744Y0258707D01*
X0202750Y0258600D01*
X0202752Y0258492D01*
X0202750Y0258384D01*
X0202744Y0258277D01*
X0202734Y0258169D01*
X0202720Y0258063D01*
X0202702Y0257956D01*
X0202681Y0257851D01*
X0202655Y0257746D01*
X0202626Y0257643D01*
X0202592Y0257540D01*
X0202555Y0257439D01*
X0202514Y0257339D01*
X0202470Y0257241D01*
X0202422Y0257145D01*
X0202370Y0257050D01*
X0202315Y0256957D01*
X0202257Y0256867D01*
X0202195Y0256779D01*
X0202130Y0256693D01*
X0202062Y0256609D01*
X0201991Y0256528D01*
X0201917Y0256450D01*
X0201840Y0256374D01*
X0201761Y0256302D01*
X0201678Y0256232D01*
X0201594Y0256166D01*
X0201507Y0256102D01*
X0201417Y0256042D01*
X0201325Y0255986D01*
X0201232Y0255932D01*
X0201136Y0255883D01*
X0201039Y0255836D01*
X0200940Y0255794D01*
X0200840Y0255755D01*
X0200738Y0255720D01*
X0200635Y0255688D01*
X0200531Y0255661D01*
X0200425Y0255637D01*
X0200320Y0255617D01*
X0200213Y0255601D01*
X0200106Y0255589D01*
X0199999Y0255581D01*
X0199891Y0255577D01*
X0199783Y0255577D01*
X0199675Y0255581D01*
X0199568Y0255589D01*
X0199461Y0255601D01*
X0199354Y0255617D01*
X0199249Y0255637D01*
X0199143Y0255661D01*
X0199039Y0255688D01*
X0198936Y0255720D01*
X0198834Y0255755D01*
X0198734Y0255794D01*
X0198635Y0255836D01*
X0198538Y0255883D01*
X0198442Y0255932D01*
X0198349Y0255986D01*
X0198257Y0256042D01*
X0198167Y0256102D01*
X0198080Y0256166D01*
X0197996Y0256232D01*
X0197913Y0256302D01*
X0197834Y0256374D01*
X0197757Y0256450D01*
X0197683Y0256528D01*
X0197612Y0256609D01*
X0197544Y0256693D01*
X0197479Y0256779D01*
X0197417Y0256867D01*
X0197359Y0256957D01*
X0197304Y0257050D01*
X0197252Y0257145D01*
X0197204Y0257241D01*
X0197160Y0257339D01*
X0197119Y0257439D01*
X0197082Y0257540D01*
X0197048Y0257643D01*
X0197019Y0257746D01*
X0196993Y0257851D01*
X0196972Y0257956D01*
X0196954Y0258063D01*
X0196940Y0258169D01*
X0196930Y0258277D01*
X0196924Y0258384D01*
X0196922Y0258492D01*
X0195837Y0248492D02*
X0195732Y0248385D01*
X0195631Y0248275D01*
X0195532Y0248162D01*
X0195436Y0248047D01*
X0195344Y0247929D01*
X0195255Y0247809D01*
X0195168Y0247687D01*
X0195085Y0247562D01*
X0195006Y0247435D01*
X0194930Y0247306D01*
X0194857Y0247175D01*
X0194788Y0247042D01*
X0194722Y0246908D01*
X0194660Y0246772D01*
X0194601Y0246634D01*
X0194546Y0246494D01*
X0194495Y0246354D01*
X0194448Y0246212D01*
X0194404Y0246068D01*
X0194364Y0245924D01*
X0194328Y0245779D01*
X0194296Y0245632D01*
X0194268Y0245485D01*
X0194244Y0245337D01*
X0194223Y0245189D01*
X0194207Y0245040D01*
X0194194Y0244891D01*
X0194186Y0244742D01*
X0194181Y0244592D01*
X0194180Y0244442D01*
X0194184Y0244292D01*
X0194191Y0244143D01*
X0194202Y0243993D01*
X0194217Y0243844D01*
X0194236Y0243696D01*
X0194259Y0243548D01*
X0194286Y0243401D01*
X0194317Y0243254D01*
X0194352Y0243108D01*
X0194390Y0242964D01*
X0194433Y0242820D01*
X0194479Y0242678D01*
X0194529Y0242536D01*
X0194582Y0242397D01*
X0194640Y0242258D01*
X0194701Y0242121D01*
X0194765Y0241986D01*
X0194833Y0241853D01*
X0194905Y0241721D01*
X0194980Y0241592D01*
X0195058Y0241464D01*
X0195140Y0241339D01*
X0195225Y0241216D01*
X0195314Y0241095D01*
X0195405Y0240976D01*
X0195500Y0240860D01*
X0195598Y0240746D01*
X0195698Y0240636D01*
X0195802Y0240527D01*
X0195908Y0240422D01*
X0196017Y0240319D01*
X0196129Y0240220D01*
X0196243Y0240123D01*
X0196360Y0240029D01*
X0196480Y0239939D01*
X0196601Y0239852D01*
X0196725Y0239768D01*
X0196851Y0239687D01*
X0196980Y0239610D01*
X0197110Y0239536D01*
X0197242Y0239465D01*
X0197376Y0239398D01*
X0197512Y0239335D01*
X0197649Y0239275D01*
X0197788Y0239219D01*
X0197928Y0239167D01*
X0198070Y0239118D01*
X0198213Y0239073D01*
X0198357Y0239032D01*
X0198502Y0238995D01*
X0198648Y0238961D01*
X0198795Y0238932D01*
X0198942Y0238906D01*
X0199090Y0238884D01*
X0199239Y0238867D01*
X0199388Y0238853D01*
X0199538Y0238843D01*
X0199687Y0238837D01*
X0199837Y0238835D01*
X0199987Y0238837D01*
X0200136Y0238843D01*
X0200286Y0238853D01*
X0200435Y0238867D01*
X0200584Y0238884D01*
X0200732Y0238906D01*
X0200879Y0238932D01*
X0201026Y0238961D01*
X0201172Y0238995D01*
X0201317Y0239032D01*
X0201461Y0239073D01*
X0201604Y0239118D01*
X0201746Y0239167D01*
X0201886Y0239219D01*
X0202025Y0239275D01*
X0202162Y0239335D01*
X0202298Y0239398D01*
X0202432Y0239465D01*
X0202564Y0239536D01*
X0202694Y0239610D01*
X0202823Y0239687D01*
X0202949Y0239768D01*
X0203073Y0239852D01*
X0203194Y0239939D01*
X0203314Y0240029D01*
X0203431Y0240123D01*
X0203545Y0240220D01*
X0203657Y0240319D01*
X0203766Y0240422D01*
X0203872Y0240527D01*
X0203976Y0240636D01*
X0204076Y0240746D01*
X0204174Y0240860D01*
X0204269Y0240976D01*
X0204360Y0241095D01*
X0204449Y0241216D01*
X0204534Y0241339D01*
X0204616Y0241464D01*
X0204694Y0241592D01*
X0204769Y0241721D01*
X0204841Y0241853D01*
X0204909Y0241986D01*
X0204973Y0242121D01*
X0205034Y0242258D01*
X0205092Y0242397D01*
X0205145Y0242536D01*
X0205195Y0242678D01*
X0205241Y0242820D01*
X0205284Y0242964D01*
X0205322Y0243108D01*
X0205357Y0243254D01*
X0205388Y0243401D01*
X0205415Y0243548D01*
X0205438Y0243696D01*
X0205457Y0243844D01*
X0205472Y0243993D01*
X0205483Y0244143D01*
X0205490Y0244292D01*
X0205494Y0244442D01*
X0205493Y0244592D01*
X0205488Y0244742D01*
X0205480Y0244891D01*
X0205467Y0245040D01*
X0205451Y0245189D01*
X0205430Y0245337D01*
X0205406Y0245485D01*
X0205378Y0245632D01*
X0205346Y0245779D01*
X0205310Y0245924D01*
X0205270Y0246068D01*
X0205226Y0246212D01*
X0205179Y0246354D01*
X0205128Y0246494D01*
X0205073Y0246634D01*
X0205014Y0246772D01*
X0204952Y0246908D01*
X0204886Y0247042D01*
X0204817Y0247175D01*
X0204744Y0247306D01*
X0204668Y0247435D01*
X0204589Y0247562D01*
X0204506Y0247687D01*
X0204419Y0247809D01*
X0204330Y0247929D01*
X0204238Y0248047D01*
X0204142Y0248162D01*
X0204043Y0248275D01*
X0203942Y0248385D01*
X0203837Y0248492D01*
X0196922Y0226492D02*
X0196924Y0226600D01*
X0196930Y0226707D01*
X0196940Y0226815D01*
X0196954Y0226921D01*
X0196972Y0227028D01*
X0196993Y0227133D01*
X0197019Y0227238D01*
X0197048Y0227341D01*
X0197082Y0227444D01*
X0197119Y0227545D01*
X0197160Y0227645D01*
X0197204Y0227743D01*
X0197252Y0227839D01*
X0197304Y0227934D01*
X0197359Y0228027D01*
X0197417Y0228117D01*
X0197479Y0228205D01*
X0197544Y0228291D01*
X0197612Y0228375D01*
X0197683Y0228456D01*
X0197757Y0228534D01*
X0197834Y0228610D01*
X0197913Y0228682D01*
X0197996Y0228752D01*
X0198080Y0228818D01*
X0198167Y0228882D01*
X0198257Y0228942D01*
X0198349Y0228998D01*
X0198442Y0229052D01*
X0198538Y0229101D01*
X0198635Y0229148D01*
X0198734Y0229190D01*
X0198834Y0229229D01*
X0198936Y0229264D01*
X0199039Y0229296D01*
X0199143Y0229323D01*
X0199249Y0229347D01*
X0199354Y0229367D01*
X0199461Y0229383D01*
X0199568Y0229395D01*
X0199675Y0229403D01*
X0199783Y0229407D01*
X0199891Y0229407D01*
X0199999Y0229403D01*
X0200106Y0229395D01*
X0200213Y0229383D01*
X0200320Y0229367D01*
X0200425Y0229347D01*
X0200531Y0229323D01*
X0200635Y0229296D01*
X0200738Y0229264D01*
X0200840Y0229229D01*
X0200940Y0229190D01*
X0201039Y0229148D01*
X0201136Y0229101D01*
X0201232Y0229052D01*
X0201325Y0228998D01*
X0201417Y0228942D01*
X0201507Y0228882D01*
X0201594Y0228818D01*
X0201678Y0228752D01*
X0201761Y0228682D01*
X0201840Y0228610D01*
X0201917Y0228534D01*
X0201991Y0228456D01*
X0202062Y0228375D01*
X0202130Y0228291D01*
X0202195Y0228205D01*
X0202257Y0228117D01*
X0202315Y0228027D01*
X0202370Y0227934D01*
X0202422Y0227839D01*
X0202470Y0227743D01*
X0202514Y0227645D01*
X0202555Y0227545D01*
X0202592Y0227444D01*
X0202626Y0227341D01*
X0202655Y0227238D01*
X0202681Y0227133D01*
X0202702Y0227028D01*
X0202720Y0226921D01*
X0202734Y0226815D01*
X0202744Y0226707D01*
X0202750Y0226600D01*
X0202752Y0226492D01*
X0202750Y0226384D01*
X0202744Y0226277D01*
X0202734Y0226169D01*
X0202720Y0226063D01*
X0202702Y0225956D01*
X0202681Y0225851D01*
X0202655Y0225746D01*
X0202626Y0225643D01*
X0202592Y0225540D01*
X0202555Y0225439D01*
X0202514Y0225339D01*
X0202470Y0225241D01*
X0202422Y0225145D01*
X0202370Y0225050D01*
X0202315Y0224957D01*
X0202257Y0224867D01*
X0202195Y0224779D01*
X0202130Y0224693D01*
X0202062Y0224609D01*
X0201991Y0224528D01*
X0201917Y0224450D01*
X0201840Y0224374D01*
X0201761Y0224302D01*
X0201678Y0224232D01*
X0201594Y0224166D01*
X0201507Y0224102D01*
X0201417Y0224042D01*
X0201325Y0223986D01*
X0201232Y0223932D01*
X0201136Y0223883D01*
X0201039Y0223836D01*
X0200940Y0223794D01*
X0200840Y0223755D01*
X0200738Y0223720D01*
X0200635Y0223688D01*
X0200531Y0223661D01*
X0200425Y0223637D01*
X0200320Y0223617D01*
X0200213Y0223601D01*
X0200106Y0223589D01*
X0199999Y0223581D01*
X0199891Y0223577D01*
X0199783Y0223577D01*
X0199675Y0223581D01*
X0199568Y0223589D01*
X0199461Y0223601D01*
X0199354Y0223617D01*
X0199249Y0223637D01*
X0199143Y0223661D01*
X0199039Y0223688D01*
X0198936Y0223720D01*
X0198834Y0223755D01*
X0198734Y0223794D01*
X0198635Y0223836D01*
X0198538Y0223883D01*
X0198442Y0223932D01*
X0198349Y0223986D01*
X0198257Y0224042D01*
X0198167Y0224102D01*
X0198080Y0224166D01*
X0197996Y0224232D01*
X0197913Y0224302D01*
X0197834Y0224374D01*
X0197757Y0224450D01*
X0197683Y0224528D01*
X0197612Y0224609D01*
X0197544Y0224693D01*
X0197479Y0224779D01*
X0197417Y0224867D01*
X0197359Y0224957D01*
X0197304Y0225050D01*
X0197252Y0225145D01*
X0197204Y0225241D01*
X0197160Y0225339D01*
X0197119Y0225439D01*
X0197082Y0225540D01*
X0197048Y0225643D01*
X0197019Y0225746D01*
X0196993Y0225851D01*
X0196972Y0225956D01*
X0196954Y0226063D01*
X0196940Y0226169D01*
X0196930Y0226277D01*
X0196924Y0226384D01*
X0196922Y0226492D01*
X0196924Y0226600D01*
X0196930Y0226707D01*
X0196940Y0226815D01*
X0196954Y0226921D01*
X0196972Y0227028D01*
X0196993Y0227133D01*
X0197019Y0227238D01*
X0197048Y0227341D01*
X0197082Y0227444D01*
X0197119Y0227545D01*
X0197160Y0227645D01*
X0197204Y0227743D01*
X0197252Y0227839D01*
X0197304Y0227934D01*
X0197359Y0228027D01*
X0197417Y0228117D01*
X0197479Y0228205D01*
X0197544Y0228291D01*
X0197612Y0228375D01*
X0197683Y0228456D01*
X0197757Y0228534D01*
X0197834Y0228610D01*
X0197913Y0228682D01*
X0197996Y0228752D01*
X0198080Y0228818D01*
X0198167Y0228882D01*
X0198257Y0228942D01*
X0198349Y0228998D01*
X0198442Y0229052D01*
X0198538Y0229101D01*
X0198635Y0229148D01*
X0198734Y0229190D01*
X0198834Y0229229D01*
X0198936Y0229264D01*
X0199039Y0229296D01*
X0199143Y0229323D01*
X0199249Y0229347D01*
X0199354Y0229367D01*
X0199461Y0229383D01*
X0199568Y0229395D01*
X0199675Y0229403D01*
X0199783Y0229407D01*
X0199891Y0229407D01*
X0199999Y0229403D01*
X0200106Y0229395D01*
X0200213Y0229383D01*
X0200320Y0229367D01*
X0200425Y0229347D01*
X0200531Y0229323D01*
X0200635Y0229296D01*
X0200738Y0229264D01*
X0200840Y0229229D01*
X0200940Y0229190D01*
X0201039Y0229148D01*
X0201136Y0229101D01*
X0201232Y0229052D01*
X0201325Y0228998D01*
X0201417Y0228942D01*
X0201507Y0228882D01*
X0201594Y0228818D01*
X0201678Y0228752D01*
X0201761Y0228682D01*
X0201840Y0228610D01*
X0201917Y0228534D01*
X0201991Y0228456D01*
X0202062Y0228375D01*
X0202130Y0228291D01*
X0202195Y0228205D01*
X0202257Y0228117D01*
X0202315Y0228027D01*
X0202370Y0227934D01*
X0202422Y0227839D01*
X0202470Y0227743D01*
X0202514Y0227645D01*
X0202555Y0227545D01*
X0202592Y0227444D01*
X0202626Y0227341D01*
X0202655Y0227238D01*
X0202681Y0227133D01*
X0202702Y0227028D01*
X0202720Y0226921D01*
X0202734Y0226815D01*
X0202744Y0226707D01*
X0202750Y0226600D01*
X0202752Y0226492D01*
X0202750Y0226384D01*
X0202744Y0226277D01*
X0202734Y0226169D01*
X0202720Y0226063D01*
X0202702Y0225956D01*
X0202681Y0225851D01*
X0202655Y0225746D01*
X0202626Y0225643D01*
X0202592Y0225540D01*
X0202555Y0225439D01*
X0202514Y0225339D01*
X0202470Y0225241D01*
X0202422Y0225145D01*
X0202370Y0225050D01*
X0202315Y0224957D01*
X0202257Y0224867D01*
X0202195Y0224779D01*
X0202130Y0224693D01*
X0202062Y0224609D01*
X0201991Y0224528D01*
X0201917Y0224450D01*
X0201840Y0224374D01*
X0201761Y0224302D01*
X0201678Y0224232D01*
X0201594Y0224166D01*
X0201507Y0224102D01*
X0201417Y0224042D01*
X0201325Y0223986D01*
X0201232Y0223932D01*
X0201136Y0223883D01*
X0201039Y0223836D01*
X0200940Y0223794D01*
X0200840Y0223755D01*
X0200738Y0223720D01*
X0200635Y0223688D01*
X0200531Y0223661D01*
X0200425Y0223637D01*
X0200320Y0223617D01*
X0200213Y0223601D01*
X0200106Y0223589D01*
X0199999Y0223581D01*
X0199891Y0223577D01*
X0199783Y0223577D01*
X0199675Y0223581D01*
X0199568Y0223589D01*
X0199461Y0223601D01*
X0199354Y0223617D01*
X0199249Y0223637D01*
X0199143Y0223661D01*
X0199039Y0223688D01*
X0198936Y0223720D01*
X0198834Y0223755D01*
X0198734Y0223794D01*
X0198635Y0223836D01*
X0198538Y0223883D01*
X0198442Y0223932D01*
X0198349Y0223986D01*
X0198257Y0224042D01*
X0198167Y0224102D01*
X0198080Y0224166D01*
X0197996Y0224232D01*
X0197913Y0224302D01*
X0197834Y0224374D01*
X0197757Y0224450D01*
X0197683Y0224528D01*
X0197612Y0224609D01*
X0197544Y0224693D01*
X0197479Y0224779D01*
X0197417Y0224867D01*
X0197359Y0224957D01*
X0197304Y0225050D01*
X0197252Y0225145D01*
X0197204Y0225241D01*
X0197160Y0225339D01*
X0197119Y0225439D01*
X0197082Y0225540D01*
X0197048Y0225643D01*
X0197019Y0225746D01*
X0196993Y0225851D01*
X0196972Y0225956D01*
X0196954Y0226063D01*
X0196940Y0226169D01*
X0196930Y0226277D01*
X0196924Y0226384D01*
X0196922Y0226492D01*
X0188660Y0215835D02*
X0153227Y0215835D01*
X0153227Y0273315D01*
X0188660Y0273315D01*
X0188660Y0215835D01*
X0135337Y0222492D02*
X0127337Y0222492D01*
X0127337Y0239492D01*
X0135337Y0239492D01*
X0135337Y0222492D01*
X0134837Y0217992D02*
X0134837Y0204992D01*
X0127837Y0204992D01*
X0127837Y0217992D01*
X0134837Y0217992D01*
X0120837Y0227492D02*
X0120837Y0236492D01*
X0119837Y0233492D02*
X0117337Y0230492D01*
X0115337Y0233492D01*
X0119337Y0232992D01*
X0117337Y0230992D01*
X0115837Y0233492D01*
X0118837Y0232992D01*
X0117337Y0231492D01*
X0116337Y0232992D01*
X0116837Y0232992D01*
X0117837Y0232492D01*
X0117337Y0232492D01*
X0117337Y0231992D02*
X0116837Y0232992D01*
X0118337Y0232992D01*
X0117837Y0232492D01*
X0117337Y0231992D01*
X0117337Y0230492D02*
X0114837Y0233492D01*
X0115337Y0233492D01*
X0115837Y0233492D01*
X0119837Y0233492D01*
X0113837Y0236492D02*
X0113837Y0227492D01*
X0110337Y0252692D02*
X0103537Y0252692D01*
X0103526Y0252740D02*
X0103526Y0271244D01*
X0127148Y0271244D01*
X0127148Y0252740D01*
X0127137Y0252692D02*
X0120337Y0252692D01*
X0120337Y0254692D01*
X0110337Y0254692D01*
X0110337Y0252692D01*
X0062591Y0181007D02*
X0058087Y0181007D01*
X0060339Y0181007D02*
X0060339Y0179506D01*
X0062591Y0178004D02*
X0062591Y0181007D01*
X0062591Y0176403D02*
X0058087Y0176403D01*
X0060339Y0176403D02*
X0060339Y0174902D01*
X0062591Y0173400D02*
X0062591Y0176403D01*
X0240203Y0245429D02*
X0240298Y0246134D01*
X0240411Y0246835D01*
X0240541Y0247534D01*
X0240688Y0248229D01*
X0240852Y0248921D01*
X0241034Y0249608D01*
X0241232Y0250291D01*
X0241446Y0250968D01*
X0241677Y0251640D01*
X0241925Y0252306D01*
X0242189Y0252966D01*
X0242469Y0253620D01*
X0242765Y0254266D01*
X0243076Y0254905D01*
X0243404Y0255535D01*
X0243746Y0256158D01*
X0244104Y0256772D01*
X0244477Y0257377D01*
X0244865Y0257973D01*
X0245267Y0258559D01*
X0245683Y0259135D01*
X0246113Y0259701D01*
X0246557Y0260256D01*
X0247015Y0260799D01*
X0247486Y0261332D01*
X0247969Y0261853D01*
X0248466Y0262361D01*
X0248974Y0262858D01*
X0249495Y0263341D01*
X0250027Y0263812D01*
X0250571Y0264270D01*
X0251126Y0264714D01*
X0251692Y0265144D01*
X0252268Y0265561D01*
X0252854Y0265963D01*
X0253449Y0266350D01*
X0254054Y0266723D01*
X0254668Y0267081D01*
X0255291Y0267424D01*
X0255922Y0267751D01*
X0256561Y0268063D01*
X0257207Y0268359D01*
X0257860Y0268639D01*
X0258520Y0268903D01*
X0259186Y0269151D01*
X0259858Y0269382D01*
X0260536Y0269597D01*
X0261218Y0269795D01*
X0261905Y0269976D01*
X0262597Y0270140D01*
X0263292Y0270287D01*
X0263991Y0270417D01*
X0264693Y0270530D01*
X0265397Y0270626D01*
X0266103Y0270704D01*
X0266811Y0270765D01*
X0267521Y0270809D01*
X0268231Y0270835D01*
X0268942Y0270844D01*
X0269652Y0270835D01*
X0270362Y0270809D01*
X0271072Y0270766D01*
X0271780Y0270705D01*
X0272486Y0270626D01*
X0266582Y0270626D02*
X0267272Y0270699D01*
X0267964Y0270755D01*
X0268658Y0270794D01*
X0269352Y0270816D01*
X0270046Y0270822D01*
X0270741Y0270811D01*
X0271435Y0270782D01*
X0272128Y0270738D01*
X0272820Y0270676D01*
X0273510Y0270598D01*
X0274198Y0270503D01*
X0274883Y0270392D01*
X0275566Y0270264D01*
X0276245Y0270119D01*
X0276921Y0269958D01*
X0277592Y0269781D01*
X0278259Y0269588D01*
X0278921Y0269379D01*
X0279578Y0269153D01*
X0280230Y0268912D01*
X0280875Y0268655D01*
X0281514Y0268383D01*
X0282146Y0268096D01*
X0282771Y0267793D01*
X0283388Y0267475D01*
X0283998Y0267142D01*
X0284600Y0266795D01*
X0285192Y0266433D01*
X0285776Y0266057D01*
X0286351Y0265667D01*
X0286916Y0265264D01*
X0287471Y0264846D01*
X0288016Y0264416D01*
X0288551Y0263972D01*
X0289074Y0263516D01*
X0289586Y0263047D01*
X0290087Y0262566D01*
X0290576Y0262073D01*
X0291053Y0261568D01*
X0291518Y0261052D01*
X0291970Y0260524D01*
X0292409Y0259986D01*
X0292835Y0259438D01*
X0293248Y0258879D01*
X0293647Y0258311D01*
X0294032Y0257733D01*
X0294403Y0257146D01*
X0294760Y0256550D01*
X0295102Y0255946D01*
X0295430Y0255334D01*
X0295743Y0254714D01*
X0296040Y0254086D01*
X0296323Y0253452D01*
X0296590Y0252811D01*
X0296841Y0252163D01*
X0297077Y0251510D01*
X0297297Y0250851D01*
X0297501Y0250187D01*
X0297688Y0249519D01*
X0297860Y0248846D01*
X0298015Y0248169D01*
X0298154Y0247488D01*
X0298276Y0246805D01*
X0298382Y0246118D01*
X0298471Y0245429D01*
X0298471Y0237555D02*
X0298377Y0236861D01*
X0298267Y0236170D01*
X0298139Y0235482D01*
X0297995Y0234797D01*
X0297835Y0234116D01*
X0297658Y0233439D01*
X0297465Y0232767D01*
X0297255Y0232099D01*
X0297030Y0231436D01*
X0296788Y0230780D01*
X0296531Y0230129D01*
X0296258Y0229484D01*
X0295970Y0228847D01*
X0295666Y0228216D01*
X0295347Y0227593D01*
X0295013Y0226978D01*
X0294665Y0226372D01*
X0294302Y0225773D01*
X0293924Y0225184D01*
X0293533Y0224604D01*
X0293127Y0224034D01*
X0292708Y0223474D01*
X0292275Y0222923D01*
X0291830Y0222384D01*
X0291371Y0221855D01*
X0290900Y0221338D01*
X0290416Y0220832D01*
X0289920Y0220339D01*
X0289413Y0219857D01*
X0288894Y0219387D01*
X0288364Y0218931D01*
X0287823Y0218487D01*
X0287271Y0218056D01*
X0286709Y0217639D01*
X0286137Y0217236D01*
X0285556Y0216846D01*
X0284965Y0216471D01*
X0284366Y0216110D01*
X0283758Y0215764D01*
X0283141Y0215432D01*
X0282517Y0215116D01*
X0281886Y0214814D01*
X0281247Y0214528D01*
X0280602Y0214258D01*
X0279950Y0214003D01*
X0279292Y0213764D01*
X0278629Y0213541D01*
X0277960Y0213334D01*
X0277287Y0213143D01*
X0276609Y0212969D01*
X0275928Y0212811D01*
X0275242Y0212669D01*
X0274554Y0212544D01*
X0273862Y0212436D01*
X0273169Y0212345D01*
X0272473Y0212270D01*
X0271775Y0212212D01*
X0271077Y0212171D01*
X0270378Y0212147D01*
X0269678Y0212140D01*
X0268978Y0212150D01*
X0268279Y0212176D01*
X0267580Y0212220D01*
X0266883Y0212280D01*
X0266188Y0212358D01*
X0272880Y0212358D02*
X0272185Y0212280D01*
X0271488Y0212220D01*
X0270789Y0212176D01*
X0270090Y0212150D01*
X0269390Y0212140D01*
X0268690Y0212147D01*
X0267991Y0212171D01*
X0267293Y0212212D01*
X0266595Y0212270D01*
X0265899Y0212345D01*
X0265206Y0212436D01*
X0264514Y0212544D01*
X0263826Y0212669D01*
X0263140Y0212811D01*
X0262459Y0212969D01*
X0261781Y0213143D01*
X0261108Y0213334D01*
X0260439Y0213541D01*
X0259776Y0213764D01*
X0259118Y0214003D01*
X0258466Y0214258D01*
X0257821Y0214528D01*
X0257182Y0214814D01*
X0256551Y0215116D01*
X0255927Y0215432D01*
X0255310Y0215764D01*
X0254702Y0216110D01*
X0254103Y0216471D01*
X0253512Y0216846D01*
X0252931Y0217236D01*
X0252359Y0217639D01*
X0251797Y0218056D01*
X0251245Y0218487D01*
X0250704Y0218931D01*
X0250174Y0219387D01*
X0249655Y0219857D01*
X0249148Y0220339D01*
X0248652Y0220832D01*
X0248168Y0221338D01*
X0247697Y0221855D01*
X0247238Y0222384D01*
X0246793Y0222923D01*
X0246360Y0223474D01*
X0245941Y0224034D01*
X0245535Y0224604D01*
X0245144Y0225184D01*
X0244766Y0225773D01*
X0244403Y0226372D01*
X0244055Y0226978D01*
X0243721Y0227593D01*
X0243402Y0228216D01*
X0243098Y0228847D01*
X0242810Y0229484D01*
X0242537Y0230129D01*
X0242280Y0230780D01*
X0242038Y0231436D01*
X0241813Y0232099D01*
X0241603Y0232767D01*
X0241410Y0233439D01*
X0241233Y0234116D01*
X0241073Y0234797D01*
X0240929Y0235482D01*
X0240801Y0236170D01*
X0240691Y0236861D01*
X0240597Y0237555D01*
D15*
X0244140Y0236768D02*
X0244140Y0213539D01*
X0244140Y0246217D02*
X0244140Y0269051D01*
X0055337Y0188992D02*
X0055337Y0138992D01*
D16*
X0052774Y0092240D02*
X0052778Y0092530D01*
X0052788Y0092820D01*
X0052806Y0093109D01*
X0052831Y0093398D01*
X0052863Y0093686D01*
X0052902Y0093973D01*
X0052948Y0094259D01*
X0053001Y0094544D01*
X0053061Y0094828D01*
X0053128Y0095110D01*
X0053202Y0095390D01*
X0053283Y0095669D01*
X0053370Y0095945D01*
X0053464Y0096219D01*
X0053565Y0096491D01*
X0053673Y0096760D01*
X0053787Y0097026D01*
X0053908Y0097290D01*
X0054035Y0097550D01*
X0054169Y0097808D01*
X0054308Y0098062D01*
X0054454Y0098312D01*
X0054606Y0098559D01*
X0054765Y0098802D01*
X0054929Y0099041D01*
X0055098Y0099276D01*
X0055274Y0099507D01*
X0055455Y0099733D01*
X0055642Y0099955D01*
X0055834Y0100172D01*
X0056031Y0100384D01*
X0056233Y0100592D01*
X0056441Y0100794D01*
X0056653Y0100991D01*
X0056870Y0101183D01*
X0057092Y0101370D01*
X0057318Y0101551D01*
X0057549Y0101727D01*
X0057784Y0101896D01*
X0058023Y0102060D01*
X0058266Y0102219D01*
X0058513Y0102371D01*
X0058763Y0102517D01*
X0059017Y0102656D01*
X0059275Y0102790D01*
X0059535Y0102917D01*
X0059799Y0103038D01*
X0060065Y0103152D01*
X0060334Y0103260D01*
X0060606Y0103361D01*
X0060880Y0103455D01*
X0061156Y0103542D01*
X0061435Y0103623D01*
X0061715Y0103697D01*
X0061997Y0103764D01*
X0062281Y0103824D01*
X0062566Y0103877D01*
X0062852Y0103923D01*
X0063139Y0103962D01*
X0063427Y0103994D01*
X0063716Y0104019D01*
X0064005Y0104037D01*
X0064295Y0104047D01*
X0064585Y0104051D01*
X0064875Y0104047D01*
X0065165Y0104037D01*
X0065454Y0104019D01*
X0065743Y0103994D01*
X0066031Y0103962D01*
X0066318Y0103923D01*
X0066604Y0103877D01*
X0066889Y0103824D01*
X0067173Y0103764D01*
X0067455Y0103697D01*
X0067735Y0103623D01*
X0068014Y0103542D01*
X0068290Y0103455D01*
X0068564Y0103361D01*
X0068836Y0103260D01*
X0069105Y0103152D01*
X0069371Y0103038D01*
X0069635Y0102917D01*
X0069895Y0102790D01*
X0070153Y0102656D01*
X0070407Y0102517D01*
X0070657Y0102371D01*
X0070904Y0102219D01*
X0071147Y0102060D01*
X0071386Y0101896D01*
X0071621Y0101727D01*
X0071852Y0101551D01*
X0072078Y0101370D01*
X0072300Y0101183D01*
X0072517Y0100991D01*
X0072729Y0100794D01*
X0072937Y0100592D01*
X0073139Y0100384D01*
X0073336Y0100172D01*
X0073528Y0099955D01*
X0073715Y0099733D01*
X0073896Y0099507D01*
X0074072Y0099276D01*
X0074241Y0099041D01*
X0074405Y0098802D01*
X0074564Y0098559D01*
X0074716Y0098312D01*
X0074862Y0098062D01*
X0075001Y0097808D01*
X0075135Y0097550D01*
X0075262Y0097290D01*
X0075383Y0097026D01*
X0075497Y0096760D01*
X0075605Y0096491D01*
X0075706Y0096219D01*
X0075800Y0095945D01*
X0075887Y0095669D01*
X0075968Y0095390D01*
X0076042Y0095110D01*
X0076109Y0094828D01*
X0076169Y0094544D01*
X0076222Y0094259D01*
X0076268Y0093973D01*
X0076307Y0093686D01*
X0076339Y0093398D01*
X0076364Y0093109D01*
X0076382Y0092820D01*
X0076392Y0092530D01*
X0076396Y0092240D01*
X0076392Y0091950D01*
X0076382Y0091660D01*
X0076364Y0091371D01*
X0076339Y0091082D01*
X0076307Y0090794D01*
X0076268Y0090507D01*
X0076222Y0090221D01*
X0076169Y0089936D01*
X0076109Y0089652D01*
X0076042Y0089370D01*
X0075968Y0089090D01*
X0075887Y0088811D01*
X0075800Y0088535D01*
X0075706Y0088261D01*
X0075605Y0087989D01*
X0075497Y0087720D01*
X0075383Y0087454D01*
X0075262Y0087190D01*
X0075135Y0086930D01*
X0075001Y0086672D01*
X0074862Y0086418D01*
X0074716Y0086168D01*
X0074564Y0085921D01*
X0074405Y0085678D01*
X0074241Y0085439D01*
X0074072Y0085204D01*
X0073896Y0084973D01*
X0073715Y0084747D01*
X0073528Y0084525D01*
X0073336Y0084308D01*
X0073139Y0084096D01*
X0072937Y0083888D01*
X0072729Y0083686D01*
X0072517Y0083489D01*
X0072300Y0083297D01*
X0072078Y0083110D01*
X0071852Y0082929D01*
X0071621Y0082753D01*
X0071386Y0082584D01*
X0071147Y0082420D01*
X0070904Y0082261D01*
X0070657Y0082109D01*
X0070407Y0081963D01*
X0070153Y0081824D01*
X0069895Y0081690D01*
X0069635Y0081563D01*
X0069371Y0081442D01*
X0069105Y0081328D01*
X0068836Y0081220D01*
X0068564Y0081119D01*
X0068290Y0081025D01*
X0068014Y0080938D01*
X0067735Y0080857D01*
X0067455Y0080783D01*
X0067173Y0080716D01*
X0066889Y0080656D01*
X0066604Y0080603D01*
X0066318Y0080557D01*
X0066031Y0080518D01*
X0065743Y0080486D01*
X0065454Y0080461D01*
X0065165Y0080443D01*
X0064875Y0080433D01*
X0064585Y0080429D01*
X0064295Y0080433D01*
X0064005Y0080443D01*
X0063716Y0080461D01*
X0063427Y0080486D01*
X0063139Y0080518D01*
X0062852Y0080557D01*
X0062566Y0080603D01*
X0062281Y0080656D01*
X0061997Y0080716D01*
X0061715Y0080783D01*
X0061435Y0080857D01*
X0061156Y0080938D01*
X0060880Y0081025D01*
X0060606Y0081119D01*
X0060334Y0081220D01*
X0060065Y0081328D01*
X0059799Y0081442D01*
X0059535Y0081563D01*
X0059275Y0081690D01*
X0059017Y0081824D01*
X0058763Y0081963D01*
X0058513Y0082109D01*
X0058266Y0082261D01*
X0058023Y0082420D01*
X0057784Y0082584D01*
X0057549Y0082753D01*
X0057318Y0082929D01*
X0057092Y0083110D01*
X0056870Y0083297D01*
X0056653Y0083489D01*
X0056441Y0083686D01*
X0056233Y0083888D01*
X0056031Y0084096D01*
X0055834Y0084308D01*
X0055642Y0084525D01*
X0055455Y0084747D01*
X0055274Y0084973D01*
X0055098Y0085204D01*
X0054929Y0085439D01*
X0054765Y0085678D01*
X0054606Y0085921D01*
X0054454Y0086168D01*
X0054308Y0086418D01*
X0054169Y0086672D01*
X0054035Y0086930D01*
X0053908Y0087190D01*
X0053787Y0087454D01*
X0053673Y0087720D01*
X0053565Y0087989D01*
X0053464Y0088261D01*
X0053370Y0088535D01*
X0053283Y0088811D01*
X0053202Y0089090D01*
X0053128Y0089370D01*
X0053061Y0089652D01*
X0053001Y0089936D01*
X0052948Y0090221D01*
X0052902Y0090507D01*
X0052863Y0090794D01*
X0052831Y0091082D01*
X0052806Y0091371D01*
X0052788Y0091660D01*
X0052778Y0091950D01*
X0052774Y0092240D01*
X0052774Y0257594D02*
X0052778Y0257884D01*
X0052788Y0258174D01*
X0052806Y0258463D01*
X0052831Y0258752D01*
X0052863Y0259040D01*
X0052902Y0259327D01*
X0052948Y0259613D01*
X0053001Y0259898D01*
X0053061Y0260182D01*
X0053128Y0260464D01*
X0053202Y0260744D01*
X0053283Y0261023D01*
X0053370Y0261299D01*
X0053464Y0261573D01*
X0053565Y0261845D01*
X0053673Y0262114D01*
X0053787Y0262380D01*
X0053908Y0262644D01*
X0054035Y0262904D01*
X0054169Y0263162D01*
X0054308Y0263416D01*
X0054454Y0263666D01*
X0054606Y0263913D01*
X0054765Y0264156D01*
X0054929Y0264395D01*
X0055098Y0264630D01*
X0055274Y0264861D01*
X0055455Y0265087D01*
X0055642Y0265309D01*
X0055834Y0265526D01*
X0056031Y0265738D01*
X0056233Y0265946D01*
X0056441Y0266148D01*
X0056653Y0266345D01*
X0056870Y0266537D01*
X0057092Y0266724D01*
X0057318Y0266905D01*
X0057549Y0267081D01*
X0057784Y0267250D01*
X0058023Y0267414D01*
X0058266Y0267573D01*
X0058513Y0267725D01*
X0058763Y0267871D01*
X0059017Y0268010D01*
X0059275Y0268144D01*
X0059535Y0268271D01*
X0059799Y0268392D01*
X0060065Y0268506D01*
X0060334Y0268614D01*
X0060606Y0268715D01*
X0060880Y0268809D01*
X0061156Y0268896D01*
X0061435Y0268977D01*
X0061715Y0269051D01*
X0061997Y0269118D01*
X0062281Y0269178D01*
X0062566Y0269231D01*
X0062852Y0269277D01*
X0063139Y0269316D01*
X0063427Y0269348D01*
X0063716Y0269373D01*
X0064005Y0269391D01*
X0064295Y0269401D01*
X0064585Y0269405D01*
X0064875Y0269401D01*
X0065165Y0269391D01*
X0065454Y0269373D01*
X0065743Y0269348D01*
X0066031Y0269316D01*
X0066318Y0269277D01*
X0066604Y0269231D01*
X0066889Y0269178D01*
X0067173Y0269118D01*
X0067455Y0269051D01*
X0067735Y0268977D01*
X0068014Y0268896D01*
X0068290Y0268809D01*
X0068564Y0268715D01*
X0068836Y0268614D01*
X0069105Y0268506D01*
X0069371Y0268392D01*
X0069635Y0268271D01*
X0069895Y0268144D01*
X0070153Y0268010D01*
X0070407Y0267871D01*
X0070657Y0267725D01*
X0070904Y0267573D01*
X0071147Y0267414D01*
X0071386Y0267250D01*
X0071621Y0267081D01*
X0071852Y0266905D01*
X0072078Y0266724D01*
X0072300Y0266537D01*
X0072517Y0266345D01*
X0072729Y0266148D01*
X0072937Y0265946D01*
X0073139Y0265738D01*
X0073336Y0265526D01*
X0073528Y0265309D01*
X0073715Y0265087D01*
X0073896Y0264861D01*
X0074072Y0264630D01*
X0074241Y0264395D01*
X0074405Y0264156D01*
X0074564Y0263913D01*
X0074716Y0263666D01*
X0074862Y0263416D01*
X0075001Y0263162D01*
X0075135Y0262904D01*
X0075262Y0262644D01*
X0075383Y0262380D01*
X0075497Y0262114D01*
X0075605Y0261845D01*
X0075706Y0261573D01*
X0075800Y0261299D01*
X0075887Y0261023D01*
X0075968Y0260744D01*
X0076042Y0260464D01*
X0076109Y0260182D01*
X0076169Y0259898D01*
X0076222Y0259613D01*
X0076268Y0259327D01*
X0076307Y0259040D01*
X0076339Y0258752D01*
X0076364Y0258463D01*
X0076382Y0258174D01*
X0076392Y0257884D01*
X0076396Y0257594D01*
X0076392Y0257304D01*
X0076382Y0257014D01*
X0076364Y0256725D01*
X0076339Y0256436D01*
X0076307Y0256148D01*
X0076268Y0255861D01*
X0076222Y0255575D01*
X0076169Y0255290D01*
X0076109Y0255006D01*
X0076042Y0254724D01*
X0075968Y0254444D01*
X0075887Y0254165D01*
X0075800Y0253889D01*
X0075706Y0253615D01*
X0075605Y0253343D01*
X0075497Y0253074D01*
X0075383Y0252808D01*
X0075262Y0252544D01*
X0075135Y0252284D01*
X0075001Y0252026D01*
X0074862Y0251772D01*
X0074716Y0251522D01*
X0074564Y0251275D01*
X0074405Y0251032D01*
X0074241Y0250793D01*
X0074072Y0250558D01*
X0073896Y0250327D01*
X0073715Y0250101D01*
X0073528Y0249879D01*
X0073336Y0249662D01*
X0073139Y0249450D01*
X0072937Y0249242D01*
X0072729Y0249040D01*
X0072517Y0248843D01*
X0072300Y0248651D01*
X0072078Y0248464D01*
X0071852Y0248283D01*
X0071621Y0248107D01*
X0071386Y0247938D01*
X0071147Y0247774D01*
X0070904Y0247615D01*
X0070657Y0247463D01*
X0070407Y0247317D01*
X0070153Y0247178D01*
X0069895Y0247044D01*
X0069635Y0246917D01*
X0069371Y0246796D01*
X0069105Y0246682D01*
X0068836Y0246574D01*
X0068564Y0246473D01*
X0068290Y0246379D01*
X0068014Y0246292D01*
X0067735Y0246211D01*
X0067455Y0246137D01*
X0067173Y0246070D01*
X0066889Y0246010D01*
X0066604Y0245957D01*
X0066318Y0245911D01*
X0066031Y0245872D01*
X0065743Y0245840D01*
X0065454Y0245815D01*
X0065165Y0245797D01*
X0064875Y0245787D01*
X0064585Y0245783D01*
X0064295Y0245787D01*
X0064005Y0245797D01*
X0063716Y0245815D01*
X0063427Y0245840D01*
X0063139Y0245872D01*
X0062852Y0245911D01*
X0062566Y0245957D01*
X0062281Y0246010D01*
X0061997Y0246070D01*
X0061715Y0246137D01*
X0061435Y0246211D01*
X0061156Y0246292D01*
X0060880Y0246379D01*
X0060606Y0246473D01*
X0060334Y0246574D01*
X0060065Y0246682D01*
X0059799Y0246796D01*
X0059535Y0246917D01*
X0059275Y0247044D01*
X0059017Y0247178D01*
X0058763Y0247317D01*
X0058513Y0247463D01*
X0058266Y0247615D01*
X0058023Y0247774D01*
X0057784Y0247938D01*
X0057549Y0248107D01*
X0057318Y0248283D01*
X0057092Y0248464D01*
X0056870Y0248651D01*
X0056653Y0248843D01*
X0056441Y0249040D01*
X0056233Y0249242D01*
X0056031Y0249450D01*
X0055834Y0249662D01*
X0055642Y0249879D01*
X0055455Y0250101D01*
X0055274Y0250327D01*
X0055098Y0250558D01*
X0054929Y0250793D01*
X0054765Y0251032D01*
X0054606Y0251275D01*
X0054454Y0251522D01*
X0054308Y0251772D01*
X0054169Y0252026D01*
X0054035Y0252284D01*
X0053908Y0252544D01*
X0053787Y0252808D01*
X0053673Y0253074D01*
X0053565Y0253343D01*
X0053464Y0253615D01*
X0053370Y0253889D01*
X0053283Y0254165D01*
X0053202Y0254444D01*
X0053128Y0254724D01*
X0053061Y0255006D01*
X0053001Y0255290D01*
X0052948Y0255575D01*
X0052902Y0255861D01*
X0052863Y0256148D01*
X0052831Y0256436D01*
X0052806Y0256725D01*
X0052788Y0257014D01*
X0052778Y0257304D01*
X0052774Y0257594D01*
X0316554Y0257594D02*
X0316558Y0257884D01*
X0316568Y0258174D01*
X0316586Y0258463D01*
X0316611Y0258752D01*
X0316643Y0259040D01*
X0316682Y0259327D01*
X0316728Y0259613D01*
X0316781Y0259898D01*
X0316841Y0260182D01*
X0316908Y0260464D01*
X0316982Y0260744D01*
X0317063Y0261023D01*
X0317150Y0261299D01*
X0317244Y0261573D01*
X0317345Y0261845D01*
X0317453Y0262114D01*
X0317567Y0262380D01*
X0317688Y0262644D01*
X0317815Y0262904D01*
X0317949Y0263162D01*
X0318088Y0263416D01*
X0318234Y0263666D01*
X0318386Y0263913D01*
X0318545Y0264156D01*
X0318709Y0264395D01*
X0318878Y0264630D01*
X0319054Y0264861D01*
X0319235Y0265087D01*
X0319422Y0265309D01*
X0319614Y0265526D01*
X0319811Y0265738D01*
X0320013Y0265946D01*
X0320221Y0266148D01*
X0320433Y0266345D01*
X0320650Y0266537D01*
X0320872Y0266724D01*
X0321098Y0266905D01*
X0321329Y0267081D01*
X0321564Y0267250D01*
X0321803Y0267414D01*
X0322046Y0267573D01*
X0322293Y0267725D01*
X0322543Y0267871D01*
X0322797Y0268010D01*
X0323055Y0268144D01*
X0323315Y0268271D01*
X0323579Y0268392D01*
X0323845Y0268506D01*
X0324114Y0268614D01*
X0324386Y0268715D01*
X0324660Y0268809D01*
X0324936Y0268896D01*
X0325215Y0268977D01*
X0325495Y0269051D01*
X0325777Y0269118D01*
X0326061Y0269178D01*
X0326346Y0269231D01*
X0326632Y0269277D01*
X0326919Y0269316D01*
X0327207Y0269348D01*
X0327496Y0269373D01*
X0327785Y0269391D01*
X0328075Y0269401D01*
X0328365Y0269405D01*
X0328655Y0269401D01*
X0328945Y0269391D01*
X0329234Y0269373D01*
X0329523Y0269348D01*
X0329811Y0269316D01*
X0330098Y0269277D01*
X0330384Y0269231D01*
X0330669Y0269178D01*
X0330953Y0269118D01*
X0331235Y0269051D01*
X0331515Y0268977D01*
X0331794Y0268896D01*
X0332070Y0268809D01*
X0332344Y0268715D01*
X0332616Y0268614D01*
X0332885Y0268506D01*
X0333151Y0268392D01*
X0333415Y0268271D01*
X0333675Y0268144D01*
X0333933Y0268010D01*
X0334187Y0267871D01*
X0334437Y0267725D01*
X0334684Y0267573D01*
X0334927Y0267414D01*
X0335166Y0267250D01*
X0335401Y0267081D01*
X0335632Y0266905D01*
X0335858Y0266724D01*
X0336080Y0266537D01*
X0336297Y0266345D01*
X0336509Y0266148D01*
X0336717Y0265946D01*
X0336919Y0265738D01*
X0337116Y0265526D01*
X0337308Y0265309D01*
X0337495Y0265087D01*
X0337676Y0264861D01*
X0337852Y0264630D01*
X0338021Y0264395D01*
X0338185Y0264156D01*
X0338344Y0263913D01*
X0338496Y0263666D01*
X0338642Y0263416D01*
X0338781Y0263162D01*
X0338915Y0262904D01*
X0339042Y0262644D01*
X0339163Y0262380D01*
X0339277Y0262114D01*
X0339385Y0261845D01*
X0339486Y0261573D01*
X0339580Y0261299D01*
X0339667Y0261023D01*
X0339748Y0260744D01*
X0339822Y0260464D01*
X0339889Y0260182D01*
X0339949Y0259898D01*
X0340002Y0259613D01*
X0340048Y0259327D01*
X0340087Y0259040D01*
X0340119Y0258752D01*
X0340144Y0258463D01*
X0340162Y0258174D01*
X0340172Y0257884D01*
X0340176Y0257594D01*
X0340172Y0257304D01*
X0340162Y0257014D01*
X0340144Y0256725D01*
X0340119Y0256436D01*
X0340087Y0256148D01*
X0340048Y0255861D01*
X0340002Y0255575D01*
X0339949Y0255290D01*
X0339889Y0255006D01*
X0339822Y0254724D01*
X0339748Y0254444D01*
X0339667Y0254165D01*
X0339580Y0253889D01*
X0339486Y0253615D01*
X0339385Y0253343D01*
X0339277Y0253074D01*
X0339163Y0252808D01*
X0339042Y0252544D01*
X0338915Y0252284D01*
X0338781Y0252026D01*
X0338642Y0251772D01*
X0338496Y0251522D01*
X0338344Y0251275D01*
X0338185Y0251032D01*
X0338021Y0250793D01*
X0337852Y0250558D01*
X0337676Y0250327D01*
X0337495Y0250101D01*
X0337308Y0249879D01*
X0337116Y0249662D01*
X0336919Y0249450D01*
X0336717Y0249242D01*
X0336509Y0249040D01*
X0336297Y0248843D01*
X0336080Y0248651D01*
X0335858Y0248464D01*
X0335632Y0248283D01*
X0335401Y0248107D01*
X0335166Y0247938D01*
X0334927Y0247774D01*
X0334684Y0247615D01*
X0334437Y0247463D01*
X0334187Y0247317D01*
X0333933Y0247178D01*
X0333675Y0247044D01*
X0333415Y0246917D01*
X0333151Y0246796D01*
X0332885Y0246682D01*
X0332616Y0246574D01*
X0332344Y0246473D01*
X0332070Y0246379D01*
X0331794Y0246292D01*
X0331515Y0246211D01*
X0331235Y0246137D01*
X0330953Y0246070D01*
X0330669Y0246010D01*
X0330384Y0245957D01*
X0330098Y0245911D01*
X0329811Y0245872D01*
X0329523Y0245840D01*
X0329234Y0245815D01*
X0328945Y0245797D01*
X0328655Y0245787D01*
X0328365Y0245783D01*
X0328075Y0245787D01*
X0327785Y0245797D01*
X0327496Y0245815D01*
X0327207Y0245840D01*
X0326919Y0245872D01*
X0326632Y0245911D01*
X0326346Y0245957D01*
X0326061Y0246010D01*
X0325777Y0246070D01*
X0325495Y0246137D01*
X0325215Y0246211D01*
X0324936Y0246292D01*
X0324660Y0246379D01*
X0324386Y0246473D01*
X0324114Y0246574D01*
X0323845Y0246682D01*
X0323579Y0246796D01*
X0323315Y0246917D01*
X0323055Y0247044D01*
X0322797Y0247178D01*
X0322543Y0247317D01*
X0322293Y0247463D01*
X0322046Y0247615D01*
X0321803Y0247774D01*
X0321564Y0247938D01*
X0321329Y0248107D01*
X0321098Y0248283D01*
X0320872Y0248464D01*
X0320650Y0248651D01*
X0320433Y0248843D01*
X0320221Y0249040D01*
X0320013Y0249242D01*
X0319811Y0249450D01*
X0319614Y0249662D01*
X0319422Y0249879D01*
X0319235Y0250101D01*
X0319054Y0250327D01*
X0318878Y0250558D01*
X0318709Y0250793D01*
X0318545Y0251032D01*
X0318386Y0251275D01*
X0318234Y0251522D01*
X0318088Y0251772D01*
X0317949Y0252026D01*
X0317815Y0252284D01*
X0317688Y0252544D01*
X0317567Y0252808D01*
X0317453Y0253074D01*
X0317345Y0253343D01*
X0317244Y0253615D01*
X0317150Y0253889D01*
X0317063Y0254165D01*
X0316982Y0254444D01*
X0316908Y0254724D01*
X0316841Y0255006D01*
X0316781Y0255290D01*
X0316728Y0255575D01*
X0316682Y0255861D01*
X0316643Y0256148D01*
X0316611Y0256436D01*
X0316586Y0256725D01*
X0316568Y0257014D01*
X0316558Y0257304D01*
X0316554Y0257594D01*
X0316554Y0092240D02*
X0316558Y0092530D01*
X0316568Y0092820D01*
X0316586Y0093109D01*
X0316611Y0093398D01*
X0316643Y0093686D01*
X0316682Y0093973D01*
X0316728Y0094259D01*
X0316781Y0094544D01*
X0316841Y0094828D01*
X0316908Y0095110D01*
X0316982Y0095390D01*
X0317063Y0095669D01*
X0317150Y0095945D01*
X0317244Y0096219D01*
X0317345Y0096491D01*
X0317453Y0096760D01*
X0317567Y0097026D01*
X0317688Y0097290D01*
X0317815Y0097550D01*
X0317949Y0097808D01*
X0318088Y0098062D01*
X0318234Y0098312D01*
X0318386Y0098559D01*
X0318545Y0098802D01*
X0318709Y0099041D01*
X0318878Y0099276D01*
X0319054Y0099507D01*
X0319235Y0099733D01*
X0319422Y0099955D01*
X0319614Y0100172D01*
X0319811Y0100384D01*
X0320013Y0100592D01*
X0320221Y0100794D01*
X0320433Y0100991D01*
X0320650Y0101183D01*
X0320872Y0101370D01*
X0321098Y0101551D01*
X0321329Y0101727D01*
X0321564Y0101896D01*
X0321803Y0102060D01*
X0322046Y0102219D01*
X0322293Y0102371D01*
X0322543Y0102517D01*
X0322797Y0102656D01*
X0323055Y0102790D01*
X0323315Y0102917D01*
X0323579Y0103038D01*
X0323845Y0103152D01*
X0324114Y0103260D01*
X0324386Y0103361D01*
X0324660Y0103455D01*
X0324936Y0103542D01*
X0325215Y0103623D01*
X0325495Y0103697D01*
X0325777Y0103764D01*
X0326061Y0103824D01*
X0326346Y0103877D01*
X0326632Y0103923D01*
X0326919Y0103962D01*
X0327207Y0103994D01*
X0327496Y0104019D01*
X0327785Y0104037D01*
X0328075Y0104047D01*
X0328365Y0104051D01*
X0328655Y0104047D01*
X0328945Y0104037D01*
X0329234Y0104019D01*
X0329523Y0103994D01*
X0329811Y0103962D01*
X0330098Y0103923D01*
X0330384Y0103877D01*
X0330669Y0103824D01*
X0330953Y0103764D01*
X0331235Y0103697D01*
X0331515Y0103623D01*
X0331794Y0103542D01*
X0332070Y0103455D01*
X0332344Y0103361D01*
X0332616Y0103260D01*
X0332885Y0103152D01*
X0333151Y0103038D01*
X0333415Y0102917D01*
X0333675Y0102790D01*
X0333933Y0102656D01*
X0334187Y0102517D01*
X0334437Y0102371D01*
X0334684Y0102219D01*
X0334927Y0102060D01*
X0335166Y0101896D01*
X0335401Y0101727D01*
X0335632Y0101551D01*
X0335858Y0101370D01*
X0336080Y0101183D01*
X0336297Y0100991D01*
X0336509Y0100794D01*
X0336717Y0100592D01*
X0336919Y0100384D01*
X0337116Y0100172D01*
X0337308Y0099955D01*
X0337495Y0099733D01*
X0337676Y0099507D01*
X0337852Y0099276D01*
X0338021Y0099041D01*
X0338185Y0098802D01*
X0338344Y0098559D01*
X0338496Y0098312D01*
X0338642Y0098062D01*
X0338781Y0097808D01*
X0338915Y0097550D01*
X0339042Y0097290D01*
X0339163Y0097026D01*
X0339277Y0096760D01*
X0339385Y0096491D01*
X0339486Y0096219D01*
X0339580Y0095945D01*
X0339667Y0095669D01*
X0339748Y0095390D01*
X0339822Y0095110D01*
X0339889Y0094828D01*
X0339949Y0094544D01*
X0340002Y0094259D01*
X0340048Y0093973D01*
X0340087Y0093686D01*
X0340119Y0093398D01*
X0340144Y0093109D01*
X0340162Y0092820D01*
X0340172Y0092530D01*
X0340176Y0092240D01*
X0340172Y0091950D01*
X0340162Y0091660D01*
X0340144Y0091371D01*
X0340119Y0091082D01*
X0340087Y0090794D01*
X0340048Y0090507D01*
X0340002Y0090221D01*
X0339949Y0089936D01*
X0339889Y0089652D01*
X0339822Y0089370D01*
X0339748Y0089090D01*
X0339667Y0088811D01*
X0339580Y0088535D01*
X0339486Y0088261D01*
X0339385Y0087989D01*
X0339277Y0087720D01*
X0339163Y0087454D01*
X0339042Y0087190D01*
X0338915Y0086930D01*
X0338781Y0086672D01*
X0338642Y0086418D01*
X0338496Y0086168D01*
X0338344Y0085921D01*
X0338185Y0085678D01*
X0338021Y0085439D01*
X0337852Y0085204D01*
X0337676Y0084973D01*
X0337495Y0084747D01*
X0337308Y0084525D01*
X0337116Y0084308D01*
X0336919Y0084096D01*
X0336717Y0083888D01*
X0336509Y0083686D01*
X0336297Y0083489D01*
X0336080Y0083297D01*
X0335858Y0083110D01*
X0335632Y0082929D01*
X0335401Y0082753D01*
X0335166Y0082584D01*
X0334927Y0082420D01*
X0334684Y0082261D01*
X0334437Y0082109D01*
X0334187Y0081963D01*
X0333933Y0081824D01*
X0333675Y0081690D01*
X0333415Y0081563D01*
X0333151Y0081442D01*
X0332885Y0081328D01*
X0332616Y0081220D01*
X0332344Y0081119D01*
X0332070Y0081025D01*
X0331794Y0080938D01*
X0331515Y0080857D01*
X0331235Y0080783D01*
X0330953Y0080716D01*
X0330669Y0080656D01*
X0330384Y0080603D01*
X0330098Y0080557D01*
X0329811Y0080518D01*
X0329523Y0080486D01*
X0329234Y0080461D01*
X0328945Y0080443D01*
X0328655Y0080433D01*
X0328365Y0080429D01*
X0328075Y0080433D01*
X0327785Y0080443D01*
X0327496Y0080461D01*
X0327207Y0080486D01*
X0326919Y0080518D01*
X0326632Y0080557D01*
X0326346Y0080603D01*
X0326061Y0080656D01*
X0325777Y0080716D01*
X0325495Y0080783D01*
X0325215Y0080857D01*
X0324936Y0080938D01*
X0324660Y0081025D01*
X0324386Y0081119D01*
X0324114Y0081220D01*
X0323845Y0081328D01*
X0323579Y0081442D01*
X0323315Y0081563D01*
X0323055Y0081690D01*
X0322797Y0081824D01*
X0322543Y0081963D01*
X0322293Y0082109D01*
X0322046Y0082261D01*
X0321803Y0082420D01*
X0321564Y0082584D01*
X0321329Y0082753D01*
X0321098Y0082929D01*
X0320872Y0083110D01*
X0320650Y0083297D01*
X0320433Y0083489D01*
X0320221Y0083686D01*
X0320013Y0083888D01*
X0319811Y0084096D01*
X0319614Y0084308D01*
X0319422Y0084525D01*
X0319235Y0084747D01*
X0319054Y0084973D01*
X0318878Y0085204D01*
X0318709Y0085439D01*
X0318545Y0085678D01*
X0318386Y0085921D01*
X0318234Y0086168D01*
X0318088Y0086418D01*
X0317949Y0086672D01*
X0317815Y0086930D01*
X0317688Y0087190D01*
X0317567Y0087454D01*
X0317453Y0087720D01*
X0317345Y0087989D01*
X0317244Y0088261D01*
X0317150Y0088535D01*
X0317063Y0088811D01*
X0316982Y0089090D01*
X0316908Y0089370D01*
X0316841Y0089652D01*
X0316781Y0089936D01*
X0316728Y0090221D01*
X0316682Y0090507D01*
X0316643Y0090794D01*
X0316611Y0091082D01*
X0316586Y0091371D01*
X0316568Y0091660D01*
X0316558Y0091950D01*
X0316554Y0092240D01*
D17*
X0197955Y0093685D02*
X0193231Y0093685D01*
X0187522Y0093685D01*
X0193034Y0093685D02*
X0193231Y0093685D01*
X0201498Y0086992D02*
X0201491Y0086790D01*
X0201480Y0086589D01*
X0201465Y0086388D01*
X0201444Y0086188D01*
X0201419Y0085988D01*
X0201388Y0085789D01*
X0201353Y0085591D01*
X0201314Y0085393D01*
X0201269Y0085197D01*
X0201220Y0085001D01*
X0201166Y0084807D01*
X0201107Y0084614D01*
X0201044Y0084423D01*
X0200977Y0084233D01*
X0200904Y0084045D01*
X0200828Y0083859D01*
X0200746Y0083675D01*
X0200661Y0083492D01*
X0200571Y0083312D01*
X0200477Y0083134D01*
X0200378Y0082958D01*
X0200275Y0082785D01*
X0200169Y0082614D01*
X0200058Y0082446D01*
X0199943Y0082281D01*
X0199824Y0082118D01*
X0199701Y0081958D01*
X0199575Y0081801D01*
X0199444Y0081648D01*
X0199311Y0081497D01*
X0199173Y0081350D01*
X0199032Y0081206D01*
X0198888Y0081066D01*
X0198740Y0080929D01*
X0198589Y0080795D01*
X0198435Y0080666D01*
X0198278Y0080540D01*
X0198118Y0080417D01*
X0197954Y0080299D01*
X0197955Y0080299D02*
X0192837Y0080299D01*
X0187522Y0080299D01*
X0184176Y0086992D02*
X0184180Y0087196D01*
X0184188Y0087400D01*
X0184201Y0087604D01*
X0184219Y0087807D01*
X0184242Y0088010D01*
X0184270Y0088212D01*
X0184303Y0088413D01*
X0184341Y0088614D01*
X0184383Y0088813D01*
X0184431Y0089012D01*
X0184483Y0089209D01*
X0184540Y0089405D01*
X0184601Y0089599D01*
X0184668Y0089792D01*
X0184738Y0089983D01*
X0184814Y0090173D01*
X0184894Y0090361D01*
X0184979Y0090546D01*
X0185068Y0090730D01*
X0185161Y0090911D01*
X0185259Y0091090D01*
X0185361Y0091267D01*
X0185467Y0091441D01*
X0185578Y0091612D01*
X0185692Y0091781D01*
X0185811Y0091947D01*
X0185933Y0092110D01*
X0186060Y0092270D01*
X0186190Y0092427D01*
X0186324Y0092581D01*
X0186462Y0092731D01*
X0186604Y0092878D01*
X0186748Y0093022D01*
X0186897Y0093162D01*
X0187048Y0093298D01*
X0187203Y0093431D01*
X0187361Y0093560D01*
X0187522Y0093685D01*
X0184176Y0086993D02*
X0184180Y0086789D01*
X0184188Y0086585D01*
X0184201Y0086381D01*
X0184219Y0086178D01*
X0184242Y0085975D01*
X0184270Y0085773D01*
X0184303Y0085572D01*
X0184341Y0085371D01*
X0184383Y0085172D01*
X0184431Y0084973D01*
X0184483Y0084776D01*
X0184540Y0084580D01*
X0184601Y0084386D01*
X0184668Y0084193D01*
X0184738Y0084002D01*
X0184814Y0083812D01*
X0184894Y0083624D01*
X0184979Y0083439D01*
X0185068Y0083255D01*
X0185161Y0083074D01*
X0185259Y0082895D01*
X0185361Y0082718D01*
X0185467Y0082544D01*
X0185578Y0082373D01*
X0185692Y0082204D01*
X0185811Y0082038D01*
X0185933Y0081875D01*
X0186060Y0081715D01*
X0186190Y0081558D01*
X0186324Y0081404D01*
X0186462Y0081254D01*
X0186604Y0081107D01*
X0186748Y0080963D01*
X0186897Y0080823D01*
X0187048Y0080687D01*
X0187203Y0080554D01*
X0187361Y0080425D01*
X0187522Y0080300D01*
X0201499Y0086992D02*
X0201490Y0087198D01*
X0201477Y0087404D01*
X0201459Y0087610D01*
X0201436Y0087815D01*
X0201408Y0088019D01*
X0201375Y0088223D01*
X0201337Y0088426D01*
X0201294Y0088628D01*
X0201246Y0088829D01*
X0201194Y0089029D01*
X0201136Y0089227D01*
X0201074Y0089424D01*
X0201007Y0089619D01*
X0200936Y0089813D01*
X0200859Y0090005D01*
X0200778Y0090195D01*
X0200693Y0090383D01*
X0200603Y0090568D01*
X0200509Y0090752D01*
X0200410Y0090933D01*
X0200307Y0091112D01*
X0200199Y0091288D01*
X0200088Y0091462D01*
X0199972Y0091633D01*
X0199852Y0091801D01*
X0199728Y0091966D01*
X0199600Y0092128D01*
X0199468Y0092287D01*
X0199333Y0092443D01*
X0199193Y0092595D01*
X0199051Y0092744D01*
X0198904Y0092890D01*
X0198754Y0093032D01*
X0198601Y0093170D01*
X0198444Y0093304D01*
X0198284Y0093435D01*
X0198121Y0093562D01*
X0197955Y0093685D01*
M02*
